*
G04 Job   : G:\ZEROSERO7\PCB\SPY_TALK\PCB\PCB.pcb*
G04 User  : DESKTOP-D6MOGOB:alexis*
G04 Layer : DrillDrawingThrough.gdo*
G04 Date  : Tue Dec 19 16:04:35 2017*
G04 Mentor Graphics Example Gerber Output Definition*
%ICAS*%
%MOIN*%
%FSLAX24Y24*%
%OFA0.0000B0.0000*%
G90*
G74*
%ADD10C,0.00500*%
G01*
G54D10*
X205Y-6601D02*
X58205D01*
Y-101*
X205*
Y-6601*
Y-4101D02*
X58205D01*
X205Y-2101D02*
X58205D01*
X350Y10402D02*
G03X252Y10500I98D01*
X154Y10402J98*
X252Y10304I98*
X350Y10402J98*
G01X424D02*
G03X252Y10574I172D01*
X80Y10402J172*
X252Y10230I172*
X424Y10402J172*
G01X460Y9218D02*
G03X362Y9316I98D01*
X263Y9218J98*
X362Y9120I99*
X460Y9218J98*
G01X533D02*
G03X362Y9390I171D01*
X190Y9218J172*
X362Y9046I172*
X533Y9218J172*
G01X648Y9954D02*
G03X550Y10053I98D01*
X452Y9954J99*
X550Y9856I98*
X648Y9954J98*
G01X722D02*
G03X550Y10126I172D01*
X378Y9954J172*
X550Y9783I172*
X722Y9954J171*
G01X994Y10405D02*
G03X896Y10504I98D01*
X798Y10405J99*
X896Y10307I98*
X994Y10405J98*
G01X1068D02*
G03X896Y10577I172D01*
X724Y10405J172*
X896Y10233I172*
X1068Y10405J172*
G01X1279Y4724D02*
G03X1181Y4823I98D01*
X1083Y4724J99*
X1181Y4626I98*
X1279Y4724J98*
G01Y5906D02*
G03X1181Y6004I98D01*
X1083Y5906J98*
X1181Y5807I98*
X1279Y5906J99*
G01X1348Y9960D02*
G03X1250Y10059I98D01*
X1152Y9960J99*
X1250Y9862I98*
X1348Y9960J98*
G01X1353Y4724D02*
G03X1181Y4896I172D01*
X1009Y4724J172*
X1181Y4553I172*
X1353Y4724J171*
G01Y5906D02*
G03X1181Y6077I172D01*
X1009Y5906J171*
X1181Y5734I172*
X1353Y5906J172*
G01X1422Y9960D02*
G03X1250Y10132I172D01*
X1078Y9960J172*
X1250Y9789I172*
X1422Y9960J171*
G01X1634Y-3101D02*
X1719Y-3169D01*
X1720Y-3171*
X1721Y-3174*
Y-3175*
X1722Y-3177*
Y-3178*
Y-3281*
Y-3282*
X1721Y-3286*
X1720Y-3287*
X1719Y-3289*
X1635Y-3357*
X1632Y-3358*
Y-3359*
X1631*
X1630*
X1629*
X1628*
X1460*
X1458*
X1456Y-3358*
X1454Y-3357*
X1370Y-3289*
X1367Y-3286*
Y-3285*
Y-3283*
Y-3280*
X1369Y-3276*
X1371Y-3274*
X1374Y-3272*
X1378Y-3271*
X1381Y-3272*
X1463Y-3339*
X1624*
X1702Y-3276*
Y-3183*
X1624Y-3119*
X1460*
X1458*
X1455*
X1454Y-3118*
X1370Y-3049*
X1369*
X1368Y-3048*
X1367Y-3046*
X1366Y-3043*
X1365Y-3041*
Y-2938*
X1366Y-2935*
X1367Y-2933*
X1368Y-2932*
X1369Y-2931*
X1370Y-2930*
X1454Y-2861*
X1456*
X1457Y-2860*
X1458*
X1460Y-2859*
X1628*
X1630Y-2860*
X1631*
X1633Y-2861*
X1634*
X1697Y-2913*
X1700Y-2915*
X1701Y-2918*
X1700Y-2922*
X1699Y-2925*
X1696Y-2928*
X1693Y-2930*
X1689*
X1685Y-2929*
X1625Y-2880*
X1463*
X1386Y-2943*
Y-3036*
X1463Y-3099*
X1628*
X1630Y-3100*
X1632*
X1634Y-3101*
X1741Y10409D02*
G03X1643Y10507I98D01*
X1545Y10409J98*
X1643Y10310I98*
X1741Y10409J99*
G01X1768Y372D02*
G03X1670Y470I98D01*
X1572Y372J98*
X1670Y274I98*
X1768Y372J98*
G01X1815Y10409D02*
G03X1643Y10581I172D01*
X1471Y10409J172*
X1643Y10237I172*
X1815Y10409J172*
G01X1838Y-3280D02*
Y-3005D01*
X1839Y-3001*
X1841Y-2998*
X1844Y-2996*
X1848*
X1852*
X1855Y-2998*
X1857Y-3001*
X1858Y-3005*
Y-3275*
X1935Y-3339*
X2098*
X2175Y-3276*
Y-3005*
X2176Y-3001*
X2178Y-2998*
X2181Y-2996*
X2185*
X2188*
X2192Y-2998*
X2194Y-3001*
X2195Y-3005*
Y-3555*
X2194Y-3558*
X2192Y-3561*
X2189Y-3564*
X2185Y-3565*
X1848*
X1844Y-3564*
X1841Y-3562*
X1840Y-3558*
X1839Y-3554*
X1840Y-3551*
X1841Y-3547*
X1844Y-3545*
X1848Y-3544*
X2175*
Y-3302*
X2107Y-3357*
X2105Y-3358*
X2104Y-3359*
X2103*
X2102*
X2101*
X1932*
X1930*
X1928Y-3358*
X1926Y-3357*
X1842Y-3289*
X1841Y-3288*
X1840Y-3287*
X1839Y-3286*
X1838Y-3282*
Y-3280*
X1842Y372D02*
G03X1670Y544I172D01*
X1498Y372J172*
X1670Y200I172*
X1842Y372J172*
G01X2127Y9967D02*
G03X2029Y10065I98D01*
X1931Y9967J98*
X2029Y9868I98*
X2127Y9967J99*
G01X2201D02*
G03X2029Y10138I172D01*
X1857Y9967J171*
X2029Y9795I172*
X2201Y9967J172*
G01X2460Y1181D02*
G03X2362Y1279I98D01*
X2264Y1181J98*
X2362Y1083I98*
X2460Y1181J98*
G01Y5906D02*
G03X2362Y6004I98D01*
X2264Y5906J98*
X2362Y5807I98*
X2460Y5906J99*
G01X2505Y-5601D02*
X2905D01*
X2518Y10419D02*
G03X2420Y10517I98D01*
X2321Y10419J98*
X2420Y10320I99*
X2518Y10419J99*
G01X2534Y1181D02*
G03X2362Y1353I172D01*
X2190Y1181J172*
X2362Y1009I172*
X2534Y1181J172*
G01Y5906D02*
G03X2362Y6077I172D01*
X2190Y5906J171*
X2362Y5734I172*
X2534Y5906J172*
G01X2591Y10419D02*
G03X2420Y10590I171D01*
X2248Y10419J171*
X2420Y10247I172*
X2591Y10419J172*
G01X2668Y-3046D02*
X2667Y-3044D01*
X2666Y-3040*
X2664Y-3038*
X2613Y-3004*
X2611Y-3002*
X2608*
X2540*
X2537*
X2535Y-3004*
X2489Y-3034*
X2444Y-3004*
X2442Y-3002*
X2439*
X2371*
X2368*
X2366Y-3004*
X2331Y-3028*
Y-3012*
X2330Y-3008*
X2328Y-3005*
X2324Y-3004*
X2320Y-3003*
X2317Y-3004*
X2314Y-3005*
X2311Y-3008*
X2310Y-3012*
Y-3349*
X2311Y-3353*
X2314Y-3355*
X2317Y-3357*
X2320*
X2324*
X2328Y-3355*
X2330Y-3353*
X2331Y-3349*
Y-3051*
X2373Y-3022*
X2436*
X2479Y-3051*
Y-3349*
X2480Y-3353*
X2482Y-3356*
X2486Y-3357*
X2489Y-3358*
X2493Y-3357*
X2497Y-3356*
X2499Y-3353*
X2500Y-3349*
Y-3051*
X2543Y-3021*
X2606*
X2648Y-3051*
Y-3349*
Y-3353*
X2651Y-3356*
X2654Y-3357*
X2658Y-3358*
X2661Y-3357*
X2664Y-3356*
X2667Y-3353*
X2668Y-3349*
Y-3046*
X2705Y-5826D02*
X2930Y-5601D01*
X2705Y-5376*
X2480Y-5601*
X2705Y-5826*
Y-5801D02*
Y-5401D01*
X2802Y-3081D02*
X2896Y-3017D01*
X3023*
X3119Y-3114*
Y-3241*
X3023Y-3339*
X2896*
X2803Y-3276*
X2802Y-3081*
X2833Y-4601D02*
G03X2705Y-4472I128D01*
X2576Y-4601J129*
X2705Y-4729I129*
X2833Y-4601J128*
G01X2883Y4909D02*
G03X2785Y5008I98D01*
X2687Y4909J99*
X2785Y4811I98*
X2883Y4909J98*
G01X2930Y-4601D02*
G03X2705Y-4376I225D01*
X2480Y-4601J225*
X2705Y-4826I225*
X2930Y-4601J225*
G01X2943Y9042D02*
G03X2845Y9140I98D01*
X2746Y9042J98*
X2845Y8943I99*
X2943Y9042J99*
G01X2957Y4909D02*
G03X2785Y5081I172D01*
X2613Y4909J172*
X2785Y4738I172*
X2957Y4909J171*
G01X3016Y9042D02*
G03X2845Y9213I171D01*
X2673Y9042J171*
X2845Y8870I172*
X3016Y9042J172*
G01X3110Y358D02*
G03X3012Y457I98D01*
X2914Y358J99*
X3012Y260I98*
X3110Y358J98*
G01X3122Y10422D02*
G03X3024Y10520I98D01*
X2925Y10422J98*
X3024Y10324I99*
X3122Y10422J98*
G01X3139Y-3109D02*
X3138Y-3107D01*
Y-3104*
X3137Y-3102*
X3036Y-2999*
X3033Y-2998*
X3031Y-2997*
X3028*
X2893*
X2890*
X2888Y-2999*
X2802Y-3057*
Y-2871*
X2801Y-2867*
X2799Y-2864*
X2795Y-2863*
X2791Y-2862*
X2788Y-2863*
X2784Y-2864*
X2782Y-2867*
X2781Y-2871*
X2782Y-3349*
X2783Y-3353*
X2785Y-3356*
X2788Y-3358*
X2792*
X2796*
X2799Y-3356*
X2802Y-3353*
X2803Y-3349*
Y-3300*
X2888Y-3357*
X2890Y-3359*
X2893*
X3028*
X3031*
X3033Y-3358*
X3036Y-3357*
X3137Y-3254*
X3138Y-3252*
Y-3249*
X3139Y-3248*
Y-3247*
Y-3109*
X3184Y358D02*
G03X3012Y530I172D01*
X2840Y358J172*
X3012Y187I172*
X3184Y358J171*
G01X3195Y10422D02*
G03X3024Y10594I171D01*
X2852Y10422J172*
X3024Y10250I172*
X3195Y10422J172*
G01X3274Y-3084D02*
Y-3277D01*
X3336Y-3339*
X3529*
X3591Y-3277*
Y-3084*
X3529Y-3022*
X3336*
X3274Y-3084*
X3417Y6691D02*
G03X3319Y6789I98D01*
X3221Y6691J98*
X3319Y6593I98*
X3417Y6691J98*
G01X3449Y7498D02*
G03X3351Y7596I98D01*
X3253Y7498J98*
X3351Y7399I98*
X3449Y7498J99*
G01X3469Y2038D02*
G03X3371Y2136I98D01*
X3272Y2038J98*
X3371Y1940I99*
X3469Y2038J98*
G01X3472Y7069D02*
G03X3374Y7167I98D01*
X3276Y7069J98*
X3374Y6971I98*
X3472Y7069J98*
G01X3491Y6691D02*
G03X3319Y6863I172D01*
X3147Y6691J172*
X3319Y6519I172*
X3491Y6691J172*
G01X3523Y7498D02*
G03X3351Y7669I172D01*
X3179Y7498J171*
X3351Y7326I172*
X3523Y7498J172*
G01X3534Y-3359D02*
X3332D01*
X3330*
X3329*
X3326Y-3358*
X3324Y-3356*
X3257Y-3289*
X3255Y-3287*
X3254Y-3284*
Y-3282*
Y-3079*
Y-3078*
X3255Y-3075*
X3257Y-3072*
X3324Y-3005*
X3326Y-3003*
X3329*
X3330Y-3002*
X3332*
X3534*
X3536Y-3003*
X3538*
X3541Y-3005*
X3609Y-3072*
Y-3074*
X3610Y-3076*
Y-3077*
Y-3078*
X3611Y-3079*
Y-3282*
X3610Y-3284*
Y-3286*
X3609Y-3289*
X3541Y-3356*
X3538Y-3358*
X3536Y-3359*
X3534*
X3542Y2038D02*
G03X3371Y2210I171D01*
X3199Y2038J172*
X3371Y1866I172*
X3542Y2038J172*
G01X3546Y7069D02*
G03X3374Y7241I172D01*
X3202Y7069J172*
X3374Y6897I172*
X3546Y7069J172*
G01X3642Y3543D02*
G03X3543Y3642I99D01*
X3445Y3543J99*
X3543Y3445I98*
X3642Y3543J98*
G01X3647Y6086D02*
G03X3549Y6184I98D01*
X3451Y6086J98*
X3549Y5988I98*
X3647Y6086J98*
G01X3715Y3543D02*
G03X3543Y3715I172D01*
X3371Y3543J172*
X3543Y3371I172*
X3715Y3543J172*
G01X3721Y6086D02*
G03X3549Y6258I172D01*
X3377Y6086J172*
X3549Y5914I172*
X3721Y6086J172*
G01X3797Y-2859D02*
X3793Y-2860D01*
X3791Y-2863*
X3790Y-2866*
X3789Y-2870*
X3790Y-2873*
X3791Y-2877*
X3793Y-2879*
X3797Y-2880*
X3885*
Y-3338*
X3797*
X3793Y-3339*
X3791Y-3342*
X3790Y-3345*
X3789Y-3349*
X3790Y-3353*
X3791Y-3356*
X3793Y-3358*
X3797Y-3359*
X3992*
X3996Y-3358*
X3999Y-3356*
X4000Y-3353*
X4001Y-3349*
X4000Y-3345*
X3999Y-3342*
X3996Y-3339*
X3992Y-3338*
X3904*
Y-2869*
Y-2866*
X3901Y-2863*
X3899Y-2860*
X3895Y-2859*
X3797*
X3825Y6490D02*
G03X3726Y6588I99D01*
X3628Y6490J98*
X3726Y6392I98*
X3825Y6490J98*
G01X3898D02*
G03X3726Y6662I172D01*
X3555Y6490J172*
X3726Y6318I171*
X3898Y6490J172*
G01X3901Y8778D02*
G03X3803Y8876I98D01*
X3705Y8778J98*
X3803Y8680I98*
X3901Y8778J98*
G01X3975D02*
G03X3803Y8950I172D01*
X3631Y8778J172*
X3803Y8606I172*
X3975Y8778J172*
G01X4347Y10273D02*
G03X4248Y10371I99D01*
X4150Y10273J98*
X4248Y10174I98*
X4347Y10273J99*
G01X4420D02*
G03X4248Y10444I172D01*
X4077Y10273J171*
X4248Y10101I171*
X4420Y10273J172*
G01X4447Y8181D02*
G03X4349Y8279I98D01*
X4251Y8181J98*
X4349Y8083I98*
X4447Y8181J98*
G01X4451Y7086D02*
G03X4353Y7184I98D01*
X4255Y7086J98*
X4353Y6987I98*
X4451Y7086J99*
G01Y7629D02*
G03X4353Y7727I98D01*
X4255Y7629J98*
X4353Y7531I98*
X4451Y7629J98*
G01X4521Y8181D02*
G03X4349Y8353I172D01*
X4177Y8181J172*
X4349Y8009I172*
X4521Y8181J172*
G01X4525Y7086D02*
G03X4353Y7257I172D01*
X4181Y7086J171*
X4353Y6914I172*
X4525Y7086J172*
G01Y7629D02*
G03X4353Y7801I172D01*
X4181Y7629J172*
X4353Y7457I172*
X4525Y7629J172*
G01X4596Y11609D02*
G03X4497Y11708I99D01*
X4399Y11609J99*
X4497Y11511I98*
X4596Y11609J98*
G01X4669D02*
G03X4497Y11781I172D01*
X4326Y11609J172*
X4497Y11438I171*
X4669Y11609J171*
G01X4715Y10987D02*
G03X4617Y11085I98D01*
X4519Y10987J98*
X4617Y10889I98*
X4715Y10987J98*
G01X4789D02*
G03X4617Y11159I172D01*
X4445Y10987J172*
X4617Y10815I172*
X4789Y10987J172*
G01X4820Y12618D02*
G03X4721Y12716I99D01*
X4623Y12618J98*
X4721Y12520I98*
X4820Y12618J98*
G01X4823Y4724D02*
G03X4724Y4823I99D01*
X4626Y4724J99*
X4724Y4626I98*
X4823Y4724J98*
G01X4893Y12618D02*
G03X4721Y12790I172D01*
X4550Y12618J172*
X4721Y12446I171*
X4893Y12618J172*
G01X4896Y4724D02*
G03X4724Y4896I172D01*
X4553Y4724J172*
X4724Y4553I171*
X4896Y4724J171*
G01X4999Y7077D02*
G03X4901Y7176I98D01*
X4802Y7077J99*
X4901Y6979I99*
X4999Y7077J98*
G01Y7629D02*
G03X4901Y7727I98D01*
X4802Y7629J98*
X4901Y7531I99*
X4999Y7629J98*
G01Y8189D02*
G03X4901Y8287I98D01*
X4802Y8189J98*
X4901Y8091I99*
X4999Y8189J98*
G01X5009Y10272D02*
G03X4910Y10370I99D01*
X4812Y10272J98*
X4910Y10174I98*
X5009Y10272J98*
G01Y10698D02*
G03X4911Y10796I98D01*
X4813Y10698J98*
X4911Y10600I98*
X5009Y10698J98*
G01X5042Y1657D02*
G03X4944Y1755I98D01*
X4845Y1657J98*
X4944Y1559I99*
X5042Y1657J98*
G01X5072Y7077D02*
G03X4901Y7249I171D01*
X4729Y7077J172*
X4901Y6906I172*
X5072Y7077J171*
G01Y7629D02*
G03X4901Y7801I171D01*
X4729Y7629J172*
X4901Y7457I172*
X5072Y7629J172*
G01Y8189D02*
G03X4901Y8361I171D01*
X4729Y8189J172*
X4901Y8017I172*
X5072Y8189J172*
G01X5082Y10272D02*
G03X4910Y10444I172D01*
X4739Y10272J172*
X4910Y10100I171*
X5082Y10272J172*
G01X5083Y10698D02*
G03X4911Y10870I172D01*
X4739Y10698J172*
X4911Y10526I172*
X5083Y10698J172*
G01X5115Y1657D02*
G03X4944Y1829I171D01*
X4772Y1657J172*
X4944Y1485I172*
X5115Y1657J172*
G01X5167Y1323D02*
G03X5069Y1421I98D01*
X4971Y1323J98*
X5069Y1225I98*
X5167Y1323J98*
G01X5213Y12628D02*
G03X5115Y12726I98D01*
X5017Y12628J98*
X5115Y12529I98*
X5213Y12628J99*
G01X5218Y11729D02*
G03X5120Y11827I98D01*
X5022Y11729J98*
X5120Y11631I98*
X5218Y11729J98*
G01X5241Y1323D02*
G03X5069Y1495I172D01*
X4897Y1323J172*
X5069Y1151I172*
X5241Y1323J172*
G01X5287Y12628D02*
G03X5115Y12800I172D01*
X4943Y12628J172*
X5115Y12456I172*
X5287Y12628J172*
G01X5292Y11729D02*
G03X5120Y11901I172D01*
X4948Y11729J172*
X5120Y11557I172*
X5292Y11729J172*
G01X5407Y11341D02*
G03X5309Y11439I98D01*
X5211Y11341J98*
X5309Y11242I98*
X5407Y11341J99*
G01X5481D02*
G03X5309Y11512I172D01*
X5137Y11341J171*
X5309Y11169I172*
X5481Y11341J172*
G01X5551Y8189D02*
G03X5452Y8287I99D01*
X5354Y8189J98*
X5452Y8091I98*
X5551Y8189J98*
G01X5555Y7077D02*
G03X5456Y7176I99D01*
X5358Y7077J99*
X5456Y6979I98*
X5555Y7077J98*
G01Y7633D02*
G03X5456Y7732I99D01*
X5358Y7633J99*
X5456Y7535I98*
X5555Y7633J98*
G01X5621Y10281D02*
G03X5523Y10379I98D01*
X5425Y10281J98*
X5523Y10182I98*
X5621Y10281J99*
G01X5624Y8189D02*
G03X5452Y8361I172D01*
X5281Y8189J172*
X5452Y8017I171*
X5624Y8189J172*
G01X5628Y7077D02*
G03X5456Y7249I172D01*
X5285Y7077J172*
X5456Y6906I171*
X5628Y7077J171*
G01Y7633D02*
G03X5456Y7805I172D01*
X5285Y7633J172*
X5456Y7461I171*
X5628Y7633J172*
G01X5636Y10882D02*
G03X5538Y10981I98D01*
X5440Y10882J99*
X5538Y10784I98*
X5636Y10882J98*
G01X5639Y9724D02*
G03X5540Y9822I99D01*
X5442Y9724J98*
X5540Y9626I98*
X5639Y9724J98*
G01X5686Y12364D02*
G03X5588Y12462I98D01*
X5490Y12364J98*
X5588Y12266I98*
X5686Y12364J98*
G01X5695Y10281D02*
G03X5523Y10452I172D01*
X5351Y10281J171*
X5523Y10109I172*
X5695Y10281J172*
G01X5710Y10882D02*
G03X5538Y11054I172D01*
X5366Y10882J172*
X5538Y10711I172*
X5710Y10882J171*
G01X5712Y9724D02*
G03X5540Y9896I172D01*
X5369Y9724J172*
X5540Y9552I171*
X5712Y9724J172*
G01X5739Y2851D02*
G03X5641Y2949I98D01*
X5543Y2851J98*
X5641Y2752I98*
X5739Y2851J99*
G01X5760Y12364D02*
G03X5588Y12536I172D01*
X5416Y12364J172*
X5588Y12192I172*
X5760Y12364J172*
G01X5813Y2851D02*
G03X5641Y3023I172D01*
X5469Y2851J172*
X5641Y2679I172*
X5813Y2851J172*
G01X6004Y3543D02*
G03X5906Y3642I98D01*
X5807Y3543J99*
X5906Y3445I99*
X6004Y3543J98*
G01X6077D02*
G03X5906Y3715I171D01*
X5734Y3543J172*
X5906Y3371I172*
X6077Y3543J172*
G01X6146Y6483D02*
G03X6048Y6582I98D01*
X5950Y6483J99*
X6048Y6385I98*
X6146Y6483J98*
G01X6220D02*
G03X6048Y6655I172D01*
X5876Y6483J172*
X6048Y6311I172*
X6220Y6483J172*
G01X6342Y9723D02*
G03X6244Y9822I98D01*
X6145Y9723J99*
X6244Y9625I99*
X6342Y9723J98*
G01X6415D02*
G03X6244Y9895I171D01*
X6072Y9723J172*
X6244Y9552I172*
X6415Y9723J171*
G01X6509Y9169D02*
G03X6411Y9268I98D01*
X6313Y9169J99*
X6411Y9071I98*
X6509Y9169J98*
G01X6583D02*
G03X6411Y9341I172D01*
X6239Y9169J172*
X6411Y8997I172*
X6583Y9169J172*
G01X6616Y564D02*
G03X6517Y662I99D01*
X6419Y564J98*
X6517Y466I98*
X6616Y564J98*
G01X6689D02*
G03X6517Y736I172D01*
X6346Y564J172*
X6517Y392I171*
X6689Y564J172*
G01X7185Y3543D02*
G03X7087Y3642I98D01*
X6988Y3543J99*
X7087Y3445I99*
X7185Y3543J98*
G01Y9449D02*
G03X7087Y9547I98D01*
X6988Y9449J98*
X7087Y9351I99*
X7185Y9449J98*
G01X7258Y3543D02*
G03X7087Y3715I171D01*
X6915Y3543J172*
X7087Y3371I172*
X7258Y3543J172*
G01Y9449D02*
G03X7087Y9621I171D01*
X6915Y9449J172*
X7087Y9277I172*
X7258Y9449J172*
G01X7556Y3728D02*
G03X7457Y3827I99D01*
X7359Y3728J99*
X7457Y3630I98*
X7556Y3728J98*
G01X7629D02*
G03X7457Y3900I172D01*
X7285Y3728J172*
X7457Y3556I172*
X7629Y3728J172*
G01X7725Y550D02*
G03X7627Y648I98D01*
X7528Y550J98*
X7627Y452I99*
X7725Y550J98*
G01X7798D02*
G03X7627Y722I171D01*
X7455Y550J172*
X7627Y378I172*
X7798Y550J172*
G01X8058Y6475D02*
G03X7960Y6573I98D01*
X7862Y6475J98*
X7960Y6377I98*
X8058Y6475J98*
G01X8132D02*
G03X7960Y6647I172D01*
X7788Y6475J172*
X7960Y6303I172*
X8132Y6475J172*
G01X8366Y2362D02*
G03X8268Y2460I98D01*
X8170Y2362J98*
X8268Y2264I98*
X8366Y2362J98*
G01Y3543D02*
G03X8268Y3642I98D01*
X8170Y3543J99*
X8268Y3445I98*
X8366Y3543J98*
G01X8440Y2362D02*
G03X8268Y2534I172D01*
X8096Y2362J172*
X8268Y2190I172*
X8440Y2362J172*
G01Y3543D02*
G03X8268Y3715I172D01*
X8096Y3543J172*
X8268Y3371I172*
X8440Y3543J172*
G01X8925Y-2880D02*
X9164D01*
X9242Y-2943*
Y-3276*
X9164Y-3339*
X8925*
Y-2880*
X9038Y9141D02*
G03X8940Y9239I98D01*
X8842Y9141J98*
X8940Y9043I98*
X9038Y9141J98*
G01X9045Y6882D02*
G03X8947Y6980I98D01*
X8849Y6882J98*
X8947Y6784I98*
X9045Y6882J98*
G01X9112Y9141D02*
G03X8940Y9313I172D01*
X8768Y9141J172*
X8940Y8969I172*
X9112Y9141J172*
G01X9119Y6882D02*
G03X8947Y7054I172D01*
X8775Y6882J172*
X8947Y6710I172*
X9119Y6882J172*
G01X9142Y1323D02*
G03X9044Y1421I98D01*
X8945Y1323J98*
X9044Y1225I99*
X9142Y1323J98*
G01X9167Y-4430D02*
X9251Y-4361D01*
X9253*
X9254Y-4360*
X9255*
X9257Y-4359*
X9425*
X9427Y-4360*
X9428*
X9430Y-4361*
X9432*
X9516Y-4430*
X9517Y-4432*
X9518Y-4434*
X9519Y-4436*
Y-4438*
Y-4781*
Y-4782*
X9518Y-4786*
X9517Y-4787*
X9516Y-4789*
X9432Y-4857*
X9430Y-4858*
X9429*
X9428Y-4859*
X9427*
X9425*
X9257*
X9255*
X9253Y-4858*
X9251Y-4857*
X9167Y-4789*
X9166Y-4788*
X9165Y-4787*
X9164Y-4786*
X9163Y-4782*
X9162Y-4781*
Y-4438*
X9163Y-4436*
X9164Y-4434*
X9165Y-4432*
X9167Y-4430*
X9174Y-2861D02*
X9171Y-2860D01*
X9169*
X9167Y-2859*
X8914*
X8911Y-2860*
X8908Y-2863*
X8905Y-2866*
X8904Y-2869*
Y-3349*
X8905Y-3353*
X8908Y-3356*
X8911Y-3359*
X8914*
X9167*
X9169*
X9170*
X9171Y-3358*
X9174Y-3357*
X9258Y-3289*
X9260Y-3287*
Y-3286*
X9261Y-3283*
X9262Y-3281*
Y-2938*
X9261Y-2935*
X9260Y-2934*
Y-2932*
X9259Y-2931*
X9258Y-2930*
X9174Y-2861*
X9178Y-5430D02*
X9262Y-5361D01*
X9264*
X9265Y-5360*
X9266*
X9268Y-5359*
X9436*
X9438Y-5360*
X9439*
X9441Y-5361*
X9443*
X9527Y-5430*
X9528Y-5432*
X9529Y-5434*
X9530Y-5436*
Y-5438*
Y-5781*
Y-5782*
X9529Y-5786*
X9528Y-5787*
X9527Y-5789*
X9443Y-5857*
X9441Y-5858*
X9440*
X9439Y-5859*
X9438*
X9436*
X9268*
X9266*
X9264Y-5858*
X9262Y-5857*
X9178Y-5789*
X9177Y-5788*
X9176Y-5787*
X9175Y-5786*
X9174Y-5782*
X9173Y-5781*
Y-5438*
X9174Y-5436*
X9175Y-5434*
X9176Y-5432*
X9178Y-5430*
X9183Y-4443D02*
Y-4776D01*
X9212Y-4801*
X9454Y-4406*
X9421Y-4380*
X9260*
X9183Y-4443*
X9191Y12402D02*
G03X9093Y12500I98D01*
X8995Y12402J98*
X9093Y12303I98*
X9191Y12402J99*
G01X9194Y-5443D02*
Y-5776D01*
X9223Y-5801*
X9465Y-5406*
X9432Y-5380*
X9271*
X9194Y-5443*
X9216Y1323D02*
G03X9044Y1495I172D01*
X8872Y1323J172*
X9044Y1151I172*
X9216Y1323J172*
G01X9223Y6432D02*
G03X9125Y6530I98D01*
X9027Y6432J98*
X9125Y6334I98*
X9223Y6432J98*
G01X9228Y-4814D02*
X9260Y-4839D01*
X9421*
X9499Y-4776*
Y-4443*
X9470Y-4419*
X9228Y-4814*
X9239Y-5814D02*
X9271Y-5839D01*
X9432*
X9510Y-5776*
Y-5443*
X9481Y-5419*
X9239Y-5814*
X9265Y12402D02*
G03X9093Y12573I172D01*
X8921Y12402J171*
X9093Y12230I172*
X9265Y12402J172*
G01X9297Y6432D02*
G03X9125Y6604I172D01*
X8953Y6432J172*
X9125Y6260I172*
X9297Y6432J172*
G01X9547Y1181D02*
G03X9449Y1279I98D01*
X9351Y1181J98*
X9449Y1083I98*
X9547Y1181J98*
G01Y2362D02*
G03X9449Y2460I98D01*
X9351Y2362J98*
X9449Y2264I98*
X9547Y2362J98*
G01Y3543D02*
G03X9449Y3642I98D01*
X9351Y3543J99*
X9449Y3445I98*
X9547Y3543J98*
G01X9598Y-3359D02*
X9602Y-3358D01*
X9604Y-3356*
X9606Y-3353*
Y-3349*
Y-3346*
X9604Y-3343*
X9602Y-3340*
X9598Y-3339*
X9546*
Y-3012*
X9545Y-3008*
X9543Y-3006*
X9540Y-3003*
X9536Y-3002*
X9474*
X9471Y-3003*
X9468Y-3005*
X9467Y-3009*
X9466Y-3012*
X9467Y-3016*
X9468Y-3019*
X9471Y-3021*
X9474Y-3022*
X9527*
Y-3339*
X9474*
X9471Y-3340*
X9468Y-3343*
X9467Y-3346*
X9466Y-3349*
X9467Y-3353*
X9468Y-3356*
X9471Y-3358*
X9474Y-3359*
X9598*
X9621Y1181D02*
G03X9449Y1353I172D01*
X9277Y1181J172*
X9449Y1009I172*
X9621Y1181J172*
G01Y2362D02*
G03X9449Y2534I172D01*
X9277Y2362J172*
X9449Y2190I172*
X9621Y2362J172*
G01Y3543D02*
G03X9449Y3715I172D01*
X9277Y3543J172*
X9449Y3371I172*
X9621Y3543J172*
G01X9639Y-4430D02*
X9723Y-4361D01*
X9725*
X9727Y-4360*
X9729Y-4359*
X9898*
X9900Y-4360*
X9901*
X9902Y-4361*
X9904*
X9988Y-4430*
X9990Y-4432*
Y-4434*
X9991Y-4436*
X9992Y-4438*
Y-4781*
X9991Y-4782*
X9990Y-4786*
Y-4787*
X9988Y-4789*
X9904Y-4857*
X9902Y-4858*
X9901*
X9900Y-4859*
X9899*
X9898*
X9729*
X9727*
X9725Y-4858*
X9723Y-4857*
X9639Y-4789*
X9638Y-4788*
X9637Y-4787*
X9636Y-4786*
X9635Y-4782*
Y-4781*
Y-4438*
Y-4436*
X9636Y-4434*
X9637Y-4432*
X9639Y-4430*
X9655Y-4443D02*
Y-4776D01*
X9685Y-4801*
X9927Y-4406*
X9894Y-4380*
X9732*
X9655Y-4443*
X9688Y7456D02*
G03X9590Y7554I98D01*
X9492Y7456J98*
X9590Y7358I98*
X9688Y7456J98*
G01X9692Y7964D02*
G03X9594Y8062I98D01*
X9495Y7964J98*
X9594Y7866I99*
X9692Y7964J98*
G01Y8484D02*
G03X9594Y8582I98D01*
X9495Y8484J98*
X9594Y8385I99*
X9692Y8484J99*
G01X9701Y-4814D02*
X9732Y-4839D01*
X9894*
X9972Y-4776*
Y-4443*
X9942Y-4419*
X9701Y-4814*
X9718Y-5839D02*
X9714Y-5840D01*
X9712Y-5842*
X9710Y-5845*
Y-5849*
Y-5853*
X9712Y-5856*
X9714Y-5859*
X9718*
X9913*
X9916*
X9919Y-5856*
X9921Y-5853*
Y-5849*
Y-5845*
X9919Y-5842*
X9916Y-5840*
X9913Y-5839*
X9825*
Y-5369*
X9824Y-5366*
X9823Y-5363*
X9820Y-5362*
X9817Y-5361*
X9814*
X9812*
X9810Y-5362*
X9808Y-5364*
X9710Y-5501*
X9709Y-5504*
Y-5508*
X9710Y-5511*
X9713Y-5513*
X9716Y-5515*
X9719Y-5516*
X9721*
X9723*
X9725Y-5513*
X9805Y-5401*
Y-5839*
X9718*
X9762Y7456D02*
G03X9590Y7628I172D01*
X9418Y7456J172*
X9590Y7284I172*
X9762Y7456J172*
G01X9765Y7964D02*
G03X9594Y8136I171D01*
X9422Y7964J172*
X9594Y7792I172*
X9765Y7964J172*
G01Y8484D02*
G03X9594Y8655I171D01*
X9422Y8484J171*
X9594Y8312I172*
X9765Y8484J172*
G01X9833Y-3186D02*
X9926Y-3123D01*
X10056*
X10149Y-3186*
Y-3277*
X10056Y-3339*
X9926*
X9833Y-3277*
Y-3186*
X10107Y413D02*
G03X10009Y511I98D01*
X9911Y413J98*
X10009Y315I98*
X10107Y413J98*
G01X10149Y-3349D02*
X10150Y-3353D01*
X10152Y-3356*
X10156Y-3357*
X10159Y-3358*
X10163Y-3357*
X10166Y-3356*
X10168Y-3353*
X10169Y-3349*
Y-3079*
X10168Y-3078*
Y-3076*
X10167Y-3072*
X10099Y-3005*
X10096Y-3003*
X10094*
X10092Y-3002*
X9822*
X9818Y-3003*
X9816Y-3005*
X9814Y-3009*
X9813Y-3012*
X9814Y-3016*
X9816Y-3019*
X9818Y-3021*
X9822Y-3022*
X10087*
X10149Y-3084*
Y-3163*
X10063Y-3105*
X10061Y-3104*
X10058Y-3103*
X9923*
X9920Y-3104*
X9918Y-3105*
X9817Y-3173*
X9816Y-3174*
X9815*
X9814Y-3175*
X9812Y-3177*
Y-3181*
Y-3282*
Y-3285*
X9814Y-3287*
X9815Y-3289*
X9817Y-3290*
X9918Y-3357*
X9920Y-3359*
X9923*
X10058*
X10061*
X10063Y-3357*
X10149Y-3301*
Y-3349*
X10181Y413D02*
G03X10009Y585I172D01*
X9837Y413J172*
X10009Y241I172*
X10181Y413J172*
G01X10182Y11313D02*
G03X10084Y11411I98D01*
X9986Y11313J98*
X10084Y11215I98*
X10182Y11313J98*
G01X10198Y-5796D02*
Y-5851D01*
X10199Y-5853*
Y-5855*
X10200Y-5856*
X10201*
X10203Y-5859*
X10206*
X10261*
X10264*
X10267Y-5856*
X10269Y-5854*
X10270Y-5851*
Y-5796*
X10269Y-5793*
X10267Y-5791*
X10264Y-5788*
X10261*
X10206*
X10203*
X10201Y-5791*
X10200*
X10199Y-5792*
Y-5794*
X10198Y-5796*
X10205Y-4796D02*
Y-4851D01*
Y-4853*
X10206Y-4855*
X10207Y-4856*
X10208*
X10210Y-4859*
X10213*
X10268*
X10271*
X10273Y-4856*
X10276Y-4854*
Y-4851*
Y-4796*
Y-4793*
X10273Y-4791*
X10271Y-4788*
X10268*
X10213*
X10210*
X10208Y-4791*
X10207*
X10206Y-4792*
X10205Y-4794*
Y-4796*
X10215Y-5804D02*
X10253D01*
Y-5843*
X10215*
Y-5804*
X10220Y7964D02*
G03X10121Y8062I99D01*
X10023Y7964J98*
X10121Y7866I98*
X10220Y7964J98*
G01Y8479D02*
G03X10121Y8577I99D01*
X10023Y8479J98*
X10121Y8380I98*
X10220Y8479J99*
G01X10221Y-4804D02*
X10260D01*
Y-4843*
X10221*
Y-4804*
X10223Y7450D02*
G03X10125Y7548I98D01*
X10026Y7450J98*
X10125Y7351I99*
X10223Y7450J99*
G01X10256Y11313D02*
G03X10084Y11485I172D01*
X9912Y11313J172*
X10084Y11141I172*
X10256Y11313J172*
G01X10293Y7964D02*
G03X10121Y8136I172D01*
X9949Y7964J172*
X10121Y7792I172*
X10293Y7964J172*
G01Y8479D02*
G03X10121Y8650I172D01*
X9950Y8479J171*
X10121Y8307I171*
X10293Y8479J172*
G01X10297Y7450D02*
G03X10125Y7621I172D01*
X9953Y7450J171*
X10125Y7278I172*
X10297Y7450J172*
G01X10538Y-5645D02*
Y-5793D01*
X10583Y-5839*
X10757*
X10801Y-5793*
Y-5645*
X10787Y-5602*
X10551*
X10538Y-5645*
Y-5426D02*
Y-5539D01*
X10551Y-5582*
X10787*
X10801Y-5539*
Y-5426*
X10757Y-5380*
X10583*
X10538Y-5426*
X10573Y9544D02*
G03X10475Y9643I98D01*
X10377Y9544J99*
X10475Y9446I98*
X10573Y9544J98*
G01X10580Y-4857D02*
X10496Y-4789D01*
X10493Y-4786*
Y-4783*
Y-4780*
X10495Y-4776*
X10498Y-4774*
X10501Y-4772*
X10504Y-4771*
X10508Y-4772*
X10589Y-4839*
X10751*
X10829Y-4776*
Y-4683*
X10752Y-4619*
X10669*
X10665Y-4618*
X10662Y-4616*
X10661Y-4613*
X10660Y-4609*
X10661Y-4606*
X10662Y-4603*
X10665Y-4600*
X10669Y-4599*
X10752*
X10829Y-4536*
Y-4443*
X10751Y-4380*
X10589*
X10508Y-4446*
X10504Y-4447*
X10501*
X10498Y-4445*
X10495Y-4442*
X10493Y-4439*
Y-4436*
Y-4432*
X10496Y-4430*
X10580Y-4361*
X10582*
X10583Y-4360*
X10584*
X10586Y-4359*
X10754*
X10757Y-4360*
X10758*
X10759Y-4361*
X10761*
X10845Y-4430*
X10847Y-4432*
Y-4434*
X10848Y-4436*
X10849Y-4438*
Y-4541*
X10848Y-4542*
X10847Y-4546*
Y-4548*
X10845Y-4549*
X10772Y-4609*
X10845Y-4669*
X10846Y-4670*
X10847Y-4671*
Y-4672*
Y-4673*
X10848Y-4676*
X10849Y-4678*
Y-4781*
X10848Y-4783*
X10847Y-4785*
Y-4787*
X10845Y-4789*
X10761Y-4857*
X10759Y-4858*
X10758Y-4859*
X10757*
X10756*
X10754*
X10586*
X10584*
X10582Y-4858*
X10580Y-4857*
X10641Y-3046D02*
X10640Y-3044D01*
X10639Y-3040*
X10637Y-3038*
X10586Y-3004*
X10584Y-3002*
X10581*
X10513*
X10510*
X10508Y-3004*
X10462Y-3034*
X10417Y-3004*
X10415Y-3002*
X10412*
X10344*
X10341*
X10339Y-3004*
X10304Y-3028*
Y-3012*
X10303Y-3008*
X10301Y-3005*
X10297Y-3004*
X10293Y-3003*
X10290Y-3004*
X10287Y-3005*
X10284Y-3008*
X10283Y-3012*
Y-3349*
X10284Y-3353*
X10287Y-3355*
X10290Y-3357*
X10293*
X10297*
X10301Y-3355*
X10303Y-3353*
X10304Y-3349*
Y-3051*
X10346Y-3022*
X10409*
X10452Y-3051*
Y-3349*
X10453Y-3353*
X10455Y-3356*
X10459Y-3357*
X10462Y-3358*
X10466Y-3357*
X10470Y-3356*
X10472Y-3353*
X10473Y-3349*
Y-3051*
X10516Y-3021*
X10579*
X10621Y-3051*
Y-3349*
Y-3353*
X10624Y-3356*
X10627Y-3357*
X10631Y-3358*
X10634Y-3357*
X10637Y-3356*
X10640Y-3353*
X10641Y-3349*
Y-3046*
X10647Y9544D02*
G03X10475Y9716I172D01*
X10303Y9544J172*
X10475Y9373I172*
X10647Y9544J171*
G01X10721Y7450D02*
G03X10623Y7548I98D01*
X10524Y7450J98*
X10623Y7351I99*
X10721Y7450J99*
G01X10727Y7966D02*
G03X10629Y8064I98D01*
X10531Y7966J98*
X10629Y7868I98*
X10727Y7966J98*
G01Y8474D02*
G03X10629Y8572I98D01*
X10531Y8474J98*
X10629Y8375I98*
X10727Y8474J99*
G01X10728Y1181D02*
G03X10630Y1279I98D01*
X10532Y1181J98*
X10630Y1083I98*
X10728Y1181J98*
G01Y2362D02*
G03X10630Y2460I98D01*
X10532Y2362J98*
X10630Y2264I98*
X10728Y2362J98*
G01Y3543D02*
G03X10630Y3642I98D01*
X10532Y3543J99*
X10630Y3445I98*
X10728Y3543J98*
G01Y10630D02*
G03X10630Y10728I98D01*
X10532Y10630J98*
X10630Y10532I98*
X10728Y10630J98*
G01X10776Y-3085D02*
Y-3137D01*
X11092*
Y-3118*
X10997Y-3022*
X10869*
X10776Y-3085*
X10794Y7450D02*
G03X10623Y7621I171D01*
X10451Y7450J171*
X10623Y7278I172*
X10794Y7450J172*
G01X10801Y7966D02*
G03X10629Y8138I172D01*
X10457Y7966J172*
X10629Y7794I172*
X10801Y7966J172*
G01Y8474D02*
G03X10629Y8646I172D01*
X10457Y8474J172*
X10629Y8302I172*
X10801Y8474J172*
G01X10802Y1181D02*
G03X10630Y1353I172D01*
X10458Y1181J172*
X10630Y1009I172*
X10802Y1181J172*
G01Y2362D02*
G03X10630Y2534I172D01*
X10458Y2362J172*
X10630Y2190I172*
X10802Y2362J172*
G01Y3543D02*
G03X10630Y3715I172D01*
X10458Y3543J172*
X10630Y3371I172*
X10802Y3543J172*
G01Y10630D02*
G03X10630Y10802I172D01*
X10458Y10630J172*
X10630Y10458I172*
X10802Y10630J172*
G01X10821Y-5544D02*
X10805Y-5592D01*
X10821Y-5640*
Y-5641*
Y-5643*
Y-5798*
Y-5799*
Y-5801*
X10820Y-5803*
X10818Y-5805*
X10768Y-5856*
X10766Y-5858*
X10763Y-5859*
X10761*
X10578*
X10576*
X10575*
X10573Y-5858*
X10571Y-5856*
X10521Y-5805*
X10519Y-5803*
X10518Y-5801*
Y-5798*
Y-5643*
Y-5641*
Y-5640*
X10534Y-5592*
X10518Y-5544*
Y-5543*
Y-5540*
Y-5420*
Y-5418*
X10519Y-5416*
X10521Y-5413*
X10571Y-5362*
X10573Y-5360*
X10575*
X10576Y-5359*
X10578*
X10761*
X10763Y-5360*
X10766*
X10768Y-5362*
X10818Y-5413*
X10820Y-5416*
X10821Y-5418*
Y-5420*
Y-5540*
Y-5542*
Y-5543*
Y-5544*
X10866Y-3002D02*
X11002D01*
X11004Y-3003*
X11006*
X11009Y-3005*
X11110Y-3106*
X11111Y-3108*
Y-3110*
Y-3111*
X11112*
Y-3114*
Y-3147*
Y-3151*
X11109Y-3154*
X11107Y-3156*
X11102Y-3157*
X10776*
Y-3277*
X10869Y-3339*
X10997*
X11095Y-3241*
X11098Y-3239*
X11102*
X11106Y-3240*
X11109Y-3242*
X11111Y-3245*
X11112Y-3249*
Y-3253*
X11110Y-3256*
X11009Y-3356*
X11006Y-3358*
X11004Y-3359*
X11002*
X10866*
X10863*
X10861Y-3357*
X10760Y-3290*
X10758Y-3289*
X10757Y-3287*
X10756Y-3285*
X10755Y-3282*
Y-3079*
X10756Y-3077*
X10757Y-3074*
X10758Y-3073*
X10759Y-3072*
X10760Y-3071*
X10861Y-3004*
X10863Y-3002*
X10866*
X10885Y5069D02*
G03X10787Y5167I98D01*
X10688Y5069J98*
X10787Y4971I99*
X10885Y5069J98*
G01X10958D02*
G03X10787Y5241I171D01*
X10615Y5069J172*
X10787Y4897I172*
X10958Y5069J172*
G01X10969Y-4430D02*
X11053Y-4361D01*
X11055*
X11056Y-4360*
X11057*
X11059Y-4359*
X11227*
X11229Y-4360*
X11230*
X11232Y-4361*
X11234*
X11318Y-4430*
X11319Y-4432*
X11320Y-4434*
X11321Y-4436*
Y-4438*
Y-4781*
Y-4782*
X11320Y-4786*
X11319Y-4787*
X11318Y-4789*
X11234Y-4857*
X11232Y-4858*
X11231*
X11230Y-4859*
X11229*
X11227*
X11059*
X11057*
X11055Y-4858*
X11053Y-4857*
X10969Y-4789*
X10968Y-4788*
X10967Y-4787*
X10966Y-4786*
X10965Y-4782*
X10964Y-4781*
Y-4438*
X10965Y-4436*
X10966Y-4434*
X10967Y-4432*
X10969Y-4430*
X10985Y-4443D02*
Y-4776D01*
X11014Y-4801*
X11256Y-4406*
X11223Y-4380*
X11062*
X10985Y-4443*
X11030Y-4814D02*
X11062Y-4839D01*
X11223*
X11301Y-4776*
Y-4443*
X11272Y-4419*
X11030Y-4814*
X11047Y-5531D02*
X11045Y-5532D01*
X11044*
X11042Y-5533*
X10974Y-5588*
Y-5380*
X11300*
X11304Y-5379*
X11307Y-5377*
X11308Y-5373*
X11309Y-5370*
X11308Y-5366*
X11307Y-5363*
X11304Y-5360*
X11300Y-5359*
X10963*
X10959Y-5360*
X10956Y-5363*
X10954Y-5366*
X10953Y-5369*
Y-5610*
Y-5613*
X10955Y-5616*
X10957Y-5617*
X10960Y-5618*
X10963Y-5619*
X10965Y-5620*
X10967Y-5619*
X10969Y-5618*
X11051Y-5551*
X11212*
X11290Y-5615*
Y-5776*
X11212Y-5838*
X11051*
X10969Y-5772*
X10966Y-5771*
X10963*
X10960Y-5773*
X10957Y-5775*
X10955Y-5779*
X10954Y-5782*
X10955Y-5786*
X10957Y-5788*
X11042Y-5857*
X11043Y-5858*
X11045*
X11047Y-5859*
X11216*
X11217*
X11218*
X11219Y-5858*
X11220*
X11222Y-5857*
X11307Y-5788*
X11308Y-5787*
X11309Y-5786*
X11310Y-5783*
Y-5781*
Y-5610*
Y-5608*
X11309Y-5605*
Y-5604*
X11308Y-5603*
X11307Y-5602*
Y-5601*
X11222Y-5533*
X11220Y-5532*
X11218*
X11216Y-5531*
X11047*
X11127Y11299D02*
G03X11029Y11398I98D01*
X10930Y11299J99*
X11029Y11201I99*
X11127Y11299J98*
G01X11200D02*
G03X11029Y11471I171D01*
X10857Y11299J172*
X11029Y11128I172*
X11200Y11299J171*
G01X11326Y427D02*
G03X11228Y525I98D01*
X11130Y427J98*
X11228Y329I98*
X11326Y427J98*
G01X11400D02*
G03X11228Y599I172D01*
X11056Y427J172*
X11228Y255I172*
X11400Y427J172*
G01X11414Y-2869D02*
X11413Y-2866D01*
X11410Y-2863*
X11407Y-2861*
X11404*
X11400*
X11397Y-2863*
X11394Y-2866*
Y-2869*
Y-3031*
X11271*
X11268Y-3032*
X11265Y-3034*
X11264Y-3037*
Y-3041*
Y-3044*
X11265Y-3048*
X11268Y-3050*
X11271Y-3051*
X11394*
Y-3315*
Y-3318*
X11396Y-3320*
X11397Y-3322*
X11399Y-3323*
X11449Y-3357*
X11451Y-3359*
X11454*
X11521*
X11524*
X11527Y-3357*
X11577Y-3323*
X11579Y-3321*
X11580Y-3317*
Y-3314*
X11578Y-3311*
X11576Y-3308*
X11573Y-3306*
X11569Y-3305*
X11566Y-3307*
X11518Y-3339*
X11456*
X11414Y-3310*
Y-3051*
X11537*
X11541Y-3050*
X11544Y-3048*
X11545Y-3044*
X11546Y-3041*
X11545Y-3037*
X11544Y-3034*
X11541Y-3032*
X11537Y-3031*
X11414*
Y-2869*
X11430Y-5430D02*
X11514Y-5361D01*
X11516*
X11518Y-5360*
X11520Y-5359*
X11689*
X11691Y-5360*
X11692*
X11693Y-5361*
X11695*
X11779Y-5430*
X11781Y-5432*
Y-5434*
X11782Y-5436*
X11783Y-5438*
Y-5781*
X11782Y-5782*
X11781Y-5786*
Y-5787*
X11779Y-5789*
X11695Y-5857*
X11693Y-5858*
X11692*
X11691Y-5859*
X11690*
X11689*
X11520*
X11518*
X11516Y-5858*
X11514Y-5857*
X11430Y-5789*
X11429Y-5788*
X11428Y-5787*
X11427Y-5786*
X11426Y-5782*
Y-5781*
Y-5438*
Y-5436*
X11427Y-5434*
X11428Y-5432*
X11430Y-5430*
X11441Y-4430D02*
X11525Y-4361D01*
X11527*
X11529Y-4360*
X11531Y-4359*
X11700*
X11702Y-4360*
X11703*
X11704Y-4361*
X11706*
X11790Y-4430*
X11792Y-4432*
Y-4434*
X11793Y-4436*
X11794Y-4438*
Y-4781*
X11793Y-4782*
X11792Y-4786*
Y-4787*
X11790Y-4789*
X11706Y-4857*
X11704Y-4858*
X11703*
X11702Y-4859*
X11701*
X11700*
X11531*
X11529*
X11527Y-4858*
X11525Y-4857*
X11441Y-4789*
X11440Y-4788*
X11439Y-4787*
X11438Y-4786*
X11437Y-4782*
Y-4781*
Y-4438*
Y-4436*
X11438Y-4434*
X11439Y-4432*
X11441Y-4430*
X11446Y-5443D02*
Y-5776D01*
X11476Y-5801*
X11718Y-5406*
X11685Y-5380*
X11523*
X11446Y-5443*
X11457Y-4443D02*
Y-4776D01*
X11487Y-4801*
X11729Y-4406*
X11696Y-4380*
X11534*
X11457Y-4443*
X11492Y-5814D02*
X11523Y-5839D01*
X11685*
X11763Y-5776*
Y-5443*
X11733Y-5419*
X11492Y-5814*
X11503Y-4814D02*
X11534Y-4839D01*
X11696*
X11774Y-4776*
Y-4443*
X11744Y-4419*
X11503Y-4814*
X11694Y5051D02*
G03X11596Y5149I98D01*
X11498Y5051J98*
X11596Y4952I98*
X11694Y5051J99*
G01X11716Y-3085D02*
Y-3137D01*
X12032*
Y-3118*
X11937Y-3022*
X11809*
X11716Y-3085*
X11768Y5051D02*
G03X11596Y5223I172D01*
X11424Y5051J172*
X11596Y4879I172*
X11768Y5051J172*
G01X11786Y5824D02*
G03X11687Y5922I99D01*
X11589Y5824J98*
X11687Y5725I98*
X11786Y5824J99*
G01X11798Y6457D02*
G03X11700Y6555I98D01*
X11601Y6457J98*
X11700Y6358I99*
X11798Y6457J99*
G01X11806Y-3002D02*
X11942D01*
X11944Y-3003*
X11946*
X11949Y-3005*
X12050Y-3106*
X12051Y-3108*
Y-3110*
Y-3111*
X12052*
Y-3114*
Y-3147*
Y-3151*
X12049Y-3154*
X12047Y-3156*
X12042Y-3157*
X11716*
Y-3277*
X11809Y-3339*
X11937*
X12035Y-3241*
X12038Y-3239*
X12042*
X12046Y-3240*
X12049Y-3242*
X12051Y-3245*
X12052Y-3249*
Y-3253*
X12050Y-3256*
X11949Y-3356*
X11946Y-3358*
X11944Y-3359*
X11942*
X11806*
X11803*
X11801Y-3357*
X11700Y-3290*
X11698Y-3289*
X11697Y-3287*
X11696Y-3285*
X11695Y-3282*
Y-3079*
X11696Y-3077*
X11697Y-3074*
X11698Y-3073*
X11699Y-3072*
X11700Y-3071*
X11801Y-3004*
X11803Y-3002*
X11806*
X11859Y5824D02*
G03X11687Y5995I172D01*
X11515Y5824J171*
X11687Y5652I172*
X11859Y5824J172*
G01X11871Y6457D02*
G03X11700Y6628I171D01*
X11528Y6457J171*
X11700Y6285I172*
X11871Y6457J172*
G01X11903Y-5430D02*
X11987Y-5361D01*
X11989*
X11990Y-5360*
X11991*
X11993Y-5359*
X12161*
X12163Y-5360*
X12164*
X12166Y-5361*
X12168*
X12252Y-5430*
X12253Y-5432*
X12254Y-5434*
X12255Y-5436*
Y-5438*
Y-5781*
Y-5782*
X12254Y-5786*
X12253Y-5787*
X12252Y-5789*
X12168Y-5857*
X12166Y-5858*
X12165*
X12164Y-5859*
X12163*
X12161*
X11993*
X11991*
X11989Y-5858*
X11987Y-5857*
X11903Y-5789*
X11902Y-5788*
X11901Y-5787*
X11900Y-5786*
X11899Y-5782*
X11898Y-5781*
Y-5438*
X11899Y-5436*
X11900Y-5434*
X11901Y-5432*
X11903Y-5430*
X11909Y1181D02*
G03X11811Y1279I98D01*
X11713Y1181J98*
X11811Y1083I98*
X11909Y1181J98*
G01Y2362D02*
G03X11811Y2460I98D01*
X11713Y2362J98*
X11811Y2264I98*
X11909Y2362J98*
G01Y3543D02*
G03X11811Y3642I98D01*
X11713Y3543J99*
X11811Y3445I98*
X11909Y3543J98*
G01Y9449D02*
G03X11811Y9547I98D01*
X11713Y9449J98*
X11811Y9351I98*
X11909Y9449J98*
G01Y10630D02*
G03X11811Y10728I98D01*
X11713Y10630J98*
X11811Y10532I98*
X11909Y10630J98*
G01X11914Y-4430D02*
X11998Y-4361D01*
X12000*
X12001Y-4360*
X12002*
X12004Y-4359*
X12172*
X12174Y-4360*
X12175*
X12177Y-4361*
X12179*
X12263Y-4430*
X12264Y-4432*
X12265Y-4434*
X12266Y-4436*
Y-4438*
Y-4781*
Y-4782*
X12265Y-4786*
X12264Y-4787*
X12263Y-4789*
X12179Y-4857*
X12177Y-4858*
X12176*
X12175Y-4859*
X12174*
X12172*
X12004*
X12002*
X12000Y-4858*
X11998Y-4857*
X11914Y-4789*
X11913Y-4788*
X11912Y-4787*
X11911Y-4786*
X11910Y-4782*
X11909Y-4781*
Y-4438*
X11910Y-4436*
X11911Y-4434*
X11912Y-4432*
X11914Y-4430*
X11919Y-5443D02*
Y-5776D01*
X11948Y-5801*
X12190Y-5406*
X12157Y-5380*
X11996*
X11919Y-5443*
X11930Y-4443D02*
Y-4776D01*
X11959Y-4801*
X12201Y-4406*
X12168Y-4380*
X12007*
X11930Y-4443*
X11964Y-5814D02*
X11996Y-5839D01*
X12157*
X12235Y-5776*
Y-5443*
X12206Y-5419*
X11964Y-5814*
X11972Y1806D02*
X12659D01*
X11975Y-4814D02*
X12007Y-4839D01*
X12168*
X12246Y-4776*
Y-4443*
X12217Y-4419*
X11975Y-4814*
X11977Y7711D02*
G03X11879Y7810I98D01*
X11781Y7711J99*
X11879Y7613I98*
X11977Y7711J98*
G01X11983Y1181D02*
G03X11811Y1353I172D01*
X11639Y1181J172*
X11811Y1009I172*
X11983Y1181J172*
G01Y2362D02*
G03X11811Y2534I172D01*
X11639Y2362J172*
X11811Y2190I172*
X11983Y2362J172*
G01Y3543D02*
G03X11811Y3715I172D01*
X11639Y3543J172*
X11811Y3371I172*
X11983Y3543J172*
G01Y9449D02*
G03X11811Y9621I172D01*
X11639Y9449J172*
X11811Y9277I172*
X11983Y9449J172*
G01Y10630D02*
G03X11811Y10802I172D01*
X11639Y10630J172*
X11811Y10458I172*
X11983Y10630J172*
G01X12051Y7711D02*
G03X11879Y7883I172D01*
X11707Y7711J172*
X11879Y7540I172*
X12051Y7711J171*
G01X12166Y-3349D02*
X12167Y-3353D01*
X12170Y-3356*
X12173Y-3357*
X12176Y-3358*
X12180Y-3357*
X12184Y-3356*
X12186Y-3353*
X12187Y-3349*
Y-3084*
X12264Y-3022*
X12426*
X12508Y-3088*
X12511Y-3089*
X12514*
X12518Y-3087*
X12520Y-3085*
X12522Y-3081*
X12523Y-3078*
X12522Y-3074*
X12520Y-3071*
X12436Y-3004*
X12433Y-3003*
X12431*
X12429Y-3002*
X12261*
X12259Y-3003*
X12257*
X12255Y-3004*
X12187Y-3058*
Y-3012*
X12186Y-3008*
X12184Y-3006*
X12180Y-3004*
X12176Y-3003*
X12173Y-3004*
X12170Y-3006*
X12167Y-3008*
X12166Y-3012*
Y-3078*
Y-3079*
Y-3081*
Y-3349*
X12236Y10040D02*
G03X12138Y10138I98D01*
X12040Y10040J98*
X12138Y9941I98*
X12236Y10040J99*
G01X12310D02*
G03X12138Y10211I172D01*
X11966Y10040J171*
X12138Y9868I172*
X12310Y10040J172*
G01X12316Y1437D02*
X12684Y1806D01*
X12316Y2175*
X11947Y1806*
X12316Y1437*
Y1462D02*
Y2150D01*
X12422Y427D02*
G03X12323Y525I99D01*
X12225Y427J98*
X12323Y329I98*
X12422Y427J98*
G01X12495D02*
G03X12323Y599I172D01*
X12152Y427J172*
X12323Y255I171*
X12495Y427J172*
G01X13090Y1181D02*
G03X12992Y1279I98D01*
X12894Y1181J98*
X12992Y1083I98*
X13090Y1181J98*
G01Y2362D02*
G03X12992Y2460I98D01*
X12894Y2362J98*
X12992Y2264I98*
X13090Y2362J98*
G01Y3543D02*
G03X12992Y3642I98D01*
X12894Y3543J99*
X12992Y3445I98*
X13090Y3543J98*
G01Y9449D02*
G03X12992Y9547I98D01*
X12894Y9449J98*
X12992Y9351I98*
X13090Y9449J98*
G01X13164Y1181D02*
G03X12992Y1353I172D01*
X12820Y1181J172*
X12992Y1009I172*
X13164Y1181J172*
G01Y2362D02*
G03X12992Y2534I172D01*
X12820Y2362J172*
X12992Y2190I172*
X13164Y2362J172*
G01Y3543D02*
G03X12992Y3715I172D01*
X12820Y3543J172*
X12992Y3371I172*
X13164Y3543J172*
G01Y9449D02*
G03X12992Y9621I172D01*
X12820Y9449J172*
X12992Y9277I172*
X13164Y9449J172*
G01X13479Y4586D02*
G03X13381Y4684I98D01*
X13283Y4586J98*
X13381Y4488I98*
X13479Y4586J98*
G01X13553D02*
G03X13381Y4758I172D01*
X13209Y4586J172*
X13381Y4414I172*
X13553Y4586J172*
G01X13660Y8862D02*
G03X13562Y8960I98D01*
X13464Y8862J98*
X13562Y8764I98*
X13660Y8862J98*
G01X13709Y441D02*
G03X13611Y539I98D01*
X13512Y441J98*
X13611Y342I99*
X13709Y441J99*
G01X13734Y8862D02*
G03X13562Y9034I172D01*
X13390Y8862J172*
X13562Y8690I172*
X13734Y8862J172*
G01X13770Y7068D02*
G03X13671Y7166I99D01*
X13573Y7068J98*
X13671Y6970I98*
X13770Y7068J98*
G01X13782Y441D02*
G03X13611Y612I171D01*
X13439Y441J171*
X13611Y269I172*
X13782Y441J172*
G01X13843Y7068D02*
G03X13671Y7240I172D01*
X13500Y7068J172*
X13671Y6896I171*
X13843Y7068J172*
G01X13861Y5495D02*
G03X13763Y5593I98D01*
X13664Y5495J98*
X13763Y5397I99*
X13861Y5495J98*
G01X13873Y4801D02*
G03X13775Y4899I98D01*
X13677Y4801J98*
X13775Y4703I98*
X13873Y4801J98*
G01X13879Y4162D02*
G03X13781Y4260I98D01*
X13683Y4162J98*
X13781Y4064I98*
X13879Y4162J98*
G01X13891Y3541D02*
G03X13793Y3640I98D01*
X13695Y3541J99*
X13793Y3443I98*
X13891Y3541J98*
G01X13893Y10478D02*
G03X13795Y10576I98D01*
X13696Y10478J98*
X13795Y10380I99*
X13893Y10478J98*
G01X13920Y7835D02*
G03X13822Y7933I98D01*
X13724Y7835J98*
X13822Y7737I98*
X13920Y7835J98*
G01X13934Y5495D02*
G03X13763Y5667I171D01*
X13591Y5495J172*
X13763Y5323I172*
X13934Y5495J172*
G01X13947Y4801D02*
G03X13775Y4973I172D01*
X13603Y4801J172*
X13775Y4629I172*
X13947Y4801J172*
G01X13953Y4162D02*
G03X13781Y4334I172D01*
X13609Y4162J172*
X13781Y3990I172*
X13953Y4162J172*
G01X13965Y3541D02*
G03X13793Y3713I172D01*
X13621Y3541J172*
X13793Y3370I172*
X13965Y3541J171*
G01X13966Y10478D02*
G03X13795Y10650I171D01*
X13623Y10478J172*
X13795Y10306I172*
X13966Y10478J172*
G01X13994Y7835D02*
G03X13822Y8007I172D01*
X13650Y7835J172*
X13822Y7663I172*
X13994Y7835J172*
G01X13995Y6396D02*
G03X13896Y6494I99D01*
X13798Y6396J98*
X13896Y6297I98*
X13995Y6396J99*
G01X14068D02*
G03X13896Y6567I172D01*
X13725Y6396J171*
X13896Y6224I171*
X14068Y6396J172*
G01X17317Y-4660D02*
X17320Y-4659D01*
X17323Y-4657*
X17324Y-4653*
Y-4650*
Y-4646*
X17323Y-4643*
X17320Y-4641*
X17317Y-4640*
X17193*
Y-4517*
X17192Y-4513*
X17190Y-4511*
X17187Y-4509*
X17183Y-4508*
X17180Y-4509*
X17177Y-4511*
X17174Y-4513*
Y-4517*
Y-4640*
X17050*
X17046Y-4641*
X17044Y-4643*
X17043Y-4646*
X17042Y-4650*
X17043Y-4653*
X17044Y-4657*
X17046Y-4659*
X17050Y-4660*
X17174*
Y-4783*
Y-4787*
X17177Y-4789*
X17180Y-4791*
X17183*
X17187*
X17190Y-4789*
X17192Y-4787*
X17193Y-4783*
Y-4660*
X17317*
X17477Y-4430D02*
X17561Y-4361D01*
X17563*
X17565Y-4360*
X17567Y-4359*
X17736*
X17738Y-4360*
X17739*
X17740Y-4361*
X17742*
X17826Y-4430*
X17828Y-4432*
Y-4434*
X17829Y-4436*
X17830Y-4438*
Y-4781*
X17829Y-4782*
X17828Y-4786*
Y-4787*
X17826Y-4789*
X17742Y-4857*
X17740Y-4858*
X17739*
X17738Y-4859*
X17737*
X17736*
X17567*
X17565*
X17563Y-4858*
X17561Y-4857*
X17477Y-4789*
X17476Y-4788*
X17475Y-4787*
X17474Y-4786*
X17473Y-4782*
Y-4781*
Y-4438*
Y-4436*
X17474Y-4434*
X17475Y-4432*
X17477Y-4430*
X17493Y-4443D02*
Y-4776D01*
X17523Y-4801*
X17765Y-4406*
X17732Y-4380*
X17570*
X17493Y-4443*
X17539Y-4814D02*
X17570Y-4839D01*
X17732*
X17810Y-4776*
Y-4443*
X17780Y-4419*
X17539Y-4814*
X17950Y-4430D02*
X18034Y-4361D01*
X18036*
X18037Y-4360*
X18038*
X18040Y-4359*
X18208*
X18210Y-4360*
X18211*
X18213Y-4361*
X18215*
X18299Y-4430*
X18300Y-4432*
X18301Y-4434*
X18302Y-4436*
Y-4438*
Y-4781*
Y-4782*
X18301Y-4786*
X18300Y-4787*
X18299Y-4789*
X18215Y-4857*
X18213Y-4858*
X18212*
X18211Y-4859*
X18210*
X18208*
X18040*
X18038*
X18036Y-4858*
X18034Y-4857*
X17950Y-4789*
X17949Y-4788*
X17948Y-4787*
X17947Y-4786*
X17946Y-4782*
X17945Y-4781*
Y-4438*
X17946Y-4436*
X17947Y-4434*
X17948Y-4432*
X17950Y-4430*
X17966Y-4443D02*
Y-4776D01*
X17995Y-4801*
X18237Y-4406*
X18204Y-4380*
X18043*
X17966Y-4443*
X18011Y-4814D02*
X18043Y-4839D01*
X18204*
X18282Y-4776*
Y-4443*
X18253Y-4419*
X18011Y-4814*
X18515Y-4796D02*
Y-4851D01*
X18516Y-4853*
Y-4855*
X18517Y-4856*
X18518*
X18520Y-4859*
X18523*
X18578*
X18581*
X18584Y-4856*
X18586Y-4854*
X18587Y-4851*
Y-4796*
X18586Y-4793*
X18584Y-4791*
X18581Y-4788*
X18578*
X18523*
X18520*
X18518Y-4791*
X18517*
X18516Y-4792*
Y-4794*
X18515Y-4796*
X18532Y-4804D02*
X18570D01*
Y-4843*
X18532*
Y-4804*
X18807Y-4430D02*
X18891Y-4361D01*
X18893*
X18894Y-4360*
X18895*
X18897Y-4359*
X19065*
X19067Y-4360*
X19068*
X19070Y-4361*
X19072*
X19156Y-4430*
X19157Y-4432*
X19158Y-4434*
X19159Y-4436*
Y-4438*
Y-4781*
Y-4782*
X19158Y-4786*
X19157Y-4787*
X19156Y-4789*
X19072Y-4857*
X19070Y-4858*
X19069*
X19068Y-4859*
X19067*
X19065*
X18897*
X18895*
X18893Y-4858*
X18891Y-4857*
X18807Y-4789*
X18806Y-4788*
X18805Y-4787*
X18804Y-4786*
X18803Y-4782*
X18802Y-4781*
Y-4438*
X18803Y-4436*
X18804Y-4434*
X18805Y-4432*
X18807Y-4430*
X18823Y-4443D02*
Y-4776D01*
X18852Y-4801*
X19094Y-4406*
X19061Y-4380*
X18900*
X18823Y-4443*
X18868Y-4814D02*
X18900Y-4839D01*
X19061*
X19139Y-4776*
Y-4443*
X19110Y-4419*
X18868Y-4814*
X19105Y-5660D02*
X19109Y-5659D01*
X19111Y-5657*
X19113Y-5653*
Y-5650*
Y-5646*
X19111Y-5643*
X19109Y-5641*
X19105Y-5640*
X18981*
Y-5517*
Y-5513*
X18979Y-5511*
X18975Y-5509*
X18971Y-5508*
X18968Y-5509*
X18965Y-5511*
X18963Y-5513*
X18962Y-5517*
Y-5640*
X18839*
X18835Y-5641*
X18833Y-5643*
X18831Y-5646*
Y-5650*
Y-5653*
X18833Y-5657*
X18835Y-5659*
X18839Y-5660*
X18962*
Y-5783*
X18963Y-5787*
X18965Y-5789*
X18968Y-5791*
X18971*
X18975*
X18979Y-5789*
X18981Y-5787*
Y-5783*
Y-5660*
X19105*
X19263Y-5843D02*
X19600Y-5363D01*
X19603Y-5361*
X19606Y-5360*
X19610Y-5361*
X19613Y-5363*
X19616Y-5365*
X19617Y-5369*
X19618Y-5372*
X19617Y-5376*
X19279Y-5855*
X19278Y-5857*
X19276Y-5858*
X19275*
X19273*
X19270Y-5857*
X19267Y-5856*
X19264Y-5853*
X19262Y-5850*
Y-5846*
X19263Y-5843*
X19327Y-3349D02*
Y-3353D01*
X19330Y-3356*
X19333Y-3357*
X19337Y-3358*
X19340Y-3357*
X19343Y-3356*
X19346Y-3353*
X19347Y-3349*
Y-2880*
X19505*
X19509Y-2879*
X19512Y-2877*
X19513Y-2873*
X19514Y-2870*
X19513Y-2866*
X19512Y-2862*
X19509Y-2860*
X19505Y-2859*
X19168*
X19164Y-2860*
X19162Y-2862*
X19160Y-2866*
X19159Y-2870*
X19160Y-2873*
X19162Y-2877*
X19164Y-2879*
X19168Y-2880*
X19327*
Y-3349*
X19369Y-4531D02*
X19367Y-4532D01*
X19365*
X19363Y-4533*
X19295Y-4588*
Y-4380*
X19622*
X19625Y-4379*
X19628Y-4377*
X19630Y-4373*
Y-4370*
Y-4366*
X19628Y-4363*
X19625Y-4360*
X19622Y-4359*
X19284*
X19281Y-4360*
X19278Y-4363*
X19275Y-4366*
X19274Y-4369*
Y-4610*
X19275Y-4613*
X19276Y-4616*
X19278Y-4617*
X19282Y-4618*
X19284Y-4619*
X19286Y-4620*
X19289Y-4619*
X19291Y-4618*
X19372Y-4551*
X19534*
X19612Y-4615*
Y-4776*
X19534Y-4838*
X19372*
X19291Y-4772*
X19287Y-4771*
X19284*
X19281Y-4773*
X19278Y-4775*
X19276Y-4779*
Y-4782*
Y-4786*
X19279Y-4788*
X19363Y-4857*
X19365Y-4858*
X19367*
X19369Y-4859*
X19537*
X19539*
X19540*
X19541Y-4858*
X19542*
X19544Y-4857*
X19628Y-4788*
X19630Y-4787*
Y-4786*
X19631Y-4783*
X19632Y-4781*
Y-4610*
X19631Y-4608*
X19630Y-4605*
Y-4604*
Y-4603*
X19629Y-4602*
X19628Y-4601*
X19544Y-4533*
X19541Y-4532*
X19539*
X19537Y-4531*
X19369*
X19651Y-3084D02*
Y-3277D01*
X19713Y-3339*
X19906*
X19968Y-3277*
Y-3084*
X19906Y-3022*
X19713*
X19651Y-3084*
X19752Y-4430D02*
X19836Y-4361D01*
X19838*
X19839Y-4360*
X19840*
X19842Y-4359*
X20010*
X20012Y-4360*
X20013*
X20015Y-4361*
X20017*
X20101Y-4430*
X20102Y-4432*
X20103Y-4434*
X20104Y-4436*
Y-4438*
Y-4781*
Y-4782*
X20103Y-4786*
X20102Y-4787*
X20101Y-4789*
X20017Y-4857*
X20015Y-4858*
X20014*
X20013Y-4859*
X20012*
X20010*
X19842*
X19840*
X19838Y-4858*
X19836Y-4857*
X19752Y-4789*
X19751Y-4788*
X19750Y-4787*
X19749Y-4786*
X19748Y-4782*
X19747Y-4781*
Y-4438*
X19748Y-4436*
X19749Y-4434*
X19750Y-4432*
X19752Y-4430*
X19768Y-4443D02*
Y-4776D01*
X19797Y-4801*
X20039Y-4406*
X20006Y-4380*
X19845*
X19768Y-4443*
X19803Y-5637D02*
X19963D01*
X19967Y-5638*
X19969Y-5640*
X19971Y-5642*
Y-5645*
Y-5649*
X19969Y-5652*
X19967Y-5654*
X19963*
X19803*
X19799*
X19797Y-5652*
X19795Y-5649*
Y-5645*
Y-5642*
X19796Y-5640*
X19799Y-5638*
X19803Y-5637*
X19813Y-4814D02*
X19845Y-4839D01*
X20006*
X20084Y-4776*
Y-4443*
X20055Y-4419*
X19813Y-4814*
X19911Y-3359D02*
X19709D01*
X19707*
X19706*
X19703Y-3358*
X19701Y-3356*
X19634Y-3289*
X19632Y-3287*
X19631Y-3284*
Y-3282*
Y-3079*
Y-3078*
X19632Y-3075*
X19634Y-3072*
X19701Y-3005*
X19703Y-3003*
X19706*
X19707Y-3002*
X19709*
X19911*
X19913Y-3003*
X19915*
X19918Y-3005*
X19986Y-3072*
Y-3074*
X19987Y-3076*
Y-3077*
Y-3078*
X19988Y-3079*
Y-3282*
X19987Y-3284*
Y-3286*
X19986Y-3289*
X19918Y-3356*
X19915Y-3358*
X19913Y-3359*
X19911*
X20174Y-2859D02*
X20170Y-2860D01*
X20168Y-2863*
X20167Y-2866*
X20166Y-2870*
X20167Y-2873*
X20168Y-2877*
X20170Y-2879*
X20174Y-2880*
X20262*
Y-3338*
X20174*
X20170Y-3339*
X20168Y-3342*
X20167Y-3345*
X20166Y-3349*
X20167Y-3353*
X20168Y-3356*
X20170Y-3358*
X20174Y-3359*
X20369*
X20373Y-3358*
X20376Y-3356*
X20377Y-3353*
X20378Y-3349*
X20377Y-3345*
X20376Y-3342*
X20373Y-3339*
X20369Y-3338*
X20281*
Y-2869*
Y-2866*
X20278Y-2863*
X20276Y-2860*
X20272Y-2859*
X20174*
X20224Y-4430D02*
X20308Y-4361D01*
X20310*
X20312Y-4360*
X20314Y-4359*
X20483*
X20485Y-4360*
X20486*
X20487Y-4361*
X20489*
X20573Y-4430*
X20575Y-4432*
Y-4434*
X20576Y-4436*
X20577Y-4438*
Y-4781*
X20576Y-4782*
X20575Y-4786*
Y-4787*
X20573Y-4789*
X20489Y-4857*
X20487Y-4858*
X20486*
X20485Y-4859*
X20484*
X20483*
X20314*
X20312*
X20310Y-4858*
X20308Y-4857*
X20224Y-4789*
X20223Y-4788*
X20222Y-4787*
X20221Y-4786*
X20220Y-4782*
Y-4781*
Y-4438*
Y-4436*
X20221Y-4434*
X20222Y-4432*
X20224Y-4430*
X20240Y-4443D02*
Y-4776D01*
X20270Y-4801*
X20512Y-4406*
X20479Y-4380*
X20317*
X20240Y-4443*
X20286Y-4814D02*
X20317Y-4839D01*
X20479*
X20557Y-4776*
Y-4443*
X20527Y-4419*
X20286Y-4814*
X20550Y-5430D02*
X20634Y-5361D01*
X20636*
X20637Y-5360*
X20638*
X20640Y-5359*
X20808*
X20810Y-5360*
X20811*
X20813Y-5361*
X20815*
X20899Y-5430*
X20900Y-5432*
X20901Y-5434*
X20902Y-5436*
Y-5438*
Y-5781*
Y-5782*
X20901Y-5786*
X20900Y-5787*
X20899Y-5789*
X20815Y-5857*
X20813Y-5858*
X20812*
X20811Y-5859*
X20810*
X20808*
X20640*
X20638*
X20636Y-5858*
X20634Y-5857*
X20550Y-5789*
X20549Y-5788*
X20548Y-5787*
X20547Y-5786*
X20546Y-5782*
X20545Y-5781*
Y-5438*
X20546Y-5436*
X20547Y-5434*
X20548Y-5432*
X20550Y-5430*
X20566Y-5443D02*
Y-5776D01*
X20595Y-5801*
X20837Y-5406*
X20804Y-5380*
X20643*
X20566Y-5443*
X20576Y-3085D02*
Y-3137D01*
X20893*
Y-3118*
X20797Y-3022*
X20669*
X20576Y-3085*
X20611Y-5814D02*
X20643Y-5839D01*
X20804*
X20882Y-5776*
Y-5443*
X20853Y-5419*
X20611Y-5814*
X20667Y-3002D02*
X20802D01*
X20804Y-3003*
X20806*
X20809Y-3005*
X20911Y-3106*
Y-3108*
X20912Y-3110*
Y-3111*
X20913Y-3114*
Y-3147*
X20912Y-3151*
X20910Y-3154*
X20907Y-3156*
X20903Y-3157*
X20576*
Y-3277*
X20669Y-3339*
X20797*
X20896Y-3241*
X20899Y-3239*
X20902*
X20906Y-3240*
X20909Y-3242*
X20912Y-3245*
X20913Y-3249*
Y-3253*
X20911Y-3256*
X20809Y-3356*
X20806Y-3358*
X20804Y-3359*
X20802*
X20667*
X20664*
X20661Y-3357*
X20561Y-3290*
X20559Y-3289*
X20558Y-3287*
X20556Y-3285*
Y-3282*
Y-3079*
Y-3077*
X20558Y-3074*
X20559Y-3073*
X20560Y-3072*
X20561Y-3071*
X20661Y-3004*
X20664Y-3002*
X20667*
X21022Y-5430D02*
X21106Y-5361D01*
X21108*
X21110Y-5360*
X21112Y-5359*
X21281*
X21283Y-5360*
X21284*
X21285Y-5361*
X21287*
X21371Y-5430*
X21373Y-5432*
Y-5434*
X21374Y-5436*
X21375Y-5438*
Y-5781*
X21374Y-5782*
X21373Y-5786*
Y-5787*
X21371Y-5789*
X21287Y-5857*
X21285Y-5858*
X21284*
X21283Y-5859*
X21282*
X21281*
X21112*
X21110*
X21108Y-5858*
X21106Y-5857*
X21022Y-5789*
X21021Y-5788*
X21020Y-5787*
X21019Y-5786*
X21018Y-5782*
Y-5781*
Y-5438*
Y-5436*
X21019Y-5434*
X21020Y-5432*
X21022Y-5430*
X21027Y-3349D02*
X21028Y-3353D01*
X21030Y-3356*
X21033Y-3357*
X21037Y-3358*
X21041Y-3357*
X21044Y-3356*
X21047Y-3353*
X21048Y-3349*
Y-3084*
X21125Y-3022*
X21286*
X21368Y-3088*
X21371Y-3089*
X21375*
X21378Y-3087*
X21381Y-3085*
X21383Y-3081*
Y-3078*
Y-3074*
X21381Y-3071*
X21296Y-3004*
X21294Y-3003*
X21292*
X21290Y-3002*
X21121*
X21119Y-3003*
X21118*
X21116Y-3004*
X21048Y-3058*
Y-3012*
X21047Y-3008*
X21044Y-3006*
X21041Y-3004*
X21037Y-3003*
X21033Y-3004*
X21030Y-3006*
X21028Y-3008*
X21027Y-3012*
Y-3078*
Y-3079*
Y-3081*
Y-3349*
X21038Y-5443D02*
Y-5776D01*
X21068Y-5801*
X21310Y-5406*
X21277Y-5380*
X21115*
X21038Y-5443*
X21052Y-4843D02*
X21389Y-4363D01*
X21391Y-4361*
X21395Y-4360*
X21398Y-4361*
X21401Y-4363*
X21404Y-4365*
X21406Y-4369*
Y-4372*
X21405Y-4376*
X21068Y-4855*
X21067Y-4857*
X21065Y-4858*
X21063*
X21062*
X21058Y-4857*
X21055Y-4856*
X21053Y-4853*
X21051Y-4850*
X21050Y-4846*
X21052Y-4843*
X21084Y-5814D02*
X21115Y-5839D01*
X21277*
X21355Y-5776*
Y-5443*
X21325Y-5419*
X21084Y-5814*
X21521Y-3186D02*
X21614Y-3123D01*
X21744*
X21837Y-3186*
Y-3277*
X21744Y-3339*
X21614*
X21521Y-3277*
Y-3186*
X21588Y-5796D02*
Y-5851D01*
Y-5853*
X21589Y-5855*
X21590Y-5856*
X21591*
X21593Y-5859*
X21596*
X21651*
X21654*
X21656Y-5856*
X21659Y-5854*
Y-5851*
Y-5796*
Y-5793*
X21656Y-5791*
X21654Y-5788*
X21651*
X21596*
X21593*
X21591Y-5791*
X21590*
X21589Y-5792*
X21588Y-5794*
Y-5796*
X21604Y-5804D02*
X21643D01*
Y-5843*
X21604*
Y-5804*
X21837Y-3349D02*
X21838Y-3353D01*
X21840Y-3356*
X21844Y-3357*
X21847Y-3358*
X21851Y-3357*
X21854Y-3356*
X21856Y-3353*
X21857Y-3349*
Y-3079*
X21856Y-3078*
Y-3076*
X21855Y-3072*
X21787Y-3005*
X21784Y-3003*
X21782*
X21780Y-3002*
X21510*
X21506Y-3003*
X21504Y-3005*
X21502Y-3009*
X21501Y-3012*
X21502Y-3016*
X21504Y-3019*
X21506Y-3021*
X21510Y-3022*
X21775*
X21837Y-3084*
Y-3163*
X21751Y-3105*
X21749Y-3104*
X21746Y-3103*
X21611*
X21608Y-3104*
X21606Y-3105*
X21505Y-3173*
X21504Y-3174*
X21503*
X21502Y-3175*
X21500Y-3177*
Y-3181*
Y-3282*
Y-3285*
X21502Y-3287*
X21503Y-3289*
X21505Y-3290*
X21606Y-3357*
X21608Y-3359*
X21611*
X21746*
X21749*
X21751Y-3357*
X21837Y-3301*
Y-3349*
X21947Y-5839D02*
X21943Y-5840D01*
X21941Y-5842*
X21939Y-5845*
Y-5849*
Y-5853*
X21941Y-5856*
X21943Y-5859*
X21947*
X22142*
X22145*
X22148Y-5856*
X22150Y-5853*
Y-5849*
Y-5845*
X22148Y-5842*
X22145Y-5840*
X22142Y-5839*
X22054*
Y-5369*
X22053Y-5366*
X22052Y-5363*
X22049Y-5362*
X22046Y-5361*
X22043*
X22041*
X22039Y-5362*
X22037Y-5364*
X21939Y-5501*
X21938Y-5504*
Y-5508*
X21939Y-5511*
X21942Y-5513*
X21945Y-5515*
X21948Y-5516*
X21950*
X21952*
X21954Y-5513*
X22034Y-5401*
Y-5839*
X21947*
X21949Y-4637D02*
X22109D01*
X22113Y-4638*
X22115Y-4640*
X22117Y-4642*
Y-4645*
Y-4649*
X22115Y-4652*
X22113Y-4654*
X22109*
X21949*
X21945*
X21943Y-4652*
X21941Y-4649*
Y-4645*
Y-4642*
X21942Y-4640*
X21945Y-4638*
X21949Y-4637*
X22309Y-3349D02*
Y-3353D01*
X22312Y-3356*
X22315Y-3357*
X22319Y-3358*
X22322Y-3357*
X22325Y-3356*
X22328Y-3353*
X22329Y-3349*
Y-3079*
X22328Y-3078*
X22327Y-3076*
Y-3074*
X22325Y-3071*
X22241Y-3004*
X22238Y-3003*
X22236*
X22234Y-3002*
X22066*
X22064Y-3003*
X22062*
X22060Y-3004*
X21992Y-3058*
Y-3012*
X21991Y-3008*
X21989Y-3006*
X21985Y-3004*
X21981Y-3003*
X21978Y-3004*
X21975Y-3006*
X21972Y-3008*
X21971Y-3012*
Y-3349*
X21972Y-3353*
X21975Y-3356*
X21978Y-3357*
X21981Y-3358*
X21985Y-3357*
X21989Y-3356*
X21991Y-3353*
X21992Y-3349*
Y-3084*
X22069Y-3022*
X22231*
X22309Y-3084*
Y-3349*
X22334Y-5430D02*
X22418Y-5361D01*
X22420*
X22422Y-5360*
X22424Y-5359*
X22593*
X22595Y-5360*
X22596*
X22597Y-5361*
X22599*
X22683Y-5430*
X22685Y-5432*
Y-5434*
X22686Y-5436*
X22687Y-5438*
Y-5781*
X22686Y-5782*
X22685Y-5786*
Y-5787*
X22683Y-5789*
X22599Y-5857*
X22597Y-5858*
X22596*
X22595Y-5859*
X22594*
X22593*
X22424*
X22422*
X22420Y-5858*
X22418Y-5857*
X22334Y-5789*
X22333Y-5788*
X22332Y-5787*
X22331Y-5786*
X22330Y-5782*
Y-5781*
Y-5438*
Y-5436*
X22331Y-5434*
X22332Y-5432*
X22334Y-5430*
X22338Y-4430D02*
X22422Y-4361D01*
X22424*
X22426Y-4360*
X22428Y-4359*
X22597*
X22599Y-4360*
X22600*
X22601Y-4361*
X22603*
X22687Y-4430*
X22689Y-4432*
Y-4434*
X22690Y-4436*
X22691Y-4438*
Y-4781*
X22690Y-4782*
X22689Y-4786*
Y-4787*
X22687Y-4789*
X22603Y-4857*
X22601Y-4858*
X22600*
X22599Y-4859*
X22598*
X22597*
X22428*
X22426*
X22424Y-4858*
X22422Y-4857*
X22338Y-4789*
X22337Y-4788*
X22336Y-4787*
X22335Y-4786*
X22334Y-4782*
Y-4781*
Y-4438*
Y-4436*
X22335Y-4434*
X22336Y-4432*
X22338Y-4430*
X22350Y-5443D02*
Y-5776D01*
X22380Y-5801*
X22622Y-5406*
X22589Y-5380*
X22427*
X22350Y-5443*
X22354Y-4443D02*
Y-4776D01*
X22384Y-4801*
X22626Y-4406*
X22593Y-4380*
X22431*
X22354Y-4443*
X22396Y-5814D02*
X22427Y-5839D01*
X22589*
X22667Y-5776*
Y-5443*
X22637Y-5419*
X22396Y-5814*
X22400Y-4814D02*
X22431Y-4839D01*
X22593*
X22671Y-4776*
Y-4443*
X22641Y-4419*
X22400Y-4814*
X22690Y-3359D02*
X22555D01*
X22552*
X22549Y-3357*
X22449Y-3290*
X22447Y-3289*
X22446Y-3287*
X22444Y-3285*
Y-3282*
Y-3079*
Y-3077*
X22446Y-3074*
X22447Y-3073*
X22448Y-3072*
X22449Y-3071*
X22549Y-3004*
X22552Y-3002*
X22555*
X22690*
X22691*
Y-3003*
X22694*
X22697Y-3005*
X22799Y-3106*
X22801Y-3110*
X22800Y-3113*
X22799Y-3117*
X22797Y-3120*
X22794Y-3122*
X22790Y-3123*
X22787*
X22784Y-3121*
X22685Y-3022*
X22557*
X22464Y-3085*
Y-3277*
X22557Y-3339*
X22685*
X22784Y-3241*
X22787Y-3239*
X22790*
X22794Y-3240*
X22797Y-3242*
X22800Y-3245*
X22801Y-3249*
Y-3253*
X22799Y-3256*
X22697Y-3356*
X22694Y-3358*
X22691Y-3359*
X22690*
X22807Y-5430D02*
X22891Y-5361D01*
X22893*
X22894Y-5360*
X22895*
X22897Y-5359*
X23065*
X23067Y-5360*
X23068*
X23070Y-5361*
X23072*
X23156Y-5430*
X23157Y-5432*
X23158Y-5434*
X23159Y-5436*
Y-5438*
Y-5781*
Y-5782*
X23158Y-5786*
X23157Y-5787*
X23156Y-5789*
X23072Y-5857*
X23070Y-5858*
X23069*
X23068Y-5859*
X23067*
X23065*
X22897*
X22895*
X22893Y-5858*
X22891Y-5857*
X22807Y-5789*
X22806Y-5788*
X22805Y-5787*
X22804Y-5786*
X22803Y-5782*
X22802Y-5781*
Y-5438*
X22803Y-5436*
X22804Y-5434*
X22805Y-5432*
X22807Y-5430*
X22811Y-4430D02*
X22895Y-4361D01*
X22897*
X22898Y-4360*
X22899*
X22901Y-4359*
X23069*
X23071Y-4360*
X23072*
X23074Y-4361*
X23076*
X23160Y-4430*
X23161Y-4432*
X23162Y-4434*
X23163Y-4436*
Y-4438*
Y-4781*
Y-4782*
X23162Y-4786*
X23161Y-4787*
X23160Y-4789*
X23076Y-4857*
X23074Y-4858*
X23073*
X23072Y-4859*
X23071*
X23069*
X22901*
X22899*
X22897Y-4858*
X22895Y-4857*
X22811Y-4789*
X22810Y-4788*
X22809Y-4787*
X22808Y-4786*
X22807Y-4782*
X22806Y-4781*
Y-4438*
X22807Y-4436*
X22808Y-4434*
X22809Y-4432*
X22811Y-4430*
X22823Y-5443D02*
Y-5776D01*
X22852Y-5801*
X23094Y-5406*
X23061Y-5380*
X22900*
X22823Y-5443*
X22827Y-4443D02*
Y-4776D01*
X22856Y-4801*
X23098Y-4406*
X23065Y-4380*
X22904*
X22827Y-4443*
X22868Y-5814D02*
X22900Y-5839D01*
X23061*
X23139Y-5776*
Y-5443*
X23110Y-5419*
X22868Y-5814*
X22872Y-4814D02*
X22904Y-4839D01*
X23065*
X23143Y-4776*
Y-4443*
X23114Y-4419*
X22872Y-4814*
X22935Y-3085D02*
Y-3137D01*
X23252*
Y-3118*
X23156Y-3022*
X23028*
X22935Y-3085*
X23026Y-3002D02*
X23161D01*
X23163Y-3003*
X23165*
X23168Y-3005*
X23270Y-3106*
Y-3108*
X23271Y-3110*
Y-3111*
X23272Y-3114*
Y-3147*
X23271Y-3151*
X23269Y-3154*
X23266Y-3156*
X23262Y-3157*
X22935*
Y-3277*
X23028Y-3339*
X23156*
X23255Y-3241*
X23258Y-3239*
X23261*
X23265Y-3240*
X23268Y-3242*
X23271Y-3245*
X23272Y-3249*
Y-3253*
X23270Y-3256*
X23168Y-3356*
X23165Y-3358*
X23163Y-3359*
X23161*
X23026*
X23023*
X23020Y-3357*
X22920Y-3290*
X22918Y-3289*
X22917Y-3287*
X22915Y-3285*
Y-3282*
Y-3079*
Y-3077*
X22917Y-3074*
X22918Y-3073*
X22919Y-3072*
X22920Y-3071*
X23020Y-3004*
X23023Y-3002*
X23026*
X23279Y-5430D02*
X23363Y-5361D01*
X23365*
X23367Y-5360*
X23369Y-5359*
X23538*
X23540Y-5360*
X23541*
X23542Y-5361*
X23544*
X23628Y-5430*
X23630Y-5432*
Y-5434*
X23631Y-5436*
X23632Y-5438*
Y-5781*
X23631Y-5782*
X23630Y-5786*
Y-5787*
X23628Y-5789*
X23544Y-5857*
X23542Y-5858*
X23541*
X23540Y-5859*
X23539*
X23538*
X23369*
X23367*
X23365Y-5858*
X23363Y-5857*
X23279Y-5789*
X23278Y-5788*
X23277Y-5787*
X23276Y-5786*
X23275Y-5782*
Y-5781*
Y-5438*
Y-5436*
X23276Y-5434*
X23277Y-5432*
X23279Y-5430*
X23295Y-5443D02*
Y-5776D01*
X23325Y-5801*
X23567Y-5406*
X23534Y-5380*
X23372*
X23295Y-5443*
X23341Y-5814D02*
X23372Y-5839D01*
X23534*
X23612Y-5776*
Y-5443*
X23582Y-5419*
X23341Y-5814*
X23376Y-4796D02*
Y-4851D01*
X23377Y-4853*
Y-4855*
X23378Y-4856*
X23379*
X23381Y-4859*
X23384*
X23439*
X23442*
X23445Y-4856*
X23447Y-4854*
X23448Y-4851*
Y-4796*
X23447Y-4793*
X23445Y-4791*
X23442Y-4788*
X23439*
X23384*
X23381*
X23379Y-4791*
X23378*
X23377Y-4792*
Y-4794*
X23376Y-4796*
X23393Y-4804D02*
X23431D01*
Y-4843*
X23393*
Y-4804*
X23735Y-4839D02*
X23731Y-4840D01*
X23729Y-4842*
X23728Y-4845*
X23727Y-4849*
X23728Y-4853*
X23729Y-4856*
X23731Y-4859*
X23735*
X23930*
X23934*
X23937Y-4856*
X23938Y-4853*
X23939Y-4849*
X23938Y-4845*
X23937Y-4842*
X23934Y-4840*
X23930Y-4839*
X23842*
Y-4369*
Y-4366*
X23840Y-4363*
X23838Y-4362*
X23834Y-4361*
X23832*
X23829*
X23827Y-4362*
X23825Y-4364*
X23728Y-4501*
X23726Y-4504*
Y-4508*
X23728Y-4511*
X23730Y-4513*
X23733Y-4515*
X23737Y-4516*
X23739*
X23740*
X23743Y-4513*
X23823Y-4401*
Y-4839*
X23735*
X24123Y-4430D02*
X24207Y-4361D01*
X24209*
X24210Y-4360*
X24211*
X24213Y-4359*
X24381*
X24383Y-4360*
X24384*
X24386Y-4361*
X24388*
X24472Y-4430*
X24473Y-4432*
X24474Y-4434*
X24475Y-4436*
Y-4438*
Y-4781*
Y-4782*
X24474Y-4786*
X24473Y-4787*
X24472Y-4789*
X24388Y-4857*
X24386Y-4858*
X24385*
X24384Y-4859*
X24383*
X24381*
X24213*
X24211*
X24209Y-4858*
X24207Y-4857*
X24123Y-4789*
X24122Y-4788*
X24121Y-4787*
X24120Y-4786*
X24119Y-4782*
X24118Y-4781*
Y-4438*
X24119Y-4436*
X24120Y-4434*
X24121Y-4432*
X24123Y-4430*
X24139Y-4443D02*
Y-4776D01*
X24168Y-4801*
X24410Y-4406*
X24377Y-4380*
X24216*
X24139Y-4443*
X24184Y-4814D02*
X24216Y-4839D01*
X24377*
X24455Y-4776*
Y-4443*
X24426Y-4419*
X24184Y-4814*
X24595Y-4430D02*
X24679Y-4361D01*
X24681*
X24683Y-4360*
X24685Y-4359*
X24854*
X24856Y-4360*
X24857*
X24858Y-4361*
X24860*
X24944Y-4430*
X24946Y-4432*
Y-4434*
X24947Y-4436*
X24948Y-4438*
Y-4781*
X24947Y-4782*
X24946Y-4786*
Y-4787*
X24944Y-4789*
X24860Y-4857*
X24858Y-4858*
X24857*
X24856Y-4859*
X24855*
X24854*
X24685*
X24683*
X24681Y-4858*
X24679Y-4857*
X24595Y-4789*
X24594Y-4788*
X24593Y-4787*
X24592Y-4786*
X24591Y-4782*
Y-4781*
Y-4438*
Y-4436*
X24592Y-4434*
X24593Y-4432*
X24595Y-4430*
X24611Y-4443D02*
Y-4776D01*
X24641Y-4801*
X24883Y-4406*
X24850Y-4380*
X24688*
X24611Y-4443*
X24657Y-4814D02*
X24688Y-4839D01*
X24850*
X24928Y-4776*
Y-4443*
X24898Y-4419*
X24657Y-4814*
X25068Y-4430D02*
X25152Y-4361D01*
X25154*
X25155Y-4360*
X25156*
X25158Y-4359*
X25326*
X25328Y-4360*
X25329*
X25331Y-4361*
X25333*
X25417Y-4430*
X25418Y-4432*
X25419Y-4434*
X25420Y-4436*
Y-4438*
Y-4781*
Y-4782*
X25419Y-4786*
X25418Y-4787*
X25417Y-4789*
X25333Y-4857*
X25331Y-4858*
X25330*
X25329Y-4859*
X25328*
X25326*
X25158*
X25156*
X25154Y-4858*
X25152Y-4857*
X25068Y-4789*
X25067Y-4788*
X25066Y-4787*
X25065Y-4786*
X25064Y-4782*
X25063Y-4781*
Y-4438*
X25064Y-4436*
X25065Y-4434*
X25066Y-4432*
X25068Y-4430*
X25084Y-4443D02*
Y-4776D01*
X25113Y-4801*
X25355Y-4406*
X25322Y-4380*
X25161*
X25084Y-4443*
X25129Y-4814D02*
X25161Y-4839D01*
X25322*
X25400Y-4776*
Y-4443*
X25371Y-4419*
X25129Y-4814*
X26439Y-1349D02*
X26440Y-1353D01*
X26442Y-1356*
X26446Y-1357*
X26449Y-1358*
X26453Y-1357*
X26456Y-1356*
X26458Y-1353*
X26459Y-1349*
Y-880*
X26618*
X26621Y-879*
X26624Y-877*
X26626Y-873*
Y-870*
Y-866*
X26624Y-862*
X26621Y-860*
X26618Y-859*
X26280*
X26277Y-860*
X26274Y-862*
X26272Y-866*
Y-870*
Y-873*
X26274Y-877*
X26277Y-879*
X26280Y-880*
X26439*
Y-1349*
X26854Y-996D02*
X26853Y-997D01*
X26852*
X26851*
X26849Y-999*
X26764Y-1056*
Y-869*
X26763Y-866*
X26760Y-863*
X26757Y-861*
X26753*
X26749*
X26746Y-863*
X26744Y-866*
X26743Y-869*
Y-1349*
X26744Y-1353*
X26746Y-1356*
X26749Y-1357*
X26753Y-1358*
X26757Y-1357*
X26760Y-1356*
X26763Y-1353*
X26764Y-1349*
Y-1081*
X26856Y-1017*
X26987*
X27080Y-1081*
Y-1349*
X27081Y-1353*
X27083Y-1356*
X27087Y-1357*
X27090Y-1358*
X27094Y-1357*
X27097Y-1356*
X27099Y-1353*
X27100Y-1349*
Y-1075*
Y-1072*
X27099Y-1069*
X27096Y-1067*
X26994Y-999*
X26992Y-997*
X26989Y-996*
X26854*
X27214Y-1349D02*
X27215Y-1353D01*
X27218Y-1356*
X27221Y-1357*
X27224Y-1358*
X27228Y-1357*
X27232Y-1356*
X27234Y-1353*
X27235Y-1349*
Y-1084*
X27312Y-1022*
X27474*
X27556Y-1088*
X27559Y-1089*
X27562*
X27566Y-1087*
X27568Y-1085*
X27570Y-1081*
X27571Y-1078*
X27570Y-1074*
X27568Y-1071*
X27484Y-1004*
X27481Y-1003*
X27479*
X27477Y-1002*
X27309*
X27307Y-1003*
X27305*
X27303Y-1004*
X27235Y-1058*
Y-1012*
X27234Y-1008*
X27232Y-1006*
X27228Y-1004*
X27224Y-1003*
X27221Y-1004*
X27218Y-1006*
X27215Y-1008*
X27214Y-1012*
Y-1078*
Y-1079*
Y-1081*
Y-1349*
X27388Y-2880D02*
X27627D01*
X27705Y-2943*
Y-3036*
X27627Y-3099*
X27388*
Y-2880*
X27708Y-1084D02*
Y-1277D01*
X27770Y-1339*
X27963*
X28025Y-1277*
Y-1084*
X27963Y-1022*
X27770*
X27708Y-1084*
X27722Y-3049D02*
X27723Y-3048D01*
X27724Y-3046*
X27725Y-3043*
Y-3041*
Y-2938*
Y-2935*
X27724Y-2934*
Y-2932*
X27723*
Y-2931*
X27722Y-2930*
X27637Y-2861*
X27634Y-2860*
X27632*
X27630Y-2859*
X27378*
X27374Y-2860*
X27371Y-2863*
X27368Y-2866*
X27367Y-2869*
Y-3349*
X27368Y-3353*
X27371Y-3356*
X27374Y-3357*
X27377Y-3358*
X27381Y-3357*
X27385Y-3356*
X27387Y-3353*
X27388Y-3349*
Y-3119*
X27630*
X27634*
X27635Y-3118*
X27636*
X27637*
X27722Y-3049*
X27912Y-2859D02*
X27908Y-2860D01*
X27906Y-2863*
X27905Y-2866*
X27904Y-2870*
X27905Y-2873*
X27906Y-2877*
X27908Y-2879*
X27912Y-2880*
X28000*
Y-3338*
X27912*
X27908Y-3339*
X27906Y-3342*
X27905Y-3345*
X27904Y-3349*
X27905Y-3353*
X27906Y-3356*
X27908Y-3358*
X27912Y-3359*
X28107*
X28111Y-3358*
X28114Y-3356*
X28115Y-3353*
X28116Y-3349*
X28115Y-3345*
X28114Y-3342*
X28111Y-3339*
X28107Y-3338*
X28019*
Y-2869*
Y-2866*
X28016Y-2863*
X28014Y-2860*
X28010Y-2859*
X27912*
X27968Y-1359D02*
X27766D01*
X27764*
X27763*
X27760Y-1358*
X27758Y-1356*
X27691Y-1289*
X27689Y-1287*
X27688Y-1284*
Y-1282*
Y-1079*
Y-1078*
X27689Y-1075*
X27691Y-1072*
X27758Y-1005*
X27760Y-1003*
X27763*
X27764Y-1002*
X27766*
X27968*
X27970Y-1003*
X27972*
X27975Y-1005*
X28043Y-1072*
Y-1074*
X28044Y-1076*
Y-1077*
Y-1078*
X28045Y-1079*
Y-1282*
X28044Y-1284*
Y-1286*
X28043Y-1289*
X27975Y-1356*
X27972Y-1358*
X27970Y-1359*
X27968*
X28159Y-1282D02*
Y-1284D01*
X28160Y-1286*
X28161Y-1288*
X28163Y-1290*
X28248Y-1357*
X28249Y-1358*
X28251Y-1359*
X28253*
X28422*
X28423*
X28424*
X28425*
X28426Y-1358*
X28428Y-1357*
X28496Y-1303*
Y-1349*
X28497Y-1353*
X28499Y-1356*
X28503Y-1357*
X28506Y-1358*
X28510Y-1357*
X28513Y-1356*
X28515Y-1353*
X28516Y-1349*
Y-1012*
X28515Y-1008*
X28513Y-1006*
X28510Y-1004*
X28506Y-1003*
X28503Y-1004*
X28499Y-1006*
X28497Y-1008*
X28496Y-1012*
Y-1277*
X28418Y-1339*
X28257*
X28180Y-1277*
Y-1012*
X28179Y-1008*
X28176Y-1006*
X28173Y-1004*
X28169Y-1003*
X28165Y-1004*
X28162Y-1006*
X28160Y-1008*
X28159Y-1012*
Y-1282*
X28314Y-3186D02*
X28407Y-3123D01*
X28537*
X28631Y-3186*
Y-3277*
X28537Y-3339*
X28407*
X28314Y-3277*
Y-3186*
X28419Y-5375D02*
X28252Y-5613D01*
Y-5849*
X28251Y-5853*
X28249Y-5856*
X28246Y-5857*
X28242Y-5858*
X28239Y-5857*
X28235Y-5856*
X28233Y-5853*
X28232Y-5849*
Y-5613*
X28066Y-5375*
X28064Y-5372*
X28065Y-5369*
X28066Y-5365*
X28069Y-5363*
X28072Y-5361*
X28076Y-5360*
X28079Y-5361*
X28082Y-5363*
X28242Y-5591*
X28403Y-5363*
X28406Y-5361*
X28409Y-5360*
X28412Y-5361*
X28416Y-5363*
X28418Y-5365*
X28420Y-5369*
X28421Y-5372*
X28419Y-5375*
Y-4375D02*
X28252Y-4613D01*
Y-4849*
X28251Y-4853*
X28249Y-4856*
X28246Y-4857*
X28242Y-4858*
X28239Y-4857*
X28235Y-4856*
X28233Y-4853*
X28232Y-4849*
Y-4613*
X28066Y-4375*
X28064Y-4372*
X28065Y-4369*
X28066Y-4365*
X28069Y-4363*
X28072Y-4361*
X28076Y-4360*
X28079Y-4361*
X28082Y-4363*
X28242Y-4591*
X28403Y-4363*
X28406Y-4361*
X28409Y-4360*
X28412Y-4361*
X28416Y-4363*
X28418Y-4365*
X28420Y-4369*
X28421Y-4372*
X28419Y-4375*
X28557Y-5585D02*
Y-5637D01*
X28873*
Y-5618*
X28778Y-5522*
X28650*
X28557Y-5585*
Y-4585D02*
Y-4637D01*
X28873*
Y-4618*
X28778Y-4522*
X28650*
X28557Y-4585*
X28631Y-3349D02*
Y-3353D01*
X28634Y-3356*
X28637Y-3357*
X28641Y-3358*
X28644Y-3357*
X28647Y-3356*
X28650Y-3353*
X28651Y-3349*
Y-3079*
X28650Y-3078*
Y-3076*
X28649Y-3072*
X28581Y-3005*
X28578Y-3003*
X28576*
X28574Y-3002*
X28303*
X28300Y-3003*
X28297Y-3005*
X28295Y-3009*
Y-3012*
Y-3016*
X28297Y-3019*
X28300Y-3021*
X28303Y-3022*
X28568*
X28631Y-3084*
Y-3163*
X28545Y-3105*
X28543Y-3104*
X28540Y-3103*
X28405*
X28401Y-3104*
X28399Y-3105*
X28298Y-3173*
X28297Y-3174*
X28296Y-3175*
X28294Y-3177*
X28293Y-3181*
Y-3282*
X28294Y-3285*
X28296Y-3287*
X28297Y-3289*
X28298Y-3290*
X28399Y-3357*
X28402Y-3359*
X28405*
X28540*
X28543*
X28545Y-3357*
X28631Y-3301*
Y-3349*
X28647Y-5502D02*
X28783D01*
X28785Y-5503*
X28787*
X28790Y-5505*
X28891Y-5606*
X28892Y-5608*
Y-5610*
Y-5611*
X28893*
Y-5614*
Y-5647*
Y-5651*
X28890Y-5654*
X28888Y-5656*
X28883Y-5657*
X28557*
Y-5777*
X28650Y-5839*
X28778*
X28876Y-5741*
X28879Y-5739*
X28883*
X28887Y-5740*
X28890Y-5742*
X28892Y-5745*
X28893Y-5749*
Y-5753*
X28891Y-5756*
X28790Y-5856*
X28787Y-5858*
X28785Y-5859*
X28783*
X28647*
X28644*
X28642Y-5857*
X28541Y-5790*
X28539Y-5789*
X28538Y-5787*
X28537Y-5785*
X28536Y-5782*
Y-5579*
X28537Y-5577*
X28538Y-5574*
X28539Y-5573*
X28540Y-5572*
X28541Y-5571*
X28642Y-5504*
X28644Y-5502*
X28647*
Y-4502D02*
X28783D01*
X28785Y-4503*
X28787*
X28790Y-4505*
X28891Y-4606*
X28892Y-4608*
Y-4610*
Y-4611*
X28893*
Y-4614*
Y-4647*
Y-4651*
X28890Y-4654*
X28888Y-4656*
X28883Y-4657*
X28557*
Y-4777*
X28650Y-4839*
X28778*
X28876Y-4741*
X28879Y-4739*
X28883*
X28887Y-4740*
X28890Y-4742*
X28892Y-4745*
X28893Y-4749*
Y-4753*
X28891Y-4756*
X28790Y-4856*
X28787Y-4858*
X28785Y-4859*
X28783*
X28647*
X28644*
X28642Y-4857*
X28541Y-4790*
X28539Y-4789*
X28538Y-4787*
X28537Y-4785*
X28536Y-4782*
Y-4579*
X28537Y-4577*
X28538Y-4574*
X28539Y-4573*
X28540Y-4572*
X28541Y-4571*
X28642Y-4504*
X28644Y-4502*
X28647*
X28652Y-1079D02*
Y-1275D01*
X28745Y-1339*
X28873*
X28969Y-1241*
Y-1113*
X28873Y-1015*
X28745*
X28652Y-1079*
X28952Y-2869D02*
X28951Y-2866D01*
X28949Y-2863*
X28946Y-2861*
X28942*
X28939*
X28935Y-2863*
X28933Y-2866*
X28932Y-2869*
Y-3031*
X28810*
X28806Y-3032*
X28804Y-3034*
X28803Y-3037*
X28802Y-3041*
X28803Y-3044*
X28804Y-3048*
X28806Y-3050*
X28810Y-3051*
X28932*
Y-3315*
X28933Y-3318*
X28934Y-3320*
X28935Y-3322*
X28937Y-3323*
X28987Y-3357*
X28989Y-3359*
X28992*
X29059*
X29063*
X29065Y-3357*
X29115Y-3323*
X29118Y-3321*
X29119Y-3317*
X29118Y-3314*
X29116Y-3311*
X29114Y-3308*
X29111Y-3306*
X29108Y-3305*
X29104Y-3307*
X29056Y-3339*
X28994*
X28952Y-3310*
Y-3051*
X29076*
X29079Y-3050*
X29082Y-3048*
X29084Y-3044*
Y-3041*
Y-3037*
X29082Y-3034*
X29079Y-3032*
X29076Y-3031*
X28952*
Y-2869*
X28979Y-1565D02*
X28643D01*
X28639Y-1564*
X28636Y-1562*
X28634Y-1558*
X28633Y-1554*
X28634Y-1551*
X28636Y-1547*
X28639Y-1545*
X28643Y-1544*
X28969*
Y-1271*
X28885Y-1356*
X28882Y-1358*
X28880Y-1359*
X28878*
X28743*
X28740*
X28737Y-1357*
X28637Y-1289*
X28635Y-1287*
X28634Y-1286*
X28632Y-1283*
Y-1280*
Y-1073*
Y-1070*
X28634Y-1068*
X28635Y-1066*
X28636*
X28637Y-1065*
X28737Y-996*
X28740Y-995*
X28743Y-994*
X28878*
X28880Y-995*
X28882*
X28885Y-997*
X28969Y-1083*
Y-1005*
X28970Y-1001*
X28973Y-998*
X28976Y-996*
X28979*
X28983*
X28986Y-998*
X28989Y-1001*
Y-1005*
Y-1555*
X28988Y-1559*
X28986Y-1561*
X28983Y-1564*
X28979Y-1565*
X29214Y-996D02*
X29213Y-997D01*
X29212*
X29211*
X29209Y-999*
X29124Y-1056*
Y-869*
X29123Y-866*
X29120Y-863*
X29117Y-861*
X29113*
X29109*
X29106Y-863*
X29104Y-866*
X29103Y-869*
Y-1349*
X29104Y-1353*
X29106Y-1356*
X29109Y-1357*
X29113Y-1358*
X29117Y-1357*
X29120Y-1356*
X29123Y-1353*
X29124Y-1349*
Y-1081*
X29216Y-1017*
X29347*
X29440Y-1081*
Y-1349*
X29441Y-1353*
X29443Y-1356*
X29447Y-1357*
X29450Y-1358*
X29454Y-1357*
X29457Y-1356*
X29459Y-1353*
X29460Y-1349*
Y-1075*
Y-1072*
X29459Y-1069*
X29456Y-1067*
X29354Y-999*
X29352Y-997*
X29349Y-996*
X29214*
X29254Y-3085D02*
Y-3137D01*
X29571*
Y-3118*
X29475Y-3022*
X29347*
X29254Y-3085*
X29276Y-5504D02*
X29360Y-5554D01*
X29362Y-5556*
X29363Y-5557*
X29364Y-5559*
Y-5561*
Y-5564*
X29363Y-5566*
X29362Y-5569*
X29360Y-5571*
X29358Y-5573*
X29355*
X29353*
X29350Y-5572*
X29268Y-5522*
X29105*
X29028Y-5569*
Y-5641*
X29088Y-5671*
X29288*
X29289*
X29290*
X29292Y-5672*
X29360Y-5706*
X29362Y-5708*
X29363Y-5711*
X29364Y-5712*
X29365Y-5714*
Y-5799*
X29364Y-5800*
X29363Y-5804*
Y-5805*
X29361Y-5807*
X29293Y-5857*
X29292Y-5858*
X29291Y-5859*
X29290*
X29289*
X29288*
X29086*
X29084*
X29083*
X29081Y-5858*
X29079Y-5857*
X29012Y-5806*
X29010Y-5804*
X29009Y-5802*
Y-5801*
X29010Y-5797*
X29012Y-5794*
X29014Y-5791*
X29017Y-5789*
X29019*
X29020*
X29022Y-5790*
X29024Y-5791*
X29089Y-5839*
X29284*
X29345Y-5794*
Y-5721*
X29286Y-5691*
X29086*
X29083*
X29082Y-5690*
X29081Y-5689*
X29014Y-5656*
X29011Y-5654*
X29009Y-5652*
X29008Y-5650*
Y-5647*
Y-5563*
Y-5560*
Y-5559*
X29010Y-5557*
X29013Y-5554*
X29097Y-5504*
X29099Y-5503*
X29101Y-5502*
X29102*
X29270*
X29271*
X29272Y-5503*
X29274*
X29276Y-5504*
Y-4504D02*
X29360Y-4554D01*
X29362Y-4556*
X29363Y-4557*
X29364Y-4559*
Y-4561*
Y-4564*
X29363Y-4566*
X29362Y-4569*
X29360Y-4571*
X29358Y-4573*
X29355*
X29353*
X29350Y-4572*
X29268Y-4522*
X29105*
X29028Y-4569*
Y-4641*
X29088Y-4671*
X29288*
X29289*
X29290*
X29292Y-4672*
X29360Y-4706*
X29362Y-4708*
X29363Y-4711*
X29364Y-4712*
X29365Y-4714*
Y-4799*
X29364Y-4800*
X29363Y-4804*
Y-4805*
X29361Y-4807*
X29293Y-4857*
X29292Y-4858*
X29291Y-4859*
X29290*
X29289*
X29288*
X29086*
X29084*
X29083*
X29081Y-4858*
X29079Y-4857*
X29012Y-4806*
X29010Y-4804*
X29009Y-4802*
Y-4801*
X29010Y-4797*
X29012Y-4794*
X29014Y-4791*
X29017Y-4789*
X29019*
X29020*
X29022Y-4790*
X29024Y-4791*
X29089Y-4839*
X29284*
X29345Y-4794*
Y-4721*
X29286Y-4691*
X29086*
X29083*
X29082Y-4690*
X29081Y-4689*
X29014Y-4656*
X29011Y-4654*
X29009Y-4652*
X29008Y-4650*
Y-4647*
Y-4563*
Y-4560*
Y-4559*
X29010Y-4557*
X29013Y-4554*
X29097Y-4504*
X29099Y-4503*
X29101Y-4502*
X29102*
X29270*
X29271*
X29272Y-4503*
X29274*
X29276Y-4504*
X29345Y-3002D02*
X29480D01*
X29482Y-3003*
X29484*
X29487Y-3005*
X29589Y-3106*
Y-3108*
X29590Y-3110*
Y-3111*
X29591Y-3114*
Y-3147*
X29590Y-3151*
X29588Y-3154*
X29585Y-3156*
X29581Y-3157*
X29254*
Y-3277*
X29347Y-3339*
X29475*
X29574Y-3241*
X29577Y-3239*
X29580*
X29584Y-3240*
X29587Y-3242*
X29590Y-3245*
X29591Y-3249*
Y-3253*
X29589Y-3256*
X29487Y-3356*
X29484Y-3358*
X29482Y-3359*
X29480*
X29345*
X29342*
X29339Y-3357*
X29239Y-3290*
X29237Y-3289*
X29236Y-3287*
X29234Y-3285*
Y-3282*
Y-3079*
Y-3077*
X29236Y-3074*
X29237Y-3073*
X29238Y-3072*
X29239Y-3071*
X29339Y-3004*
X29342Y-3002*
X29345*
X29726Y-3080D02*
X29803Y-3017D01*
X29963*
X30042Y-3114*
Y-3276*
X29964Y-3339*
X29803*
X29726Y-3276*
Y-3080*
X29794Y-3357D02*
X29795Y-3358D01*
X29797Y-3359*
X29799*
X29968*
X29970*
X29971*
X29972Y-3358*
X29974Y-3357*
X30042Y-3302*
Y-3349*
X30043Y-3353*
X30045Y-3356*
X30049Y-3357*
X30052Y-3358*
X30056Y-3357*
X30059Y-3356*
X30061Y-3353*
X30062Y-3349*
Y-3109*
Y-3108*
Y-2869*
X30061Y-2866*
X30059Y-2863*
X30056Y-2861*
X30052*
X30049*
X30045Y-2863*
X30043Y-2866*
X30042Y-2869*
Y-3081*
X29976Y-3000*
X29974Y-2999*
X29971Y-2997*
X29969*
X29968Y-2996*
X29799*
X29797Y-2997*
X29796Y-2998*
X29794Y-2999*
X29709Y-3067*
X29707Y-3069*
X29706Y-3071*
X29705Y-3073*
Y-3075*
Y-3281*
Y-3283*
X29706Y-3285*
X29707Y-3287*
X29709Y-3289*
X29794Y-3357*
X29932Y-1349D02*
X29933Y-1353D01*
X29935Y-1356*
X29938Y-1357*
X29942Y-1358*
X29946Y-1357*
X29949Y-1356*
X29952Y-1353*
X29953Y-1349*
Y-1119*
X30269*
Y-1349*
X30270Y-1353*
X30272Y-1356*
X30276Y-1357*
X30279Y-1358*
X30283Y-1357*
X30286Y-1356*
X30288Y-1353*
X30289Y-1349*
Y-869*
X30288Y-866*
X30286Y-863*
X30283Y-861*
X30279*
X30276*
X30272Y-863*
X30270Y-866*
X30269Y-869*
Y-1099*
X29953*
Y-869*
X29952Y-866*
X29949Y-863*
X29946Y-861*
X29942*
X29938*
X29935Y-863*
X29933Y-866*
X29932Y-869*
Y-1349*
X30425Y-1084D02*
Y-1277D01*
X30487Y-1339*
X30680*
X30742Y-1277*
Y-1084*
X30680Y-1022*
X30487*
X30425Y-1084*
X30685Y-1359D02*
X30483D01*
X30481*
X30480*
X30477Y-1358*
X30475Y-1356*
X30408Y-1289*
X30406Y-1287*
X30405Y-1284*
Y-1282*
Y-1079*
Y-1078*
X30406Y-1075*
X30408Y-1072*
X30475Y-1005*
X30477Y-1003*
X30480*
X30481Y-1002*
X30483*
X30685*
X30687Y-1003*
X30689*
X30692Y-1005*
X30760Y-1072*
Y-1074*
X30761Y-1076*
Y-1077*
Y-1078*
X30762Y-1079*
Y-1282*
X30761Y-1284*
Y-1286*
X30760Y-1289*
X30692Y-1356*
X30689Y-1358*
X30687Y-1359*
X30685*
X30948Y-859D02*
X30944Y-860D01*
X30942Y-863*
X30941Y-866*
X30940Y-870*
X30941Y-873*
X30942Y-877*
X30944Y-879*
X30948Y-880*
X31036*
Y-1338*
X30948*
X30944Y-1339*
X30942Y-1342*
X30941Y-1345*
X30940Y-1349*
X30941Y-1353*
X30942Y-1356*
X30944Y-1358*
X30948Y-1359*
X31143*
X31147Y-1358*
X31150Y-1356*
X31151Y-1353*
X31152Y-1349*
X31151Y-1345*
X31150Y-1342*
X31147Y-1339*
X31143Y-1338*
X31055*
Y-869*
Y-866*
X31052Y-863*
X31050Y-860*
X31046Y-859*
X30948*
X31350Y-1085D02*
Y-1137D01*
X31667*
Y-1118*
X31571Y-1022*
X31443*
X31350Y-1085*
X31441Y-1002D02*
X31576D01*
X31578Y-1003*
X31580*
X31583Y-1005*
X31685Y-1106*
Y-1108*
X31686Y-1110*
Y-1111*
X31687Y-1114*
Y-1147*
X31686Y-1151*
X31684Y-1154*
X31681Y-1156*
X31677Y-1157*
X31350*
Y-1277*
X31443Y-1339*
X31571*
X31670Y-1241*
X31673Y-1239*
X31676*
X31680Y-1240*
X31683Y-1242*
X31686Y-1245*
X31687Y-1249*
Y-1253*
X31685Y-1256*
X31583Y-1356*
X31580Y-1358*
X31578Y-1359*
X31576*
X31441*
X31438*
X31435Y-1357*
X31335Y-1290*
X31333Y-1289*
X31332Y-1287*
X31330Y-1285*
Y-1282*
Y-1079*
Y-1077*
X31332Y-1074*
X31333Y-1073*
X31334Y-1072*
X31335Y-1071*
X31435Y-1004*
X31438Y-1002*
X31441*
X32070Y-1004D02*
X32154Y-1054D01*
X32156Y-1056*
X32157Y-1057*
X32158Y-1059*
Y-1061*
X32157Y-1064*
Y-1066*
X32155Y-1069*
X32153Y-1071*
X32151Y-1073*
X32149*
X32146*
X32143Y-1072*
X32061Y-1022*
X31898*
X31822Y-1069*
Y-1141*
X31881Y-1171*
X32081*
X32083*
X32084*
X32085Y-1172*
X32153Y-1206*
X32156Y-1208*
X32157Y-1211*
X32158Y-1212*
Y-1214*
Y-1299*
Y-1300*
X32157Y-1304*
X32156Y-1305*
X32155Y-1307*
X32087Y-1357*
X32086Y-1358*
X32085Y-1359*
X32084*
X32083*
X32082*
X32081*
X31879*
X31877*
X31876*
X31874Y-1358*
X31873Y-1357*
X31806Y-1306*
X31803Y-1304*
Y-1302*
Y-1301*
Y-1297*
X31805Y-1294*
X31807Y-1291*
X31810Y-1289*
X31812*
X31814*
X31816Y-1290*
X31817Y-1291*
X31882Y-1339*
X32077*
X32138Y-1294*
Y-1221*
X32079Y-1191*
X31879*
X31877*
X31876Y-1190*
X31874Y-1189*
X31807Y-1156*
X31804Y-1154*
X31803Y-1152*
X31802Y-1150*
X31801Y-1147*
Y-1063*
Y-1060*
X31802Y-1059*
X31803Y-1057*
X31806Y-1054*
X31890Y-1004*
X31892Y-1003*
X31894Y-1002*
X31895*
X32064*
X32065Y-1003*
X32067*
X32070Y-1004*
X32641Y-2880D02*
X32880D01*
X32958Y-2943*
Y-3036*
X32880Y-3099*
X32641*
Y-2880*
X32975Y-3049D02*
X32976Y-3048D01*
X32977Y-3046*
X32978Y-3043*
Y-3041*
Y-2938*
Y-2935*
X32977Y-2934*
Y-2932*
X32976*
Y-2931*
X32975Y-2930*
X32890Y-2861*
X32887Y-2860*
X32885*
X32883Y-2859*
X32631*
X32627Y-2860*
X32624Y-2863*
X32621Y-2866*
X32620Y-2869*
Y-3349*
X32621Y-3353*
X32624Y-3356*
X32627Y-3357*
X32630Y-3358*
X32634Y-3357*
X32638Y-3356*
X32640Y-3353*
X32641Y-3349*
Y-3119*
X32883*
X32887*
X32888Y-3118*
X32889*
X32890*
X32975Y-3049*
X33093Y-3282D02*
Y-3284D01*
X33094Y-3286*
X33095Y-3288*
X33097Y-3290*
X33182Y-3357*
X33183Y-3358*
X33185Y-3359*
X33187*
X33356*
X33357*
X33358*
X33359*
X33360Y-3358*
X33362Y-3357*
X33430Y-3303*
Y-3349*
X33431Y-3353*
X33433Y-3356*
X33437Y-3357*
X33440Y-3358*
X33444Y-3357*
X33447Y-3356*
X33449Y-3353*
X33450Y-3349*
Y-3012*
X33449Y-3008*
X33447Y-3006*
X33444Y-3004*
X33440Y-3003*
X33437Y-3004*
X33433Y-3006*
X33431Y-3008*
X33430Y-3012*
Y-3277*
X33352Y-3339*
X33191*
X33114Y-3277*
Y-3012*
X33113Y-3008*
X33110Y-3006*
X33107Y-3004*
X33103Y-3003*
X33099Y-3004*
X33096Y-3006*
X33094Y-3008*
X33093Y-3012*
Y-3282*
X33800Y-5849D02*
X33801Y-5853D01*
X33803Y-5856*
X33806Y-5857*
X33810Y-5858*
X33814Y-5857*
X33817Y-5856*
X33820Y-5853*
X33821Y-5849*
Y-5401*
X34139Y-5855*
X34141Y-5857*
X34143Y-5858*
X34146*
X34149Y-5857*
X34152Y-5856*
X34155Y-5855*
X34157Y-5852*
Y-5849*
Y-5369*
X34156Y-5366*
X34154Y-5363*
X34151Y-5361*
X34147*
X34144*
X34140Y-5363*
X34138Y-5366*
X34137Y-5369*
Y-5817*
X33818Y-5364*
X33816Y-5362*
X33814Y-5361*
X33812*
X33809*
X33805Y-5362*
X33802Y-5363*
X33801Y-5366*
X33800Y-5369*
Y-5849*
Y-4849D02*
X33801Y-4853D01*
X33803Y-4856*
X33806Y-4857*
X33810Y-4858*
X33814Y-4857*
X33817Y-4856*
X33820Y-4853*
X33821Y-4849*
Y-4401*
X34139Y-4855*
X34141Y-4857*
X34143Y-4858*
X34146*
X34149Y-4857*
X34152Y-4856*
X34155Y-4855*
X34157Y-4852*
Y-4849*
Y-4369*
X34156Y-4366*
X34154Y-4363*
X34151Y-4361*
X34147*
X34144*
X34140Y-4363*
X34138Y-4366*
X34137Y-4369*
Y-4817*
X33818Y-4364*
X33816Y-4362*
X33814Y-4361*
X33812*
X33809*
X33805Y-4362*
X33802Y-4363*
X33801Y-4366*
X33800Y-4369*
Y-4849*
X33903Y-3349D02*
Y-3353D01*
X33906Y-3356*
X33909Y-3357*
X33913Y-3358*
X33916Y-3357*
X33919Y-3356*
X33922Y-3353*
X33923Y-3349*
Y-3079*
X33922Y-3078*
X33921Y-3076*
Y-3074*
X33919Y-3071*
X33835Y-3004*
X33832Y-3003*
X33830*
X33828Y-3002*
X33660*
X33658Y-3003*
X33656*
X33654Y-3004*
X33586Y-3058*
Y-3012*
X33585Y-3008*
X33583Y-3006*
X33579Y-3004*
X33575Y-3003*
X33572Y-3004*
X33569Y-3006*
X33566Y-3008*
X33565Y-3012*
Y-3349*
X33566Y-3353*
X33569Y-3356*
X33572Y-3357*
X33575Y-3358*
X33579Y-3357*
X33583Y-3356*
X33585Y-3353*
X33586Y-3349*
Y-3084*
X33663Y-3022*
X33825*
X33903Y-3084*
Y-3349*
X34284Y-3359D02*
X34149D01*
X34146*
X34143Y-3357*
X34043Y-3290*
X34041Y-3289*
X34040Y-3287*
X34038Y-3285*
Y-3282*
Y-3079*
Y-3077*
X34040Y-3074*
X34041Y-3073*
X34042Y-3072*
X34043Y-3071*
X34143Y-3004*
X34146Y-3002*
X34149*
X34284*
X34285*
Y-3003*
X34288*
X34291Y-3005*
X34393Y-3106*
X34395Y-3110*
X34394Y-3113*
X34393Y-3117*
X34391Y-3120*
X34388Y-3122*
X34384Y-3123*
X34381*
X34378Y-3121*
X34279Y-3022*
X34151*
X34058Y-3085*
Y-3277*
X34151Y-3339*
X34279*
X34378Y-3241*
X34381Y-3239*
X34384*
X34388Y-3240*
X34391Y-3242*
X34394Y-3245*
X34395Y-3249*
Y-3253*
X34393Y-3256*
X34291Y-3356*
X34288Y-3358*
X34285Y-3359*
X34284*
X34293Y-5584D02*
Y-5777D01*
X34355Y-5839*
X34548*
X34610Y-5777*
Y-5584*
X34548Y-5522*
X34355*
X34293Y-5584*
Y-4584D02*
Y-4777D01*
X34355Y-4839*
X34548*
X34610Y-4777*
Y-4584*
X34548Y-4522*
X34355*
X34293Y-4584*
X34553Y-5859D02*
X34351D01*
X34349*
X34348*
X34345Y-5858*
X34343Y-5856*
X34276Y-5789*
X34274Y-5787*
X34273Y-5784*
Y-5782*
Y-5579*
Y-5578*
X34274Y-5575*
X34276Y-5572*
X34343Y-5505*
X34345Y-5503*
X34348*
X34349Y-5502*
X34351*
X34553*
X34555Y-5503*
X34557*
X34560Y-5505*
X34628Y-5572*
Y-5574*
X34629Y-5576*
Y-5577*
Y-5578*
X34630Y-5579*
Y-5782*
X34629Y-5784*
Y-5786*
X34628Y-5789*
X34560Y-5856*
X34557Y-5858*
X34555Y-5859*
X34553*
Y-4859D02*
X34351D01*
X34349*
X34348*
X34345Y-4858*
X34343Y-4856*
X34276Y-4789*
X34274Y-4787*
X34273Y-4784*
Y-4782*
Y-4579*
Y-4578*
X34274Y-4575*
X34276Y-4572*
X34343Y-4505*
X34345Y-4503*
X34348*
X34349Y-4502*
X34351*
X34553*
X34555Y-4503*
X34557*
X34560Y-4505*
X34628Y-4572*
Y-4574*
X34629Y-4576*
Y-4577*
Y-4578*
X34630Y-4579*
Y-4782*
X34629Y-4784*
Y-4786*
X34628Y-4789*
X34560Y-4856*
X34557Y-4858*
X34555Y-4859*
X34553*
X34620Y-2996D02*
X34619Y-2997D01*
X34618*
X34617*
X34616*
X34615Y-2999*
X34614*
X34529Y-3056*
Y-2869*
X34528Y-2866*
X34526Y-2863*
X34522Y-2861*
X34518*
X34515*
X34512Y-2863*
X34509Y-2866*
X34508Y-2869*
Y-3349*
X34509Y-3353*
X34512Y-3356*
X34515Y-3357*
X34518Y-3358*
X34522Y-3357*
X34526Y-3356*
X34528Y-3353*
X34529Y-3349*
Y-3081*
X34621Y-3017*
X34752*
X34846Y-3081*
Y-3349*
Y-3353*
X34849Y-3356*
X34852Y-3357*
X34856Y-3358*
X34859Y-3357*
X34862Y-3356*
X34865Y-3353*
X34866Y-3349*
Y-3075*
X34865Y-3072*
X34864Y-3069*
X34861Y-3067*
X34760Y-2999*
X34758Y-2997*
X34755Y-2996*
X34620*
X35001Y-3085D02*
Y-3137D01*
X35317*
Y-3118*
X35222Y-3022*
X35094*
X35001Y-3085*
X35091Y-3002D02*
X35227D01*
X35229Y-3003*
X35231*
X35234Y-3005*
X35335Y-3106*
X35336Y-3108*
Y-3110*
Y-3111*
X35337*
Y-3114*
Y-3147*
Y-3151*
X35334Y-3154*
X35332Y-3156*
X35327Y-3157*
X35001*
Y-3277*
X35094Y-3339*
X35222*
X35320Y-3241*
X35323Y-3239*
X35327*
X35331Y-3240*
X35334Y-3242*
X35336Y-3245*
X35337Y-3249*
Y-3253*
X35335Y-3256*
X35234Y-3356*
X35231Y-3358*
X35229Y-3359*
X35227*
X35091*
X35088*
X35086Y-3357*
X34985Y-3290*
X34983Y-3289*
X34982Y-3287*
X34981Y-3285*
X34980Y-3282*
Y-3079*
X34981Y-3077*
X34982Y-3074*
X34983Y-3073*
X34984Y-3072*
X34985Y-3071*
X35086Y-3004*
X35088Y-3002*
X35091*
X35472Y-3080D02*
X35549Y-3017D01*
X35709*
X35789Y-3114*
Y-3276*
X35711Y-3339*
X35549*
X35472Y-3276*
Y-3080*
X35540Y-3357D02*
X35542Y-3358D01*
X35544Y-3359*
X35546*
X35714*
X35716*
X35717*
X35718Y-3358*
X35721Y-3357*
X35789Y-3302*
Y-3349*
Y-3353*
X35792Y-3356*
X35795Y-3357*
X35799Y-3358*
X35802Y-3357*
X35805Y-3356*
X35808Y-3353*
X35809Y-3349*
Y-3109*
Y-3108*
Y-2869*
X35808Y-2866*
X35805Y-2863*
X35802Y-2861*
X35799*
X35795*
X35792Y-2863*
X35789Y-2866*
Y-2869*
Y-3081*
X35723Y-3000*
X35721Y-2999*
X35717Y-2997*
X35716*
X35714Y-2996*
X35546*
X35544Y-2997*
X35542Y-2998*
X35540Y-2999*
X35456Y-3067*
X35454Y-3069*
X35453Y-3071*
X35452Y-3073*
X35451Y-3075*
Y-3281*
X35452Y-3283*
X35453Y-3285*
X35454Y-3287*
X35456Y-3289*
X35540Y-3357*
X38886Y-4380D02*
X39125D01*
X39203Y-4443*
Y-4536*
X39125Y-4599*
X38886*
Y-4380*
X39220Y-4549D02*
X39221Y-4548D01*
X39222Y-4546*
X39223Y-4543*
Y-4541*
Y-4438*
Y-4435*
X39222Y-4434*
Y-4432*
X39221*
Y-4431*
X39220Y-4430*
X39135Y-4361*
X39132Y-4360*
X39130*
X39128Y-4359*
X38876*
X38872Y-4360*
X38869Y-4363*
X38866Y-4366*
X38865Y-4369*
Y-4849*
X38866Y-4853*
X38869Y-4856*
X38872Y-4857*
X38875Y-4858*
X38879Y-4857*
X38883Y-4856*
X38885Y-4853*
X38886Y-4849*
Y-4619*
X39121*
X39203Y-4852*
X39205Y-4856*
X39209Y-4858*
X39213*
X39216Y-4857*
X39219Y-4856*
X39221Y-4853*
X39223Y-4850*
X39222Y-4846*
X39140Y-4613*
X39220Y-4549*
X39675Y-4849D02*
X39676Y-4853D01*
X39678Y-4856*
X39682Y-4857*
X39685Y-4858*
X39689Y-4857*
X39692Y-4856*
X39694Y-4853*
X39695Y-4849*
Y-4579*
Y-4578*
X39694Y-4576*
X39693Y-4574*
X39692Y-4571*
X39607Y-4504*
X39605Y-4503*
X39603*
X39601Y-4502*
X39432*
X39430Y-4503*
X39429*
X39427Y-4504*
X39359Y-4558*
Y-4512*
X39358Y-4508*
X39355Y-4506*
X39352Y-4504*
X39348Y-4503*
X39344Y-4504*
X39341Y-4506*
X39339Y-4508*
X39338Y-4512*
Y-4849*
X39339Y-4853*
X39341Y-4856*
X39344Y-4857*
X39348Y-4858*
X39352Y-4857*
X39355Y-4856*
X39358Y-4853*
X39359Y-4849*
Y-4584*
X39436Y-4522*
X39597*
X39675Y-4584*
Y-4849*
X39830Y-4580D02*
X39907Y-4517D01*
X40067*
X40147Y-4614*
Y-4776*
X40069Y-4839*
X39907*
X39830Y-4776*
Y-4580*
X39898Y-4857D02*
X39900Y-4858D01*
X39902Y-4859*
X39904*
X40072*
X40074*
X40075*
X40076Y-4858*
X40079Y-4857*
X40147Y-4802*
Y-4849*
Y-4853*
X40150Y-4856*
X40153Y-4857*
X40157Y-4858*
X40160Y-4857*
X40163Y-4856*
X40166Y-4853*
X40167Y-4849*
Y-4609*
Y-4608*
Y-4369*
X40166Y-4366*
X40163Y-4363*
X40160Y-4361*
X40157*
X40153*
X40150Y-4363*
X40147Y-4366*
Y-4369*
Y-4581*
X40081Y-4500*
X40079Y-4499*
X40075Y-4497*
X40074*
X40072Y-4496*
X39904*
X39902Y-4497*
X39900Y-4498*
X39898Y-4499*
X39814Y-4567*
X39812Y-4569*
X39811Y-4571*
X39810Y-4573*
X39809Y-4575*
Y-4781*
X39810Y-4783*
X39811Y-4785*
X39812Y-4787*
X39814Y-4789*
X39898Y-4857*
X40608Y-5380D02*
X40847D01*
X40925Y-5443*
Y-5536*
X40847Y-5599*
X40608*
Y-5380*
X40643Y-4430D02*
X40727Y-4361D01*
X40729*
X40731Y-4360*
X40733Y-4359*
X40902*
X40904Y-4360*
X40905*
X40906Y-4361*
X40908*
X40992Y-4430*
X40994Y-4432*
Y-4434*
X40995Y-4436*
X40996Y-4438*
Y-4781*
X40995Y-4782*
X40994Y-4786*
Y-4787*
X40992Y-4789*
X40908Y-4857*
X40906Y-4858*
X40905*
X40904Y-4859*
X40903*
X40902*
X40733*
X40731*
X40729Y-4858*
X40727Y-4857*
X40643Y-4789*
X40642Y-4788*
X40641Y-4787*
X40640Y-4786*
X40639Y-4782*
Y-4781*
Y-4438*
Y-4436*
X40640Y-4434*
X40641Y-4432*
X40643Y-4430*
X40659Y-4443D02*
Y-4776D01*
X40689Y-4801*
X40931Y-4406*
X40898Y-4380*
X40736*
X40659Y-4443*
X40705Y-4814D02*
X40736Y-4839D01*
X40898*
X40976Y-4776*
Y-4443*
X40946Y-4419*
X40705Y-4814*
X40942Y-5549D02*
X40943Y-5548D01*
X40944Y-5546*
X40945Y-5543*
Y-5541*
Y-5438*
Y-5435*
X40944Y-5434*
Y-5432*
X40943*
Y-5431*
X40942Y-5430*
X40857Y-5361*
X40854Y-5360*
X40852*
X40850Y-5359*
X40598*
X40594Y-5360*
X40591Y-5363*
X40588Y-5366*
X40587Y-5369*
Y-5849*
X40588Y-5853*
X40591Y-5856*
X40594Y-5857*
X40597Y-5858*
X40601Y-5857*
X40605Y-5856*
X40607Y-5853*
X40608Y-5849*
Y-5619*
X40843*
X40925Y-5852*
X40927Y-5856*
X40931Y-5858*
X40935*
X40938Y-5857*
X40941Y-5856*
X40943Y-5853*
X40945Y-5850*
X40944Y-5846*
X40862Y-5613*
X40942Y-5549*
X41209Y-4796D02*
Y-4851D01*
Y-4853*
X41210Y-4855*
X41211Y-4856*
X41212*
X41214Y-4859*
X41217*
X41272*
X41275*
X41277Y-4856*
X41280Y-4854*
Y-4851*
Y-4796*
Y-4793*
X41277Y-4791*
X41275Y-4788*
X41272*
X41217*
X41214*
X41212Y-4791*
X41211*
X41210Y-4792*
X41209Y-4794*
Y-4796*
X41225Y-4804D02*
X41264D01*
Y-4843*
X41225*
Y-4804*
X41397Y-5849D02*
X41398Y-5853D01*
X41400Y-5856*
X41404Y-5857*
X41407Y-5858*
X41411Y-5857*
X41414Y-5856*
X41416Y-5853*
X41417Y-5849*
Y-5579*
Y-5578*
X41416Y-5576*
X41415Y-5574*
X41414Y-5571*
X41329Y-5504*
X41327Y-5503*
X41325*
X41323Y-5502*
X41154*
X41152Y-5503*
X41151*
X41149Y-5504*
X41081Y-5558*
Y-5512*
X41080Y-5508*
X41077Y-5506*
X41074Y-5504*
X41070Y-5503*
X41066Y-5504*
X41063Y-5506*
X41061Y-5508*
X41060Y-5512*
Y-5849*
X41061Y-5853*
X41063Y-5856*
X41066Y-5857*
X41070Y-5858*
X41074Y-5857*
X41077Y-5856*
X41080Y-5853*
X41081Y-5849*
Y-5584*
X41158Y-5522*
X41319*
X41397Y-5584*
Y-5849*
X41552Y-5580D02*
X41629Y-5517D01*
X41789*
X41869Y-5614*
Y-5776*
X41791Y-5839*
X41629*
X41552Y-5776*
Y-5580*
X41584Y-4857D02*
X41500Y-4789D01*
X41497Y-4786*
Y-4783*
Y-4780*
X41499Y-4776*
X41502Y-4774*
X41505Y-4772*
X41508Y-4771*
X41512Y-4772*
X41593Y-4839*
X41755*
X41833Y-4776*
Y-4683*
X41756Y-4619*
X41673*
X41669Y-4618*
X41666Y-4616*
X41665Y-4613*
X41664Y-4609*
X41665Y-4606*
X41666Y-4603*
X41669Y-4600*
X41673Y-4599*
X41756*
X41833Y-4536*
Y-4443*
X41755Y-4380*
X41593*
X41512Y-4446*
X41508Y-4447*
X41505*
X41502Y-4445*
X41499Y-4442*
X41497Y-4439*
Y-4436*
Y-4432*
X41500Y-4430*
X41584Y-4361*
X41586*
X41587Y-4360*
X41588*
X41590Y-4359*
X41758*
X41761Y-4360*
X41762*
X41763Y-4361*
X41765*
X41849Y-4430*
X41851Y-4432*
Y-4434*
X41852Y-4436*
X41853Y-4438*
Y-4541*
X41852Y-4542*
X41851Y-4546*
Y-4548*
X41849Y-4549*
X41776Y-4609*
X41849Y-4669*
X41850Y-4670*
X41851Y-4671*
Y-4672*
Y-4673*
X41852Y-4676*
X41853Y-4678*
Y-4781*
X41852Y-4783*
X41851Y-4785*
Y-4787*
X41849Y-4789*
X41765Y-4857*
X41763Y-4858*
X41762Y-4859*
X41761*
X41760*
X41758*
X41590*
X41588*
X41586Y-4858*
X41584Y-4857*
X41620Y-5857D02*
X41622Y-5858D01*
X41624Y-5859*
X41626*
X41794*
X41796*
X41797*
X41798Y-5858*
X41801Y-5857*
X41869Y-5802*
Y-5849*
Y-5853*
X41872Y-5856*
X41875Y-5857*
X41879Y-5858*
X41882Y-5857*
X41885Y-5856*
X41888Y-5853*
X41889Y-5849*
Y-5609*
Y-5608*
Y-5369*
X41888Y-5366*
X41885Y-5363*
X41882Y-5361*
X41879*
X41875*
X41872Y-5363*
X41869Y-5366*
Y-5369*
Y-5581*
X41803Y-5500*
X41801Y-5499*
X41797Y-5497*
X41796*
X41794Y-5496*
X41626*
X41624Y-5497*
X41622Y-5498*
X41620Y-5499*
X41536Y-5567*
X41534Y-5569*
X41533Y-5571*
X41532Y-5573*
X41531Y-5575*
Y-5781*
X41532Y-5783*
X41533Y-5785*
X41534Y-5787*
X41536Y-5789*
X41620Y-5857*
X42433Y-5839D02*
X42429Y-5840D01*
X42427Y-5842*
X42425Y-5845*
Y-5849*
Y-5853*
X42427Y-5856*
X42429Y-5859*
X42433*
X42628*
X42631*
X42634Y-5856*
X42636Y-5853*
Y-5849*
Y-5845*
X42634Y-5842*
X42631Y-5840*
X42628Y-5839*
X42540*
Y-5369*
X42539Y-5366*
X42538Y-5363*
X42535Y-5362*
X42532Y-5361*
X42529*
X42527*
X42525Y-5362*
X42523Y-5364*
X42425Y-5501*
X42424Y-5504*
Y-5508*
X42425Y-5511*
X42428Y-5513*
X42431Y-5515*
X42434Y-5516*
X42436*
X42438*
X42440Y-5513*
X42520Y-5401*
Y-5839*
X42433*
X42634Y-4660D02*
X42638Y-4659D01*
X42640Y-4657*
X42642Y-4653*
Y-4650*
Y-4646*
X42640Y-4643*
X42638Y-4641*
X42634Y-4640*
X42510*
Y-4517*
Y-4513*
X42508Y-4511*
X42504Y-4509*
X42500Y-4508*
X42497Y-4509*
X42494Y-4511*
X42492Y-4513*
X42491Y-4517*
Y-4640*
X42368*
X42364Y-4641*
X42362Y-4643*
X42360Y-4646*
Y-4650*
Y-4653*
X42362Y-4657*
X42364Y-4659*
X42368Y-4660*
X42491*
Y-4783*
X42492Y-4787*
X42494Y-4789*
X42497Y-4791*
X42500*
X42504*
X42508Y-4789*
X42510Y-4787*
Y-4783*
Y-4660*
X42634*
X42894Y-3349D02*
X42895Y-3353D01*
X42897Y-3356*
X42900Y-3357*
X42904Y-3358*
X42908Y-3357*
X42911Y-3356*
X42914Y-3353*
X42915Y-3349*
Y-3119*
X43231*
Y-3349*
X43232Y-3353*
X43234Y-3356*
X43238Y-3357*
X43241Y-3358*
X43245Y-3357*
X43248Y-3356*
X43250Y-3353*
X43251Y-3349*
Y-2869*
X43250Y-2866*
X43248Y-2863*
X43245Y-2861*
X43241*
X43238*
X43234Y-2863*
X43232Y-2866*
X43231Y-2869*
Y-3099*
X42915*
Y-2869*
X42914Y-2866*
X42911Y-2863*
X42908Y-2861*
X42904*
X42900*
X42897Y-2863*
X42895Y-2866*
X42894Y-2869*
Y-3349*
X42913Y-5796D02*
Y-5851D01*
X42914Y-5853*
Y-5855*
X42915Y-5856*
X42916*
X42918Y-5859*
X42921*
X42976*
X42979*
X42982Y-5856*
X42984Y-5854*
X42985Y-5851*
Y-5796*
X42984Y-5793*
X42982Y-5791*
X42979Y-5788*
X42976*
X42921*
X42918*
X42916Y-5791*
X42915*
X42914Y-5792*
Y-5794*
X42913Y-5796*
X42930Y-5804D02*
X42968D01*
Y-5843*
X42930*
Y-5804*
X42959Y-4849D02*
Y-4853D01*
X42962Y-4856*
X42965Y-4857*
X42969Y-4858*
X42972Y-4857*
X42975Y-4856*
X42978Y-4853*
X42979Y-4849*
Y-4380*
X43137*
X43141Y-4379*
X43144Y-4377*
X43145Y-4373*
X43146Y-4370*
X43145Y-4366*
X43144Y-4362*
X43141Y-4360*
X43137Y-4359*
X42800*
X42796Y-4360*
X42794Y-4362*
X42792Y-4366*
X42791Y-4370*
X42792Y-4373*
X42794Y-4377*
X42796Y-4379*
X42800Y-4380*
X42959*
Y-4849*
X43253Y-5645D02*
Y-5793D01*
X43298Y-5839*
X43472*
X43516Y-5793*
Y-5645*
X43502Y-5602*
X43266*
X43253Y-5645*
Y-5426D02*
Y-5539D01*
X43266Y-5582*
X43502*
X43516Y-5539*
Y-5426*
X43472Y-5380*
X43298*
X43253Y-5426*
X43283Y-4584D02*
Y-4777D01*
X43345Y-4839*
X43538*
X43600Y-4777*
Y-4584*
X43538Y-4522*
X43345*
X43283Y-4584*
X43387Y-3084D02*
Y-3277D01*
X43449Y-3339*
X43642*
X43704Y-3277*
Y-3084*
X43642Y-3022*
X43449*
X43387Y-3084*
X43536Y-5544D02*
X43520Y-5592D01*
X43536Y-5640*
Y-5641*
Y-5643*
Y-5798*
Y-5799*
Y-5801*
X43535Y-5803*
X43533Y-5805*
X43483Y-5856*
X43481Y-5858*
X43478Y-5859*
X43476*
X43293*
X43291*
X43290*
X43288Y-5858*
X43286Y-5856*
X43236Y-5805*
X43234Y-5803*
X43233Y-5801*
Y-5798*
Y-5643*
Y-5641*
Y-5640*
X43249Y-5592*
X43233Y-5544*
Y-5543*
Y-5540*
Y-5420*
Y-5418*
X43234Y-5416*
X43236Y-5413*
X43286Y-5362*
X43288Y-5360*
X43290*
X43291Y-5359*
X43293*
X43476*
X43478Y-5360*
X43481*
X43483Y-5362*
X43533Y-5413*
X43535Y-5416*
X43536Y-5418*
Y-5420*
Y-5540*
Y-5542*
Y-5543*
Y-5544*
X43543Y-4859D02*
X43341D01*
X43339*
X43338*
X43335Y-4858*
X43333Y-4856*
X43266Y-4789*
X43264Y-4787*
X43263Y-4784*
Y-4782*
Y-4579*
Y-4578*
X43264Y-4575*
X43266Y-4572*
X43333Y-4505*
X43335Y-4503*
X43338*
X43339Y-4502*
X43341*
X43543*
X43545Y-4503*
X43547*
X43550Y-4505*
X43618Y-4572*
Y-4574*
X43619Y-4576*
Y-4577*
Y-4578*
X43620Y-4579*
Y-4782*
X43619Y-4784*
Y-4786*
X43618Y-4789*
X43550Y-4856*
X43547Y-4858*
X43545Y-4859*
X43543*
X43647Y-3359D02*
X43445D01*
X43443*
X43442*
X43439Y-3358*
X43437Y-3356*
X43370Y-3289*
X43368Y-3287*
X43367Y-3284*
Y-3282*
Y-3079*
Y-3078*
X43368Y-3075*
X43370Y-3072*
X43437Y-3005*
X43439Y-3003*
X43442*
X43443Y-3002*
X43445*
X43647*
X43649Y-3003*
X43651*
X43654Y-3005*
X43722Y-3072*
Y-3074*
X43723Y-3076*
Y-3077*
Y-3078*
X43724Y-3079*
Y-3282*
X43723Y-3284*
Y-3286*
X43722Y-3289*
X43654Y-3356*
X43651Y-3358*
X43649Y-3359*
X43647*
X43762Y-5531D02*
X43760Y-5532D01*
X43759*
X43757Y-5533*
X43689Y-5588*
Y-5380*
X44015*
X44019Y-5379*
X44022Y-5377*
X44023Y-5373*
X44024Y-5370*
X44023Y-5366*
X44022Y-5363*
X44019Y-5360*
X44015Y-5359*
X43678*
X43674Y-5360*
X43671Y-5363*
X43669Y-5366*
X43668Y-5369*
Y-5610*
Y-5613*
X43670Y-5616*
X43672Y-5617*
X43675Y-5618*
X43678Y-5619*
X43680Y-5620*
X43682Y-5619*
X43684Y-5618*
X43766Y-5551*
X43927*
X44005Y-5615*
Y-5776*
X43927Y-5838*
X43766*
X43684Y-5772*
X43681Y-5771*
X43678*
X43675Y-5773*
X43672Y-5775*
X43670Y-5779*
X43669Y-5782*
X43670Y-5786*
X43672Y-5788*
X43757Y-5857*
X43758Y-5858*
X43760*
X43762Y-5859*
X43931*
X43932*
X43933*
X43934Y-5858*
X43935*
X43937Y-5857*
X44022Y-5788*
X44023Y-5787*
X44024Y-5786*
X44025Y-5783*
Y-5781*
Y-5610*
Y-5608*
X44024Y-5605*
Y-5604*
X44023Y-5603*
X44022Y-5602*
Y-5601*
X43937Y-5533*
X43935Y-5532*
X43933*
X43931Y-5531*
X43762*
X43806Y-4359D02*
X43802Y-4360D01*
X43800Y-4363*
X43799Y-4366*
X43798Y-4370*
X43799Y-4373*
X43800Y-4377*
X43802Y-4379*
X43806Y-4380*
X43894*
Y-4838*
X43806*
X43802Y-4839*
X43800Y-4842*
X43799Y-4845*
X43798Y-4849*
X43799Y-4853*
X43800Y-4856*
X43802Y-4858*
X43806Y-4859*
X44001*
X44005Y-4858*
X44008Y-4856*
X44009Y-4853*
X44010Y-4849*
X44009Y-4845*
X44008Y-4842*
X44005Y-4839*
X44001Y-4838*
X43913*
Y-4369*
Y-4366*
X43910Y-4363*
X43908Y-4360*
X43904Y-4359*
X43806*
X43910Y-2859D02*
X43906Y-2860D01*
X43904Y-2863*
X43903Y-2866*
X43902Y-2870*
X43903Y-2873*
X43904Y-2877*
X43906Y-2879*
X43910Y-2880*
X43998*
Y-3338*
X43910*
X43906Y-3339*
X43904Y-3342*
X43903Y-3345*
X43902Y-3349*
X43903Y-3353*
X43904Y-3356*
X43906Y-3358*
X43910Y-3359*
X44105*
X44109Y-3358*
X44112Y-3356*
X44113Y-3353*
X44114Y-3349*
X44113Y-3345*
X44112Y-3342*
X44109Y-3339*
X44105Y-3338*
X44017*
Y-2869*
Y-2866*
X44014Y-2863*
X44012Y-2860*
X44008Y-2859*
X43910*
X44312Y-3085D02*
Y-3137D01*
X44629*
Y-3118*
X44533Y-3022*
X44405*
X44312Y-3085*
X44403Y-3002D02*
X44538D01*
X44540Y-3003*
X44542*
X44545Y-3005*
X44647Y-3106*
Y-3108*
X44648Y-3110*
Y-3111*
X44649Y-3114*
Y-3147*
X44648Y-3151*
X44646Y-3154*
X44643Y-3156*
X44639Y-3157*
X44312*
Y-3277*
X44405Y-3339*
X44533*
X44632Y-3241*
X44635Y-3239*
X44638*
X44642Y-3240*
X44645Y-3242*
X44648Y-3245*
X44649Y-3249*
Y-3253*
X44647Y-3256*
X44545Y-3356*
X44542Y-3358*
X44540Y-3359*
X44538*
X44403*
X44400*
X44397Y-3357*
X44297Y-3290*
X44295Y-3289*
X44294Y-3287*
X44292Y-3285*
Y-3282*
Y-3079*
Y-3077*
X44294Y-3074*
X44295Y-3073*
X44296Y-3072*
X44297Y-3071*
X44397Y-3004*
X44400Y-3002*
X44403*
X44550Y-4430D02*
X44634Y-4361D01*
X44636*
X44637Y-4360*
X44638*
X44640Y-4359*
X44808*
X44810Y-4360*
X44811*
X44813Y-4361*
X44815*
X44899Y-4430*
X44900Y-4432*
X44901Y-4434*
X44902Y-4436*
Y-4438*
Y-4781*
Y-4782*
X44901Y-4786*
X44900Y-4787*
X44899Y-4789*
X44815Y-4857*
X44813Y-4858*
X44812*
X44811Y-4859*
X44810*
X44808*
X44640*
X44638*
X44636Y-4858*
X44634Y-4857*
X44550Y-4789*
X44549Y-4788*
X44548Y-4787*
X44547Y-4786*
X44546Y-4782*
X44545Y-4781*
Y-4438*
X44546Y-4436*
X44547Y-4434*
X44548Y-4432*
X44550Y-4430*
X44566Y-4443D02*
Y-4776D01*
X44595Y-4801*
X44837Y-4406*
X44804Y-4380*
X44643*
X44566Y-4443*
X44611Y-4814D02*
X44643Y-4839D01*
X44804*
X44882Y-4776*
Y-4443*
X44853Y-4419*
X44611Y-4814*
X44763Y-3349D02*
X44764Y-3353D01*
X44766Y-3356*
X44769Y-3357*
X44773Y-3358*
X44777Y-3357*
X44780Y-3356*
X44783Y-3353*
X44784Y-3349*
Y-2901*
X45102Y-3355*
X45104Y-3357*
X45106Y-3358*
X45109*
X45112Y-3357*
X45115Y-3356*
X45118Y-3355*
X45120Y-3352*
Y-3349*
Y-2869*
X45119Y-2866*
X45117Y-2863*
X45114Y-2861*
X45110*
X45107*
X45103Y-2863*
X45101Y-2866*
X45100Y-2869*
Y-3317*
X44781Y-2864*
X44779Y-2862*
X44777Y-2861*
X44775*
X44772*
X44768Y-2862*
X44765Y-2863*
X44764Y-2866*
X44763Y-2869*
Y-3349*
X44807Y-5660D02*
X44810Y-5659D01*
X44813Y-5657*
X44814Y-5653*
Y-5650*
Y-5646*
X44813Y-5643*
X44810Y-5641*
X44807Y-5640*
X44683*
Y-5517*
X44682Y-5513*
X44680Y-5511*
X44677Y-5509*
X44673Y-5508*
X44670Y-5509*
X44667Y-5511*
X44664Y-5513*
Y-5517*
Y-5640*
X44540*
X44536Y-5641*
X44534Y-5643*
X44533Y-5646*
X44532Y-5650*
X44533Y-5653*
X44534Y-5657*
X44536Y-5659*
X44540Y-5660*
X44664*
Y-5783*
Y-5787*
X44667Y-5789*
X44670Y-5791*
X44673*
X44677*
X44680Y-5789*
X44682Y-5787*
X44683Y-5783*
Y-5660*
X44807*
X44965Y-5843D02*
X45302Y-5363D01*
X45304Y-5361*
X45308Y-5360*
X45311Y-5361*
X45314Y-5363*
X45317Y-5365*
X45319Y-5369*
Y-5372*
X45318Y-5376*
X44981Y-5855*
X44980Y-5857*
X44978Y-5858*
X44976*
X44975*
X44971Y-5857*
X44968Y-5856*
X44966Y-5853*
X44964Y-5850*
X44963Y-5846*
X44965Y-5843*
X45115Y-4796D02*
Y-4851D01*
X45116Y-4853*
Y-4855*
X45117Y-4856*
X45118*
X45120Y-4859*
X45123*
X45178*
X45181*
X45184Y-4856*
X45186Y-4854*
X45187Y-4851*
Y-4796*
X45186Y-4793*
X45184Y-4791*
X45181Y-4788*
X45178*
X45123*
X45120*
X45118Y-4791*
X45117*
X45116Y-4792*
Y-4794*
X45115Y-4796*
X45132Y-4804D02*
X45170D01*
Y-4843*
X45132*
Y-4804*
X45256Y-3186D02*
X45349Y-3123D01*
X45479*
X45573Y-3186*
Y-3277*
X45479Y-3339*
X45349*
X45256Y-3277*
Y-3186*
X45407Y-4430D02*
X45491Y-4361D01*
X45493*
X45494Y-4360*
X45495*
X45497Y-4359*
X45665*
X45667Y-4360*
X45668*
X45670Y-4361*
X45672*
X45756Y-4430*
X45757Y-4432*
X45758Y-4434*
X45759Y-4436*
Y-4438*
Y-4781*
Y-4782*
X45758Y-4786*
X45757Y-4787*
X45756Y-4789*
X45672Y-4857*
X45670Y-4858*
X45669*
X45668Y-4859*
X45667*
X45665*
X45497*
X45495*
X45493Y-4858*
X45491Y-4857*
X45407Y-4789*
X45406Y-4788*
X45405Y-4787*
X45404Y-4786*
X45403Y-4782*
X45402Y-4781*
Y-4438*
X45403Y-4436*
X45404Y-4434*
X45405Y-4432*
X45407Y-4430*
X45423Y-4443D02*
Y-4776D01*
X45452Y-4801*
X45694Y-4406*
X45661Y-4380*
X45500*
X45423Y-4443*
X45468Y-4814D02*
X45500Y-4839D01*
X45661*
X45739Y-4776*
Y-4443*
X45710Y-4419*
X45468Y-4814*
X45504Y-5637D02*
X45665D01*
X45668Y-5638*
X45671Y-5640*
X45672Y-5642*
X45673Y-5645*
X45672Y-5649*
X45671Y-5652*
X45668Y-5654*
X45665*
X45504*
X45501*
X45498Y-5652*
X45497Y-5649*
X45496Y-5645*
X45497Y-5642*
X45498Y-5640*
X45500Y-5638*
X45504Y-5637*
X45573Y-3349D02*
Y-3353D01*
X45576Y-3356*
X45579Y-3357*
X45583Y-3358*
X45586Y-3357*
X45589Y-3356*
X45592Y-3353*
X45593Y-3349*
Y-3079*
X45592Y-3078*
Y-3076*
X45591Y-3072*
X45523Y-3005*
X45520Y-3003*
X45518*
X45516Y-3002*
X45245*
X45242Y-3003*
X45239Y-3005*
X45237Y-3009*
Y-3012*
Y-3016*
X45239Y-3019*
X45242Y-3021*
X45245Y-3022*
X45510*
X45573Y-3084*
Y-3163*
X45487Y-3105*
X45485Y-3104*
X45482Y-3103*
X45347*
X45343Y-3104*
X45341Y-3105*
X45240Y-3173*
X45239Y-3174*
X45238Y-3175*
X45236Y-3177*
X45235Y-3181*
Y-3282*
X45236Y-3285*
X45238Y-3287*
X45239Y-3289*
X45240Y-3290*
X45341Y-3357*
X45344Y-3359*
X45347*
X45482*
X45485*
X45487Y-3357*
X45573Y-3301*
Y-3349*
X45969Y-4531D02*
X45967Y-4532D01*
X45965*
X45963Y-4533*
X45895Y-4588*
Y-4380*
X46222*
X46225Y-4379*
X46228Y-4377*
X46230Y-4373*
Y-4370*
Y-4366*
X46228Y-4363*
X46225Y-4360*
X46222Y-4359*
X45884*
X45881Y-4360*
X45878Y-4363*
X45875Y-4366*
X45874Y-4369*
Y-4610*
X45875Y-4613*
X45876Y-4616*
X45878Y-4617*
X45882Y-4618*
X45884Y-4619*
X45886Y-4620*
X45889Y-4619*
X45891Y-4618*
X45972Y-4551*
X46134*
X46212Y-4615*
Y-4776*
X46134Y-4838*
X45972*
X45891Y-4772*
X45887Y-4771*
X45884*
X45881Y-4773*
X45878Y-4775*
X45876Y-4779*
Y-4782*
Y-4786*
X45879Y-4788*
X45963Y-4857*
X45965Y-4858*
X45967*
X45969Y-4859*
X46137*
X46139*
X46140*
X46141Y-4858*
X46142*
X46144Y-4857*
X46228Y-4788*
X46230Y-4787*
Y-4786*
X46231Y-4783*
X46232Y-4781*
Y-4610*
X46231Y-4608*
X46230Y-4605*
Y-4604*
Y-4603*
X46229Y-4602*
X46228Y-4601*
X46144Y-4533*
X46141Y-4532*
X46139*
X46137Y-4531*
X45969*
X46058Y-5849D02*
Y-5853D01*
X46061Y-5856*
X46064Y-5857*
X46068Y-5858*
X46071Y-5857*
X46074Y-5856*
X46077Y-5853*
X46078Y-5849*
Y-5380*
X46236*
X46240Y-5379*
X46243Y-5377*
X46244Y-5373*
X46245Y-5370*
X46244Y-5366*
X46243Y-5362*
X46240Y-5360*
X46236Y-5359*
X45899*
X45895Y-5360*
X45893Y-5362*
X45891Y-5366*
X45890Y-5370*
X45891Y-5373*
X45893Y-5377*
X45895Y-5379*
X45899Y-5380*
X46058*
Y-5849*
X46064Y-3046D02*
X46063Y-3044D01*
Y-3040*
X46061Y-3038*
X46010Y-3004*
X46007Y-3002*
X46004*
X45937*
X45934*
X45932Y-3004*
X45886Y-3034*
X45841Y-3004*
X45838Y-3002*
X45836*
X45768*
X45765*
X45763Y-3004*
X45728Y-3028*
Y-3012*
X45727Y-3008*
X45724Y-3005*
X45721Y-3004*
X45717Y-3003*
X45713Y-3004*
X45710Y-3005*
X45708Y-3008*
X45707Y-3012*
Y-3349*
X45708Y-3353*
X45710Y-3355*
X45713Y-3357*
X45717*
X45721*
X45724Y-3355*
X45727Y-3353*
X45728Y-3349*
Y-3051*
X45770Y-3022*
X45833*
X45876Y-3051*
Y-3349*
Y-3353*
X45879Y-3356*
X45882Y-3357*
X45886Y-3358*
X45890Y-3357*
X45893Y-3356*
X45895Y-3353*
X45896Y-3349*
Y-3051*
X45939Y-3021*
X46002*
X46044Y-3051*
Y-3349*
X46045Y-3353*
X46047Y-3356*
X46051Y-3357*
X46054Y-3358*
X46058Y-3357*
X46061Y-3356*
X46063Y-3353*
X46064Y-3349*
Y-3046*
X46199Y-3085D02*
Y-3137D01*
X46516*
Y-3118*
X46420Y-3022*
X46292*
X46199Y-3085*
X46290Y-3002D02*
X46425D01*
X46427Y-3003*
X46429*
X46432Y-3005*
X46534Y-3106*
Y-3108*
X46535Y-3110*
Y-3111*
X46536Y-3114*
Y-3147*
X46535Y-3151*
X46533Y-3154*
X46530Y-3156*
X46526Y-3157*
X46199*
Y-3277*
X46292Y-3339*
X46420*
X46519Y-3241*
X46522Y-3239*
X46525*
X46529Y-3240*
X46532Y-3242*
X46535Y-3245*
X46536Y-3249*
Y-3253*
X46534Y-3256*
X46432Y-3356*
X46429Y-3358*
X46427Y-3359*
X46425*
X46290*
X46287*
X46284Y-3357*
X46184Y-3290*
X46182Y-3289*
X46181Y-3287*
X46179Y-3285*
Y-3282*
Y-3079*
Y-3077*
X46181Y-3074*
X46182Y-3073*
X46183Y-3072*
X46184Y-3071*
X46284Y-3004*
X46287Y-3002*
X46290*
X46382Y-5584D02*
Y-5777D01*
X46444Y-5839*
X46637*
X46699Y-5777*
Y-5584*
X46637Y-5522*
X46444*
X46382Y-5584*
X46642Y-5859D02*
X46440D01*
X46438*
X46437*
X46434Y-5858*
X46432Y-5856*
X46365Y-5789*
X46363Y-5787*
X46362Y-5784*
Y-5782*
Y-5579*
Y-5578*
X46363Y-5575*
X46365Y-5572*
X46432Y-5505*
X46434Y-5503*
X46437*
X46438Y-5502*
X46440*
X46642*
X46644Y-5503*
X46646*
X46649Y-5505*
X46717Y-5572*
Y-5574*
X46718Y-5576*
Y-5577*
Y-5578*
X46719Y-5579*
Y-5782*
X46718Y-5784*
Y-5786*
X46717Y-5789*
X46649Y-5856*
X46646Y-5858*
X46644Y-5859*
X46642*
X46773Y-4637D02*
X46934D01*
X46937Y-4638*
X46940Y-4640*
X46941Y-4642*
X46942Y-4645*
X46941Y-4649*
X46940Y-4652*
X46937Y-4654*
X46934*
X46773*
X46770*
X46767Y-4652*
X46766Y-4649*
X46765Y-4645*
X46766Y-4642*
X46767Y-4640*
X46769Y-4638*
X46773Y-4637*
X46905Y-5359D02*
X46901Y-5360D01*
X46899Y-5363*
X46898Y-5366*
X46897Y-5370*
X46898Y-5373*
X46899Y-5377*
X46901Y-5379*
X46905Y-5380*
X46993*
Y-5838*
X46905*
X46901Y-5839*
X46899Y-5842*
X46898Y-5845*
X46897Y-5849*
X46898Y-5853*
X46899Y-5856*
X46901Y-5858*
X46905Y-5859*
X47100*
X47104Y-5858*
X47107Y-5856*
X47108Y-5853*
X47109Y-5849*
X47108Y-5845*
X47107Y-5842*
X47104Y-5839*
X47100Y-5838*
X47012*
Y-5369*
Y-5366*
X47009Y-5363*
X47007Y-5360*
X47003Y-5359*
X46905*
X47327Y-4849D02*
Y-4853D01*
X47330Y-4856*
X47333Y-4857*
X47337Y-4858*
X47340Y-4857*
X47343Y-4856*
X47346Y-4853*
X47347Y-4849*
Y-4380*
X47505*
X47509Y-4379*
X47512Y-4377*
X47513Y-4373*
X47514Y-4370*
X47513Y-4366*
X47512Y-4362*
X47509Y-4360*
X47505Y-4359*
X47168*
X47164Y-4360*
X47162Y-4362*
X47160Y-4366*
X47159Y-4370*
X47160Y-4373*
X47162Y-4377*
X47164Y-4379*
X47168Y-4380*
X47327*
Y-4849*
X47649Y-5430D02*
X47733Y-5361D01*
X47735*
X47736Y-5360*
X47737*
X47739Y-5359*
X47907*
X47909Y-5360*
X47910*
X47912Y-5361*
X47914*
X47998Y-5430*
X47999Y-5432*
X48000Y-5434*
X48001Y-5436*
Y-5438*
Y-5781*
Y-5782*
X48000Y-5786*
X47999Y-5787*
X47998Y-5789*
X47914Y-5857*
X47912Y-5858*
X47911*
X47910Y-5859*
X47909*
X47907*
X47739*
X47737*
X47735Y-5858*
X47733Y-5857*
X47649Y-5789*
X47648Y-5788*
X47647Y-5787*
X47646Y-5786*
X47645Y-5782*
X47644Y-5781*
Y-5438*
X47645Y-5436*
X47646Y-5434*
X47647Y-5432*
X47649Y-5430*
X47651Y-4584D02*
Y-4777D01*
X47713Y-4839*
X47906*
X47968Y-4777*
Y-4584*
X47906Y-4522*
X47713*
X47651Y-4584*
X47665Y-5443D02*
Y-5776D01*
X47694Y-5801*
X47936Y-5406*
X47903Y-5380*
X47742*
X47665Y-5443*
X47710Y-5814D02*
X47742Y-5839D01*
X47903*
X47981Y-5776*
Y-5443*
X47952Y-5419*
X47710Y-5814*
X47911Y-4859D02*
X47709D01*
X47707*
X47706*
X47703Y-4858*
X47701Y-4856*
X47634Y-4789*
X47632Y-4787*
X47631Y-4784*
Y-4782*
Y-4579*
Y-4578*
X47632Y-4575*
X47634Y-4572*
X47701Y-4505*
X47703Y-4503*
X47706*
X47707Y-4502*
X47709*
X47911*
X47913Y-4503*
X47915*
X47918Y-4505*
X47986Y-4572*
Y-4574*
X47987Y-4576*
Y-4577*
Y-4578*
X47988Y-4579*
Y-4782*
X47987Y-4784*
Y-4786*
X47986Y-4789*
X47918Y-4856*
X47915Y-4858*
X47913Y-4859*
X47911*
X48174Y-4359D02*
X48170Y-4360D01*
X48168Y-4363*
X48167Y-4366*
X48166Y-4370*
X48167Y-4373*
X48168Y-4377*
X48170Y-4379*
X48174Y-4380*
X48262*
Y-4838*
X48174*
X48170Y-4839*
X48168Y-4842*
X48167Y-4845*
X48166Y-4849*
X48167Y-4853*
X48168Y-4856*
X48170Y-4858*
X48174Y-4859*
X48369*
X48373Y-4858*
X48376Y-4856*
X48377Y-4853*
X48378Y-4849*
X48377Y-4845*
X48376Y-4842*
X48373Y-4839*
X48369Y-4838*
X48281*
Y-4369*
Y-4366*
X48278Y-4363*
X48276Y-4360*
X48272Y-4359*
X48174*
X48214Y-5796D02*
Y-5851D01*
X48215Y-5853*
Y-5855*
X48216Y-5856*
X48217*
X48219Y-5859*
X48222*
X48277*
X48280*
X48283Y-5856*
X48285Y-5854*
X48286Y-5851*
Y-5796*
X48285Y-5793*
X48283Y-5791*
X48280Y-5788*
X48277*
X48222*
X48219*
X48217Y-5791*
X48216*
X48215Y-5792*
Y-5794*
X48214Y-5796*
X48231Y-5804D02*
X48269D01*
Y-5843*
X48231*
Y-5804*
X48573Y-5839D02*
X48569Y-5840D01*
X48567Y-5842*
X48566Y-5845*
X48565Y-5849*
X48566Y-5853*
X48567Y-5856*
X48569Y-5859*
X48573*
X48768*
X48772*
X48775Y-5856*
X48776Y-5853*
X48777Y-5849*
X48776Y-5845*
X48775Y-5842*
X48772Y-5840*
X48768Y-5839*
X48680*
Y-5369*
Y-5366*
X48678Y-5363*
X48676Y-5362*
X48672Y-5361*
X48670*
X48667*
X48665Y-5362*
X48663Y-5364*
X48566Y-5501*
X48564Y-5504*
Y-5508*
X48566Y-5511*
X48568Y-5513*
X48571Y-5515*
X48575Y-5516*
X48577*
X48578*
X48581Y-5513*
X48661Y-5401*
Y-5839*
X48573*
X48982Y-4637D02*
X49142D01*
X49146Y-4638*
X49148Y-4640*
X49150Y-4642*
Y-4645*
Y-4649*
X49148Y-4652*
X49146Y-4654*
X49142*
X48982*
X48978*
X48976Y-4652*
X48974Y-4649*
Y-4645*
Y-4642*
X48975Y-4640*
X48978Y-4638*
X48982Y-4637*
X49371Y-4430D02*
X49455Y-4361D01*
X49457*
X49459Y-4360*
X49461Y-4359*
X49630*
X49632Y-4360*
X49633*
X49634Y-4361*
X49636*
X49720Y-4430*
X49722Y-4432*
Y-4434*
X49723Y-4436*
X49724Y-4438*
Y-4781*
X49723Y-4782*
X49722Y-4786*
Y-4787*
X49720Y-4789*
X49636Y-4857*
X49634Y-4858*
X49633*
X49632Y-4859*
X49631*
X49630*
X49461*
X49459*
X49457Y-4858*
X49455Y-4857*
X49371Y-4789*
X49370Y-4788*
X49369Y-4787*
X49368Y-4786*
X49367Y-4782*
Y-4781*
Y-4438*
Y-4436*
X49368Y-4434*
X49369Y-4432*
X49371Y-4430*
X49387Y-4443D02*
Y-4776D01*
X49417Y-4801*
X49659Y-4406*
X49626Y-4380*
X49464*
X49387Y-4443*
X49433Y-4814D02*
X49464Y-4839D01*
X49626*
X49704Y-4776*
Y-4443*
X49674Y-4419*
X49433Y-4814*
X49937Y-4796D02*
Y-4851D01*
Y-4853*
X49938Y-4855*
X49939Y-4856*
X49940*
X49942Y-4859*
X49945*
X50000*
X50003*
X50005Y-4856*
X50008Y-4854*
Y-4851*
Y-4796*
Y-4793*
X50005Y-4791*
X50003Y-4788*
X50000*
X49945*
X49942*
X49940Y-4791*
X49939*
X49938Y-4792*
X49937Y-4794*
Y-4796*
X49953Y-4804D02*
X49992D01*
Y-4843*
X49953*
Y-4804*
X50296Y-4839D02*
X50292Y-4840D01*
X50290Y-4842*
X50288Y-4845*
Y-4849*
Y-4853*
X50290Y-4856*
X50292Y-4859*
X50296*
X50491*
X50494*
X50497Y-4856*
X50499Y-4853*
Y-4849*
Y-4845*
X50497Y-4842*
X50494Y-4840*
X50491Y-4839*
X50403*
Y-4369*
X50402Y-4366*
X50401Y-4363*
X50398Y-4362*
X50395Y-4361*
X50392*
X50390*
X50388Y-4362*
X50386Y-4364*
X50288Y-4501*
X50287Y-4504*
Y-4508*
X50288Y-4511*
X50291Y-4513*
X50294Y-4515*
X50297Y-4516*
X50299*
X50301*
X50303Y-4513*
X50383Y-4401*
Y-4839*
X50296*
X53779Y-3234D02*
X53777Y-3231D01*
Y-3227*
X53779Y-3223*
X53782Y-3220*
X53785Y-3219*
X53789Y-3218*
X53792*
X53796Y-3220*
X53855Y-3294*
X53876Y-3276*
Y-2943*
X53798Y-2880*
X53637*
X53560Y-2943*
Y-3276*
X53637Y-3339*
X53798*
X53838Y-3307*
X53779Y-3234*
X53878Y-3356D02*
X53850Y-3322D01*
X53808Y-3357*
X53807Y-3358*
X53805*
Y-3359*
X53804*
X53802*
X53634*
X53631*
X53630Y-3358*
X53628Y-3357*
X53544Y-3289*
X53543Y-3288*
X53542Y-3287*
X53541Y-3286*
X53540Y-3282*
X53539Y-3281*
Y-2938*
X53540Y-2936*
X53541Y-2934*
X53542Y-2932*
X53544Y-2930*
X53628Y-2861*
X53630*
X53631Y-2860*
X53632*
X53634Y-2859*
X53802*
X53804Y-2860*
X53805*
X53807Y-2861*
X53809*
X53893Y-2930*
Y-2931*
X53894Y-2932*
X53895*
Y-2933*
X53896Y-2935*
Y-2938*
Y-3281*
Y-3283*
X53895Y-3285*
X53894Y-3287*
X53893Y-3289*
X53868Y-3309*
X53895Y-3342*
X53897Y-3346*
Y-3349*
X53895Y-3353*
X53892Y-3356*
X53889Y-3358*
X53885Y-3359*
X53883*
X53881Y-3358*
X53878Y-3356*
X54011Y-3282D02*
X54012Y-3284D01*
X54013Y-3286*
X54014Y-3288*
X54016Y-3290*
X54100Y-3357*
X54102Y-3358*
X54104Y-3359*
X54106*
X54274*
X54276*
X54277*
X54278*
X54279Y-3358*
X54281Y-3357*
X54349Y-3303*
Y-3349*
Y-3353*
X54352Y-3356*
X54355Y-3357*
X54359Y-3358*
X54362Y-3357*
X54365Y-3356*
X54368Y-3353*
X54369Y-3349*
Y-3012*
X54368Y-3008*
X54365Y-3006*
X54362Y-3004*
X54359Y-3003*
X54355Y-3004*
X54352Y-3006*
X54349Y-3008*
Y-3012*
Y-3277*
X54271Y-3339*
X54109*
X54032Y-3277*
Y-3012*
X54031Y-3008*
X54029Y-3006*
X54025Y-3004*
X54021Y-3003*
X54018Y-3004*
X54015Y-3006*
X54012Y-3008*
X54011Y-3012*
Y-3282*
X54505Y-3186D02*
X54598Y-3123D01*
X54728*
X54821Y-3186*
Y-3277*
X54728Y-3339*
X54598*
X54505Y-3277*
Y-3186*
X54821Y-3349D02*
X54822Y-3353D01*
X54824Y-3356*
X54828Y-3357*
X54831Y-3358*
X54835Y-3357*
X54838Y-3356*
X54840Y-3353*
X54841Y-3349*
Y-3079*
X54840Y-3078*
Y-3076*
X54839Y-3072*
X54771Y-3005*
X54768Y-3003*
X54766*
X54764Y-3002*
X54494*
X54490Y-3003*
X54488Y-3005*
X54486Y-3009*
X54485Y-3012*
X54486Y-3016*
X54488Y-3019*
X54490Y-3021*
X54494Y-3022*
X54759*
X54821Y-3084*
Y-3163*
X54735Y-3105*
X54733Y-3104*
X54730Y-3103*
X54595*
X54592Y-3104*
X54590Y-3105*
X54489Y-3173*
X54488Y-3174*
X54487*
X54486Y-3175*
X54484Y-3177*
Y-3181*
Y-3282*
Y-3285*
X54486Y-3287*
X54487Y-3289*
X54489Y-3290*
X54590Y-3357*
X54592Y-3359*
X54595*
X54730*
X54733*
X54735Y-3357*
X54821Y-3301*
Y-3349*
X55293D02*
Y-3353D01*
X55296Y-3356*
X55299Y-3357*
X55303Y-3358*
X55306Y-3357*
X55309Y-3356*
X55312Y-3353*
X55313Y-3349*
Y-3079*
X55312Y-3078*
X55311Y-3076*
Y-3074*
X55309Y-3071*
X55225Y-3004*
X55222Y-3003*
X55220*
X55218Y-3002*
X55050*
X55048Y-3003*
X55046*
X55044Y-3004*
X54976Y-3058*
Y-3012*
X54975Y-3008*
X54973Y-3006*
X54969Y-3004*
X54965Y-3003*
X54962Y-3004*
X54959Y-3006*
X54956Y-3008*
X54955Y-3012*
Y-3349*
X54956Y-3353*
X54959Y-3356*
X54962Y-3357*
X54965Y-3358*
X54969Y-3357*
X54973Y-3356*
X54975Y-3353*
X54976Y-3349*
Y-3084*
X55053Y-3022*
X55215*
X55293Y-3084*
Y-3349*
X55614Y-2869D02*
X55613Y-2866D01*
X55611Y-2863*
X55608Y-2861*
X55604*
X55601*
X55597Y-2863*
X55595Y-2866*
X55594Y-2869*
Y-3031*
X55472*
X55468Y-3032*
X55466Y-3034*
X55465Y-3037*
X55464Y-3041*
X55465Y-3044*
X55466Y-3048*
X55468Y-3050*
X55472Y-3051*
X55594*
Y-3315*
X55595Y-3318*
X55596Y-3320*
X55597Y-3322*
X55599Y-3323*
X55649Y-3357*
X55651Y-3359*
X55654*
X55721*
X55725*
X55727Y-3357*
X55777Y-3323*
X55780Y-3321*
X55781Y-3317*
X55780Y-3314*
X55778Y-3311*
X55776Y-3308*
X55773Y-3306*
X55770Y-3305*
X55766Y-3307*
X55718Y-3339*
X55656*
X55614Y-3310*
Y-3051*
X55738*
X55741Y-3050*
X55744Y-3048*
X55746Y-3044*
Y-3041*
Y-3037*
X55744Y-3034*
X55741Y-3032*
X55738Y-3031*
X55614*
Y-2869*
X55961Y-4839D02*
X55957Y-4840D01*
X55955Y-4842*
X55954Y-4845*
X55953Y-4849*
X55954Y-4853*
X55955Y-4856*
X55957Y-4859*
X55961*
X56156*
X56160*
X56163Y-4856*
X56164Y-4853*
X56165Y-4849*
X56164Y-4845*
X56163Y-4842*
X56160Y-4840*
X56156Y-4839*
X56068*
Y-4369*
Y-4366*
X56066Y-4363*
X56064Y-4362*
X56060Y-4361*
X56058*
X56055*
X56053Y-4362*
X56051Y-4364*
X55954Y-4501*
X55952Y-4504*
Y-4508*
X55954Y-4511*
X55956Y-4513*
X55959Y-4515*
X55963Y-4516*
X55965*
X55966*
X55969Y-4513*
X56049Y-4401*
Y-4839*
X55961*
X56117Y-3359D02*
X56121Y-3358D01*
X56123Y-3356*
X56124Y-3353*
X56125Y-3349*
X56124Y-3346*
X56123Y-3343*
X56121Y-3340*
X56117Y-3339*
X56064*
Y-3012*
X56063Y-3008*
X56061Y-3006*
X56059Y-3003*
X56055Y-3002*
X55993*
X55989Y-3003*
X55987Y-3005*
X55985Y-3009*
Y-3012*
Y-3016*
X55987Y-3019*
X55989Y-3021*
X55993Y-3022*
X56045*
Y-3339*
X55993*
X55989Y-3340*
X55987Y-3343*
X55985Y-3346*
Y-3349*
Y-3353*
X55987Y-3356*
X55989Y-3358*
X55993Y-3359*
X56117*
X56416Y-4839D02*
X56412Y-4840D01*
X56410Y-4842*
X56409Y-4845*
X56408Y-4849*
X56409Y-4853*
X56410Y-4856*
X56412Y-4859*
X56416*
X56611*
X56615*
X56618Y-4856*
X56619Y-4853*
X56620Y-4849*
X56619Y-4845*
X56618Y-4842*
X56615Y-4840*
X56611Y-4839*
X56523*
Y-4369*
Y-4366*
X56521Y-4363*
X56519Y-4362*
X56515Y-4361*
X56513*
X56510*
X56508Y-4362*
X56506Y-4364*
X56409Y-4501*
X56407Y-4504*
Y-4508*
X56409Y-4511*
X56411Y-4513*
X56414Y-4515*
X56418Y-4516*
X56420*
X56421*
X56424Y-4513*
X56504Y-4401*
Y-4839*
X56416*
X56518Y-2869D02*
X56517Y-2866D01*
X56514Y-2863*
X56511Y-2861*
X56508*
X56504*
X56501Y-2863*
X56498Y-2866*
Y-2869*
Y-3031*
X56375*
X56372Y-3032*
X56369Y-3034*
X56368Y-3037*
Y-3041*
Y-3044*
X56369Y-3048*
X56372Y-3050*
X56375Y-3051*
X56498*
Y-3315*
Y-3318*
X56500Y-3320*
X56501Y-3322*
X56503Y-3323*
X56553Y-3357*
X56555Y-3359*
X56558*
X56625*
X56628*
X56631Y-3357*
X56681Y-3323*
X56683Y-3321*
X56684Y-3317*
Y-3314*
X56682Y-3311*
X56680Y-3308*
X56677Y-3306*
X56673Y-3305*
X56670Y-3307*
X56622Y-3339*
X56560*
X56518Y-3310*
Y-3051*
X56641*
X56645Y-3050*
X56648Y-3048*
X56649Y-3044*
X56650Y-3041*
X56649Y-3037*
X56648Y-3034*
X56645Y-3032*
X56641Y-3031*
X56518*
Y-2869*
X56799Y-3280D02*
Y-3005D01*
X56800Y-3001*
X56802Y-2998*
X56806Y-2996*
X56809*
X56813*
X56817Y-2998*
X56819Y-3001*
X56820Y-3005*
Y-3275*
X56897Y-3339*
X57059*
X57136Y-3276*
Y-3005*
X57137Y-3001*
X57139Y-2998*
X57143Y-2996*
X57146*
X57150*
X57153Y-2998*
X57155Y-3001*
X57156Y-3005*
Y-3555*
Y-3558*
X57153Y-3561*
X57150Y-3564*
X57146Y-3565*
X56809*
X56806Y-3564*
X56803Y-3562*
X56801Y-3558*
Y-3554*
Y-3551*
X56803Y-3547*
X56806Y-3545*
X56809Y-3544*
X57136*
Y-3302*
X57068Y-3357*
X57066Y-3358*
Y-3359*
X57064*
X57063*
X57062*
X56894*
X56892*
X56890Y-3358*
X56888Y-3357*
X56804Y-3289*
X56803Y-3288*
X56802Y-3287*
X56801Y-3286*
X56800Y-3282*
X56799Y-3280*
X56820Y-4648D02*
Y-4776D01*
X56897Y-4839*
X57058*
X57136Y-4776*
Y-4648*
X57058Y-4585*
X56897*
X56820Y-4648*
X56889Y-5839D02*
X56885Y-5840D01*
X56883Y-5842*
X56882Y-5845*
X56881Y-5849*
X56882Y-5853*
X56883Y-5856*
X56885Y-5859*
X56889*
X57084*
X57088*
X57091Y-5856*
X57092Y-5853*
X57093Y-5849*
X57092Y-5845*
X57091Y-5842*
X57088Y-5840*
X57084Y-5839*
X56996*
Y-5369*
Y-5366*
X56994Y-5363*
X56992Y-5362*
X56988Y-5361*
X56986*
X56983*
X56981Y-5362*
X56979Y-5364*
X56882Y-5501*
X56880Y-5504*
Y-5508*
X56882Y-5511*
X56884Y-5513*
X56887Y-5515*
X56891Y-5516*
X56893*
X56894*
X56897Y-5513*
X56977Y-5401*
Y-5839*
X56889*
X57069Y-4361D02*
X57153Y-4430D01*
X57155Y-4432*
X57156Y-4436*
X57155Y-4439*
X57154Y-4442*
X57153Y-4444*
X57150Y-4446*
X57148Y-4447*
X57145Y-4448*
X57143*
X57141Y-4446*
X57059Y-4380*
X56897*
X56820Y-4443*
Y-4622*
X56888Y-4567*
X56890Y-4566*
X56891*
Y-4565*
X56894*
X57062*
X57064*
Y-4566*
X57065*
X57067*
X57068Y-4567*
X57153Y-4635*
Y-4636*
X57154Y-4637*
X57155*
Y-4638*
X57156Y-4642*
Y-4643*
Y-4781*
Y-4783*
X57155Y-4785*
X57154Y-4787*
X57153Y-4789*
X57069Y-4857*
X57066Y-4858*
Y-4859*
X57065*
X57064*
X57063*
X57062*
X56894*
X56892*
X56890Y-4858*
X56888Y-4857*
X56804Y-4789*
X56803Y-4788*
X56802Y-4787*
X56801Y-4786*
X56800Y-4782*
X56799Y-4781*
Y-4438*
X56800Y-4435*
X56801Y-4433*
X56802Y-4432*
X56803Y-4431*
X56804Y-4430*
X56888Y-4361*
X56890*
X56891Y-4360*
X56892*
X56894Y-4359*
X57062*
X57064Y-4360*
X57065*
X57067Y-4361*
X57069*
M02*
