; Version : LOCAL
; Job     : H:\ZEROSERO7\PCB\USB_SNIFFER\PCB\PCB.pcb
; User    : DESKTOP-D6MOGOB:alexis
; Date    : Wed Dec 27 13:23:56 2017
; Format  : 3.3 / Absolute / MM / Leading
; Contents: Thru / Drill / Plated
M48
METRIC,TZ
FMAT,2
ICI,OFF
T04C0.3000
T02C0.9500
T03C2.3000
%
M71
G90
G93X0Y0
T04
X20795Y1861
X14957Y1524
X5404Y2949
X13610Y4724
X16959Y4840
X18412Y3191
X44705Y6387
X41413Y6375
X35424Y5893
X17403Y6831
X9059Y5665
X5895Y6128
X9012Y9994
X16083Y9495
X20020Y8156
X20576Y8943
X21765Y9042
X22767Y7660
X31165Y7738
X32933Y10083
X39222Y9346
X41808Y8848
X45061Y9764
X43444Y12420
X41239Y12005
X38263Y12458
X33290Y11821
X32118Y10702
X31512Y12523
X30711Y10231
X30103Y11882
X28813Y12139
X26369Y10558
X26359Y11981
X24975Y10558
X24955Y11942
X23572Y11951
X23552Y10538
X20572Y10225
X20535Y11427
X20526Y12603
X16987Y12575
X15744Y11675
X14487Y12696
X10461Y10927
X4111Y12511
X1922Y12630
X8337Y13070
X17658Y14064
X18602Y13119
X21719Y14824
X23552Y13365
X24965
X26364Y13350
X28776Y13013
X32011Y13491
X32029Y15018
X33681Y15036
X33699Y13526
X41789Y15075
X39073Y15421
X36218Y16055
X34912Y17716
X33717Y16848
X31996Y16799
X27864Y15892
X22607
X8065Y16654
X3037Y15855
X15773Y19100
X17832Y18298
X19558Y18514
X30211Y19791
X30587Y18182
X31806Y19767
X32019Y18575
X33691Y19823
X33699Y18607
X40745Y18400
X44636Y18038
X44416Y21245
X41514Y21164
X38885Y21787
X36744Y21567
X35071Y21053
X33134Y21103
X32388Y21544
X6663Y20725
X3255Y21340
X653Y21867
T02
X35117Y8060
Y10560
Y12560
Y15060
T03
X37817Y4990
Y18130
T00
M30
