*
G04 Job   : H:\ZEROSERO7\PCB\USB_SNIFFER\PCB\PCB.pcb*
G04 User  : DESKTOP-D6MOGOB:alexis*
G04 Layer : EtchLayerTop.gdo*
G04 Date  : Wed Dec 27 13:25:23 2017*
G04 Mentor Graphics Example Gerber Output Definition*
%ICAS*%
%MOIN*%
%FSLAX24Y24*%
%OFA0.0000B0.0000*%
G90*
G74*
%AMVB_RECTANGLE*
21,1,$1,$2,0,0,$3*
%
%ADD10C,0.00000*%
%ADD11C,0.00591*%
%ADD14C,0.01181*%
%ADD13C,0.01575*%
%ADD16C,0.02362*%
%ADD15C,0.02756*%
%ADD12C,0.03150*%
%ADD73C,0.03543*%
%ADD23C,0.05709*%
%ADD24C,0.12992*%
%ADD20O,0.15748X0.06299*%
%ADD25VB_RECTANGLE,0.05709X0.05709X90.00000*%
%ADD27VB_RECTANGLE,0.00787X0.03150X0.00000*%
%ADD26VB_RECTANGLE,0.00787X0.03150X270.00000*%
%ADD29VB_RECTANGLE,0.02362X0.03937X180.00000*%
%ADD30VB_RECTANGLE,0.02756X0.01575X0.00000*%
%ADD21VB_RECTANGLE,0.02756X0.01575X90.00000*%
%ADD17VB_RECTANGLE,0.02953X0.02756X90.00000*%
%ADD28VB_RECTANGLE,0.03150X0.12205X180.00000*%
%ADD18VB_RECTANGLE,0.03543X0.03150X90.00000*%
%ADD22VB_RECTANGLE,0.03937X0.02362X180.00000*%
%ADD19VB_RECTANGLE,0.03937X0.02362X270.00000*%
%ADD70VB_RECTANGLE,0.03937X0.03150X270.00000*%
%ADD72VB_RECTANGLE,0.03937X0.07087X180.00000*%
%ADD71VB_RECTANGLE,0.04921X0.10039X270.00000*%
G01*
G36*
X118Y8789D02*
G02X148Y8819I30D01*
G01X720*
Y3810*
G03X1175Y3354I455*
X1631Y3810J456*
X1175Y4266I456*
X720Y3810J456*
G01Y5582*
G03X1175Y5126I455*
X1631Y5582J456*
X1175Y6038I456*
X720Y5582J456*
G01Y8819*
X1756*
Y5828*
G03X1815Y5769I59*
G01X2819*
G03X2878Y5828J59*
G01Y6320*
G03X2819Y6379I59*
G01X1815*
G03X1756Y6320J59*
G01Y8819*
X3345*
Y7188*
G03X3404Y7129I59*
G01X3719*
G03X3773Y7165J59*
G02X3801Y7184I28J11*
X3829Y7163J30*
G03X3904Y7109I75J25*
G01X4219*
G03X4294Y7163J79*
G02X4322Y7184I28J9*
X4349Y7165J30*
G03X4404Y7129I55J23*
G01X4719*
G03X4778Y7188J59*
G01Y8408*
G03X4719Y8467I59*
G01X4404*
G03X4349Y8430J59*
G02X4322Y8412I27J11*
X4294Y8432J29*
G03X4219Y8487I75J24*
G01X3904*
G03X3829Y8432J79*
G02X3801Y8412I28J9*
X3773Y8430J29*
G03X3719Y8467I54J22*
G01X3404*
G03X3345Y8408J59*
G01Y8819*
X8082*
G02X8112Y8789J30*
G01Y6534*
X11444*
G02X11473Y6505J29*
X11472Y6498I29*
G03X11471Y6484I58J14*
G01Y6327*
G03X11530Y6268I59*
G01X11805*
G03X11865Y6327J59*
G01Y6484*
G03X11805Y6543I60*
G01X11778*
G02X11748Y6573J30*
G01Y7915*
G02X11778Y7945I30*
X11793Y7940J30*
G03X11835Y7928I42J67*
G01X11943*
Y6322*
G03X12002Y6263I59*
G01X12278*
G03X12337Y6322J59*
G01Y6480*
G03X12278Y6539I59*
G01X12002*
G03X11943Y6480J59*
G01Y7928*
X11993*
G03X12038Y7943J79*
G02X12055Y7948I17J24*
G01X12170*
G02X12172J29*
G03X12187Y7947I15J196*
G01X12643*
G02X12664Y7939J29*
G01X12727Y7876*
G02X12736Y7855I20J21*
G01Y6049*
G03X12738Y6025I197*
G02Y6021I30J4*
G01Y5805*
G02Y5801I30*
G03X12736Y5777I195J24*
G01Y5086*
G02X12727Y5065I29*
G01X12222Y4559*
G02X12201Y4550I21J21*
G01X11451*
G02X11421Y4580J30*
X11437Y4606I30*
G03X11541Y4777I93J173*
G02X11570Y4807I29*
G01X11805*
G03X11848Y4819J78*
G02X11864Y4824I16J24*
X11880Y4819J29*
G03X11923Y4807I43J66*
G01X12199*
G03X12278Y4885J78*
G01Y5122*
G02X12286Y5143I29*
G01X12350Y5207*
G03X12376Y5269I62J62*
G01Y5749*
G03X12350Y5811I88*
G01X12332Y5830*
G02X12323Y5850I21J20*
X12332Y5872I30*
G03X12357Y5929I54J57*
G01Y6086*
G03X12278Y6165I79*
G01X12002*
G03X11931Y6120J79*
G02X11905Y6104I26J13*
X11878Y6122J29*
G03X11805Y6169I73J32*
G01X11530*
G03X11451Y6090J79*
G01Y5933*
G03X11530Y5854I79*
G01X11549*
G02X11579Y5825J29*
G01Y5820*
G02X11549Y5791I30*
G01X11530*
G03X11451Y5712J79*
G01Y5683*
G02X11421Y5653I30*
G01X11285*
G03X11238Y5640J89*
G02X11223Y5636I15J25*
X11197Y5651J29*
G03X11128Y5691I69J39*
G01X11118*
G02X11089Y5720J29*
G01Y6050*
G03X11088Y6060I118*
G02Y6062I30J2*
G01Y6085*
G02X11099Y6108I30*
G03X11167Y6257I129J149*
X10970Y6454I197*
X10838Y6402J197*
G02X10818Y6395I20J22*
G01X10747*
G03X10734Y6394J138*
G02X10731I3J29*
X10703Y6412J29*
G03X10630Y6462I73J29*
G01X10473*
G03X10394Y6383J79*
G01Y6114*
G02X10364Y6085I30*
G01X10341*
G03X10329Y6084J79*
G02X10325Y6083I4J29*
X10296Y6113J30*
G01Y6383*
G03X10236Y6442I60*
G01X10079*
G03X10020Y6383J59*
G01Y6108*
G02X10000Y6080I30*
G03X9997Y6079I26J74*
G02X9987Y6077I10J28*
X9976Y6079J30*
G03X9947Y6085I29J73*
G01X9868*
G03X9840Y6079J79*
G02X9829Y6077I11J28*
X9818Y6079J30*
G03X9810Y6082I28J73*
G02X9788Y6110I8J28*
G01Y6378*
G03X9729Y6437I59*
G01X9571*
G03X9512Y6378J59*
G01Y6103*
G03X9513Y6097I59*
G02Y6094I30J3*
X9483Y6064I30*
X9480Y6065J30*
G03X9475I5J59*
G01X9443*
G02X9414Y6094J29*
Y6097I29*
G03Y6103I79J6*
G01Y6378*
G03X9335Y6457I79*
G01X9178*
G03X9101Y6397J79*
G02X9073Y6374I28J7*
X9050Y6385J30*
G03X8901Y6454I149J128*
X8768Y6402J197*
G02X8748Y6395I20J22*
G01X8409*
G03X8311Y6354J138*
G01X8140Y6183*
G03X8099Y6085I97J98*
G01Y6059*
G02X8094Y6042I29*
G03X8080Y5997I64J45*
G01Y5721*
G03X8094Y5676I78*
G02X8099Y5659I24J17*
G01Y5653*
G02X8091Y5632I29*
G01X7568Y5109*
G02X7547Y5101I21J21*
X7518Y5130J29*
Y5135I29*
G03X7520Y5165I194J30*
X7324Y5362I196*
X7156Y5268J197*
G02X7131Y5254I25J15*
G01X6162*
G03X6100Y5228J89*
G01X5934Y5062*
G02X5913Y5054I21J21*
X5886Y5072J29*
G03X5806Y5166I183J74*
G02X5792Y5192I16J26*
G01Y5358*
G03X5766Y5421I89*
G01X5724Y5463*
G02X5715Y5484I21J21*
X5738Y5513I30*
G03X5797Y5589I19J76*
G01Y6092*
G02X5827Y6121I30*
X5848Y6112J29*
G01X6521Y5440*
G03X6618Y5399I97J97*
G01X6799*
G02X6819Y5391J29*
G03X6952Y5340I133J146*
X7149Y5537J197*
X6952Y5734I197*
X6819Y5682J197*
G02X6799Y5675I20J22*
G01X6688*
G02X6667Y5683J29*
G01X6080Y6271*
G02X6071Y6291I20J20*
G01Y6531*
G02X6100Y6561I29*
X6128Y6540J30*
G03X6150Y6506I84J28*
G01X6233Y6423*
G03X6296Y6397I63J62*
G01X6322*
G02X6351Y6367J30*
G03X6430Y6288I79*
G01X6824*
G03X6902Y6367J79*
G01Y6603*
G03X6824Y6682I78*
G01X6430*
G03X6358Y6635J79*
G02X6331Y6617I27J12*
X6301Y6647J30*
G01Y6875*
G02X6331Y6905I30*
X6358Y6887J30*
G03X6430Y6840I72J31*
G01X6824*
G03X6902Y6918J78*
G01Y6996*
G02X6932Y7025I30*
X6943Y7023J29*
G03X7020Y7007I77J181*
X7217Y7204J197*
X7188Y7306I197*
G02X7184Y7322I26J16*
X7214Y7351I30*
G01X7239*
G02X7260Y7343J29*
G01X7376Y7226*
G03X7439Y7201I63J63*
G01X7507*
G02X7532Y7186J30*
G03X7700Y7092I168J103*
X7706J197*
G01Y5721*
G03X7765Y5662I59*
G01X7922*
G03X7981Y5721J59*
G01Y5997*
G03X7922Y6056I59*
G01X7765*
G03X7706Y5997J59*
G01Y7092*
G03X7897Y7289I6J197*
X7785Y7466I197*
G02X7769Y7493I13J27*
X7798Y7523I29*
G01X7956*
G03X8015Y7582J59*
G01Y7818*
G03X7956Y7877I59*
G01X7562*
G03X7503Y7818J59*
G01Y7582*
G03X7562Y7523I59*
G01X7602*
G02X7631Y7493J30*
X7614Y7466I29*
G03X7532Y7392I86J177*
G02X7507Y7378I25J15*
G01X7488*
G02X7467Y7386J29*
G01X7385Y7468*
G02X7376Y7489I21J21*
G01Y7824*
G03X7298Y7903I78*
G01X7022*
G02X6992Y7932J29*
X7001Y7953I30*
G01X7021Y7973*
G02X7041Y7981I20J21*
G01X7298*
G03X7376Y8060J79*
G01Y8136*
G02X7406Y8165I30*
X7413J29*
G03X7433Y8162I20J86*
G01X7454*
G02X7483Y8133J29*
G03X7562Y8054I79*
G01X7956*
G03X8035Y8133J79*
G01Y8369*
G03X7956Y8448I79*
G01X7562*
G03X7483Y8371J79*
G02X7454Y8342I29J1*
X7447Y8343J30*
G03X7427Y8345I20J86*
G01X7406*
G02X7376Y8375J30*
G01Y8454*
G03X7298Y8532I78*
G01X6983*
G03X6911Y8487J78*
G02X6884Y8469I27J12*
X6857Y8487J30*
G03X6786Y8532I71J33*
G01X6471*
G03X6392Y8454J78*
G01Y8424*
G02X6363Y8395I29*
G01X6196*
G03X6098Y8354J138*
G01X5848Y8104*
G02X5827Y8096I21J21*
X5797Y8125J29*
G01Y8408*
G03X5719Y8487I78*
G01X5404*
G03X5329Y8432J79*
G02X5301Y8412I28J9*
X5273Y8430J29*
G03X5219Y8467I54J22*
G01X4904*
G03X4845Y8408J59*
G01Y7188*
G03X4904Y7129I59*
G01X5219*
G03X5273Y7165J59*
G02X5301Y7184I28J11*
X5329Y7163J30*
G03X5404Y7109I75J25*
G01X5719*
G03X5753Y7117J79*
G02X5766Y7120I13J27*
X5795Y7090J30*
G01Y6907*
G02X5766Y6878I29*
X5753Y6881J29*
G03X5719Y6888I34J71*
G01X5404*
G03X5337Y6851J78*
G02X5311Y6836I26J15*
X5286Y6851J30*
G03X5219Y6888I67J41*
G01X4904*
G03X4837Y6851J78*
G02X4811Y6836I26J15*
X4786Y6851J30*
G03X4719Y6888I67J41*
G01X4404*
G03X4337Y6851J78*
G02X4311Y6836I26J15*
X4286Y6851J30*
G03X4219Y6888I67J41*
G01X3904*
G03X3837Y6851J78*
G02X3811Y6836I26J15*
X3786Y6851J30*
G03X3719Y6888I67J41*
G01X3404*
G03X3325Y6810J78*
G01Y6748*
G02X3296Y6719I29*
X3280Y6723J29*
G03X3175Y6754I105J166*
X2978Y6557J197*
X3072Y6389I197*
G02X3087Y6364I15J25*
G01Y5406*
G02X3078Y5385I30*
G01X2948Y5256*
G02X2927Y5247I21J21*
X2898Y5277J30*
G01Y5336*
G03X2819Y5415I79*
G01X1815*
G03X1736Y5336J79*
G01Y5134*
G02X1707Y5104I29*
X1695Y5107J30*
G03X1618Y5122I77J181*
X1422Y4926J196*
X1473Y4793I196*
G02X1481Y4773I22J20*
G01Y4719*
G03X1521Y4621I137*
G01X1548Y4595*
G03X1645Y4554I97J97*
G01X1707*
G02X1736Y4525J29*
G01Y4056*
G03X1815Y3978I79*
G01X2819*
G03X2898Y4056J78*
G01Y4184*
G02X2927Y4214I29*
G01X3330*
Y3053*
G03X3389Y2994I59*
G01X3783*
G03X3842Y3053J59*
G01Y3290*
G03X3783Y3349I59*
G01X3389*
G03X3330Y3290J59*
G01Y4214*
X3657*
G02X3686Y4184J30*
X3681Y4168I29*
G03X3668Y4137I65J45*
G02X3639Y4112I29J5*
X3627Y4115J30*
G03X3548Y4131I79J180*
X3351Y3935J196*
X3548Y3738I197*
X3626Y3754J197*
G02X3637Y3756I11J27*
X3667Y3727J29*
G03X3746Y3650I79J2*
G01X3982*
G03X4061Y3729J79*
G01Y4077*
G02X4090Y4107I29*
X4094J30*
G03X4105Y4105I25J195*
G01Y3178*
G03X4164Y3119I59*
G01X4558*
G03X4617Y3178J59*
G01Y3414*
G03X4558Y3473I59*
G01X4164*
G03X4105Y3414J59*
G01Y4105*
G03X4119I14J197*
X4197Y4121J197*
G02X4208Y4124I11J27*
X4238Y4094J30*
G01Y3729*
G03X4297Y3670I59*
G01X4533*
G03X4592Y3729J59*
G01Y4123*
G03X4533Y4182I59*
G01X4326*
G02X4297Y4211J29*
X4299Y4223I29*
G03X4315Y4302I180J79*
X4311Y4343I196*
G02X4310Y4349I29J6*
X4340Y4379I30*
G01X4527*
G03X4586Y4438J59*
G01Y4831*
G03X4582Y4852I59*
G02X4581Y4862I28J10*
X4610Y4892I29*
G01X4791*
Y3953*
G03X4850Y3894I59*
G01X5086*
G03X5145Y3953J59*
G01Y4347*
G03X5086Y4406I59*
G01X4850*
G03X4791Y4347J59*
G01Y4892*
X4886*
G02X4907Y4883J30*
G01X5306Y4484*
G03X5345Y4457I97J98*
G02X5362Y4430I13J27*
X5351Y4407I30*
G03X5323Y4347I50J60*
G01Y3953*
G03X5401Y3874I78*
G01X5496*
G02X5526Y3845J29*
X5517Y3824I30*
G01X5167Y3474*
G03X5127Y3376I98J98*
G01Y3221*
G02X5104Y3192I30*
G03X5039Y3156I33J134*
G01X4775Y2891*
G02X4754Y2883I21J21*
G01X4654*
G02X4628Y2899J29*
G03X4558Y2942I70J36*
G01X4164*
G03X4085Y2863J79*
G01Y2627*
G03X4157Y2548I79*
G02X4184Y2519I3J29*
X4175Y2498I30*
G01X4054Y2377*
G02X4033Y2368I21J21*
G01X3811*
G02X3782Y2398J30*
X3803Y2426I29*
G03X3862Y2502I20J76*
G01Y2738*
G03X3783Y2817I79*
G01X3389*
G03X3310Y2738J79*
G01Y2502*
G03X3389Y2423I79*
G01X3410*
G02X3440Y2394J29*
X3430Y2373I30*
G03X3370Y2239I136J143*
G02X3361Y2220I30J2*
G01X3006Y1865*
G03X2966Y1768I98J97*
G01Y1453*
G03X2975Y1404I138*
G02X2977Y1394I28J10*
G01Y1295*
G02X2961Y1269I30*
G03X2918Y1199I36J70*
G01Y1169*
G02X2888Y1139I30*
G01X2859*
G03X2738Y1067J137*
G02X2733Y1061I26J15*
G01X2640Y968*
G02X2619Y959I21J21*
X2589Y986J30*
G03X2511Y1057I78J7*
G01X2341*
G02X2312Y1087J30*
X2313Y1097I29*
G03X2324Y1161I186J64*
X2319Y1207I197*
G02X2318Y1214I29J7*
X2327Y1235I30*
G01X2455Y1364*
G03X2481Y1426I62J62*
G01Y1500*
G02X2511Y1530I30*
G03X2590Y1609J79*
G01Y2002*
G03X2511Y2081I79*
G02X2481Y2111J30*
G01Y2134*
G03X2455Y2197I88*
G01X2439Y2213*
G02X2430Y2234I21J21*
X2442Y2257I30*
G03X2518Y2413I121J156*
X2424Y2580I197*
G02X2409Y2606I15J26*
G01Y2699*
G03X2407Y2721I88*
G02X2406Y2728I28J7*
G01Y2964*
G02X2435Y2993I29*
G01X2819*
G03X2898Y3072J79*
G01Y3564*
G03X2819Y3643I79*
G01X1815*
G03X1736Y3564J79*
G01Y3072*
G03X1815Y2993I79*
G01X2199*
G02X2229Y2964J29*
G01Y2703*
G03X2231Y2681I88*
G02X2232Y2674I28J7*
G01Y2606*
G02X2218Y2580I29*
G03X2124Y2413I103J167*
X2218Y2245I197*
G02X2232Y2219I15J26*
G01Y2206*
G03X2258Y2143I89*
G01X2272Y2129*
G02X2281Y2108I20J21*
X2258Y2079I29*
G03X2214Y2053I17J77*
G02X2192Y2042I22J19*
X2173Y2049J30*
G03X2137Y2061I36J47*
G01X1901*
G03X1864Y2049J59*
G02X1846Y2042I18J23*
X1823Y2053J30*
G03X1763Y2081I60J51*
G01X1527*
G03X1448Y2002J79*
G01Y1924*
G02X1418Y1894I30*
G01X1134*
G03X1071Y1868J89*
G01X935Y1732*
G03X910Y1684I63J63*
G02X881Y1659I29J5*
G01X801*
G03X722Y1581J78*
G01Y1344*
G03X801Y1266I79*
G01X1195*
G03X1273Y1344J78*
G01Y1581*
G03X1208Y1658I78*
G02X1183Y1687I5J29*
X1213Y1717I30*
G01X1418*
G02X1448Y1687J30*
G01Y1609*
G03X1527Y1530I79*
G01X1763*
G03X1823Y1558J79*
G02X1846Y1569I23J19*
X1864Y1562J30*
G03X1901Y1550I37J47*
G01X2137*
G03X2173Y1562J59*
G02X2192Y1569I19J23*
X2214Y1558J30*
G03X2275Y1530I61J51*
G02X2304Y1500J30*
G01Y1475*
G02X2296Y1454I29*
G01X2201Y1360*
G02X2180Y1352I21J21*
X2174J29*
G03X2127Y1358I47J191*
X1960Y1264J197*
G02X1934Y1250I26J15*
G01X1568*
G03X1505Y1224J89*
G01X1320Y1038*
G02X1299Y1029I21J21*
X1270Y1051J30*
G03X1195Y1108I75J22*
G01X801*
G03X722Y1029J79*
G01Y793*
G03X801Y715I79*
G01X1195*
G03X1273Y793J78*
G02X1303Y823I30*
G01X1318*
G03X1381Y849J88*
G01X1397Y865*
G02X1418Y874I21J21*
X1448Y844J30*
G01Y585*
G03X1527Y506I79*
G01X1763*
G03X1842Y585J79*
G01Y979*
G03X1826Y1025I79*
G02X1820Y1043I24J18*
X1850Y1072I30*
G01X1934*
G02X1960Y1058J29*
G03X2127Y964I167J103*
X2161Y967J197*
G02X2166Y968I5J29*
X2196Y938J30*
G01Y585*
G03X2275Y506I79*
G01X2511*
G03X2590Y585J79*
G01Y615*
G02X2619Y644I29*
G01X2649*
G03X2746Y684J138*
G01X2869Y807*
G02X2890Y816I21J21*
X2919Y791J30*
G03X2997Y726I78J14*
G01X3233*
G03X3312Y805J79*
G01Y1199*
G03X3269Y1269I79*
G02X3252Y1295I13J26*
G01Y1442*
G03X3244Y1491I137*
G02X3242Y1501I27J10*
G01Y1698*
G02X3250Y1719I29*
G01X3489Y1958*
Y805*
G03X3548Y746I59*
G01X3784*
G03X3843Y805J59*
G01Y1199*
G03X3784Y1258I59*
G01X3548*
G03X3489Y1199J59*
G01Y1958*
X3556Y2025*
G02X3576Y2034I21J21*
G03X3699Y2085I10J196*
G02X3719Y2092I20J22*
G01X4102*
G03X4200Y2133J138*
G01X4458Y2391*
G03X4499Y2489I97J98*
G01Y2518*
G02X4528Y2548I29*
G01X4558*
G03X4628Y2591J79*
G02X4654Y2607I26J14*
G01X4675*
Y974*
G03X4721Y903I79*
G02X4738Y876I12J27*
X4721Y849I29*
G03X4675Y777I33J72*
G01Y423*
G03X4754Y344I79*
G01X5069*
G03X5112Y357J79*
G02X5128Y362I16J25*
X5144Y357J30*
G03X5187Y344I43J66*
G01X5502*
G03X5580Y423J79*
G01Y482*
G02X5610Y512I30*
G01X5696*
G02X5721Y497J30*
G03X5889Y403I168J103*
X6057Y497J197*
G02X6082Y511I25J15*
G01X6120*
G02X6150Y482J29*
G01Y462*
G03X6229Y383I79*
G01X6386*
G03X6465Y462J79*
G01Y737*
G03X6386Y816I79*
G01X6229*
G03X6150Y737J79*
G01Y718*
G02X6120Y688I30*
G01X6082*
G02X6057Y702J30*
G03X5889Y797I168J102*
X5721Y703J197*
G02X5696Y689I25J15*
G01X5610*
G02X5580Y718J29*
G01Y777*
G03X5534Y849I78*
G02X5517Y876I13J27*
X5534Y903I30*
G03X5580Y974I32J71*
G01Y1329*
G03X5502Y1407I78*
G01X5187*
G03X5144Y1395J78*
G02X5128Y1390I16J24*
X5112Y1395J29*
G03X5069Y1407I43J66*
G01X5029*
G02X5000Y1437J30*
G01Y1671*
G02Y1677I29*
G01Y1678*
G02X5030Y1702I30J5*
G01X5051*
G03X5124Y1752J79*
G02X5152Y1771I28J10*
G01X5165*
G02X5190Y1757J29*
G03X5358Y1663I168J103*
X5545Y1798J197*
G02X5573Y1818I28J9*
X5603Y1789J29*
G01Y1703*
G03X5662Y1644I59*
G01X5898*
G03X5957Y1703J59*
G01Y2096*
G03X5898Y2155I59*
G01X5662*
G03X5603Y2096J59*
G01Y1931*
G02X5573Y1902I30*
X5545Y1922J29*
G03X5358Y2057I187J62*
X5190Y1963J197*
G02X5165Y1948I25J15*
G01X5152*
G02X5124Y1967J30*
G03X5051Y2017I73J28*
G01X4775*
G03X4697Y1939J78*
G01Y1781*
G03X4775Y1702I78*
G01X4793*
G02X4823Y1673J29*
G01Y1437*
G02X4793Y1407I30*
G01X4754*
G03X4675Y1329J78*
G01Y2607*
X4716*
Y2175*
G03X4775Y2116I59*
G01X5051*
G03X5110Y2175J59*
G01Y2332*
G03X5051Y2391I59*
G01X4775*
G03X4716Y2332J59*
G01Y2607*
X4823*
G03X4921Y2647J138*
G01X5185Y2912*
G02X5206Y2920I21J21*
G01X5355*
G02X5376Y2912J29*
G01X5438Y2850*
G02X5447Y2829I21J21*
X5446Y2822I30*
G03X5444Y2805I77J17*
G01Y2411*
G03X5523Y2333I79*
G01X5759*
G03X5838Y2411J78*
G01Y2805*
G03X5795Y2875I79*
G02X5779Y2901I13J26*
G01Y2943*
G03X5758Y3016I138*
G02X5753Y3031I25J15*
X5783Y3061I30*
G01X5833*
G03X5892Y3120J59*
G01Y3514*
G03X5833Y3573I59*
G01X5727*
G02X5698Y3602J29*
X5706Y3623I29*
G01X6272Y4189*
G02X6293Y4197I21J21*
G01X6405*
G02X6435Y4168J29*
G01Y3961*
G03Y3955I59*
G02Y3952I29J3*
X6406Y3923I29*
X6396Y3924J29*
G03X6332Y3935I64J186*
X6135Y3738J197*
X6163Y3637I197*
G02X6167Y3621I25J16*
X6141Y3592I29*
G03X6069Y3514I7J78*
G01Y3120*
G03X6110Y3051I79*
G02X6125Y3025I15J26*
X6120Y3008I30*
G03X6104Y2957I72J51*
G01Y2913*
G02X6074Y2884I30*
G03X5995Y2805J79*
G01Y2411*
G03X6074Y2333I79*
G01X6310*
G03X6389Y2411J78*
G01Y2490*
G02X6419Y2520I30*
G01X6481*
G03X6544Y2545J88*
G01X6591Y2592*
G02X6611Y2601I20J21*
G01X6658*
G02X6684Y2587J30*
G03X6852Y2493I168J102*
X7023Y2592J196*
G02X7048Y2607I25J14*
X7076Y2589J29*
G03X7148Y2540I72J30*
G02X7178Y2511J29*
G01Y2275*
G02X7148Y2245I30*
G03X7069Y2167J78*
G01Y1779*
G02X7040Y1749I29*
X7019Y1758J30*
G01X6882Y1895*
G02X6873Y1915I21J21*
G03X6677Y2102I196J10*
X6573Y2073J197*
G02X6557Y2068I16J25*
X6528Y2097J30*
G03X6449Y2175I79J1*
G01X6213*
G03X6134Y2096J79*
G01Y1703*
G03X6213Y1624I79*
G01X6449*
G03X6528Y1703J79*
G01Y1713*
G02X6557Y1743I29*
X6563Y1742J30*
G01Y462*
G03X6622Y403I59*
G01X6780*
G03X6839Y462J59*
G01Y737*
G03X6780Y796I59*
G01X6622*
G03X6563Y737J59*
G01Y1742*
G02X6573Y1738I6J29*
G03X6667Y1709I104J167*
G02X6687Y1700I1J30*
G01X6879Y1508*
G03X6976Y1468I97J98*
G01X7412*
G03X7509Y1508J138*
G01X7631Y1630*
G03X7662Y1676I97J97*
G02X7689Y1695I27J11*
X7692J30*
G03X7699Y1694I7J78*
G01X7935*
G03X8014Y1773J79*
G01Y1852*
G02X8044Y1881I30*
G01X8214*
G03X8277Y1907J89*
G01X9026Y2656*
G03X9052Y2719I63J63*
G01Y2823*
G02X9066Y2848I29*
G03X9082Y2859I103J168*
G02X9100Y2865I18J23*
X9130Y2836J29*
G01Y959*
G03X9164Y875I118*
G01X9226Y813*
G03X9310Y779I84J84*
G01X9373*
G02X9402Y749J30*
G01Y286*
G03X9481Y208I79*
G01X9796*
G03X9871Y262J78*
G02X9899Y283I28J9*
X9926Y264J30*
G03X9981Y227I55J22*
G01X10296*
G03X10355Y286J59*
G01Y1504*
G02X10384Y1534I29*
G01X10392*
G02X10422Y1504J30*
G01Y286*
G03X10481Y227I59*
G01X10796*
G03X10851Y264J59*
G02X10878Y283I27J11*
X10906Y262J30*
G03X10981Y208I75J24*
G01X11296*
G03X11371Y262J78*
G02X11399Y283I28J9*
X11426Y264J30*
G03X11481Y227I55J22*
G01X11796*
G03X11855Y286J59*
G01Y1504*
G02X11884Y1534I29*
G01X11922*
G03X11984Y1560J88*
G01X12105Y1681*
G03X12131Y1744I62J63*
G01Y2848*
G02X12161Y2878I30*
X12175Y2874J30*
G03X12270Y2850I95J173*
X12467Y3047J197*
X12373Y3214I197*
G02X12358Y3240I15J26*
G01Y3537*
G03X12332Y3599I88*
G01X11826Y4106*
G02X11817Y4127I21J21*
X11847Y4156I30*
G01X12294*
G03X12434Y4214J197*
G01X13072Y4853*
G03X13130Y4992I139J139*
G01Y5750*
G02Y5754I29*
G03X13132Y5778I195J24*
G01Y6047*
G03X13130Y6072I197*
G02Y6075I29J3*
G01Y7948*
G03X13072Y8088I197*
G01X12876Y8284*
G03X12737Y8341I139J140*
G01X12487*
G02X12457Y8371J30*
X12487Y8400I30*
G03X12546Y8459J59*
G01Y8617*
G03X12487Y8676I59*
G01X12211*
G03X12152Y8617J59*
G01Y8459*
G03X12211Y8400I59*
G02X12241Y8371J29*
X12211Y8341I30*
G01X12203*
G02X12201J30*
G03X12186Y8342I15J196*
G01X12055*
G02X12038Y8347J29*
G03X11993Y8362I45J64*
G01X11835*
G03X11793Y8350J79*
G02X11778Y8345I15J25*
X11748Y8375J30*
G01Y8789*
G02X11778Y8819I30*
G01X13422*
Y5929*
G03X13461Y5755I404*
G01Y2888*
G03X13540Y2809I79*
G01X14042*
Y1964*
G03X14889Y1118I847*
X15027Y1129J846*
G02X15032Y1130I5J29*
X15061Y1105J30*
G01Y305*
G03X15120Y246I59*
G01X17236*
G03X17295Y305J59*
G01Y679*
G03X17236Y738I59*
G01X15120*
G03X15061Y679J59*
G01Y1105*
G02Y1100I29J5*
G01Y859*
G03X15121Y800I60*
G01X17761*
G03X17820Y859J59*
G01Y1233*
G03X17761Y1292I59*
G01X15484*
G02X15454Y1322J30*
X15464Y1343I30*
G03X15735Y1964I575J621*
X14889Y2811I846*
X14042Y1964J847*
G01Y2809*
X14111*
G03X14190Y2888J79*
G01Y3459*
G03X14111Y3537I79*
G01X13540*
G03X13461Y3459J78*
G01Y4157*
G03X13826Y3793I365*
X14190Y4157J364*
X13826Y4521I364*
X13461Y4157J364*
G01Y4945*
G03X13826Y4581I365*
X14190Y4945J364*
X13826Y5309I364*
X13461Y4945J364*
G01Y5755*
G03X13826Y5525I365J174*
X14229Y5929J404*
X13826Y6333I403*
X13422Y5929J404*
G01Y8819*
X14042*
Y7138*
G03X14889Y6291I847*
X15735Y7138J847*
X14889Y7984I846*
X14042Y7138J846*
G01Y8819*
X18041*
G02X18071Y8789J30*
G01Y148*
G02X18041Y118I30*
G01X148*
G02X118Y148J30*
G01Y8789*
X10695Y3840D02*
X8963D01*
Y5455*
X9081Y5573*
X10695*
Y3840*
G37*
G54D10*
X0Y0D02*
X18189D01*
Y8937*
X0*
Y0*
G54D11*
X998Y911D02*
X1318D01*
X1568Y1161*
X2127*
X1645Y1805D02*
X1134D01*
X998Y1669*
Y1463*
X1845Y6074D02*
X1727D01*
X1930Y1638D02*
X1881Y1522D01*
X1930Y1973D02*
X1881Y2089D01*
X2107Y1638D02*
X2157Y1522D01*
X2107Y1973D02*
X2157Y2089D01*
X2317Y5858D02*
Y5739D01*
Y6291D02*
Y6409D01*
X2321Y2413D02*
Y2206D01*
X2393Y2134*
Y1805*
X2321Y2413D02*
X2319Y2411D01*
X2317*
X2310Y2404*
X2254*
X2321Y2413D02*
Y2699D01*
X2317Y2703*
Y3318*
X2393Y1805D02*
Y1426D01*
X2127Y1161*
X2790Y6074D02*
X2908D01*
X3175Y6557D02*
Y5357D01*
X2908Y5090*
X2317*
X3282Y5146D02*
X3561Y5425D01*
Y6199*
X3419Y3171D02*
X3301D01*
X3433Y7217D02*
X3341Y7125D01*
X3433Y8379D02*
X3341Y8471D01*
X3577Y1002D02*
X3459D01*
X3586Y3083D02*
Y2965D01*
Y3260D02*
Y3378D01*
X3666Y834D02*
Y716D01*
Y1169D02*
Y1287D01*
X3689Y7217D02*
X3781Y7125D01*
X3689Y8379D02*
X3781Y8471D01*
X3753Y3171D02*
X3872D01*
X3754Y1002D02*
X3873D01*
X3864Y3926D02*
X3557D01*
X3548Y3935*
X4119Y4302D02*
X3853D01*
X2317*
X4194Y3296D02*
X4075D01*
X4326Y3926D02*
X4208D01*
X4361Y3207D02*
Y3089D01*
Y3384D02*
Y3503D01*
X4409Y4467D02*
Y4349D01*
X4415Y3759D02*
Y3640D01*
Y4093D02*
Y4211D01*
X4433Y7217D02*
X4341Y7125D01*
X4433Y8379D02*
X4341Y8471D01*
X4497Y4634D02*
X4616D01*
X4504Y3926D02*
X4622D01*
X4528Y3296D02*
X4646D01*
X4689Y7217D02*
X4781Y7125D01*
X4689Y8379D02*
X4781Y8471D01*
X4805Y2254D02*
X4687D01*
X4880Y4150D02*
X4762D01*
X4911Y1151D02*
Y1691D01*
X4913Y1693*
Y1860*
X5145*
X5146*
X5358*
X4913Y2204D02*
Y2086D01*
Y2303D02*
Y2421D01*
X4933Y7217D02*
X4841Y7125D01*
X4933Y8379D02*
X4841Y8471D01*
X4968Y3982D02*
Y3864D01*
Y4317D02*
Y4435D01*
X5021Y2254D02*
X5139D01*
X5057Y4150D02*
X5175D01*
X5061Y6199D02*
Y5234D01*
X5504Y4792*
X5789*
X6162Y5165*
X7324*
X5189Y7217D02*
X5281Y7125D01*
X5189Y8379D02*
X5281Y8471D01*
X5519Y4150D02*
X5752D01*
X6198Y4597*
X5691Y1999D02*
X5573D01*
X5703Y4998D02*
Y5358D01*
X5561Y5501*
Y6199*
X5765Y3484D02*
Y3602D01*
X5780Y1732D02*
Y1614D01*
Y2067D02*
Y2185D01*
X5793Y3149D02*
Y3031D01*
X5803Y3317D02*
X5922D01*
X5868Y1899D02*
X5987D01*
X5889Y600D02*
X5865D01*
X5344*
X5889D02*
X6307D01*
X6210Y7520D02*
Y7313D01*
X6212Y7310*
Y6568*
X6296Y6485*
X6627*
X6266Y3317D02*
Y3031D01*
X6192Y2957*
Y2608*
X6523Y4079D02*
X6405D01*
X6628Y7627D02*
Y7342D01*
X6627Y7340*
Y7036*
X6652Y600D02*
X6534D01*
X6701Y491D02*
Y373D01*
Y708D02*
Y826D01*
X6750Y600D02*
X6868D01*
X6852Y2689D02*
X6563D01*
X6481Y2608*
X6192*
X7140Y7627D02*
Y7588D01*
X7439Y7289*
X7700*
X7140Y8257D02*
Y8218D01*
X6894Y7971*
Y7330*
X7020Y7204*
X7267Y2816D02*
Y2531D01*
X7266Y2530*
Y1970*
X7592Y7700D02*
X7473D01*
X7759Y7788D02*
Y7906D01*
Y8251D02*
X7433D01*
X7427Y8257*
X7140*
X7794Y5859D02*
X7676D01*
X7843Y5751D02*
Y5633D01*
Y5967D02*
Y6085D01*
X7862Y7611D02*
Y7493D01*
X7882Y3211D02*
X7355Y3738D01*
X6332*
X7893Y5859D02*
X8011D01*
X7896Y3165D02*
Y3187D01*
X7879Y3204*
Y3210*
X7877Y3211*
X7882*
X7926Y7700D02*
X8044D01*
X8081Y4962D02*
X8415Y4628D01*
X8687*
X8551Y5836D02*
X8552D01*
X8687Y5701*
Y5573*
Y4155D02*
X8441D01*
X8365Y4079*
Y3785*
X8101Y3521*
X8687Y4313D02*
X8387D01*
X8099Y4026*
X8687Y4470D02*
X8410D01*
X8382Y4499*
X8085*
X8963Y5848D02*
X8967Y5853D01*
X8963Y3016D02*
Y2719D01*
X8214Y1970*
X7817*
X9257Y6240D02*
X9278Y6219D01*
Y5848*
X9272Y4149D02*
Y4491D01*
X9280Y4499*
Y4705*
X9272Y5262D02*
X9829D01*
X9272D02*
Y5185D01*
X9228Y5140*
X9435Y5848D02*
Y5611D01*
X9639Y5408*
X9683*
X9829Y5262*
X9444Y5976D02*
Y6094D01*
X9601Y6132D02*
X9483Y6115D01*
X9601Y6349D02*
X9509Y6441D01*
X9638Y2495D02*
Y1793D01*
X9809Y1622*
X11922*
X12043Y1744*
Y3367*
X11412Y3998*
X10971*
X9699Y6132D02*
X9818Y6122D01*
X9699Y6349D02*
X9792Y6441D01*
X9825Y4701D02*
X9554D01*
X9551Y4705*
X9280*
X9825Y4701D02*
Y4482D01*
X9833Y4474*
X9829Y5262D02*
Y4820D01*
Y4707*
Y5262D02*
X10101D01*
X10107Y5256*
X10379*
X9829Y4701D02*
X9825D01*
X9829Y4707D02*
Y4701D01*
X9833Y4157D02*
Y4474D01*
X10205*
X10010Y316D02*
X9918Y224D01*
X10109Y6137D02*
X9990Y6123D01*
X10109Y6354D02*
X10016Y6446D01*
X10207Y6137D02*
X10325Y6125D01*
X10207Y6354D02*
X10299Y6446D01*
X10266Y316D02*
X10359Y224D01*
X10266Y1477D02*
X10384Y1491D01*
X10378Y4717D02*
Y4510D01*
X10381Y4506*
Y4157*
X10378Y4717D02*
X10584D01*
Y4763*
X10607Y4785*
X10971*
X10378Y4717D02*
X10008D01*
X9992Y4701*
X9829*
X10510Y316D02*
X10418Y224D01*
X10510Y1477D02*
X10392Y1491D01*
X10766Y316D02*
X10859Y224D01*
X10971Y3840D02*
X11402D01*
X11925Y3318*
Y1792*
X11873Y1741*
X10182*
X10138Y1784*
Y2495*
X10971Y4943D02*
X11217D01*
X11344Y4816*
Y4779*
X10971Y5100D02*
X11306D01*
X11329Y5123*
X10971Y5258D02*
X11145D01*
X11217Y5330*
X11415*
X11430Y5314*
X12016*
X12061Y5269*
Y5043*
X10971Y5415D02*
X11135D01*
X11285Y5564*
X11668*
X11436Y4353D02*
X11161Y4628D01*
X10971*
X11510Y316D02*
X11418Y224D01*
X11559Y6356D02*
X11467Y6264D01*
X11559Y6455D02*
X11441Y6480D01*
X11638Y2495D02*
Y3194D01*
X11267Y3565*
X10695*
X11668Y6012D02*
Y5844D01*
Y5564*
X11766Y316D02*
X11859Y224D01*
X11766Y1477D02*
X11884Y1491D01*
X11776Y6356D02*
X11868Y6264D01*
X11776Y6455D02*
X11868Y6547D01*
X12032Y6401D02*
X11914D01*
X12061Y5033D02*
Y5043D01*
X12140Y6007D02*
Y5840D01*
X12196*
X12288Y5749*
Y5269*
X12061Y5043*
X12140Y6352D02*
Y6234D01*
Y6450D02*
Y6568D01*
X12241Y8489D02*
X12149Y8397D01*
X12241Y8587D02*
X12149Y8679D01*
X12248Y6401D02*
X12366D01*
X12270Y3047D02*
Y3537D01*
X11681Y4125*
X11247*
X11217Y4155*
X10971*
X12457Y8489D02*
X12550Y8397D01*
X12457Y8587D02*
X12550Y8679D01*
X15150Y335D02*
Y650D01*
X15278*
X15321Y631*
X15336Y616*
X15350Y588*
Y559*
X15336Y530*
X15321Y511*
X15278Y497*
X15150*
Y1204D02*
Y979D01*
X15164Y932*
X15193Y903*
X15236Y889*
X15265*
X15308Y903*
X15336Y932*
X15350Y979*
Y1204*
X15250Y497D02*
X15350Y335D01*
X15498Y650D02*
X15474Y631D01*
X15450Y602*
X15436Y573*
X15426Y530*
Y454*
X15436Y411*
X15450Y378*
X15474Y349*
X15498Y335*
X15550*
X15574Y349*
X15603Y378*
X15612Y411*
X15627Y454*
Y530*
X15612Y573*
X15603Y602*
X15574Y631*
X15550Y650*
X15498*
X15627Y1156D02*
X15599Y1184D01*
X15556Y1204*
X15498*
X15455Y1184*
X15427Y1156*
Y1127*
X15441Y1099*
X15455Y1084*
X15484Y1065*
X15570Y1036*
X15599Y1022*
X15613Y1008*
X15627Y979*
Y932*
X15599Y903*
X15556Y889*
X15498*
X15455Y903*
X15427Y932*
X15704Y1051D02*
X15832D01*
X15875Y1036*
X15890Y1022*
X15904Y994*
Y946*
X15890Y917*
X15875Y903*
X15832Y889*
X15704*
Y1204*
X15832*
X15875Y1184*
X15890Y1170*
X15904Y1141*
Y1113*
X15890Y1084*
X15875Y1065*
X15832Y1051*
X15904Y602D02*
X15875Y631D01*
X15832Y650*
X15775*
X15732Y631*
X15703Y602*
Y573*
X15717Y545*
X15732Y530*
X15760Y511*
X15846Y483*
X15875Y468*
X15889Y454*
X15904Y425*
Y378*
X15875Y349*
X15832Y335*
X15775*
X15732Y349*
X15703Y378*
X15980Y497D02*
X16104D01*
X16180Y650D02*
X15980D01*
Y335*
X16180*
X16257Y1156D02*
X16229Y1184D01*
X16186Y1204*
X16128*
X16085Y1184*
X16057Y1156*
Y1127*
X16071Y1099*
X16085Y1084*
X16114Y1065*
X16200Y1036*
X16229Y1022*
X16243Y1008*
X16257Y979*
Y932*
X16229Y903*
X16186Y889*
X16128*
X16085Y903*
X16057Y932*
X16334Y1036D02*
X16386Y1079D01*
X16424Y1094*
X16477*
X16515Y1079*
X16534Y1036*
Y889*
X16334Y1094D02*
Y889D01*
X16347Y573D02*
Y588D01*
X16362Y616*
X16376Y631*
X16405Y650*
X16462*
X16491Y631*
X16505Y616*
X16519Y588*
Y559*
X16505Y530*
X16476Y483*
X16333Y335*
X16533*
X16610Y1184D02*
X16620Y1170D01*
X16625Y1184*
X16620Y1204*
X16610Y1184*
X16620Y1079D02*
Y889D01*
X16696Y645D02*
X16653Y631D01*
X16624Y588*
X16610Y511*
Y468*
X16624Y392*
X16653Y349*
X16696Y335*
X16724*
X16767Y349*
X16796Y392*
X16810Y468*
Y511*
X16796Y588*
X16767Y631*
X16724Y645*
X16696*
X16701Y1094D02*
X16878D01*
X16887Y588D02*
X16906Y602D01*
X16930Y645*
Y335*
X16901Y1199D02*
X16849D01*
X16801Y1184*
X16773Y1141*
Y889*
X16978Y1094D02*
X17154D01*
X17078Y645D02*
X17035Y631D01*
X17020Y602*
Y573*
X17035Y540*
X17063Y526*
X17120Y511*
X17163Y497*
X17192Y468*
X17206Y440*
Y392*
X17192Y363*
X17178Y349*
X17135Y335*
X17078*
X17035Y349*
X17020Y363*
X17006Y392*
Y440*
X17020Y468*
X17049Y497*
X17092Y511*
X17149Y526*
X17178Y540*
X17192Y573*
Y602*
X17178Y631*
X17135Y645*
X17078*
X17178Y1199D02*
X17126D01*
X17078Y1184*
X17049Y1141*
Y889*
X17255Y1008D02*
X17455D01*
Y1036*
X17441Y1065*
X17422Y1079*
X17388Y1094*
X17336*
X17302Y1079*
X17269Y1051*
X17255Y1008*
Y974*
X17269Y932*
X17302Y903*
X17336Y889*
X17388*
X17422Y903*
X17455Y932*
X17531Y1008D02*
X17555Y1051D01*
X17603Y1079*
X17655Y1094*
X17732*
X17531D02*
Y889D01*
G54D12*
X14889Y1964D02*
X14046Y2203D01*
X14889Y1964D02*
X15731Y1726D01*
X14889Y1964D02*
X15127Y2807D01*
X14889Y1964D02*
X14650Y1122D01*
X14889Y7138D02*
X14269Y7757D01*
X14889Y7138D02*
X14269Y6518D01*
X14889Y7138D02*
X15508Y6518D01*
X14889Y7138D02*
X15508Y7757D01*
G54D13*
X3115Y1002D02*
X2859D01*
Y992*
X2649Y782*
X2393*
X3566Y2230D02*
X3104Y1768D01*
Y1453*
X3115Y1442*
Y1002*
X3566Y2230D02*
X4102D01*
X4361Y2489*
Y2745*
X3586Y2620D02*
Y2250D01*
X3566Y2230*
X3858Y4634D02*
X3651D01*
X3593Y4692*
X1645*
X1618Y4719*
Y4926*
X4361Y2745D02*
X4823D01*
X5137Y3058*
X5265*
X5424*
X5540Y2943*
X5641*
Y2608*
X5933Y7798D02*
X5561D01*
X5933D02*
Y7994D01*
X6196Y8257*
X6628*
X6331Y1899D02*
X6671D01*
X6677Y1905*
X6688Y4951D02*
X6944D01*
X6985Y4909*
X7563*
X8237Y5583*
Y5859*
X6688Y4951D02*
X6191D01*
X5822Y4582*
X5403*
X4956Y5029*
X3918*
X3858Y4969*
Y4634*
X6691Y4631D02*
Y4947D01*
X6688Y4951*
X6691Y4631D02*
Y4375D01*
X6651Y4335*
X6224*
X5265Y3376*
Y3058*
X6952Y5537D02*
X6618D01*
X5933Y6222*
Y7798*
X7818Y2816D02*
Y2480D01*
X7534Y2196*
Y1727*
X7412Y1606*
X6976*
X6677Y1905*
X8237Y5859D02*
Y6085D01*
X8409Y6257*
X8901*
X8569Y3560D02*
X8419Y3410D01*
Y3161*
X8074Y2816*
X7818*
X10970Y6257D02*
X10747D01*
X10736Y6246*
X10551*
X13826Y5929D02*
X13519Y6235D01*
X13826Y5929D02*
X13519Y5623D01*
X13826Y5929D02*
X14132Y5623D01*
X13826Y5929D02*
X14132Y6235D01*
G54D14*
X8569Y3560D02*
X8803D01*
X8808Y3565*
X8963*
X8901Y6257D02*
X8963Y6194D01*
Y5848*
X9638Y897D02*
X9310D01*
X9248Y959*
Y3115*
X9095Y3268*
X9005*
X8963Y3310*
Y3565*
X10970Y6257D02*
Y6050D01*
X10971*
Y5573*
G54D15*
X11520Y8145D02*
X11103D01*
X10568*
X12349Y8144D02*
X12187D01*
X12186Y8145*
X11914*
X12349Y8144D02*
X12737D01*
X12933Y7948*
Y6049*
X12935Y6047*
Y5778*
X12933Y5776*
Y4992*
X12294Y4353*
X11436*
G54D16*
X257Y8609D03*
X757Y4972D03*
X1196Y6242D03*
X1281Y8402D03*
X1618Y4926D03*
X2127Y1161D03*
X2321Y2413D03*
X2623Y8160D03*
X3175Y6557D03*
X3282Y5146D03*
X3548Y3935D03*
X3566Y2230D03*
X4119Y4302D03*
X5358Y1860D03*
X5703Y4998D03*
X5889Y600D03*
X6198Y4597D03*
X6210Y7520D03*
X6332Y3738D03*
X6677Y1905D03*
X6688Y4951D03*
X6852Y2689D03*
X6952Y5537D03*
X7020Y7204D03*
X7249Y1256D03*
X7324Y5165D03*
X7700Y7289D03*
X7882Y3211D03*
X8081Y4962D03*
X8085Y4499D03*
X8099Y4026D03*
X8101Y3521D03*
X8187Y733D03*
X8551Y5836D03*
X8569Y3560D03*
X8901Y6257D03*
X8963Y3016D03*
X9272Y4149D03*
Y5262D03*
X9280Y4705D03*
X9825Y4701D03*
X9829Y5262D03*
X9833Y4157D03*
X10378Y4717D03*
X10379Y5256D03*
X10381Y4157D03*
X10970Y6257D03*
X11329Y5123D03*
X11344Y4779D03*
X11852Y4678D03*
X11894Y7792D03*
X12042Y7158D03*
X12091Y4028D03*
X12270Y3047D03*
X12406Y4930D03*
X12522Y7782D03*
X12597Y6614D03*
X12603Y5311D03*
X12606Y7313D03*
X12610Y5913D03*
X12645Y4213D03*
X12751Y8482D03*
X12966Y3970D03*
X13045Y8308D03*
X13106Y4654D03*
X13260Y5920D03*
X13264Y7804D03*
X13267Y5325D03*
Y7326D03*
X13274Y6633D03*
X13745Y6975D03*
X13808Y8288D03*
X13946Y2320D03*
X14259Y6321D03*
X14466Y8491D03*
X15064Y4905D03*
X15309Y8578D03*
X15383Y6071D03*
X15442Y3680D03*
X16041Y7244D03*
X16236Y4726D03*
X16304Y2510D03*
X16344Y8332D03*
X16452Y5935D03*
X16460Y3483D03*
X17104Y4890D03*
X17487Y8364D03*
X17573Y7102D03*
X17600Y2515D03*
X17741Y3844D03*
G54D17*
X11668Y5033D03*
Y5564D03*
X12061Y5033D03*
Y5564D03*
G54D18*
X4911Y600D03*
Y1151D03*
X5344Y600D03*
Y1151D03*
G54D19*
X3115Y1002D03*
X3666D03*
X3858Y4634D03*
X3864Y3926D03*
X4409Y4634D03*
X4415Y3926D03*
X4968Y4150D03*
X5519D03*
X5641Y2608D03*
X5715Y3317D03*
X5780Y1899D03*
X6192Y2608D03*
X6266Y3317D03*
X6331Y1899D03*
X7266Y1970D03*
X7267Y2816D03*
X7817Y1970D03*
X7818Y2816D03*
G54D20*
X1175Y2452D03*
Y6940D03*
G54D21*
X6307Y600D03*
X6701D03*
X7843Y5859D03*
X8237D03*
X9257Y6240D03*
X9650D03*
X10158Y6246D03*
X10551D03*
X11520Y8145D03*
X11914D03*
G54D22*
X998Y911D03*
Y1463D03*
X3586Y2620D03*
Y3171D03*
X4361Y2745D03*
Y3296D03*
X6627Y6485D03*
Y7036D03*
X6691Y4079D03*
Y4631D03*
X7759Y7700D03*
Y8251D03*
G54D23*
X13826Y4157D03*
Y4945D03*
Y5929D03*
G54D24*
X14889Y1964D03*
Y7138D03*
G54D25*
X13826Y3173D03*
G54D26*
X8687Y3840D03*
Y3998D03*
Y4155D03*
Y4313D03*
Y4470D03*
Y4628D03*
Y4785D03*
Y4943D03*
Y5100D03*
Y5258D03*
Y5415D03*
Y5573D03*
X10971Y3840D03*
Y3998D03*
Y4155D03*
Y4313D03*
Y4470D03*
Y4628D03*
Y4785D03*
Y4943D03*
Y5100D03*
Y5258D03*
Y5415D03*
Y5573D03*
G54D27*
X8963Y3565D03*
Y5848D03*
X9120Y3565D03*
Y5848D03*
X9278Y3565D03*
Y5848D03*
X9435Y3565D03*
Y5848D03*
X9593Y3565D03*
Y5848D03*
X9750Y3565D03*
Y5848D03*
X9908Y3565D03*
Y5848D03*
X10065Y3565D03*
Y5848D03*
X10223Y3565D03*
Y5848D03*
X10380Y3565D03*
Y5848D03*
X10538Y3565D03*
Y5848D03*
X10695Y3565D03*
Y5848D03*
G54D28*
X3561Y6199D03*
Y7798D03*
X4061Y6199D03*
Y7798D03*
X4561Y6199D03*
Y7798D03*
X5061Y6199D03*
Y7798D03*
X5561Y6199D03*
Y7798D03*
X9638Y897D03*
Y2495D03*
X10138Y897D03*
Y2495D03*
X10638Y897D03*
Y2495D03*
X11138Y897D03*
Y2495D03*
X11638Y897D03*
Y2495D03*
G54D29*
X1645Y782D03*
Y1805D03*
X2019D03*
X2393Y782D03*
Y1805D03*
G54D30*
X4913Y1860D03*
Y2254D03*
X11668Y6012D03*
Y6405D03*
X12140Y6007D03*
Y6401D03*
X12349Y8144D03*
Y8538D03*
G54D70*
X6628Y7627D03*
Y8257D03*
X7140Y7627D03*
Y8257D03*
G54D71*
X2317Y3318D03*
Y4302D03*
Y5090D03*
Y6074D03*
G54D72*
X9309Y8145D03*
X10568D03*
G54D73*
X8081Y4962D03*
X8085Y4499D03*
X8099Y4026D03*
X8101Y3521D03*
M02*
