*
G04 Job   : H:\ZEROSERO7\PCB\USB_SNIFFER\PCB\PCB.pcb*
G04 User  : DESKTOP-D6MOGOB:alexis*
G04 Layer : SolderPasteTop.gdo*
G04 Date  : Wed Dec 27 13:25:23 2017*
G04 Mentor Graphics Example Gerber Output Definition*
%ICAS*%
%MOIN*%
%FSLAX24Y24*%
%OFA0.0000B0.0000*%
G90*
G74*
%AMVB_RECTANGLE*
21,1,$1,$2,0,0,$3*
%
%ADD18VB_RECTANGLE,0.00787X0.03150X0.00000*%
%ADD17VB_RECTANGLE,0.00787X0.03150X270.00000*%
%ADD70VB_RECTANGLE,0.02362X0.03937X180.00000*%
%ADD20VB_RECTANGLE,0.02756X0.01575X0.00000*%
%ADD15VB_RECTANGLE,0.02756X0.01575X90.00000*%
%ADD10VB_RECTANGLE,0.02953X0.02756X90.00000*%
%ADD19VB_RECTANGLE,0.03150X0.12205X180.00000*%
%ADD11VB_RECTANGLE,0.03543X0.03150X90.00000*%
%ADD16VB_RECTANGLE,0.03937X0.02362X180.00000*%
%ADD12VB_RECTANGLE,0.03937X0.02362X270.00000*%
%ADD13VB_RECTANGLE,0.03937X0.03150X270.00000*%
%ADD71VB_RECTANGLE,0.03937X0.07087X180.00000*%
%ADD14VB_RECTANGLE,0.04921X0.10039X270.00000*%
G01*
G36*
X9120Y3998D02*
X10538D01*
Y5415*
X9120*
Y3998*
G37*
G54D10*
X11668Y5033D03*
Y5564D03*
X12061Y5033D03*
Y5564D03*
G54D11*
X4911Y600D03*
Y1151D03*
X5344Y600D03*
Y1151D03*
G54D12*
X3115Y1002D03*
X3666D03*
X3858Y4634D03*
X3864Y3926D03*
X4409Y4634D03*
X4415Y3926D03*
X4968Y4150D03*
X5519D03*
X5641Y2608D03*
X5715Y3317D03*
X5780Y1899D03*
X6192Y2608D03*
X6266Y3317D03*
X6331Y1899D03*
X7266Y1970D03*
X7267Y2816D03*
X7817Y1970D03*
X7818Y2816D03*
G54D13*
X6628Y7627D03*
Y8257D03*
X7140Y7627D03*
Y8257D03*
G54D14*
X2317Y3318D03*
Y4302D03*
Y5090D03*
Y6074D03*
G54D15*
X6307Y600D03*
X6701D03*
X7843Y5859D03*
X8237D03*
X9257Y6240D03*
X9650D03*
X10158Y6246D03*
X10551D03*
X11520Y8145D03*
X11914D03*
G54D16*
X998Y911D03*
Y1463D03*
X3586Y2620D03*
Y3171D03*
X4361Y2745D03*
Y3296D03*
X6627Y6485D03*
Y7036D03*
X6691Y4079D03*
Y4631D03*
X7759Y7700D03*
Y8251D03*
G54D17*
X8687Y3840D03*
Y3998D03*
Y4155D03*
Y4313D03*
Y4470D03*
Y4628D03*
Y4785D03*
Y4943D03*
Y5100D03*
Y5258D03*
Y5415D03*
Y5573D03*
X10971Y3840D03*
Y3998D03*
Y4155D03*
Y4313D03*
Y4470D03*
Y4628D03*
Y4785D03*
Y4943D03*
Y5100D03*
Y5258D03*
Y5415D03*
Y5573D03*
G54D18*
X8963Y3565D03*
Y5848D03*
X9120Y3565D03*
Y5848D03*
X9278Y3565D03*
Y5848D03*
X9435Y3565D03*
Y5848D03*
X9593Y3565D03*
Y5848D03*
X9750Y3565D03*
Y5848D03*
X9908Y3565D03*
Y5848D03*
X10065Y3565D03*
Y5848D03*
X10223Y3565D03*
Y5848D03*
X10380Y3565D03*
Y5848D03*
X10538Y3565D03*
Y5848D03*
X10695Y3565D03*
Y5848D03*
G54D19*
X3561Y6199D03*
Y7798D03*
X4061Y6199D03*
Y7798D03*
X4561Y6199D03*
Y7798D03*
X5061Y6199D03*
Y7798D03*
X5561Y6199D03*
Y7798D03*
X9638Y897D03*
Y2495D03*
X10138Y897D03*
Y2495D03*
X10638Y897D03*
Y2495D03*
X11138Y897D03*
Y2495D03*
X11638Y897D03*
Y2495D03*
G54D20*
X4913Y1860D03*
Y2254D03*
X11668Y6012D03*
Y6405D03*
X12140Y6007D03*
Y6401D03*
X12349Y8144D03*
Y8538D03*
G54D70*
X1645Y782D03*
Y1805D03*
X2019D03*
X2393Y782D03*
Y1805D03*
G54D71*
X9309Y8145D03*
X10568D03*
M02*
