*
G04 Job   : H:\ZEROSERO7\PCB\USB_SNIFFER\PCB\PCB.pcb*
G04 User  : DESKTOP-D6MOGOB:alexis*
G04 Layer : SoldermaskTop.gdo*
G04 Date  : Wed Dec 27 13:25:23 2017*
G04 Mentor Graphics Example Gerber Output Definition*
%ICAS*%
%MOIN*%
%FSLAX24Y24*%
%OFA0.0000B0.0000*%
G90*
G74*
%AMVB_RECTANGLE*
21,1,$1,$2,0,0,$3*
%
%ADD25C,0.04134*%
%ADD19C,0.06299*%
%ADD14C,0.07874*%
%ADD70C,0.13583*%
%ADD16O,0.16339X0.06890*%
%ADD71VB_RECTANGLE,0.06299X0.06299X90.00000*%
%ADD21VB_RECTANGLE,0.01083X0.03445X0.00000*%
%ADD20VB_RECTANGLE,0.01083X0.03445X270.00000*%
%ADD23VB_RECTANGLE,0.02953X0.04528X180.00000*%
%ADD10VB_RECTANGLE,0.03248X0.03051X90.00000*%
%ADD26VB_RECTANGLE,0.03346X0.02165X0.00000*%
%ADD17VB_RECTANGLE,0.03346X0.02165X90.00000*%
%ADD22VB_RECTANGLE,0.03740X0.12795X180.00000*%
%ADD11VB_RECTANGLE,0.03839X0.03445X90.00000*%
%ADD18VB_RECTANGLE,0.04528X0.02953X180.00000*%
%ADD12VB_RECTANGLE,0.04528X0.02953X270.00000*%
%ADD13VB_RECTANGLE,0.04528X0.03740X270.00000*%
%ADD24VB_RECTANGLE,0.04528X0.07677X180.00000*%
%ADD15VB_RECTANGLE,0.05512X0.10630X270.00000*%
G01*
G36*
X10725Y3811D02*
X8933D01*
Y5490*
X9046Y5602*
X10725*
Y3811*
G37*
G54D10*
X11668Y5033D03*
Y5564D03*
X12061Y5033D03*
Y5564D03*
G54D11*
X4911Y600D03*
Y1151D03*
X5344Y600D03*
Y1151D03*
G54D12*
X3115Y1002D03*
X3666D03*
X3858Y4634D03*
X3864Y3926D03*
X4409Y4634D03*
X4415Y3926D03*
X4968Y4150D03*
X5519D03*
X5641Y2608D03*
X5715Y3317D03*
X5780Y1899D03*
X6192Y2608D03*
X6266Y3317D03*
X6331Y1899D03*
X7266Y1970D03*
X7267Y2816D03*
X7817Y1970D03*
X7818Y2816D03*
G54D13*
X6628Y7627D03*
Y8257D03*
X7140Y7627D03*
Y8257D03*
G54D14*
X1175Y3810D03*
Y5582D03*
G54D15*
X2317Y3318D03*
Y4302D03*
Y5090D03*
Y6074D03*
G54D16*
X1175Y2452D03*
Y6940D03*
G54D17*
X6307Y600D03*
X6701D03*
X7843Y5859D03*
X8237D03*
X9257Y6240D03*
X9650D03*
X10158Y6246D03*
X10551D03*
X11520Y8145D03*
X11914D03*
G54D18*
X998Y911D03*
Y1463D03*
X3586Y2620D03*
Y3171D03*
X4361Y2745D03*
Y3296D03*
X6627Y6485D03*
Y7036D03*
X6691Y4079D03*
Y4631D03*
X7759Y7700D03*
Y8251D03*
G54D19*
X13826Y4157D03*
Y4945D03*
Y5929D03*
G54D20*
X8687Y3840D03*
Y3998D03*
Y4155D03*
Y4313D03*
Y4470D03*
Y4628D03*
Y4785D03*
Y4943D03*
Y5100D03*
Y5258D03*
Y5415D03*
Y5573D03*
X10971Y3840D03*
Y3998D03*
Y4155D03*
Y4313D03*
Y4470D03*
Y4628D03*
Y4785D03*
Y4943D03*
Y5100D03*
Y5258D03*
Y5415D03*
Y5573D03*
G54D21*
X8963Y3565D03*
Y5848D03*
X9120Y3565D03*
Y5848D03*
X9278Y3565D03*
Y5848D03*
X9435Y3565D03*
Y5848D03*
X9593Y3565D03*
Y5848D03*
X9750Y3565D03*
Y5848D03*
X9908Y3565D03*
Y5848D03*
X10065Y3565D03*
Y5848D03*
X10223Y3565D03*
Y5848D03*
X10380Y3565D03*
Y5848D03*
X10538Y3565D03*
Y5848D03*
X10695Y3565D03*
Y5848D03*
G54D22*
X3561Y6199D03*
Y7798D03*
X4061Y6199D03*
Y7798D03*
X4561Y6199D03*
Y7798D03*
X5061Y6199D03*
Y7798D03*
X5561Y6199D03*
Y7798D03*
X9638Y897D03*
Y2495D03*
X10138Y897D03*
Y2495D03*
X10638Y897D03*
Y2495D03*
X11138Y897D03*
Y2495D03*
X11638Y897D03*
Y2495D03*
G54D23*
X1645Y782D03*
Y1805D03*
X2019D03*
X2393Y782D03*
Y1805D03*
G54D24*
X9309Y8145D03*
X10568D03*
G54D25*
X8081Y4962D03*
X8085Y4499D03*
X8099Y4026D03*
X8101Y3521D03*
G54D26*
X4913Y1860D03*
Y2254D03*
X11668Y6012D03*
Y6405D03*
X12140Y6007D03*
Y6401D03*
X12349Y8144D03*
Y8538D03*
G54D70*
X14889Y1964D03*
Y7138D03*
G54D71*
X13826Y3173D03*
M02*
