*
G04 Job   : G:\ZEROSERO7\PCB\SPY_TALK\PCB\PCB.pcb*
G04 User  : DESKTOP-D6MOGOB:alexis*
G04 Layer : EtchLayerBottom.gdo*
G04 Date  : Tue Dec 19 16:04:35 2017*
G04 Mentor Graphics Example Gerber Output Definition*
%ICAS*%
%MOIN*%
%FSLAX24Y24*%
%OFA0.0000B0.0000*%
G90*
G74*
%AMVB_RECTANGLE*
21,1,$1,$2,0,0,$3*
%
%ADD10C,0.00000*%
%ADD11C,0.00591*%
%ADD12C,0.01575*%
%ADD13C,0.02362*%
%ADD16C,0.09843*%
%ADD14VB_RECTANGLE,0.02362X0.03937X180.00000*%
%ADD18VB_RECTANGLE,0.02756X0.01575X0.00000*%
%ADD15VB_RECTANGLE,0.02756X0.01575X90.00000*%
%ADD17VB_RECTANGLE,0.03543X0.06299X180.00000*%
G01*
G36*
X118Y10522D02*
G02X148Y10551I30D01*
G01X1951*
Y7943*
G03X2010Y7884I59*
G01X2226*
Y6722*
G03X2304Y6644I78*
G01X2541*
G03X2564Y6647J78*
G01Y6135*
G03X2623Y6076I59*
G01X2781*
G03X2840Y6135J59*
G01Y6411*
G03X2781Y6470I59*
G01X2623*
G03X2564Y6411J59*
G01Y6647*
G03X2619Y6722I23J75*
G01Y7116*
G03X2541Y7195I78*
G02X2511Y7224J29*
G01Y7254*
G02Y7257I30*
G03X2512Y7264I88J7*
G01Y7310*
G02X2530Y7338I29*
G03X2580Y7411I28J73*
G01Y7687*
G03X2502Y7766I78*
G01X2344*
G03X2265Y7687J79*
G01Y7411*
G03X2316Y7338I79*
G02X2334Y7310I11J28*
G01Y7273*
G02Y7271I29*
G03Y7263I89J8*
G01Y7224*
G02X2304Y7195I30*
G03X2226Y7116J79*
G01Y7884*
X2364*
G03X2423Y7943J59*
G01Y8573*
G03X2364Y8632I59*
G01X2010*
G03X1951Y8573J59*
G01Y10551*
X2561*
Y7943*
G03X2640Y7864I79*
G01X2699*
G02X2729Y7835J29*
G01Y7826*
G02X2728Y7823I30*
G03Y7815I89J8*
G01Y7788*
G02X2709Y7760I29*
G03X2659Y7687I29J73*
G01Y7411*
G03X2738Y7333I79*
G01X2895*
G03X2968Y7382J78*
G02X2996Y7400I28J12*
X3017Y7391J30*
G01X3131Y7277*
G02X3139Y7256I21J21*
G01Y7223*
G02X3110Y7193I29*
X3105Y7194J30*
G03X3092Y7195I13J78*
G01X2856*
G03X2777Y7116J79*
G01Y6722*
G03X2856Y6644I79*
G01X3092*
G03X3102J78*
G02X3106Y6645I4J29*
X3134Y6625J30*
G03X3186Y6546I185J66*
G02X3196Y6524I19J22*
X3193Y6510I29*
G01X3190Y6505*
G02X3164Y6489I26J14*
G01X3017*
G03X2938Y6411J78*
G01Y6135*
G03X3017Y6056I79*
G01X3175*
G03X3253Y6135J79*
G01Y6155*
G02X3283Y6184I30*
G01X3313*
G02X3334Y6175J29*
G01X3350Y6160*
G02X3359Y6139I21J21*
X3358Y6132I30*
G03X3352Y6086I191J46*
X3549Y5889I197*
X3746Y6086J197*
X3673Y6239I197*
G02X3662Y6262I18J23*
X3664Y6274I29*
G01X3666Y6278*
G02X3693Y6296I27J12*
X3697Y6295J30*
G03X3726Y6293I29J195*
X3861Y6346J197*
G02X3881Y6354I20J22*
X3909Y6335J30*
G03X3918Y6316I74J26*
G02X3924Y6299I24J17*
G01Y5763*
G03X3954Y5676I137*
G02X3961Y5658I23J18*
X3952Y5637I30*
G01X3371Y5056*
G02X3350Y5047I21J21*
G01X2937*
G02X2917Y5055J30*
G03X2785Y5106I132J146*
X2588Y4909J197*
X2785Y4713I197*
X2917Y4764J196*
G02X2937Y4772I20J22*
G01X3420*
G03X3517Y4812J137*
G01X4146Y5441*
G02X4167Y5450I21J21*
X4188Y5441J30*
G01X4844Y4785*
G03X4942Y4745I98J98*
G01X5360*
G03X5458Y4785J138*
G01X6146Y5473*
G03X6186Y5571I98J98*
G01Y6316*
G02X6215Y6346I29*
G01X7348*
G03X7446Y6386J137*
G01X7794Y6734*
G02X7815Y6743I21J21*
G01X8350*
G02X8353J30*
G01Y6408*
G03X8412Y6349I59*
G01X8688*
G03X8747Y6408J59*
G01Y6566*
G03X8688Y6625I59*
G01X8412*
G03X8353Y6566J59*
G01Y6743*
G02X8367Y6737I3J30*
G03X8412Y6723I45J65*
G01X8688*
G03X8733Y6737J79*
G02X8750Y6743I17J24*
G01X8796*
G02X8816Y6735J30*
G03X8947Y6685I131J147*
X9080Y6737J197*
G02X9100Y6744I20J22*
G01X11630*
G03X11727Y6785J138*
G01X11745Y6802*
Y1806*
G03X12316Y1235I571*
X12886Y1806J571*
X12316Y2377I570*
X11745Y1806J571*
G01Y6802*
X11832Y6889*
G02X11853Y6898I21J20*
X11874Y6889J29*
G01X13234Y5529*
G02X13243Y5508I21J21*
G01Y4738*
G02X13235Y4718I30*
G03X13184Y4586I146J132*
X13381Y4389I197*
X13578Y4586J197*
X13526Y4718I197*
G02X13519Y4738I22J20*
G01Y5577*
G03X13478Y5675I138*
G01X12025Y7128*
G02X12017Y7149I21J21*
G01Y7559*
G02X12024Y7579I29*
G03X12076Y7711I145J132*
X12024Y7844I197*
G02X12017Y7864I22J20*
G01Y8141*
G03X11976Y8238I138*
G01X10681Y9534*
G02X10672Y9554I20J21*
G03X10475Y9741I197J10*
X10278Y9544J197*
X10466Y9348I197*
G02X10486Y9339I1J30*
G01X11732Y8092*
G02X11741Y8072I20J20*
G01Y7864*
G02X11733Y7844I29*
G03X11682Y7711I146J133*
X11733Y7579I197*
G02X11741Y7559I21J20*
G01Y7200*
G02X11732Y7179I29*
G01X11582Y7029*
G02X11561Y7020I21J20*
G01X9100*
G02X9080Y7028J29*
G03X8947Y7079I133J146*
X8813Y7026J197*
G02X8793Y7018I20J22*
G01X8750*
G02X8733Y7024J30*
G03X8688Y7038I45J65*
G01X8412*
G03X8367Y7024J79*
G02X8350Y7018I17J24*
G01X7745*
G03X7648Y6978J137*
G01X7300Y6630*
G02X7279Y6621I21J21*
G01X6201*
G02X6181Y6629J30*
G03X6048Y6680I133J146*
X5904Y6618J197*
G02X5883Y6608I21J20*
G01X5880*
G02X5852Y6630J30*
G03X5776Y6687I76J22*
G01X5618*
G03X5540Y6608J79*
G01Y6333*
G03X5618Y6254I78*
G01X5776*
G03X5852Y6311J79*
G02X5880Y6333I28J8*
G01X5881*
G02X5910Y6303J30*
G01Y5640*
G02X5902Y5619I29*
G01X5312Y5029*
G02X5291Y5020I21J21*
G01X5011*
G02X4990Y5029J30*
G01X4208Y5811*
G02X4199Y5832I21J21*
G01Y6299*
G02X4205Y6316I30*
G03X4219Y6361I65J45*
G01Y6637*
G03X4140Y6716I79*
G01X3983*
G03X3918Y6682J79*
G02X3894Y6669I24J17*
X3864Y6699J30*
G01Y8376*
G02X3873Y8397I30*
G01X3901Y8425*
G03X3941Y8522I98J97*
G01Y8611*
G02X3971Y8640I30*
G01X4317*
Y6361*
G03X4376Y6302I59*
G01X4534*
G03X4593Y6361J59*
G01Y6637*
G03X4534Y6696I59*
G01X4376*
G03X4317Y6637J59*
G01Y8640*
X5166*
Y6333*
G03X5225Y6274I59*
G01X5382*
G03X5441Y6333J59*
G01Y6608*
G03X5382Y6667I59*
G01X5225*
G03X5166Y6608J59*
G01Y8640*
X5298*
G03X5396Y8681J138*
G01X6233Y9518*
G02X6253Y9527I21J21*
G03X6440Y9723I9J196*
X6244Y9920I196*
X6047Y9733J197*
G02X6038Y9713I30J1*
G01X5250Y8925*
G02X5229Y8916I21J20*
G01X3956*
G02X3936Y8924J29*
G03X3803Y8975I133J146*
X3606Y8778J197*
X3658Y8646I197*
G02X3665Y8626I22J20*
G01Y8592*
G02X3657Y8571I29*
G01X3629Y8543*
G03X3589Y8445I97J98*
G01Y7199*
G02X3559Y7170I30*
X3535Y7182J29*
G03X3374Y7266I161J113*
X3350Y7264J197*
G02X3346I4J29*
X3317Y7293J29*
G01Y7305*
G03X3291Y7368I89*
G01X3047Y7612*
G03X2999Y7636I63J63*
G02X2974Y7666I5J30*
G01Y7687*
G03X2924Y7760I79*
G02X2905Y7788I11J28*
G01Y7804*
G02Y7807I30*
G03X2906Y7815I88J8*
G01Y7835*
G02X2935Y7864I29*
G01X2994*
G03X3073Y7943J79*
G01Y8573*
G03X2994Y8651I79*
G01X2640*
G03X2561Y8573J78*
G01Y10551*
X4414*
Y12844*
G02X4443Y12874I29*
G01X8743*
Y9141*
G03X8940Y8944I197*
X9137Y9141J197*
X9131Y9187I197*
G02X9130Y9194I29J7*
X9139Y9215I30*
G01X9156Y9231*
G03X9181Y9294I63J63*
G01Y12208*
G02X9196Y12234I30*
G03X9290Y12402I103J168*
X9093Y12598I197*
X8896Y12402J196*
X8990Y12234I197*
G02X9004Y12208I15J26*
G01Y9365*
G02X8975Y9335I29*
X8970Y9336J30*
G03X8940Y9338I30J195*
X8743Y9141J197*
G01Y12874*
X11424*
Y11476*
G03X11483Y11417I59*
G01X13599*
G03X13658Y11476J59*
G01Y11850*
G03X13599Y11909I59*
G01X11483*
G03X11424Y11850J59*
G01Y12874*
X11530*
Y12059*
G03X11589Y12000I59*
G01X13586*
G03X13645Y12059J59*
G01Y12538*
G03X13586Y12597I59*
G01X11589*
G03X11530Y12538J59*
G01Y12874*
X14026*
G02X14055Y12844J30*
G01Y148*
G02X14026Y118I29*
G01X148*
G02X118Y148J30*
G01Y10522*
G37*
G54D10*
X0Y0D02*
X14173D01*
Y12992*
X0*
Y0*
G54D11*
X2040Y8258D02*
X1922D01*
X2187Y7972D02*
Y7854D01*
Y8543D02*
Y8661D01*
X2335Y8258D02*
X2453D01*
X2423Y7549D02*
Y7264D01*
Y7263*
Y6919*
X2653Y6273D02*
X2535D01*
X2702Y6164D02*
Y6046D01*
Y6381D02*
Y6499D01*
X2751Y6273D02*
X2869D01*
X2817Y7549D02*
Y7815D01*
Y8258*
X3096Y6273D02*
X3362D01*
X3549Y6086*
X3319Y6691D02*
Y6780D01*
X3180Y6919*
X2974*
X3374Y7069D02*
X3228Y7215D01*
Y7305*
X2984Y7549*
X2817*
X4062Y6500D02*
X4061Y6499D01*
X4406D02*
X4288D01*
X4455Y6391D02*
Y6273D01*
Y6608D02*
Y6726D01*
X4504Y6499D02*
X4622D01*
X5254Y6470D02*
X5136D01*
X5303Y6362D02*
Y6244D01*
Y6579D02*
Y6697D01*
X5353Y6470D02*
X5471D01*
X8442Y6487D02*
X8324D01*
X8550Y6438D02*
Y6320D01*
Y6536D02*
Y6654D01*
X8658Y6487D02*
X8777D01*
X8940Y9141D02*
X9093Y9294D01*
Y12402*
X11638Y12399D02*
X11819Y12251D01*
X11641Y11816D02*
X11684Y11801D01*
X11699Y11773*
Y11744*
X11684Y11711*
X11656Y11696*
X11598Y11682*
X11555Y11668*
X11527Y11639*
X11512Y11611*
Y11563*
X11527Y11534*
X11541Y11520*
X11584Y11506*
X11641*
X11684Y11520*
X11699Y11534*
X11713Y11563*
Y11611*
X11699Y11639*
X11670Y11668*
X11627Y11682*
X11570Y11696*
X11541Y11711*
X11527Y11744*
Y11773*
X11541Y11801*
X11584Y11816*
X11641*
X11747Y12313D02*
X11619Y12194D01*
X11819Y12504D02*
Y12194D01*
X11832Y11759D02*
X11813Y11773D01*
X11789Y11816*
Y11506*
X11895Y12504D02*
Y12194D01*
X11972Y12356D02*
X12005Y12384D01*
X12039Y12399*
X12091*
X12124Y12384*
X12158Y12356*
X12172Y12313*
Y12279*
X12158Y12237*
X12124Y12208*
X12091Y12194*
X12039*
X12005Y12208*
X11972Y12237*
Y12399D02*
Y12194D01*
X12023Y11816D02*
X12066Y11801D01*
X12095Y11759*
X12109Y11682*
Y11639*
X12095Y11563*
X12066Y11520*
X12023Y11506*
X11994*
X11951Y11520*
X11923Y11563*
X11908Y11639*
Y11682*
X11923Y11759*
X11951Y11801*
X11994Y11816*
X12023*
X12349Y12509D02*
Y12194D01*
X12371Y11744D02*
Y11759D01*
X12357Y11787*
X12343Y11801*
X12314Y11821*
X12257*
X12228Y11801*
X12214Y11787*
X12200Y11759*
Y11730*
X12214Y11701*
X12243Y11654*
X12386Y11506*
X12185*
X12449Y12509D02*
X12249D01*
X12538Y11821D02*
X12739D01*
Y11506*
X12538*
X12726Y12327D02*
X12525D01*
X12739Y11668D02*
X12615D01*
X12802Y12399D02*
X12898Y12194D01*
X12926Y12132*
X12960Y12103*
X12988Y12089*
X13003*
X12815Y11773D02*
X12844Y11801D01*
X12887Y11821*
X12944*
X12987Y11801*
X13016Y11773*
Y11744*
X13001Y11716*
X12987Y11701*
X12958Y11682*
X12872Y11654*
X12844Y11639*
X12830Y11625*
X12815Y11596*
Y11549*
X12844Y11520*
X12887Y11506*
X12944*
X12987Y11520*
X13016Y11549*
X12988Y12399D02*
X12898Y12194D01*
X13221Y11821D02*
X13245Y11801D01*
X13269Y11773*
X13283Y11744*
X13292Y11701*
Y11625*
X13283Y11582*
X13269Y11549*
X13245Y11520*
X13221Y11506*
X13168*
X13144Y11520*
X13116Y11549*
X13106Y11582*
X13092Y11625*
Y11701*
X13106Y11744*
X13116Y11773*
X13144Y11801*
X13168Y11821*
X13221*
X13279Y12356D02*
X13251Y12384D01*
X13212Y12399*
X13165*
X13131Y12384*
X13093Y12356*
X13079Y12313*
Y12279*
X13093Y12237*
X13131Y12208*
X13165Y12194*
X13212*
X13251Y12208*
X13279Y12237*
Y12399D02*
Y12089D01*
X13356Y12461D02*
X13384Y12489D01*
X13427Y12509*
X13484*
X13527Y12489*
X13556Y12461*
Y12432*
X13542Y12404*
X13527Y12389*
X13499Y12370*
X13413Y12342*
X13384Y12327*
X13370Y12313*
X13356Y12284*
Y12237*
X13384Y12208*
X13427Y12194*
X13484*
X13527Y12208*
X13556Y12237*
X13469Y11668D02*
X13369Y11506D01*
X13569D02*
Y11821D01*
X13440*
X13397Y11801*
X13383Y11787*
X13369Y11759*
Y11730*
X13383Y11701*
X13397Y11682*
X13440Y11668*
X13569*
G54D12*
X2785Y4909D02*
X3420D01*
X4167Y5657*
X3726Y6490D02*
Y8445D01*
X3803Y8522*
Y8778*
X3726Y6490D02*
X3736Y6499D01*
X4061*
X3803Y8778D02*
X5298D01*
X6244Y9723*
X4167Y5657D02*
X4061Y5763D01*
Y6499*
X6048Y6483D02*
Y5571D01*
X5360Y4883*
X4942*
X4167Y5657*
X6048Y6483D02*
X6035Y6470D01*
X5697*
X8550Y6881D02*
X8946D01*
X8947Y6882*
X8550Y6881D02*
X7745D01*
X7348Y6483*
X6048*
X8947Y6882D02*
X11630D01*
X11867Y7119*
X10475Y9544D02*
X11879Y8141D01*
Y7711*
X11867Y7119D02*
Y7092D01*
X13381Y5577*
Y4586*
X11867Y7119D02*
X11879Y7131D01*
Y7711*
G54D13*
X252Y10402D03*
X362Y9218D03*
X550Y9954D03*
X896Y10405D03*
X1181Y4724D03*
Y5906D03*
X1250Y9960D03*
X1643Y10409D03*
X1670Y372D03*
X2029Y9967D03*
X2362Y1181D03*
Y5906D03*
X2420Y10419D03*
X2785Y4909D03*
X2845Y9042D03*
X3012Y358D03*
X3024Y10422D03*
X3319Y6691D03*
X3351Y7498D03*
X3371Y2038D03*
X3374Y7069D03*
X3543Y3543D03*
X3549Y6086D03*
X3726Y6490D03*
X3803Y8778D03*
X4248Y10273D03*
X4349Y8181D03*
X4353Y7086D03*
Y7629D03*
X4497Y11609D03*
X4617Y10987D03*
X4721Y12618D03*
X4724Y4724D03*
X4901Y7077D03*
Y7629D03*
Y8189D03*
X4910Y10272D03*
X4911Y10698D03*
X4944Y1657D03*
X5069Y1323D03*
X5115Y12628D03*
X5120Y11729D03*
X5309Y11341D03*
X5452Y8189D03*
X5456Y7077D03*
Y7633D03*
X5523Y10281D03*
X5538Y10882D03*
X5540Y9724D03*
X5588Y12364D03*
X5641Y2851D03*
X5906Y3543D03*
X6048Y6483D03*
X6244Y9723D03*
X6411Y9169D03*
X6517Y564D03*
X7087Y3543D03*
Y9449D03*
X7457Y3728D03*
X7627Y550D03*
X7960Y6475D03*
X8268Y2362D03*
Y3543D03*
X8940Y9141D03*
X8947Y6882D03*
X9044Y1323D03*
X9093Y12402D03*
X9125Y6432D03*
X9449Y1181D03*
Y2362D03*
Y3543D03*
X9590Y7456D03*
X9594Y7964D03*
Y8484D03*
X10009Y413D03*
X10084Y11313D03*
X10121Y7964D03*
Y8479D03*
X10125Y7450D03*
X10475Y9544D03*
X10623Y7450D03*
X10629Y7966D03*
Y8474D03*
X10630Y1181D03*
Y2362D03*
Y3543D03*
Y10630D03*
X10787Y5069D03*
X11029Y11299D03*
X11228Y427D03*
X11596Y5051D03*
X11687Y5824D03*
X11700Y6457D03*
X11811Y1181D03*
Y2362D03*
Y3543D03*
Y9449D03*
Y10630D03*
X11879Y7711D03*
X12138Y10040D03*
X12323Y427D03*
X12992Y1181D03*
Y2362D03*
Y3543D03*
Y9449D03*
X13381Y4586D03*
X13562Y8862D03*
X13611Y441D03*
X13671Y7068D03*
X13763Y5495D03*
X13775Y4801D03*
X13781Y4162D03*
X13793Y3541D03*
X13795Y10478D03*
X13822Y7835D03*
X13896Y6396D03*
G54D14*
X2423Y6919D03*
X2974D03*
G54D15*
X2423Y7549D03*
X2702Y6273D03*
X2817Y7549D03*
X3096Y6273D03*
X4061Y6499D03*
X4455D03*
X5303Y6470D03*
X5697D03*
G54D16*
X12316Y1806D03*
G54D17*
X2187Y8258D03*
X2817D03*
G54D18*
X8550Y6487D03*
Y6881D03*
M02*
