*
G04 Job   : G:\ZEROSERO7\PCB\SPY_TALK\PCB\PCB.pcb*
G04 User  : DESKTOP-D6MOGOB:alexis*
G04 Layer : SolderPasteTop.gdo*
G04 Date  : Tue Dec 19 16:04:35 2017*
G04 Mentor Graphics Example Gerber Output Definition*
%ICAS*%
%MOIN*%
%FSLAX24Y24*%
%OFA0.0000B0.0000*%
G90*
G74*
%AMVB_RECTANGLE*
21,1,$1,$2,0,0,$3*
%
%ADD19VB_RECTANGLE,0.13583X0.13583X180.00000*%
%ADD23VB_RECTANGLE,0.00787X0.03150X0.00000*%
%ADD24VB_RECTANGLE,0.00787X0.03150X90.00000*%
%ADD71VB_RECTANGLE,0.01772X0.06299X270.00000*%
%ADD27VB_RECTANGLE,0.02362X0.03937X0.00000*%
%ADD28VB_RECTANGLE,0.02362X0.03937X90.00000*%
%ADD13VB_RECTANGLE,0.02756X0.01575X0.00000*%
%ADD22VB_RECTANGLE,0.02756X0.01575X90.00000*%
%ADD18VB_RECTANGLE,0.02953X0.01181X180.00000*%
%ADD17VB_RECTANGLE,0.02953X0.01181X270.00000*%
%ADD12VB_RECTANGLE,0.02953X0.02756X180.00000*%
%ADD15VB_RECTANGLE,0.03150X0.12205X0.00000*%
%ADD16VB_RECTANGLE,0.03543X0.03150X270.00000*%
%ADD72VB_RECTANGLE,0.03937X0.01575X270.00000*%
%ADD14VB_RECTANGLE,0.03937X0.02362X0.00000*%
%ADD29VB_RECTANGLE,0.03937X0.02362X270.00000*%
%ADD70VB_RECTANGLE,0.03937X0.03150X0.00000*%
%ADD10VB_RECTANGLE,0.03937X0.07087X0.00000*%
%ADD11VB_RECTANGLE,0.04724X0.02559X90.00000*%
%ADD21VB_RECTANGLE,0.05906X0.08661X270.00000*%
%ADD20VB_RECTANGLE,0.07480X0.20866X0.00000*%
%ADD26VB_RECTANGLE,0.11811X0.06299X90.00000*%
%ADD25VB_RECTANGLE,0.21654X0.03937X90.00000*%
G01*
G36*
X4198Y6921D02*
X5615D01*
Y8338*
X4198*
Y6921*
G37*
G54D10*
X523Y12152D03*
X1783D03*
X9577Y12360D03*
X10837D03*
G54D11*
X4052Y5728D03*
X4446D03*
G54D12*
X3222Y9639D03*
Y10033D03*
X3753Y9639D03*
Y10033D03*
X8977Y9775D03*
Y10168D03*
X9509Y9775D03*
Y10168D03*
G54D13*
X2398Y2038D03*
Y2432D03*
X2739Y9639D03*
Y10033D03*
X2883Y2038D03*
Y2432D03*
X3443Y8775D03*
Y9169D03*
X3711Y3896D03*
Y4290D03*
X4252Y9472D03*
Y9866D03*
X4724Y9472D03*
Y9866D03*
X4944Y2038D03*
Y2431D03*
X8550Y6487D03*
Y6881D03*
X10119Y9735D03*
Y10129D03*
X10597Y9825D03*
Y10219D03*
X10810Y5453D03*
Y5847D03*
X11282Y5453D03*
Y5846D03*
X11888Y8648D03*
Y9042D03*
X12094Y5975D03*
Y6369D03*
X12207Y6806D03*
Y7199D03*
X12248Y7705D03*
Y8099D03*
X12315Y3673D03*
Y4067D03*
X12360Y8648D03*
Y9042D03*
X12566Y5974D03*
Y6368D03*
X12833Y8648D03*
Y9042D03*
X12834Y7708D03*
Y8101D03*
X13039Y5974D03*
Y6368D03*
X13046Y4588D03*
Y4981D03*
X13311Y7708D03*
Y8102D03*
X13511Y5974D03*
Y6368D03*
G54D14*
X922Y7615D03*
Y8166D03*
X1204Y8752D03*
Y9303D03*
X1932Y8759D03*
Y9311D03*
X3892Y452D03*
Y1003D03*
X4652Y452D03*
Y1003D03*
X11317Y4037D03*
Y4588D03*
G54D15*
X6258Y10624D03*
Y12223D03*
X6758Y10624D03*
Y12223D03*
X7258Y10624D03*
Y12223D03*
X7758Y10624D03*
Y12223D03*
X8258Y10624D03*
Y12223D03*
G54D16*
X4570Y3896D03*
X4944Y3108D03*
X5318Y3896D03*
G54D17*
X9351Y6797D03*
Y9139D03*
X9607Y6797D03*
Y9139D03*
X9863Y6797D03*
Y9139D03*
X10119Y6797D03*
Y9139D03*
X10374Y6797D03*
Y9139D03*
X10630Y6797D03*
Y9139D03*
X10886Y6797D03*
Y9139D03*
G54D18*
X8947Y7200D03*
Y7456D03*
Y7712D03*
Y7968D03*
Y8224D03*
Y8480D03*
Y8736D03*
X11290Y7200D03*
Y7456D03*
Y7712D03*
Y7968D03*
Y8224D03*
Y8480D03*
Y8736D03*
G54D19*
X10119Y7968D03*
G54D20*
X589Y1202D03*
Y3546D03*
G54D21*
X1534Y1310D03*
Y3436D03*
G54D22*
X1460Y4916D03*
X1854D03*
X2358Y1575D03*
X2752D03*
X3360Y10509D03*
X3666Y5184D03*
X3754Y10509D03*
X3936Y12153D03*
X4060Y5184D03*
X4330Y12153D03*
X4455Y5184D03*
X4725Y12153D03*
X4849Y5184D03*
X5118Y12153D03*
X8128Y9427D03*
X8522D03*
X9114Y10651D03*
X9508D03*
X10356Y4589D03*
X10750D03*
X10887Y6319D03*
X11083Y9629D03*
X11281Y6319D03*
X11477Y9629D03*
X12645Y6806D03*
X13039D03*
G54D23*
X4040Y6488D03*
Y8771D03*
X4198Y6488D03*
Y8771D03*
X4355Y6488D03*
Y8771D03*
X4513Y6488D03*
Y8771D03*
X4670Y6488D03*
Y8771D03*
X4828Y6488D03*
Y8771D03*
X4985Y6488D03*
Y8771D03*
X5143Y6488D03*
Y8771D03*
X5300Y6488D03*
Y8771D03*
X5458Y6488D03*
Y8771D03*
X5615Y6488D03*
Y8771D03*
X5772Y6488D03*
Y8771D03*
G54D24*
X3765Y6764D03*
Y6921D03*
Y7078D03*
Y7236D03*
Y7393D03*
Y7551D03*
Y7708D03*
Y7866D03*
Y8023D03*
Y8181D03*
Y8338D03*
Y8496D03*
X6048Y6764D03*
Y6921D03*
Y7078D03*
Y7236D03*
Y7393D03*
Y7551D03*
Y7708D03*
Y7866D03*
Y8023D03*
Y8181D03*
Y8338D03*
Y8496D03*
G54D25*
X6670Y2209D03*
X7457D03*
G54D26*
X5666Y1323D03*
X8461D03*
G54D27*
X2352Y3893D03*
Y4917D03*
X2726Y3893D03*
X3100D03*
Y4917D03*
G54D28*
X3379Y1684D03*
Y2432D03*
X4402Y1684D03*
Y2058D03*
Y2432D03*
G54D29*
X2144Y6347D03*
Y7085D03*
Y7793D03*
X2695Y6347D03*
Y7085D03*
X2696Y7793D03*
G54D70*
X922Y6572D03*
Y7084D03*
X1552Y6572D03*
Y7084D03*
X3101Y3178D03*
X3928D03*
G54D71*
X1636Y1861D03*
Y2117D03*
Y2373D03*
Y2629D03*
Y2885D03*
G54D72*
X12055Y4588D03*
Y5454D03*
X12310Y4588D03*
Y5454D03*
X12566Y4588D03*
Y5454D03*
M02*
