*
G04 Job   : H:\ZEROSERO7\PCB\STEALTH_DROP\PCB\PCB.pcb*
G04 User  : DESKTOP-D6MOGOB:alexis*
G04 Layer : EtchLayerBottom.gdo*
G04 Date  : Wed Dec 27 12:59:54 2017*
G04 Mentor Graphics Example Gerber Output Definition*
%ICAS*%
%MOIN*%
%FSLAX24Y24*%
%OFA0.0000B0.0000*%
G90*
G74*
%AMVB_RECTANGLE*
21,1,$1,$2,0,0,$3*
%
%ADD10C,0.00000*%
%ADD12C,0.00591*%
%ADD13C,0.01575*%
%ADD14C,0.02362*%
%ADD11C,0.03937*%
%ADD21VB_RECTANGLE,0.01181X0.06299X0.00000*%
%ADD17VB_RECTANGLE,0.01772X0.06299X180.00000*%
%ADD71VB_RECTANGLE,0.02756X0.01575X180.00000*%
%ADD16VB_RECTANGLE,0.02756X0.01575X270.00000*%
%ADD15VB_RECTANGLE,0.03543X0.03150X0.00000*%
%ADD70VB_RECTANGLE,0.03543X0.03150X270.00000*%
%ADD20VB_RECTANGLE,0.03937X0.02362X180.00000*%
%ADD23VB_RECTANGLE,0.03937X0.02362X90.00000*%
%ADD24VB_RECTANGLE,0.03937X0.03150X180.00000*%
%ADD18VB_RECTANGLE,0.05906X0.08661X180.00000*%
%ADD22VB_RECTANGLE,0.06299X0.01181X0.00000*%
%ADD19VB_RECTANGLE,0.07480X0.20866X90.00000*%
G01*
G36*
X118Y16230D02*
G02X148Y16260I30D01*
G01X479*
Y8718*
G03X754Y8442I275*
X1030Y8718J276*
X754Y8994I276*
X479Y8718J276*
G01Y16260*
X4289*
Y9718*
G03X4348Y9659I59*
G01X4584*
G03X4643Y9718J59*
G01Y10111*
G03X4584Y10170I59*
G01X4348*
G03X4289Y10111J59*
G01Y16260*
X4820*
Y9718*
G03X4899Y9639I79*
G01X5135*
G03X5214Y9718J79*
G01Y9747*
G02X5244Y9777I30*
G01X5386*
X5387*
G03X5396Y9776I9J137*
G01X5450*
G02X5470Y9769J29*
G03X5603Y9717I133J145*
X5735Y9769J197*
G02X5755Y9776I20J22*
G01X5809*
G02X5812J29*
G01X5814*
G02X5839Y9754I3J29*
G03X5851Y9730I76J21*
G02X5856Y9713I24J17*
G01Y9334*
G03X5897Y9237I138*
G01X6056Y9078*
G03X6153Y9037I97J97*
G01X9071*
G02X9091Y9029J29*
G01X9923Y8197*
G02X9931Y8177I21J20*
G01Y8092*
G02X9930Y8084I29*
G03X9925Y8045I133J39*
G01Y1895*
G02X9916Y1874I30*
G01X8912Y869*
G02X8891Y861I21J21*
G01X8881*
G03X8784Y820J138*
G01X8685Y721*
G02X8665Y713I21J21*
G03X8477Y516I9J197*
X8674Y319I197*
X8871Y507J197*
G02X8880Y526I29J1*
G01X8929Y576*
G02X8950Y585I21J21*
G01X8960*
G03X9058Y625J138*
G01X9842Y1410*
G02X9863Y1419I21J21*
X9884Y1410J30*
G01X10242Y1052*
G02X10251Y1031I21J21*
X10250Y1024I30*
G03X10245Y978I191J46*
X10441Y781I196*
X10638Y978J197*
X10441Y1175I197*
X10395Y1169J197*
G02X10388Y1168I7J29*
X10367Y1177J30*
G01X10009Y1535*
G02X10001Y1556I21J21*
X10009Y1577I29*
G01X10160Y1728*
G03X10200Y1825I97J97*
G01Y7884*
G02X10230Y7914I30*
G01X10601*
G03X10647Y7922J138*
G02X10657Y7923I10J28*
G01X10751*
G02X10771Y7916J29*
G03X10903Y7864I132J145*
X11100Y8061J197*
X11074Y8159I197*
G02X11070Y8174I26J15*
X11079Y8195I30*
G01X11083Y8200*
G02X11104Y8208I21J21*
X11125Y8200J29*
G01X11177Y8147*
G02X11186Y8126I20J21*
G01Y7675*
G02X11172Y7649I29*
G03X11078Y7482I103J167*
X11275Y7285I197*
X11369Y7309J197*
G02X11383Y7312I14J26*
X11412Y7283J29*
X11404Y7262I29*
G01X10466Y6325*
G03X10441Y6262I63J63*
G01Y4245*
G03X10466Y4182I88*
G01X11043Y3606*
G02X11052Y3585I21J21*
X11051Y3578I30*
G03X11045Y3532I191J46*
X11242Y3335I197*
X11439Y3532J197*
X11242Y3729I197*
X11196Y3723J197*
G02X11189Y3722I7J29*
X11168Y3731J30*
G01X10626Y4273*
G02X10618Y4294I21J21*
G01Y4622*
G02X10647Y4652I29*
X10669Y4642J30*
G03X10813Y4580I144J135*
X10943Y4630J197*
G02X10963Y4637I20J22*
X10993Y4608J29*
G01Y4470*
G02X10978Y4445I30*
G03X10884Y4277I103J168*
X11081Y4080I197*
X11278Y4277J197*
X11184Y4445I197*
G02X11170Y4470I15J25*
G01Y5785*
G02X11178Y5806I29*
G01X11201Y5829*
G02X11222Y5838I21J21*
X11251Y5808J30*
Y5805I29*
G03X11250Y5781I196J24*
X11447Y5584I197*
X11545Y5610J197*
G02X11559Y5614I14J25*
X11580Y5605J29*
G01X11585Y5601*
G02X11593Y5580I21J21*
X11585Y5559I29*
G01X11506Y5480*
G02X11485Y5472I21J21*
X11478J29*
G03X11432Y5478I46J191*
X11235Y5281J197*
X11432Y5084I197*
X11629Y5281J197*
X11623Y5327I197*
G02X11622Y5334I29J7*
X11631Y5355I30*
G01X12167Y5891*
Y4567*
G03X12442Y4292I275*
X12718Y4567J275*
X12442Y4843I276*
X12167Y4567J276*
G01Y5891*
X13250Y6974*
G03X13276Y7037I62J63*
G01Y8508*
G02X13306Y8538I30*
X13311Y8537J30*
G03X13325Y8536I14J78*
G01X13413*
Y7887*
G03X13507Y7719I197*
G02X13521Y7693I15J26*
G01Y6526*
G02X13507Y6501I29*
G03X13413Y6333I103J168*
X13610Y6136I197*
X13807Y6333J197*
X13713Y6501I197*
G02X13698Y6526I15J25*
G01Y7693*
G02X13713Y7719I30*
G03X13807Y7887I103J168*
X13610Y8083I197*
X13413Y7887J196*
G01Y8536*
X13443*
G03X13472Y8541J79*
G02X13483Y8543I11J27*
X13494Y8541J29*
G03X13522Y8536I28J74*
G01X13640*
G03X13669Y8541J79*
G02X13680Y8543I11J27*
X13690Y8541J29*
G03X13719Y8536I29J74*
G01X13837*
G03X13866Y8541J79*
G02X13877Y8543I11J27*
X13887Y8541J29*
G03X13916Y8536I29J74*
G01X14034*
G03X14063Y8541J79*
G02X14073Y8543I10J27*
X14084Y8541J29*
G03X14113Y8536I29J74*
G01X14231*
G03X14245Y8537J79*
G02X14251Y8538I6J29*
X14280Y8508J30*
G01Y5361*
G02X14272Y5340I29*
G03X14246Y5278I63J62*
G01Y2079*
G02X14225Y2050I30*
G03X14217Y2048I21J75*
G02X14207Y2046I10J27*
X14196Y2048J29*
G03X14167Y2053I29J73*
G01X13990*
G03X13944Y2038J78*
G02X13926Y2032I18J24*
X13921Y2033J30*
G03X13911Y2034I10J58*
G01X13734*
G03X13680Y1998J59*
G02X13653Y1981I27J12*
X13624Y2004J29*
G03X13567Y2049I57J14*
G01X12976*
G03X12917Y1990J59*
G01Y1124*
G03X12927Y1091I59*
G02X12932Y1075I24J16*
X12903Y1045I29*
G01X12120*
G03X12061Y986J59*
G01Y238*
G03X12120Y179I59*
G01X14207*
G03X14266Y238J59*
G01Y986*
G03X14207Y1045I59*
G01X13641*
G02X13611Y1075J30*
X13616Y1091I30*
G03X13626Y1124I49J33*
G01Y1304*
G02X13655Y1334I29*
X13682Y1318J30*
G03X13734Y1286I52J27*
G01X13911*
G03X13921J59*
G02X13926Y1287I5J29*
X13944Y1281J30*
G03X13990Y1266I46J64*
G01X14167*
G03X14196Y1271J79*
G02X14207Y1273I11J27*
X14217Y1271J29*
G03X14246Y1266I29J74*
G01X14423*
G03X14452Y1271J79*
G02X14463Y1273I11J27*
X14473Y1271J29*
G03X14502Y1266I29J74*
G01X14679*
G03X14708Y1271J79*
G02X14718Y1273I10J27*
X14729Y1271J29*
G03X14758Y1266I29J74*
G01X14935*
G03X14992Y1291J79*
G02X15014Y1300I22J21*
X15043Y1270J30*
G01Y1124*
G03X15053Y1091I59*
G02X15058Y1075I24J16*
X15029Y1045I29*
G01X14464*
G03X14405Y986J59*
G01Y238*
G03X14464Y179I59*
G01X16551*
G03X16610Y238J59*
G01Y986*
G03X16551Y1045I59*
G01X15766*
G02X15737Y1075J30*
X15742Y1091I29*
G03X15752Y1124I49J33*
G01Y1990*
G03X15693Y2049I59*
G01X15102*
G03X15051Y2020J59*
G02X15025Y2005I26J14*
X15001Y2018J29*
G03X14992Y2029I66J43*
G02X14984Y2049I22J20*
G01Y2111*
G02X15014Y2140I30*
G01X16475*
G02X16493Y2134J29*
G01Y1609*
G03X16572Y1530I79*
G01X16651*
G02X16680Y1501J29*
G01Y1050*
G03X16706Y988I89*
G01X16879Y815*
G02X16888Y794I21J21*
X16887Y787I30*
G03X16882Y741I191J46*
X17078Y544I196*
X17275Y741J197*
X17078Y938I197*
X17032Y932J197*
G02X17025Y931I7J29*
X17004Y940J30*
G01X16866Y1078*
G02X16857Y1099I21J21*
G01Y1501*
G02X16887Y1530I30*
G01X16966*
G03X17044Y1609J79*
G01Y1845*
G03X16966Y1924I78*
G01X16572*
G03X16493Y1845J79*
G01Y2134*
G02X16502Y2124I18J23*
G03X16572Y2081I70J36*
G01X16966*
G03X17044Y2160J79*
G01Y2396*
G03X16966Y2475I78*
G01X16936*
G02X16907Y2504J29*
G01Y2595*
G02X16915Y2616I29*
G01X17086Y2786*
G02X17105Y2795I21J21*
G03X17293Y2982I9J196*
G02X17301Y3002I29J1*
G01X17329Y3030*
G02X17350Y3038I21J21*
X17379Y3014J29*
G03X17456Y2950I77J15*
G01X17752*
Y2242*
G03X17830Y2163I78*
G01X18145*
G03X18224Y2242J79*
G01Y2251*
G02X18254Y2281I30*
G01X18707*
G02X18737Y2254J30*
G03X18932Y2078I195J20*
X19065Y2129J196*
G02X19085Y2137I20J22*
G01X19242*
G02X19252Y2135J30*
G03X19292Y2127I47J129*
G02X19317Y2111I1J30*
G03X19387Y2068I70J35*
G01X19781*
G03X19860Y2146J78*
G02X19889Y2176I29*
G01X20365*
G02X20378Y2173J30*
G03X20402Y2165I39J80*
G02X20426Y2136I5J29*
G01Y2134*
G03X20505Y2056I79*
G01X20899*
G03X20978Y2134J78*
G01Y2371*
G03X20899Y2449I79*
G01X20505*
G03X20427Y2379J78*
G02X20397Y2353I30J4*
G01X19889*
G02X19860Y2383J30*
G03X19781Y2461I79*
G01X19387*
G03X19321Y2425J78*
G02X19296Y2412I25J17*
G01X19295*
G03X19289I6J138*
G01X19085*
G02X19065Y2420J30*
G03X18941Y2471I133J146*
G02X18922Y2480I2J30*
G01X18886Y2516*
G03X18788Y2556I98J97*
G01X18254*
G02X18224Y2586J30*
G01Y2596*
G03X18145Y2675I79*
G01X17830*
G03X17752Y2596J79*
G01Y2950*
X17771*
G03X17850Y3029J79*
G01Y3383*
G03X17779Y3462I79*
G02X17752Y3491I2J29*
G01Y3530*
G03X17725Y3612I138*
G02X17719Y3630I24J18*
X17749Y3659I30*
G01X17750*
G03X17829Y3738J79*
G01Y4053*
G03X17750Y4132I79*
G01X17357*
G03X17278Y4059J79*
G02X17252Y4032I29J3*
G03X17197Y4014I16J137*
G02X17182Y4009I15J25*
G01X17061*
G02X17035Y4025J30*
G03X16965Y4068I70J35*
G01X16571*
G03X16506Y4033J78*
G02X16481Y4020I25J17*
G01X16479*
G03X16472I7J137*
G01X16299*
G02X16273Y4036J30*
G03X16203Y4079I70J35*
G01X15809*
G03X15730Y4001J78*
G01Y3764*
G03X15809Y3686I79*
G01X16203*
G03X16273Y3729J78*
G02X16299Y3745I26J14*
G01X16423*
G02X16434Y3743J30*
G03X16476Y3734I49J129*
G02X16501Y3718I1J30*
G03X16571Y3675I70J35*
G01X16965*
G03X17035Y3718J78*
G02X17061Y3734I26J14*
G01X17244*
G03X17252J138*
G01X17254*
G02X17282Y3714J29*
G03X17357Y3659I75J24*
G01X17386*
G02X17416Y3630J29*
G01Y3591*
G03X17446Y3505I138*
G02X17452Y3486I23J19*
X17432Y3458I29*
G03X17378Y3383I24J75*
G01Y3373*
G02X17348Y3344I30*
G01X17311*
G03X17213Y3304J138*
G01X17106Y3197*
G02X17087Y3188I20J20*
G03X16899Y3000I9J197*
G02X16891Y2981I29J2*
G01X16671Y2761*
G03X16631Y2664I98J97*
G01Y2504*
G02X16601Y2475I30*
G01X16572*
G03X16502Y2432J79*
G02X16475Y2416I27J13*
G01X14964*
G02X14935Y2445J29*
G01Y8442*
G03X14921Y8490I89*
G02X14916Y8506I24J16*
X14945Y8536I29*
G01X15018*
G03X15097Y8615J79*
G01Y9244*
G03X15018Y9323I79*
G01X14900*
G03X14872Y9318J79*
G02X14861Y9316I11J27*
X14850Y9318J29*
G03X14821Y9323I29J74*
G01X14703*
G03X14675Y9318J79*
G02X14664Y9316I11J27*
X14653Y9318J29*
G03X14625Y9323I28J74*
G01X14506*
G03X14478Y9318J79*
G02X14467Y9316I11J27*
X14456Y9318J29*
G03X14428Y9323I28J74*
G01X14310*
G03X14281Y9318J79*
G02X14270Y9316I11J27*
X14259Y9318J29*
G03X14231Y9323I28J74*
G01X14113*
G03X14084Y9318J79*
G02X14073Y9316I11J27*
X14063Y9318J29*
G03X14034Y9323I29J74*
G01X13916*
G03X13901Y9322J79*
G02X13895Y9321I6J29*
X13866Y9346J30*
G03X13841Y9396I88J13*
G01X12799Y10437*
G03X12736Y10463I63J62*
G01X12651*
G02X12622Y10493J30*
X12626Y10508I29*
G03X12655Y10612I168J104*
X12604Y10744I197*
G02X12596Y10764I22J20*
G01Y10886*
G03Y10896I138*
G02Y10898I29J2*
G01Y12127*
G02X12625Y12156I29*
G01X14003*
G03X14101Y12197J138*
G01X14348Y12444*
G02X14369Y12452I21J21*
X14390Y12444J29*
G01X14891Y11942*
G03X14970Y11903I98J98*
G02X14995Y11874I4J29*
G01Y9867*
G02X14988Y9847I29*
G03X14936Y9714I145J133*
X15112Y9519I197*
G02X15127Y9512I3J30*
G03X15215Y9481I88J107*
G01X15750*
Y4316*
G03X15809Y4257I59*
G01X16203*
G03X16262Y4316J59*
G01Y4552*
G03X16203Y4611I59*
G01X15809*
G03X15750Y4552J59*
G01Y9481*
X15979*
G02X16002Y9470J30*
G03X16110Y9417I108J85*
G01X16124*
G02X16152Y9396J29*
G03X16228Y9339I76J21*
G01X16386*
G03X16464Y9417J78*
G01Y9693*
G03X16386Y9772I78*
G01X16228*
G03X16208Y9769J79*
G02X16201Y9768I7J29*
X16172Y9798J30*
X16179Y9818I29*
G03X16200Y9856I64J60*
G02X16229Y9878I29J7*
X16240Y9876J29*
G03X16270Y9870I30J73*
G01X16506*
G03X16512J79*
G01Y4305*
G03X16571Y4246I59*
G01X16965*
G03X17024Y4305J59*
G01Y4541*
G03X16965Y4600I59*
G01X16571*
G03X16512Y4541J59*
G01Y9870*
G03X16563Y9894I6J79*
G01Y9417*
G03X16622Y9358I59*
G01X16779*
G03X16838Y9417J59*
G01Y9693*
G03X16779Y9752I59*
G01X16622*
G03X16563Y9693J59*
G01Y9894*
G03X16585Y9949I57J55*
G01Y10343*
G03X16575Y10381I79*
G02X16571Y10395I26J14*
X16601Y10424I30*
G01X16750*
G02X16779Y10395J29*
X16773Y10377I29*
G03X16762Y10343I48J34*
G01Y9949*
G03X16821Y9890I59*
G01X17057*
G03X17116Y9949J59*
G01Y10343*
G03X17105Y10377I59*
G02X17099Y10395I24J18*
X17129Y10424I30*
G01X17231*
Y5193*
G03X17428Y4996I197*
X17502Y5010J197*
G02X17513Y5012I11J27*
X17534Y5004J29*
G01X18234Y4304*
G02X18242Y4283I21J21*
G01Y4161*
G02X18213Y4132I29*
G01X18183*
G03X18105Y4053J79*
G01Y3738*
G03X18183Y3659I78*
G01X18213*
G02X18242Y3630J29*
G01Y3627*
G02X18239Y3614I29*
G03X18224Y3551I123J63*
G01Y3491*
G02X18197Y3462I29*
G03X18126Y3383I8J79*
G01Y3029*
G03X18205Y2950I79*
G01X18519*
G03X18598Y3029J79*
G01Y3383*
G03X18527Y3462I79*
G02X18500Y3491I2J29*
G01Y3494*
G02X18503Y3507I29*
G03X18518Y3570I123J63*
G01Y3630*
G02X18548Y3659I30*
G01X18577*
G03X18656Y3738J79*
G01Y4053*
G03X18577Y4132I79*
G01X18548*
G02X18518Y4161J29*
G01Y4352*
G03X18478Y4450I138*
G01X17637Y5290*
G03X17580Y5325I98J97*
G02X17567Y5332I8J28*
G03X17428Y5390I139J139*
X17231Y5193J197*
G01Y10424*
X18065*
G02X18085Y10416J29*
G01X18092Y10409*
Y7229*
G03X18289Y7032I197*
X18335Y7037J197*
G02X18342Y7038I7J28*
X18363Y7030J29*
G01X18780Y6613*
G02X18789Y6592I21J21*
G01Y5196*
G02X18775Y5170I30*
G03X18680Y5003I102J167*
X18877Y4806I197*
X19074Y5003J197*
X18980Y5170I197*
G02X18966Y5196I15J26*
G01Y6641*
G03X18940Y6703I89*
G01X18488Y7155*
G02X18480Y7176I21J21*
X18481Y7183I29*
G03X18486Y7229I192J46*
X18289Y7426I197*
X18092Y7229J197*
G01Y10409*
X19328Y9173*
Y2698*
G03X19387Y2638I59*
G01X19781*
G03X19840Y2698J60*
G01Y2934*
G03X19781Y2993I59*
G01X19387*
G03X19328Y2934J59*
G01Y9173*
X20605Y7896*
G02X20613Y7876I21J20*
G01Y3030*
G02X20584Y3001I29*
G01X20505*
G03X20426Y2922J79*
G01Y2686*
G03X20505Y2607I79*
G01X20899*
G03X20978Y2686J79*
G02X21007Y2715I29*
G01X21105*
G02X21135Y2686J29*
G03X21155Y2634I79*
G01Y2134*
G03X21214Y2075I59*
G01X21607*
G03X21667Y2134J59*
G01Y2371*
G03X21607Y2430I60*
G01X21214*
G03X21155Y2371J59*
G01Y2634*
G03X21214Y2607I59J52*
G01X21607*
G03X21686Y2686J79*
G01Y2922*
G03X21607Y3001I79*
G01X21214*
G03X21135Y2922J79*
G02X21105Y2892I30*
G01X21007*
G02X20978Y2922J30*
G03X20899Y3001I79*
G01X20820*
G02X20791Y3030J29*
G01Y7925*
G03X20765Y7987I89*
G01X18176Y10576*
G03X18114Y10602I62J63*
G01X16917*
G02X16888Y10631J29*
X16897Y10652I29*
G03X16958Y10795I136J143*
X16907Y10927I197*
G02X16899Y10947I21J20*
G01Y11069*
G03X16859Y11166I138*
G01X16799Y11226*
G02X16790Y11247I21J21*
G01Y12807*
G03X16779Y12862I137*
G02X16777Y12874I27J12*
X16799Y12902I29*
G03X16948Y13094I48J192*
X16924Y13189I197*
G02X16920Y13203I25J14*
X16934Y13228I29*
G03X16970Y13295I42J67*
G01Y13452*
G03X16892Y13531I78*
G01X16616*
G03X16537Y13452J79*
G01Y13295*
G03X16571Y13230I79*
G02X16584Y13205I16J25*
X16580Y13191I29*
G03X16564Y13152I171J97*
G02X16535Y13132I29J9*
X16515Y13140J29*
G01X16427Y13227*
G02X16419Y13248I21J21*
G01Y13770*
G02X16426Y13790I29*
G03X16477Y13914I145J133*
G02X16486Y13933I30J2*
G01X16510Y13957*
G02X16531Y13966I21J21*
G01X16557*
Y13688*
G03X16616Y13629I59*
G01X16892*
G03X16951Y13688J59*
G01Y13846*
G03X16892Y13905I59*
G01X16616*
G03X16557Y13846J59*
G01Y13966*
X17573*
G02X17594Y13957J30*
G01X18011Y13540*
G02X18020Y13521I20J21*
G03X18217Y13333I197J9*
X18413Y13530J197*
X18226Y13727I196*
G02X18206Y13735I1J29*
G01X17740Y14201*
G03X17643Y14242I97J97*
G01X16462*
G03X16364Y14201J138*
G01X16291Y14128*
G02X16272Y14119I21J21*
G03X16084Y13923I9J196*
X16135Y13790I197*
G02X16143Y13770I22J20*
G01Y13179*
G03X16183Y13082I138*
G01X16412Y12853*
G02X16421Y12832I20J21*
X16392Y12802I29*
G01X16167*
G03X16107Y12743J59*
G01Y12586*
G03X16167Y12527I60*
G01X16442*
G03X16471Y12534J59*
G02X16485Y12538I14J26*
X16515Y12508J30*
G01Y12449*
G02X16485Y12419I30*
X16474Y12422J30*
G03X16442Y12428I32J73*
G01X16167*
G03X16088Y12349J79*
G01Y12345*
G02X16058Y12315I30*
G01X16052*
G02X16022Y12345J30*
G01Y12433*
G03X16021Y12443I59*
G02Y12448I29J5*
X16027Y12466I29*
G03X16042Y12512I64J46*
G01Y12630*
G03X15963Y12709I79*
G01X15333*
G03X15254Y12630J79*
G01Y12512*
G03X15270Y12466I79*
G02X15275Y12448I24J18*
Y12443I29*
G03X15274Y12433I58J10*
G01Y12345*
G02X15245Y12315I29*
G03X15147Y12275J137*
G01X15068Y12196*
G02X15048Y12188I20J21*
X15027Y12196J29*
G01X14721Y12502*
G02X14713Y12523I21J21*
X14742Y12552I29*
X14744J29*
G03X14759I15J196*
X14956Y12748J196*
X14940Y12825I197*
G02X14938Y12837I27J12*
X14967Y12867I29*
G01X15018*
G03X15097Y12945J78*
G01Y13575*
G03X15018Y13654I79*
G01X14900*
G03X14872Y13649J79*
G02X14861Y13647I11J27*
X14850Y13649J29*
G03X14821Y13654I29J74*
G01X14703*
G03X14675Y13649J79*
G02X14664Y13647I11J27*
X14653Y13649J29*
G03X14625Y13654I28J74*
G01X14536*
G02X14506Y13683J29*
G01Y13728*
G03X14492Y13789I137*
G02X14489Y13803I27J14*
X14505Y13829I30*
G03X14548Y13899I36J70*
G01Y14293*
G03X14469Y14371I79*
G01X14233*
G03X14154Y14293J78*
G01Y13899*
G03X14197Y13829I79*
G02X14213Y13802I13J27*
G01Y13746*
G03X14228Y13684I138*
G02X14231Y13671I27J13*
G01Y13664*
G02X14201Y13634I30*
G01X14113*
G03X14103Y13633J59*
G02X14098I5J30*
X14081Y13639J30*
G03X14034Y13654I47J64*
G01X13916*
G03X13887Y13649J79*
G02X13877Y13647I10J27*
X13866Y13649J29*
G03X13837Y13654I29J74*
G01X13719*
G03X13690Y13649J79*
G02X13680Y13647I10J27*
X13669Y13649J29*
G03X13640Y13654I29J74*
G01X13522*
G03X13494Y13649J79*
G02X13483Y13647I11J27*
X13472Y13649J29*
G03X13443Y13654I29J74*
G01X13325*
G03X13297Y13649J79*
G02X13286Y13647I11J27*
X13275Y13649J29*
G03X13247Y13654I28J74*
G01X13128*
G03X13114Y13653J79*
G02X13109Y13652I5J29*
X13079Y13682J30*
G01Y13696*
G02X13088Y13717I30*
G01X13123Y13752*
G03X13149Y13815I63J63*
G01Y13877*
G02X13178Y13906I29*
G01X13237*
G03X13316Y13981J79*
G02X13346Y14009I30J2*
X13349J30*
G03X13360Y14008I11J78*
G01X13635*
G03X13714Y14087J79*
G01Y14244*
G03X13635Y14323I79*
G01X13360*
G03X13341Y14321J79*
G02X13334Y14320I7J28*
X13308Y14336J29*
G03X13303Y14343I71J36*
G02X13299Y14359I25J16*
X13303Y14375I29*
G03X13314Y14400I66J43*
G02X13343Y14423I29J7*
X13348Y14422J30*
G03X13360Y14421I12J58*
G01X13635*
G03X13694Y14480J59*
G01Y14638*
G03X13635Y14697I59*
G01X13360*
G03X13350Y14696J59*
G02X13346I4J29*
X13316Y14725J29*
G01Y14733*
G03X13237Y14812I79*
G01X12883*
G03X12812Y14766J79*
G02X12785Y14748I27J12*
X12758Y14766J30*
G03X12686Y14812I72J33*
G01X12332*
G03X12256Y14753J79*
G02X12227Y14730I29J7*
X12219Y14732J30*
G03X12196Y14735I23J76*
G01X11920*
G03X11842Y14656J79*
G01Y14499*
G03X11920Y14420I78*
G01X11940*
G02X11970Y14390J30*
G01Y13920*
G03X11996Y13857I88*
G01X12112Y13741*
G03X12174Y13715I62J63*
G01X12605*
G02X12626Y13707J29*
G01X12628Y13704*
G02X12637Y13683I21J21*
X12607Y13654I30*
G01X12538*
G03X12509Y13649J79*
G02X12499Y13647I10J27*
X12488Y13649J29*
G03X12459Y13654I29J74*
G01X12341*
G03X12312Y13649J79*
G02X12302Y13647I10J27*
X12291Y13649J29*
G03X12262Y13654I29J74*
G01X12144*
G03X12116Y13649J79*
G02X12105Y13647I11J27*
X12094Y13649J29*
G03X12066Y13654I28J74*
G01X11947*
G03X11930Y13652J79*
G02X11924Y13651I6J29*
X11894Y13681J30*
G01Y13777*
G03X11835Y13836I59*
G01X11559*
G03X11500Y13777J59*
G01Y13619*
G03X11559Y13560I59*
G01X11835*
G03X11838J59*
G01X11839*
G02X11869Y13531J29*
G01Y13491*
G02X11839Y13462I30*
G01X11838*
G03X11835I3J79*
G01X11559*
G03X11481Y13383J79*
G01Y13226*
G03X11559Y13147I78*
G01X11654*
G02X11670Y13142J30*
G03X11741Y13122I71J118*
G01X11839*
G02X11869Y13093J29*
G01Y12739*
G02X11839Y12709I30*
G01X10924*
G02X10895Y12732J30*
G03X10818Y12793I77J18*
G01X10661*
G03X10582Y12714J79*
G01Y12439*
G03X10661Y12360I79*
G01X10818*
G03X10888Y12402J79*
G02X10914Y12418I26J14*
X10943Y12388J30*
G01Y12315*
G03X10944Y12306I60*
G02X10945Y12301I29J5*
X10939Y12283I30*
G03X10924Y12237I64J46*
G01Y12119*
G03X10929Y12090I79*
G02X10931Y12079I27J11*
X10929Y12068I29*
G03X10924Y12040I74J28*
G01Y11922*
G03X10929Y11893I79*
G02X10931Y11882I27J11*
X10929Y11872I29*
G03X10924Y11843I74J29*
G01Y11725*
G03X10929Y11696I79*
G02X10931Y11685I27J11*
X10929Y11675I29*
G03X10924Y11646I74J29*
G01Y11528*
G03X10929Y11499I79*
G02X10931Y11489I27J10*
X10929Y11478I29*
G03X10924Y11449I74J29*
G01Y11331*
G03X10929Y11302I79*
G02X10931Y11292I27J10*
X10929Y11281I29*
G03X10924Y11252I74J29*
G01Y11134*
G03X10929Y11106I79*
G02X10931Y11095I27J11*
X10929Y11084I29*
G03X10924Y11056I74J28*
G01Y10937*
G03X10929Y10909I79*
G02X10931Y10898I27J11*
X10929Y10887I29*
G03X10924Y10859I74J28*
G01Y10751*
G02X10894Y10721I30*
X10873Y10730J30*
G01X10718Y10886*
G02X10709Y10907I21J21*
G01Y11136*
G03X10683Y11198I89*
G01X8000Y13882*
G03X7937Y13908I63J63*
G01X7817*
G02X7792Y13922J29*
G03X7624Y14016I168J103*
X7576Y14010J197*
G02X7569Y14009I7J29*
X7540Y14039J30*
Y14041I29*
G03Y14056I197J15*
X7343Y14252I197*
X7147Y14056J196*
X7239Y13889I196*
G02X7252Y13864I16J25*
Y13859I29*
G03X7251Y13845I88J14*
G01Y13606*
G03X7277Y13543I89*
G01X10669Y10151*
G02X10678Y10130I21J21*
X10648Y10101I30*
G01X10553*
G02X10532Y10109J29*
G01X6605Y14036*
G02X6596Y14057I21J21*
G01Y14968*
G02X6610Y14994I30*
G03X6705Y15161I102J167*
X6508Y15358I197*
X6311Y15161J197*
X6405Y14994I197*
G02X6419Y14968I15J26*
G01Y14008*
G03X6445Y13946I89*
G01X10436Y9954*
G02X10445Y9933I20J21*
X10416Y9904I29*
G01X9762*
G02X9741Y9913J29*
G01X9510Y10144*
G03X9447Y10170I63J63*
G01X7285*
G02X7260Y10184J29*
G03X7092Y10278I168J103*
X6895Y10081J197*
X7092Y9884I197*
X7260Y9979J197*
G02X7285Y9993I25J16*
G01X9398*
G02X9419Y9984J30*
G01X9651Y9753*
G03X9713Y9727I62J62*
G01X10809*
G02X10839Y9697J30*
X10830Y9676I30*
G01X10736Y9582*
G03X10710Y9520I63J62*
G01Y8651*
G03X10736Y8589I89*
G01X11042Y8283*
G02X11050Y8262I21J21*
X11042Y8241I29*
G01X11037Y8237*
G02X11016Y8228I21J21*
X11001Y8232J30*
G03X10903Y8258I98J171*
X10771Y8207J197*
G02X10751Y8199I20J22*
G01X10611*
G03X10565Y8191J138*
G02X10555Y8190I10J28*
G01X10237*
G02X10207Y8219J29*
G01Y8246*
G03X10167Y8343I138*
G01X9237Y9273*
G03X9140Y9313I97J98*
G01X6222*
G02X6202Y9322J30*
G01X6141Y9383*
G02X6132Y9404I20J21*
G01Y9713*
G02X6137Y9730I29*
G03X6152Y9775I64J45*
G01Y10051*
G03X6073Y10130I79*
G01X5915*
G03X5840Y10073J79*
G02X5811Y10052I29J9*
G01X5755*
G02X5735Y10060J30*
G03X5603Y10111I132J146*
X5470Y10060J197*
G02X5450Y10052I20J22*
G01X5406*
X5404*
G03X5396I8J137*
G01X5244*
G02X5214Y10082J30*
G01Y10111*
G03X5135Y10190I79*
G01X4899*
G03X4820Y10111J79*
G01Y16260*
X6250*
Y9775*
G03X6309Y9716I59*
G01X6467*
G03X6526Y9775J59*
G01Y10051*
G03X6467Y10110I59*
G01X6309*
G03X6250Y10051J59*
G01Y16260*
X8116*
Y15583*
G03X8175Y15524I59*
G01X8860*
G02X8890Y15495J29*
X8889Y15488I30*
G03X8887Y15475I57J13*
G01Y15101*
G03X8946Y15042I59*
G01X10208*
Y12439*
G03X10267Y12380I59*
G01X10424*
G03X10483Y12439J59*
G01Y12714*
G03X10424Y12773I59*
G01X10267*
G03X10208Y12714J59*
G01Y15042*
X11062*
G03X11121Y15101J59*
G01Y15475*
G03X11113Y15504I59*
G02X11109Y15519I26J15*
X11119Y15540I30*
G03X11137Y15583I41J43*
G01Y16062*
G03X11078Y16121I59*
G01X8175*
G03X8116Y16062J59*
G01Y16260*
X11861*
Y14892*
G03X11920Y14833I59*
G01X12196*
G03X12255Y14892J59*
G01Y15050*
G03X12196Y15109I59*
G01X11920*
G03X11861Y15050J59*
G01Y16260*
X14725*
Y13899*
G03X14784Y13840I59*
G01X15020*
G03X15079Y13899J59*
G01Y14293*
G03X15020Y14352I59*
G01X14784*
G03X14725Y14293J59*
G01Y16260*
X20157*
G02X20187Y16230J30*
G01Y13269*
X22530*
G02X22559Y13239J30*
G01Y148*
G02X22530Y118I29*
G01X3293*
G02X3263Y148J30*
G01Y3322*
X148*
G02X118Y3352J30*
G01Y16230*
X12312Y8508D02*
G03X12282Y8538I30D01*
X12277Y8537J30*
G02X12262Y8536I15J78*
G01X12144*
G02X12116Y8541J79*
G03X12105Y8543I11J27*
X12094Y8541J29*
G02X12066Y8536I28J74*
G01X11947*
G02X11869Y8615J79*
G01Y8750*
G03X11839Y8780I30*
X11820Y8773J30*
G02X11694Y8727I126J151*
X11497Y8924J197*
X11694Y9121I197*
X11820Y9075J197*
G03X11839Y9068I19J23*
X11869Y9098J30*
G01Y9244*
G02X11947Y9323I78*
G01X11993*
G03X12023Y9353J30*
X12020Y9365I30*
G02X12004Y9444I181J79*
X12006Y9474I197*
G03Y9478I29J4*
X11977Y9508I29*
X11956Y9499J30*
G01X11735Y9279*
G02X11673Y9253I62J62*
G01X11433*
G03X11408Y9238J30*
G02X11240Y9144I168J103*
X11043Y9341J197*
X11068Y9437I197*
G03X11072Y9451I26J14*
X11042Y9481I30*
G01X11003*
G02X10948Y9503J78*
G03X10927Y9511I21J22*
X10907Y9502J30*
G01X10896Y9492*
G03X10887Y9471I21J21*
G01Y8700*
G03X10896Y8679I30*
G01X11337Y8238*
G02X11363Y8175I62J63*
G01Y7675*
G03X11377Y7649I30*
G02X11471Y7482I102J167*
X11448Y7388I196*
G03X11444Y7373I26J15*
X11474Y7344I30*
X11494Y7353J29*
G01X12303Y8161*
G03X12312Y8182I21J21*
G01Y8508*
G37*
G54D10*
X0Y0D02*
X22677D01*
Y16378*
X0*
Y0*
G54D11*
X754Y8718D03*
X12442Y4567D03*
G54D12*
X4378Y9915D02*
X4259D01*
X4466Y9747D02*
Y9629D01*
Y10082D02*
Y10200D01*
X4555Y9915D02*
X4673D01*
X6339Y9913D02*
X6220D01*
X6388Y9805D02*
Y9687D01*
Y10021D02*
Y10140D01*
X6437Y9913D02*
X6555D01*
X6508Y15161D02*
Y14008D01*
X10504Y10012*
X11317*
X7092Y10081D02*
X9447D01*
X9713Y9815*
X11317*
X7343Y14056D02*
Y13849D01*
X7340Y13845*
Y13606*
X10736Y10209*
X11317*
X7624Y13819D02*
X7937D01*
X10620Y11136*
Y10858*
X10875Y10603*
X11317*
X8405Y15880D02*
X8376Y15909D01*
X8338Y15923*
X8290*
X8257Y15909*
X8219Y15880*
X8204Y15837*
Y15804*
X8219Y15761*
X8257Y15732*
X8290Y15718*
X8338*
X8376Y15732*
X8405Y15761*
Y15923D02*
Y15613D01*
X8605Y15923D02*
X8639Y15909D01*
X8667Y15880*
X8682Y15837*
Y15804*
X8667Y15761*
X8639Y15732*
X8605Y15718*
X8558*
X8529Y15732*
X8496Y15761*
X8481Y15804*
Y15837*
X8496Y15880*
X8529Y15909*
X8558Y15923*
X8605*
X8958Y15837D02*
X8935Y15880D01*
X8887Y15909*
X8834Y15923*
X8758*
X8958D02*
Y15718D01*
X9105Y15440D02*
X9148Y15426D01*
X9162Y15397*
Y15369*
X9148Y15335*
X9119Y15321*
X9062Y15307*
X9019Y15292*
X8990Y15264*
X8976Y15235*
Y15187*
X8990Y15159*
X9005Y15145*
X9048Y15130*
X9105*
X9148Y15145*
X9162Y15159*
X9176Y15187*
Y15235*
X9162Y15264*
X9133Y15292*
X9090Y15307*
X9033Y15321*
X9005Y15335*
X8990Y15369*
Y15397*
X9005Y15426*
X9048Y15440*
X9105*
X9235Y16033D02*
X9135D01*
X9092Y16014*
X9063Y15985*
X9049Y15956*
X9035Y15913*
Y15837*
X9049Y15794*
X9063Y15761*
X9092Y15732*
X9135Y15718*
X9235*
Y16033*
X9296Y15383D02*
X9277Y15397D01*
X9253Y15440*
Y15130*
X9487Y15440D02*
X9530Y15426D01*
X9558Y15383*
X9572Y15307*
Y15264*
X9558Y15187*
X9530Y15145*
X9487Y15130*
X9458*
X9415Y15145*
X9386Y15187*
X9372Y15264*
Y15307*
X9386Y15383*
X9415Y15426*
X9458Y15440*
X9487*
X9588Y15866D02*
X9536Y15909D01*
X9498Y15923*
X9445*
X9407Y15909*
X9388Y15866*
Y15718*
X9588Y16028D02*
Y15718D01*
X9781Y1544D02*
X9875D01*
X10441Y978*
X9794Y16028D02*
Y15775D01*
X9765Y15732*
X9712Y15718*
X9665*
X9835Y15369D02*
Y15383D01*
X9821Y15412*
X9806Y15426*
X9778Y15445*
X9720*
X9692Y15426*
X9677Y15412*
X9663Y15383*
Y15354*
X9677Y15326*
X9706Y15278*
X9849Y15130*
X9649*
X9865Y15923D02*
X9689D01*
X9941Y16028D02*
Y15718D01*
X10002Y15445D02*
X10202D01*
Y15130*
X10002*
X10018Y15880D02*
X10051Y15909D01*
X10085Y15923*
X10137*
X10170Y15909*
X10204Y15880*
X10218Y15837*
Y15804*
X10204Y15761*
X10170Y15732*
X10137Y15718*
X10085*
X10051Y15732*
X10018Y15761*
Y15923D02*
Y15718D01*
X10202Y15292D02*
X10078D01*
X10279Y15397D02*
X10307Y15426D01*
X10350Y15445*
X10408*
X10451Y15426*
X10479Y15397*
Y15369*
X10465Y15340*
X10451Y15326*
X10422Y15307*
X10336Y15278*
X10307Y15264*
X10293Y15250*
X10279Y15221*
Y15173*
X10307Y15145*
X10350Y15130*
X10408*
X10451Y15145*
X10479Y15173*
X10296Y12577D02*
X10178D01*
X10346Y12468D02*
Y12350D01*
Y12685D02*
Y12803D01*
X10395Y12577D02*
X10513D01*
X10495Y15837D02*
X10295D01*
Y15866*
X10309Y15894*
X10328Y15909*
X10361Y15923*
X10414*
X10447Y15909*
X10481Y15880*
X10495Y15837*
Y15804*
X10481Y15761*
X10447Y15732*
X10414Y15718*
X10361*
X10328Y15732*
X10295Y15761*
X10684Y15445D02*
X10708Y15426D01*
X10732Y15397*
X10746Y15369*
X10756Y15326*
Y15250*
X10746Y15207*
X10732Y15173*
X10708Y15145*
X10684Y15130*
X10632*
X10608Y15145*
X10579Y15173*
X10570Y15207*
X10556Y15250*
Y15326*
X10570Y15369*
X10579Y15397*
X10608Y15426*
X10632Y15445*
X10684*
X10700Y16028D02*
Y15775D01*
X10672Y15732*
X10619Y15718*
X10571*
X10772Y15923D02*
X10595D01*
X10813Y4777D02*
Y6042D01*
X12597Y7826*
Y8930*
X10848Y15985D02*
X10877Y16014D01*
X10920Y16033*
X10977*
X11020Y16014*
X11049Y15985*
Y15956*
X11034Y15928*
X11020Y15913*
X10991Y15894*
X10905Y15866*
X10877Y15851*
X10862Y15837*
X10848Y15808*
Y15761*
X10877Y15732*
X10920Y15718*
X10977*
X11020Y15732*
X11049Y15761*
X10933Y15292D02*
X10832Y15130D01*
X11032Y12374D02*
X10914D01*
X11033Y15130D02*
Y15445D01*
X10904*
X10861Y15426*
X10847Y15412*
X10832Y15383*
Y15354*
X10847Y15326*
X10861Y15307*
X10904Y15292*
X11033*
X11081Y4277D02*
Y5834D01*
X12794Y7547*
Y8930*
X11240Y9341D02*
X11673D01*
X11995Y9664*
X13251*
X13581Y9333*
Y8930*
X11275Y7482D02*
Y8175D01*
X10799Y8651*
Y9520*
X10897Y9619*
X11317*
Y10406D02*
X10905D01*
X10100Y11211*
X11317Y11784D02*
X11864D01*
X11432Y5281D02*
X13188Y7037D01*
Y8930*
X11447Y5781D02*
X12991Y7325D01*
Y8930*
X11589Y13698D02*
X11471D01*
X11697Y13649D02*
Y13531D01*
Y13747D02*
Y13865D01*
X11805Y13698D02*
X11924D01*
X11950Y14971D02*
X11832D01*
X12058Y14578D02*
X12060Y14575D01*
X12509*
X12058Y14922D02*
Y14804D01*
Y15020D02*
Y15139D01*
X12150Y612D02*
X12031D01*
X12167Y14971D02*
X12285D01*
X12203Y8930D02*
Y9441D01*
X12201Y9444*
X12400Y8930D02*
Y8133D01*
X10529Y6262*
Y4245*
X11242Y3532*
X12526Y957D02*
Y1075D01*
X12794Y13260D02*
Y13664D01*
X12654Y13804*
X12174*
X12058Y13920*
Y14578*
X13006Y1154D02*
X12889Y1109D01*
X13006Y1961D02*
X12914Y2053D01*
X13060Y14127D02*
Y13815D01*
X12991Y13745*
Y13260*
X13060Y14127D02*
X13053Y14120D01*
Y14135*
X13060Y14142*
Y14127D02*
X13098Y14165D01*
X13497*
X13163Y268D02*
Y150D01*
X13188Y13260D02*
Y12831D01*
X13012Y12655*
X13384Y8930D02*
Y9333D01*
X13266Y9452*
X12550*
X13384Y13260D02*
Y12736D01*
X13389Y14510D02*
X13366Y14392D01*
X13389Y14608D02*
X13367Y14726D01*
X13537Y1154D02*
X13654Y1109D01*
X13537Y1961D02*
X13629Y2053D01*
X13581Y13260D02*
Y12831D01*
X13646Y12766*
Y12566*
X13606Y14510D02*
X13698Y14418D01*
X13606Y14608D02*
X13698Y14700D01*
X13610Y6333D02*
Y7887D01*
X13778Y8930D02*
Y9333D01*
X12736Y10375*
X12403*
X12348Y10429*
X11830*
X13823Y1374D02*
Y1256D01*
Y1945D02*
Y2063D01*
X13907Y12724D02*
X13778Y12853D01*
Y13260*
X14172Y13546D02*
Y13664D01*
X14177Y612D02*
X14295D01*
X14335Y1660D02*
Y1505D01*
X14369Y8930D02*
Y5312D01*
X14335Y5278*
Y1660*
X14494Y612D02*
X14376D01*
X14566Y13260D02*
Y12857D01*
X14674Y12748*
X14759*
X14590Y1660D02*
Y5282D01*
X14566Y5307*
Y8930*
X14590Y1660D02*
Y1505D01*
X14762Y8930D02*
Y8526D01*
X14846Y8442*
Y2278*
X14814Y14096D02*
X14695D01*
X14902Y13928D02*
Y13810D01*
Y14263D02*
Y14381D01*
X14991Y14096D02*
X15109D01*
X15132Y1154D02*
X15015Y1109D01*
X15132Y1961D02*
X15040Y2053D01*
X15363Y12374D02*
X15245D01*
X15508Y268D02*
Y150D01*
X15648Y11390D02*
X16065D01*
X16197Y11258*
X15648Y11587D02*
X16081D01*
X16182Y11487*
X16397*
X15648Y11784D02*
X16177D01*
X16227Y11733*
X15648Y11981D02*
X16397D01*
X15663Y1154D02*
X15780Y1109D01*
X15663Y1961D02*
X15755Y2053D01*
X15839Y4434D02*
X15720D01*
X15934Y12374D02*
X16052D01*
X16006Y4345D02*
Y4227D01*
Y4522D02*
Y4640D01*
X16144Y957D02*
Y1075D01*
X16173Y4434D02*
X16291D01*
X16196Y12664D02*
X16078D01*
X16304Y12615D02*
Y12497D01*
Y12714D02*
Y12832D01*
X16388Y10146D02*
X16156D01*
X16115Y10104*
Y9878*
X16052Y9815*
X15648*
X16522Y612D02*
X16640D01*
X16601Y4423D02*
X16483D01*
X16646Y13767D02*
X16527D01*
X16651Y9555D02*
X16533D01*
X16701Y9447D02*
Y9329D01*
Y9663D02*
Y9782D01*
X16750Y9555D02*
X16868D01*
X16754Y13373D02*
Y13096D01*
X16751Y13094*
X16754Y13718D02*
Y13600D01*
Y13816D02*
Y13934D01*
X16768Y4334D02*
Y4216D01*
Y4511D02*
Y4629D01*
X16851Y9978D02*
X16758Y9886D01*
X16851Y10313D02*
X16734Y10360D01*
X16862Y13767D02*
X16980D01*
X16935Y4423D02*
X17053D01*
X17028Y9978D02*
X17120Y9886D01*
X17028Y10313D02*
X17144Y10360D01*
X17078Y741D02*
X16769Y1050D01*
Y1727*
X18289Y7229D02*
X18877Y6641D01*
Y5003*
X19417Y2816D02*
X19299D01*
X19584Y2727D02*
Y2609D01*
Y2904D02*
Y3022D01*
X19751Y2816D02*
X19870D01*
X20702Y2253D02*
X20417D01*
X20405Y2264*
X19584*
X20702Y2804D02*
Y7925D01*
X18114Y10513*
X16431*
X16331Y10613*
Y10986*
X20702Y2804D02*
X21411D01*
X21243Y2253D02*
X21125D01*
X21411Y2164D02*
Y2046D01*
Y2341D02*
Y2459D01*
X21578Y2253D02*
X21696D01*
G54D13*
X5017Y9915D02*
X5396D01*
Y9914*
X5603*
X5826*
X5827Y9913*
X5994*
Y9334*
X6153Y9175*
X9140*
X10069Y8246*
Y8052*
X9781Y1544D02*
X10063Y1825D01*
Y8045*
X10069Y8052*
X9781Y1544D02*
X8960Y723D01*
X8881*
X8674Y516*
X10069Y8052D02*
X10601D01*
X10611Y8061*
X10903*
X11317Y12571D02*
X10745D01*
X10739Y12577*
X11317Y12571D02*
X11869D01*
X11934Y12506*
X11941*
X12006Y12571*
Y8930D02*
X11700D01*
X11694Y8924*
X12006Y12571D02*
X12016D01*
X12147Y12440*
X12312*
X12458Y12294*
X12006Y13260D02*
X11741D01*
X11697Y13304*
X12006Y13260D02*
Y12571D01*
X12458Y10612D02*
Y10886D01*
Y12294*
X14369Y12659D02*
Y13260D01*
Y12659D02*
X14003Y12294D01*
X12458*
X14369Y13260D02*
Y13728D01*
X14351Y13746*
Y14096*
X14846Y2278D02*
Y1660D01*
Y2278D02*
X16769D01*
X15133Y9714D02*
Y9700D01*
X15215Y9619*
X15648*
X15133Y12066D02*
Y9714D01*
Y12066D02*
X15107Y12040D01*
X14989*
X14369Y12659*
X15133Y12066D02*
X15245Y12178D01*
X15648*
Y9619D02*
X16081D01*
X16110Y9590*
Y9555*
X16307*
X16281Y13923D02*
X16462Y14104D01*
X17643*
X18217Y13530*
X16304Y12271D02*
X16239D01*
X16146Y12178*
X15648*
X16761Y10795D02*
Y11069D01*
X16653Y11177*
Y12807*
X16281Y13179*
Y13923*
X16768Y3872D02*
X16483D01*
X16472Y3883*
X16006*
X17096Y2991D02*
X16769Y2664D01*
Y2278*
X17428Y5193D02*
X17539D01*
X18380Y4352*
Y3895*
X17554D02*
X17268D01*
X17244Y3872*
X16768*
X17614Y3206D02*
Y3530D01*
X17554Y3591*
Y3895*
X17614Y3206D02*
X17311D01*
X17096Y2991*
X17988Y2419D02*
X18788D01*
X18932Y2274*
X18362Y3206D02*
Y3551D01*
X18380Y3570*
Y3895*
X18932Y2274D02*
X19289D01*
X19299Y2264*
X19584*
G54D14*
X262Y15684D03*
X344Y3490D03*
X388Y10953D03*
X427Y5244D03*
X466Y7374D03*
X623Y14075D03*
X760Y5032D03*
X860Y12133D03*
X985Y10908D03*
X1026Y7369D03*
X1143Y12821D03*
X1201Y9590D03*
X1245Y15402D03*
X1286Y4639D03*
X1316Y5308D03*
X1337Y8009D03*
X1592Y3515D03*
X1768Y5960D03*
X1797Y6607D03*
X1945Y7487D03*
X1959Y5302D03*
X1960Y4645D03*
X2001Y9813D03*
X2044Y11794D03*
X2074Y3920D03*
X2086Y3492D03*
X2262Y8332D03*
X2310Y10681D03*
X2356Y5954D03*
X2394Y6631D03*
X2457Y15374D03*
X2500Y12945D03*
X2644Y5305D03*
X2648Y4658D03*
X2842Y3943D03*
X2865Y3486D03*
X2951Y5951D03*
X3005Y6631D03*
X3208Y14105D03*
X3321Y11888D03*
X3453Y1261D03*
X3456Y309D03*
Y793D03*
X3470Y6766D03*
Y8789D03*
X3477Y7281D03*
X3481Y3268D03*
Y8275D03*
X3486Y5763D03*
X3488Y1778D03*
X3490Y3764D03*
Y4778D03*
Y5276D03*
Y7769D03*
X3492Y2272D03*
X3494Y2748D03*
X3610Y10902D03*
X3611Y9733D03*
X3613Y13095D03*
X3910Y15508D03*
X4062Y363D03*
X4092Y9267D03*
X4125Y9704D03*
X4205Y14183D03*
X4422Y11903D03*
X4558Y10694D03*
X4592Y665D03*
X4848Y13100D03*
X5010Y5274D03*
X5021Y4271D03*
X5026Y4769D03*
X5031Y5778D03*
Y6783D03*
X5036Y3273D03*
X5037Y2773D03*
Y7283D03*
X5041Y3777D03*
X5046Y6259D03*
X5063Y2260D03*
Y7769D03*
X5065Y15391D03*
X5076Y8282D03*
X5549Y5006D03*
Y2440D03*
X5603Y9914D03*
X5628Y7189D03*
X5749Y15598D03*
X5812Y5723D03*
X5843Y3670D03*
X6023Y10783D03*
X6340Y8392D03*
X6508Y15161D03*
X6661Y7238D03*
X6815Y4839D03*
X7092Y10081D03*
X7139Y5742D03*
X7172Y2566D03*
X7203Y15651D03*
X7325Y10996D03*
X7343Y14056D03*
X7367Y3692D03*
X7624Y13819D03*
X7809Y7156D03*
X8048Y2723D03*
X8162Y3702D03*
X8243Y4753D03*
X8355Y6007D03*
X8361Y10823D03*
X8385Y11560D03*
X8620Y8126D03*
X8674Y516D03*
X9019Y7311D03*
X9045Y2476D03*
X9047Y4762D03*
X9215Y13274D03*
X10100Y11211D03*
X10300Y502D03*
X10348Y13492D03*
X10441Y978D03*
X10761Y546D03*
X10813Y4777D03*
X10903Y8061D03*
X11081Y4277D03*
X11240Y9341D03*
X11242Y3532D03*
X11275Y7482D03*
X11409Y8475D03*
X11432Y5281D03*
X11447Y5781D03*
X11694Y8924D03*
X11811Y8118D03*
X11830Y10429D03*
X11864Y11784D03*
X12201Y9444D03*
X12458Y12294D03*
Y10612D03*
X12550Y9452D03*
X12614Y3833D03*
Y5217D03*
X13012Y12655D03*
X13384Y12736D03*
X13610Y6333D03*
Y7887D03*
X13646Y12566D03*
X13907Y12724D03*
X14109Y9598D03*
X14405Y15397D03*
X14644Y9611D03*
X14759Y12748D03*
X15133Y9714D03*
X15248Y4218D03*
X15360Y15400D03*
X15460Y5495D03*
X15665Y3042D03*
X15735Y14419D03*
X16037Y6713D03*
X16089Y5194D03*
X16197Y11258D03*
X16227Y11733D03*
X16281Y13923D03*
X16331Y10986D03*
X16397Y11487D03*
Y11981D03*
X16489Y5707D03*
X16668Y15500D03*
X16716Y3238D03*
X16751Y13094D03*
X16761Y10795D03*
X17078Y741D03*
X17096Y2991D03*
X17278Y8158D03*
X17428Y5193D03*
X17475Y11415D03*
Y11970D03*
X17479Y12521D03*
X17559Y9427D03*
X17899Y5967D03*
X17952Y15349D03*
X18021Y11424D03*
X18026Y11975D03*
Y12517D03*
X18217Y13530D03*
X18289Y7229D03*
X18476Y8139D03*
X18568Y12530D03*
X18577Y11415D03*
Y11975D03*
X18583Y1246D03*
X18591Y1923D03*
X18703Y14246D03*
X18877Y5003D03*
X18918Y4086D03*
X18932Y2274D03*
X18964Y15433D03*
X19011Y3210D03*
X19227Y5578D03*
X19275Y4918D03*
X19333Y7031D03*
X19508Y3464D03*
X19549Y11497D03*
X19710Y7451D03*
X19783Y6410D03*
X19825Y612D03*
X19976Y15128D03*
X19983Y14462D03*
X19992Y15680D03*
X20261Y11777D03*
X20266Y11120D03*
X20707Y622D03*
X20740Y11788D03*
X21021Y11123D03*
X21192Y12100D03*
X21390Y13032D03*
X21404Y625D03*
X21470Y12530D03*
X21599Y11351D03*
X21971Y11724D03*
X22154Y4143D03*
X22169Y5091D03*
X22233Y3067D03*
X22268Y12054D03*
X22306Y12507D03*
G54D15*
X12509Y14142D03*
Y14575D03*
X13060Y14142D03*
Y14575D03*
G54D16*
X5994Y9913D03*
X6388D03*
X10346Y12577D03*
X10739D03*
X16307Y9555D03*
X16701D03*
G54D17*
X13823Y1660D03*
X14079D03*
X14335D03*
X14590D03*
X14846D03*
G54D18*
X13272Y1557D03*
X15398D03*
G54D19*
X13163Y612D03*
X15508D03*
G54D20*
X16006Y3883D03*
Y4434D03*
X16768Y3872D03*
Y4423D03*
X16769Y1727D03*
Y2278D03*
X19584Y2264D03*
Y2816D03*
X20702Y2253D03*
Y2804D03*
X21411Y2253D03*
Y2804D03*
G54D21*
X12006Y8930D03*
Y13260D03*
X12203Y8930D03*
Y13260D03*
X12400Y8930D03*
Y13260D03*
X12597Y8930D03*
Y13260D03*
X12794Y8930D03*
Y13260D03*
X12991Y8930D03*
Y13260D03*
X13188Y8930D03*
Y13260D03*
X13384Y8930D03*
Y13260D03*
X13581Y8930D03*
Y13260D03*
X13778Y8930D03*
Y13260D03*
X13975Y8930D03*
Y13260D03*
X14172Y8930D03*
Y13260D03*
X14369Y8930D03*
Y13260D03*
X14566Y8930D03*
Y13260D03*
X14762Y8930D03*
Y13260D03*
X14959Y8930D03*
Y13260D03*
G54D22*
X11317Y9619D03*
Y9815D03*
Y10012D03*
Y10209D03*
Y10406D03*
Y10603D03*
Y10800D03*
Y10996D03*
Y11193D03*
Y11390D03*
Y11587D03*
Y11784D03*
Y11981D03*
Y12178D03*
Y12374D03*
Y12571D03*
X15648Y9619D03*
Y9815D03*
Y10012D03*
Y10209D03*
Y10406D03*
Y10603D03*
Y10800D03*
Y10996D03*
Y11193D03*
Y11390D03*
Y11587D03*
Y11784D03*
Y11981D03*
Y12178D03*
Y12374D03*
Y12571D03*
G54D23*
X4466Y9915D03*
X5017D03*
X14351Y14096D03*
X14902D03*
X16388Y10146D03*
X16939D03*
G54D24*
X17554Y3895D03*
X18380D03*
G54D70*
X17614Y3206D03*
X17988Y2419D03*
X18362Y3206D03*
G54D71*
X11697Y13304D03*
Y13698D03*
X12058Y14578D03*
Y14971D03*
X13497Y14165D03*
Y14559D03*
X16304Y12271D03*
Y12664D03*
X16754Y13373D03*
Y13767D03*
M02*
