*
G04 Job   : H:\ZEROSERO7\PCB\STEALTH_DROP\PCB\PCB.pcb*
G04 User  : DESKTOP-D6MOGOB:alexis*
G04 Layer : EtchLayerTop.gdo*
G04 Date  : Wed Dec 27 12:59:54 2017*
G04 Mentor Graphics Example Gerber Output Definition*
%ICAS*%
%MOIN*%
%FSLAX24Y24*%
%OFA0.0000B0.0000*%
G90*
G74*
%AMVB_RECTANGLE*
21,1,$1,$2,0,0,$3*
%
%ADD10C,0.00000*%
%ADD12C,0.00591*%
%ADD15C,0.01181*%
%ADD16C,0.01378*%
%ADD14C,0.01575*%
%ADD17C,0.02362*%
%ADD13C,0.02756*%
%ADD11C,0.03937*%
%ADD32O,0.10969X0.03000*%
%ADD33O,0.03000X0.10969*%
%ADD39VB_RECTANGLE,0.00787X0.03150X0.00000*%
%ADD38VB_RECTANGLE,0.00787X0.03150X270.00000*%
%ADD37VB_RECTANGLE,0.01181X0.07874X90.00000*%
%ADD71VB_RECTANGLE,0.02362X0.03937X0.00000*%
%ADD35VB_RECTANGLE,0.02362X0.03937X90.00000*%
%ADD23VB_RECTANGLE,0.02756X0.01575X0.00000*%
%ADD36VB_RECTANGLE,0.02756X0.01575X270.00000*%
%ADD18VB_RECTANGLE,0.02953X0.02756X90.00000*%
%ADD34VB_RECTANGLE,0.03150X0.12205X0.00000*%
%ADD26VB_RECTANGLE,0.03150X0.12205X90.00000*%
%ADD40VB_RECTANGLE,0.03543X0.06299X0.00000*%
%ADD31VB_RECTANGLE,0.03937X0.02362X0.00000*%
%ADD20VB_RECTANGLE,0.03937X0.02362X90.00000*%
%ADD25VB_RECTANGLE,0.03937X0.03150X90.00000*%
%ADD70VB_RECTANGLE,0.03937X0.06299X180.00000*%
%ADD24VB_RECTANGLE,0.03937X0.07087X270.00000*%
%ADD30VB_RECTANGLE,0.04134X0.03937X270.00000*%
%ADD19VB_RECTANGLE,0.04724X0.02559X0.00000*%
%ADD28VB_RECTANGLE,0.07087X0.03150X180.00000*%
%ADD29VB_RECTANGLE,0.07087X0.05118X270.00000*%
%ADD72VB_RECTANGLE,0.07087X0.05512X270.00000*%
%ADD73VB_RECTANGLE,0.08661X0.04134X0.00000*%
%ADD22VB_RECTANGLE,0.11811X0.06299X90.00000*%
%ADD27VB_RECTANGLE,0.20866X0.07874X270.00000*%
%ADD21VB_RECTANGLE,0.21654X0.03937X90.00000*%
G01*
G36*
X118Y16230D02*
G02X148Y16260I30D01*
G01X258*
Y6650*
G03X317Y6591I59*
G01X1079*
G02X1109Y6562J29*
X1099Y6540I30*
G03X1075Y6483I55J57*
G01Y6070*
G03X1099Y6012I79*
G02X1109Y5991I20J21*
X1079Y5961I30*
G01X317*
G03X258Y5902J59*
G01Y5489*
G03X317Y5430I59*
G01X658*
Y4266*
G03X717Y4207I59*
G01X992*
G03X1051Y4266J59*
G01Y4423*
G03X992Y4482I59*
G01X717*
G03X658Y4423J59*
G01Y5430*
X1183*
G03X1242Y5489J59*
G01Y5902*
G03X1227Y5942I59*
G02X1220Y5961I22J19*
X1249Y5991I29*
G01X1547*
G03X1625Y6055J79*
G02X1654Y6079I29J5*
G01X2623*
G03X2635Y6080J197*
G01X2637*
X3641*
Y4777*
G03X3850Y4568I209*
G01X4646*
G03X4855Y4777J209*
X4646Y4986I209*
G01X3850*
G03X3641Y4777J209*
G01Y5277*
G03X3850Y5068I209*
G01X4646*
G03X4855Y5277J209*
X4646Y5486I209*
G01X3850*
G03X3641Y5277J209*
G01Y5777*
G03X3850Y5568I209*
G01X4646*
G03X4855Y5777J209*
X4646Y5986I209*
G01X3850*
G03X3641Y5777J209*
G01Y6080*
X3725*
G02X3739Y6076J30*
G03X3850Y6048I111J201*
G01X4646*
G03X4875Y6277J229*
X4646Y6505I229*
G01X3850*
G03X3739Y6477J228*
G02X3725Y6474I14J26*
G01X2624*
G03X2611Y6473J197*
G01X2610*
X1654*
G02X1625Y6497J30*
G03X1547Y6562I78J14*
G01X1249*
G02X1220Y6591J29*
X1227Y6611I29*
G03X1242Y6650I44J39*
G01Y7064*
G03X1183Y7123I59*
G01X317*
G03X258Y7064J59*
G01Y16260*
X459*
Y8734*
G03X734Y8459I275*
X1010Y8734J275*
X734Y9010I276*
X459Y8734J276*
G01Y16260*
X1131*
Y11268*
G03X1190Y11209I59*
G01X1702*
G03X1761Y11268J59*
G01Y11977*
G03X1702Y12036I59*
G01X1190*
G03X1131Y11977J59*
G01Y14162*
G03X1190Y14103I59*
G01X1702*
G03X1761Y14162J59*
G01Y14870*
G03X1702Y14929I59*
G01X1190*
G03X1131Y14870J59*
G01Y16260*
X3639*
Y8627*
G03X3641Y8612I59*
G01Y6777*
G03X3850Y6568I209*
G01X4646*
G03X4855Y6777J209*
X4646Y6986I209*
G01X3850*
G03X3641Y6777J209*
G01Y7277*
G03X3850Y7068I209*
G01X4646*
G03X4855Y7277J209*
X4646Y7486I209*
G01X3850*
G03X3641Y7277J209*
G01Y7777*
G03X3850Y7568I209*
G01X4646*
G03X4855Y7777J209*
X4646Y7986I209*
G01X3850*
G03X3641Y7777J209*
G01Y8277*
G03X3850Y8068I209*
G01X4646*
G03X4855Y8277J209*
X4646Y8486I209*
G01X3850*
G03X3641Y8277J209*
G01Y8612*
G03X3698Y8568I57J15*
G01X4744*
G03X4804Y8627J59*
G01Y9674*
G03X4744Y9733I60*
G01X4444*
G03X4385Y9674J59*
G01Y9015*
G02X4356Y8986I29*
G01X3698*
G03X3639Y8927J59*
G01Y16260*
X4885*
Y1029*
G03X5059Y823I209*
G01Y377*
G03X5118Y318I59*
G01X5276*
G03X5335Y377J59*
G01Y653*
G03X5276Y712I59*
G01X5118*
G03X5059Y653J59*
G01Y823*
G03X5094Y820I35J206*
X5304Y1029J209*
G01Y1826*
G03X5094Y2035I210*
X4885Y1826J209*
G01Y8727*
G03X5094Y8518I209*
X5304Y8727J209*
G01Y9524*
G03X5094Y9733I210*
X4885Y9524J209*
G01Y16260*
X8159*
Y15116*
G03X8219Y15057I60*
G01X8521*
Y13006*
G03X8580Y12947I59*
G01X8738*
G03X8797Y13006J59*
G01Y13282*
G03X8738Y13341I59*
G01X8580*
G03X8521Y13282J59*
G01Y15057*
X8525*
Y13557*
G03X8584Y13498I59*
G01X8742*
G03X8801Y13557J59*
G01Y13833*
G03X8742Y13892I59*
G01X8584*
G03X8525Y13833J59*
G01Y15057*
X10334*
G03X10393Y15116J59*
G01Y15490*
G03X10392Y15503I59*
G02X10391Y15510I29J7*
X10421Y15540I30*
G01X11138*
G03X11197Y15599J59*
G01Y16078*
G03X11138Y16137I59*
G01X8234*
G03X8175Y16078J59*
G01Y15599*
G03X8183Y15569I59*
G02X8187Y15554I25J15*
X8178Y15533I29*
G03X8159Y15490I41J43*
G01Y16260*
X14844*
Y13254*
G03X14903Y13194I59*
G01X15044*
Y12814*
G03X15103Y12755I59*
G01X15379*
G03X15438Y12814J59*
G01Y12972*
G03X15379Y13031I59*
G01X15103*
G03X15044Y12972J59*
G01Y13194*
X15061*
G03X15120Y13254J60*
G01Y13529*
G03X15061Y13588I59*
G01X14903*
G03X14844Y13529J59*
G01Y16260*
X18360*
Y13817*
G03X18419Y13758I59*
G01X18694*
G03X18753Y13817J59*
G01Y13975*
G03X18694Y14034I59*
G01X18419*
G03X18360Y13975J59*
G01Y16260*
X19324*
Y14726*
G03X19383Y14666I59*
G01X19659*
G03X19718Y14726J60*
G01Y14883*
G03X19659Y14942I59*
G01X19383*
G03X19324Y14883J59*
G01Y16260*
X20157*
G02X20187Y16230J30*
G01Y14112*
G02X20157Y14082I30*
X20129Y14105J30*
G03X20052Y14166I77J18*
G01X19776*
G03X19733Y14153J79*
G02X19717Y14148I16J25*
X19701Y14153J30*
G03X19658Y14166I43J66*
G01X19639*
G02X19609Y14195J29*
G01Y14224*
G02X19639Y14253I30*
G01X19659*
G03X19738Y14332J79*
G01Y14489*
G03X19659Y14568I79*
G01X19383*
G03X19305Y14489J79*
G01Y14332*
G03X19383Y14253I78*
G01X19402*
G02X19432Y14224J29*
G01Y14195*
G02X19402Y14166I30*
G01X19383*
G03X19304Y14087J79*
G01Y13850*
G02X19295Y13830I30*
G01X19231Y13766*
G03X19206Y13703I63J63*
G01Y13480*
G02X19176Y13451I30*
X19155Y13460J29*
G01X19029Y13586*
G03X18945Y13620I84J84*
G01X18778*
G02X18755Y13631J30*
G03X18694Y13660I61J50*
G01X18419*
G03X18393Y13655J79*
G02X18383Y13654I10J28*
X18361Y13663J29*
G03X18217Y13727I144J133*
X18020Y13530J197*
X18072Y13396I197*
G02X18080Y13376I22J20*
X18054Y13347I30*
G03X18051I9J78*
X18034Y13342I12J78*
G02X18023Y13340I11J27*
X18012Y13342J29*
G03X17984Y13347I28J73*
G01X17905*
G03X17876Y13342J78*
G02X17866Y13340I10J27*
X17855Y13342J29*
G03X17826Y13347I29J73*
G01X17748*
G03X17701Y13332J78*
G02X17684Y13326I17J24*
X17679Y13327J30*
G03X17669Y13328I10J58*
G01X17636*
G02X17606Y13357J29*
X17615Y13378I30*
G01X17641Y13405*
G03X17666Y13452I62J62*
G02X17695Y13477I29J5*
G01X17717*
G03X17790Y13528J79*
G02X17815Y13546I28J11*
G03X17868Y13572I10J88*
G01X18120Y13824*
G03X18146Y13887I63J63*
G01Y14038*
G02X18176Y14067I30*
G01X18195*
G03X18274Y14146J79*
G01Y14304*
G03X18195Y14382I79*
G01X17920*
G03X17841Y14304J78*
G01Y14146*
G03X17920Y14067I79*
G01X17939*
G02X17969Y14038J29*
G01Y13936*
G02X17960Y13915I30*
G01X17814Y13769*
G02X17793Y13760I21J21*
X17772Y13769J30*
G03X17717Y13792I55J56*
G01X17441*
G03X17435J79*
G02X17433I2J29*
X17403Y13821J29*
G01Y13861*
G02X17433Y13891I30*
X17435J30*
G03X17441Y13890I6J58*
G01X17717*
G03X17776Y13949J59*
G01Y14107*
G03X17717Y14166I59*
G01X17441*
G03X17435J59*
G02X17433I2J29*
X17403Y14195J29*
G01Y14230*
G03X17377Y14293I88*
G01X17374Y14296*
G02X17366Y14317I21J21*
X17395Y14346I29*
G01X17615*
G03X17694Y14425J79*
G01Y14504*
G02X17723Y14533I29*
G01X17741*
G02X17748Y14532J29*
G03X17769Y14530I21J86*
G01X17819*
G02X17846Y14511J30*
G03X17920Y14461I74J29*
G01X18195*
G03X18274Y14540J79*
G01Y14697*
G03X18195Y14776I79*
G01X17920*
G03X17846Y14726J79*
G02X17819Y14707I27J11*
G01X17794*
G02X17787Y14708J30*
G03X17766Y14710I21J86*
G01X17723*
G02X17694Y14740J30*
G01Y14819*
G03X17615Y14897I79*
G01X17379*
G03X17300Y14819J78*
G01Y14671*
G02X17271Y14641I29*
X17250Y14650J30*
G01X17215Y14684*
G03X17167Y14709I63J62*
G02X17143Y14738I5J29*
G01Y14819*
G03X17064Y14897I79*
G01X16828*
G03X16749Y14819J78*
G01Y14425*
G03X16828Y14346I79*
G01X17064*
G03X17084Y14349J79*
G02X17091Y14350I7J29*
X17121Y14324J30*
G03X17146Y14274I87J12*
G01X17204Y14215*
G02X17213Y14194I21J21*
X17183Y14165I30*
G01X16924*
G03X16865Y14106J59*
G01Y13948*
G03X16924Y13889I59*
G01X17196*
G02X17226Y13860J29*
G01Y13820*
G02X17196Y13791I30*
G01X16924*
G03X16879Y13777J79*
G02X16862Y13771I17J24*
G01X16642*
G02X16621Y13780J30*
G01X16562Y13839*
G03X16547Y13852I98J97*
G02X16543Y13855I17J24*
G01X16486Y13912*
G02X16477Y13932I21J21*
G03X16281Y14120I196J9*
X16084Y13923J197*
X16272Y13726I197*
G02X16291Y13718I2J29*
G01X16364Y13644*
G03X16380Y13631I98J98*
G02X16383Y13628I18J23*
G01X16475Y13536*
G03X16573Y13496I98J97*
G01X16862*
G02X16879Y13490J30*
G03X16918Y13476I45J65*
G02X16945Y13451I3J29*
G03X16978Y13383I117J15*
G01X17030Y13330*
G02X17039Y13309I21J21*
G01Y12983*
G02X17009Y12954I30*
G01X16998*
G02X16969Y12978J29*
G03X16949Y13021I87J14*
G02X16942Y13040I22J19*
X16943Y13047I29*
G03X16948Y13094I192J47*
X16751Y13290I197*
X16568Y13165J196*
G02X16541Y13147I27J11*
X16520Y13155J29*
G01X16512Y13163*
G03X16450Y13189I62J63*
G01X16409*
G02X16380Y13218J29*
G01Y13228*
G03X16301Y13307I79*
G01X16183*
G02X16153Y13336J29*
G01Y13395*
G03X16065Y13484I88*
G01X15584*
G03X15568Y13483J89*
G02X15563Y13482I5J29*
X15533Y13512J30*
G01Y13529*
G03X15454Y13608I79*
G01X15297*
G03X15218Y13529J79*
G01Y13254*
G03X15297Y13175I79*
G01X15454*
G03X15533Y13254J79*
G01Y13273*
G02X15563Y13303I30*
G01X15580*
G03X15604Y13306J88*
G02X15611Y13307I7J29*
G01X15732*
G02X15761Y13277J30*
X15758Y13264I29*
G03X15750Y13228I70J36*
G01Y12972*
G03X15768Y12922I78*
G02X15774Y12903I23J19*
X15768Y12885I29*
G03X15750Y12834I60J51*
G01Y12825*
G02X15720Y12795I30*
G01X15711*
G03X15648Y12769J88*
G01X15493Y12613*
G02X15472Y12605I21J21*
X15446Y12619J29*
G03X15379Y12657I67J41*
G01X15103*
G03X15025Y12578J79*
G01Y12473*
G02X14995Y12443I30*
X14974Y12452J30*
G01X14877Y12549*
G02X14868Y12570I21J21*
X14880Y12593I30*
G03X14956Y12748I121J155*
X14759Y12945I197*
X14562Y12748J197*
X14570Y12692I197*
G02X14571Y12684I28J8*
X14542Y12655I29*
X14521Y12663J29*
G01X14397Y12787*
G03X14335Y12813I62J63*
G01X14100*
G02X14075Y12827J29*
G03X13907Y12921I168J103*
X13719Y12780J197*
G02X13690Y12759I29J9*
X13684Y12760J30*
G03X13646Y12763I38J194*
X13610Y12760J197*
G02X13604Y12759I6J29*
X13576Y12782J30*
G03X13384Y12933I192J46*
X13200Y12805J197*
G02X13172Y12785I28J10*
X13151Y12794J30*
G03X13012Y12852I139J139*
X12815Y12655J197*
X12909Y12487I197*
G02X12923Y12462I16J25*
G01Y12186*
G02X12893Y12157I30*
X12872Y12166J29*
G03X12870Y12168I99J95*
G01X12793Y12245*
G03X12695Y12286I98J97*
G01X12683*
G02X12654Y12312J29*
G03X12458Y12491I196J18*
X12325Y12440J197*
G02X12305Y12432I20J21*
G01X10883*
G03X10785Y12392J138*
G01X10451Y12058*
G02X10430Y12049I21J20*
G01X10323*
G03X10244Y11970J79*
G01Y11577*
G03X10323Y11498I79*
G01X10559*
G03X10638Y11577J79*
G01Y11842*
G02X10646Y11863I29*
G01X10883Y12100*
Y10916*
G03X10942Y10857I59*
G01X11178*
G03X11237Y10916J59*
G01Y11310*
G03X11178Y11369I59*
G01X10942*
G03X10883Y11310J59*
G01Y12100*
X10931Y12148*
G02X10952Y12156I21J21*
G01X12305*
G02X12325Y12149J29*
G03X12342Y12135I133J145*
G02X12355Y12111I17J24*
X12353Y12100I30*
G01X12345Y12080*
G02X12317Y12061I28J10*
G01X12103*
G03X12025Y11982J79*
G01Y11968*
G02X11995Y11939I30*
X11978Y11944J29*
G03X11864Y11981I114J160*
X11667Y11784J197*
X11672Y11738I197*
G02X11673Y11731I28J7*
X11665Y11710I29*
G01X11549Y11594*
G03X11523Y11531I62J63*
G01Y11418*
G02X11493Y11389I30*
G03X11414Y11310J79*
G01Y10916*
G03X11493Y10837I79*
G01X11729*
G03X11808Y10916J79*
G01Y11310*
G03X11729Y11389I79*
G02X11700Y11418J29*
G01Y11483*
G02X11709Y11503I29*
G01X11790Y11585*
G02X11811Y11593I21J21*
X11818Y11592J29*
G03X11864Y11587I46J192*
X11978Y11624J197*
G02X11995Y11629I17J25*
X12025Y11599J30*
G01Y11588*
G03X12103Y11510I78*
G01X12339*
G03X12418Y11588J78*
G01Y11982*
G03X12403Y12028I79*
G02X12397Y12046I24J18*
X12399Y12056I30*
G01X12408Y12079*
G02X12436Y12098I28J10*
X12438J29*
G03X12449Y12097I20J196*
G02X12468Y12089I2J29*
G01X12507Y12050*
G03X12557Y12018I97J98*
G02X12576Y11991I10J27*
Y11988I29*
G03Y11982I78J6*
G01Y11588*
G03X12654Y11510I78*
G01X12891*
X12893*
G02X12923Y11480J30*
G01Y10210*
G02X12893Y10181I30*
X12873Y10189J29*
G01X12807Y10255*
G02X12798Y10276I21J21*
G01Y10409*
G03X12758Y10507I138*
G01X12664Y10601*
G02X12655Y10621I20J21*
G03X12458Y10808I197J9*
X12261Y10612J196*
X12449Y10415I197*
G02X12469Y10406I1J30*
G01X12514Y10361*
G02X12523Y10340I21J21*
G01Y10206*
G03X12563Y10109I137*
G01X12697Y9975*
G02X12706Y9954I20J21*
G01Y9640*
G02X12677Y9610I29*
X12660Y9615J30*
G03X12550Y9649I110J163*
X12395Y9573J197*
G02X12372Y9562I23J18*
X12350Y9572J29*
G03X12304Y9611I149J128*
G02X12290Y9636I15J25*
X12319Y9666I29*
G01X12321*
G03X12399Y9744J78*
G01Y10138*
G03X12321Y10217I78*
G01X12084*
G03X12006Y10138J79*
G01Y9744*
G03X12082Y9666I78*
G02X12111Y9636J30*
X12097Y9611I29*
G03X12004Y9444I104J167*
X12095Y9278I197*
G02X12109Y9253I16J25*
X12079Y9223I30*
G01X11448*
G02X11419Y9253J30*
X11421Y9264I29*
G03X11437Y9341I181J77*
X11240Y9538I197*
X11194Y9533J197*
G02X11187Y9532I7J28*
X11166Y9540J29*
G01X10111Y10596*
G03X10048Y10622I63J63*
G01X6964*
G02X6943Y10630J29*
G01X6159Y11414*
G02X6151Y11435I21J21*
X6180Y11465I29*
G01X6348*
G03X6423Y11521J79*
G02X6451Y11542I28J9*
X6469Y11536J30*
G03X6505Y11524I36J47*
G01X7056*
G03X7115Y11583J59*
G01Y12262*
G02X7145Y12292I30*
G01X7178*
G02X7199Y12283J30*
G01X8766Y10716*
G03X8828Y10690I62J63*
G01X10269*
G02X10290Y10681J30*
G01X10604Y10367*
G03X10667Y10341I63J62*
G01X11637*
G02X11662Y10327J30*
G03X11737Y10256I168J102*
G02X11752Y10230I14J26*
X11751Y10223I29*
G01X11750Y10220*
G02X11722Y10197I28J7*
G01X11533*
G03X11474Y10138J59*
G01Y9744*
G03X11533Y9685I59*
G01X11769*
G03X11829Y9744J59*
G01Y10138*
G03X11814Y10177I60*
G02X11806Y10197I22J20*
X11807Y10204I30*
G01X11809Y10210*
G02X11837Y10233I28J7*
G03X12027Y10429I7J196*
X11830Y10626I197*
X11662Y10532J197*
G02X11637Y10518I25J15*
G01X10716*
G02X10695Y10527J29*
G01X10381Y10841*
G03X10318Y10867I63J62*
G01X8877*
G02X8856Y10876J30*
G01X7290Y12443*
G03X7227Y12469I63J63*
G01X6456*
G03X6441Y12467J89*
G02X6436I5J30*
X6407Y12497J30*
G01Y12725*
G03X6399Y12753I59*
G02X6396Y12767I26J14*
X6404Y12788I29*
G03X6426Y12843I56J55*
G01Y12882*
G02X6456Y12912I30*
G01X7678*
G02X7699Y12903J30*
G01X8891Y11711*
G03X8954Y11685I63J62*
G01X9663*
G02X9693Y11655J30*
G01Y11577*
G03X9772Y11498I79*
G02X9801Y11468J30*
G01Y11421*
G03X9827Y11359I89*
G01X9901Y11285*
G02X9909Y11264I21J21*
Y11257I29*
G03X9903Y11211I191J46*
X10100Y11014I197*
X10297Y11211J197*
X10100Y11408I197*
X10054Y11403J197*
G02X10047Y11402I7J28*
X10026Y11410J29*
G01X9989Y11447*
G02X9980Y11468I21J21*
X10009Y11498I30*
G03X10087Y11577I1J79*
G01Y11970*
G03X10008Y12049I79*
G01X9772*
G03X9693Y11970J79*
G01Y11891*
G02X9663Y11862I30*
G01X9003*
G02X8982Y11871J29*
G01X7896Y12956*
G02X7888Y12977I21J21*
X7917Y13006I29*
G01X8083*
G02X8111Y12985J29*
G03X8187Y12928I76J21*
G01X8344*
G03X8423Y13006J78*
G01Y13282*
G03X8344Y13361I79*
G01X8187*
G03X8111Y13304J79*
G02X8083Y13282I28J8*
G01X7889*
G02X7868Y13291J30*
G01X7827Y13332*
G02X7818Y13353I21J21*
X7827Y13374I30*
G01X8002Y13549*
G02X8023Y13557I21J21*
G01X8086*
G02X8115Y13536J29*
G03X8190Y13479I75J21*
G01X8348*
G03X8427Y13557J78*
G01Y13833*
G03X8348Y13912I79*
G01X8190*
G03X8115Y13854J79*
G02X8086Y13833I29J8*
G01X7953*
G03X7869Y13804J138*
G02X7850Y13797I19J23*
X7821Y13826J30*
G03X7624Y14016I197J7*
X7576Y14010J197*
G02X7569Y14009I7J29*
X7540Y14039J30*
Y14041I29*
G03Y14056I197J15*
X7343Y14252I197*
X7175Y14158J196*
G02X7150Y14144I25J16*
G01X7145*
G02X7115Y14174J30*
G01Y14851*
G03X7056Y14910I59*
G01X6576*
G02X6546Y14938J29*
G01Y14944*
Y14946*
G02X6567Y14974I30*
G03X6705Y15161I59J187*
X6508Y15358I197*
X6340Y15264J197*
G02X6315Y15250I25J16*
G01X6176*
G03X6114Y15224J89*
G01X5931Y15041*
G03X5906Y14993I62J62*
G02X5877Y14969I29J5*
G01X5639*
G03X5560Y14890J79*
G01Y14575*
G03X5573Y14532I79*
G02X5578Y14516I25J16*
X5573Y14500I30*
G03X5560Y14457I66J43*
G01Y14142*
G03X5573Y14099I79*
G02X5578Y14083I25J16*
X5573Y14067I30*
G03X5560Y14024I66J43*
G01Y13709*
G03X5573Y13666I79*
G02X5578Y13650I25J16*
X5573Y13634I30*
G03X5561Y13598I66J43*
G02X5531Y13571I30J3*
G01X5444*
G03X5347Y13531J138*
G01X5252Y13436*
G03X5212Y13338I97J98*
G01Y11323*
G03X5252Y11225I137*
G01X5456Y11021*
G02X5465Y11000I21J21*
G01Y10067*
G02X5457Y10047I30*
G03X5406Y9914I146J133*
X5450Y9790I197*
G02X5457Y9771I23J19*
G01Y9721*
G02X5446Y9699I30*
G03X5366Y9524I148J175*
G01Y1029*
G03X5446Y855I228*
G02X5457Y832I19J23*
G01Y823*
G02X5456Y816I30*
G03X5453Y799I135J29*
Y787I138J12*
G01Y715*
G02X5447Y698I30*
G03X5433Y653I65J45*
G01Y377*
G03X5512Y298I79*
G01X5669*
G03X5745Y356J79*
G02X5771Y378I29J8*
G03X5775I13J137*
G02X5779I4J29*
G01X8522*
G02X8542Y371J29*
G03X8674Y319I132J145*
X8806Y369J197*
G02X8825Y377I19J22*
G01X8918*
G02X8946Y355J30*
G03X9022Y298I76J22*
G01X9180*
G03X9258Y377J79*
G01Y653*
G03X9244Y698I78*
G02X9239Y715I24J17*
G01Y784*
G03X9233Y822I138*
G02X9232Y830I29J8*
G01Y832*
G02X9243Y855I30*
G03X9323Y1029I149J174*
G01Y1826*
G03X9094Y2055I229*
X8873Y1883J229*
G02X8844Y1861I29J8*
X8816Y1883J30*
G03X8594Y2055I222J57*
X8373Y1883J229*
G02X8344Y1861I29J8*
X8316Y1883J30*
G03X8094Y2055I222J57*
X7873Y1883J229*
G02X7844Y1861I29J8*
X7816Y1883J30*
G03X7594Y2055I222J57*
X7373Y1883J229*
G02X7344Y1861I29J8*
X7316Y1883J30*
G03X7094Y2055I222J57*
X6873Y1883J229*
G02X6844Y1861I29J8*
X6816Y1883J30*
G03X6594Y2055I222J57*
X6373Y1883J229*
G02X6344Y1861I29J8*
X6316Y1883J30*
G03X6094Y2055I222J57*
X5873Y1883J229*
G02X5844Y1861I29J8*
X5816Y1883J30*
G03X5594Y2055I222J57*
X5366Y1826J229*
G01Y8727*
G03X5594Y8499I228*
X5816Y8670J228*
G02X5844Y8692I28J7*
X5873Y8670J29*
G03X6094Y8499I221J57*
X6316Y8670J228*
G02X6344Y8692I28J7*
X6373Y8670J29*
G03X6594Y8499I221J57*
X6816Y8670J228*
G02X6844Y8692I28J7*
X6873Y8670J29*
G03X7094Y8499I221J57*
X7316Y8670J228*
G02X7344Y8692I28J7*
X7373Y8670J29*
G03X7594Y8499I221J57*
X7816Y8670J228*
G02X7844Y8692I28J7*
X7873Y8670J29*
G03X8094Y8499I221J57*
X8316Y8670J228*
G02X8344Y8692I28J7*
X8373Y8670J29*
G03X8594Y8499I221J57*
X8816Y8670J228*
G02X8844Y8692I28J7*
X8873Y8670J29*
G03X9094Y8499I221J57*
X9313Y8659J228*
G01Y8277*
G03X9484Y8055I228*
G02X9506Y8027I8J28*
X9484Y7998I30*
G03X9313Y7777I57J221*
X9484Y7555I228*
G02X9506Y7527I8J28*
X9484Y7498I30*
G03X9313Y7277I57J221*
X9484Y7055I228*
G02X9506Y7027I8J28*
X9484Y6998I30*
G03X9313Y6777I57J221*
X9484Y6555I228*
G02X9506Y6527I8J28*
X9484Y6498I30*
G03X9313Y6277I57J221*
X9484Y6055I228*
G02X9506Y6027I8J28*
X9484Y5998I30*
G03X9313Y5777I57J221*
X9484Y5555I228*
G02X9506Y5527I8J28*
X9484Y5498I30*
G03X9313Y5277I57J221*
X9484Y5055I228*
G02X9506Y5027I8J28*
X9484Y4998I30*
G03X9313Y4777I57J221*
X9484Y4555I228*
G02X9506Y4527I8J28*
X9484Y4498I30*
G03X9313Y4277I57J221*
X9484Y4055I228*
G02X9506Y4027I8J28*
X9484Y3998I30*
G03X9313Y3777I57J221*
X9484Y3555I228*
G02X9506Y3527I8J28*
X9484Y3498I30*
G03X9313Y3277I57J221*
X9484Y3055I228*
G02X9506Y3027I8J28*
X9484Y2998I30*
G03X9313Y2777I57J221*
X9484Y2555I228*
G02X9506Y2527I8J28*
X9484Y2498I30*
G03X9313Y2277I57J221*
X9357Y2142I228*
G01Y377*
G03X9416Y318I59*
G01X9573*
G03X9632Y377J59*
G01Y653*
G03X9573Y712I59*
G01X9416*
G03X9357Y653J59*
G01Y2142*
G03X9385Y2109I184J135*
G01Y880*
G03X9444Y821I59*
G01X9744*
G03X9804Y880J59*
G01Y1538*
G02X9833Y1568I29*
G01X10245*
Y978*
G03X10441Y781I196*
X10609Y875J197*
G02X10635Y889I26J15*
G01X10980*
G02X11009Y860J29*
G01Y368*
G03X11088Y289I79*
G01X11403*
G03X11478Y343J79*
G02X11506Y364I28J9*
X11533Y345J30*
G03X11588Y309I55J23*
G01X11903*
G03X11962Y368J59*
G01Y1588*
G03X11903Y1647I59*
G01X11588*
G03X11533Y1610J59*
G02X11506Y1592I27J11*
X11478Y1612J29*
G03X11403Y1667I75J24*
G01X11088*
G03X11009Y1588J79*
G01Y1096*
G02X10980Y1066I29*
G01X10635*
G02X10609Y1081J30*
G03X10441Y1175I168J103*
X10245Y978J197*
G01Y1568*
X10491*
G03X10550Y1627J59*
G01Y1927*
G03X10491Y1986I59*
G01X9444*
G03X9385Y1927J59*
G01Y2109*
G03X9541Y2048I156J168*
G01X10338*
G03X10567Y2277J229*
X10396Y2498I229*
G02X10373Y2527I7J29*
X10396Y2555I30*
G03X10567Y2777I58J222*
X10396Y2998I229*
G02X10373Y3027I7J29*
X10396Y3055I30*
G03X10567Y3277I58J222*
X10396Y3498I229*
G02X10373Y3527I7J29*
X10396Y3555I30*
G03X10567Y3777I58J222*
X10396Y3998I229*
G02X10373Y4027I7J29*
X10396Y4055I30*
G03X10542Y4172I58J222*
G02X10568Y4188I26J13*
G01X10888*
G02X10913Y4174J29*
G03X11081Y4080I168J103*
X11278Y4277J197*
X11081Y4474I197*
X10913Y4379J197*
G02X10888Y4365I25J16*
G01X10568*
G02X10542Y4381J30*
G03X10396Y4498I204J104*
G02X10373Y4527I7J29*
X10396Y4555I30*
G03X10542Y4672I58J222*
G02X10568Y4688I26J13*
G01X10619*
G02X10645Y4674J29*
G03X10813Y4580I168J103*
X11009Y4777J197*
X10813Y4974I196*
X10645Y4879J197*
G02X10619Y4865I26J16*
G01X10568*
G02X10542Y4881J30*
G03X10396Y4998I204J104*
G02X10373Y5027I7J29*
X10396Y5055I30*
G03X10542Y5172I58J222*
G02X10568Y5188I26J13*
G01X10899*
G03X10922Y5191J89*
G02X10930Y5192I8J28*
G01X11239*
G02X11264Y5178J29*
G03X11432Y5084I168J103*
X11602Y5182J197*
G02X11627Y5196I25J15*
X11657Y5167J29*
G01Y3295*
G02X11627Y3265I30*
G01X11588*
G03X11521Y3227J78*
G02X11495Y3213I26J16*
X11470Y3227J30*
G03X11403Y3265I67J40*
G01X11363*
G02X11334Y3295J30*
G01Y3322*
G03X11333Y3335I89*
G02Y3340I29J5*
X11346Y3365I29*
G03X11439Y3532I104J167*
X11242Y3729I197*
X11045Y3532J197*
X11139Y3364I197*
G02X11154Y3339I15J25*
G01Y3325*
G03X11156Y3305I88*
G02X11157Y3298I29J7*
G01Y3295*
G02X11127Y3265I30*
G01X11088*
G03X11009Y3187J78*
G01Y1966*
G03X11088Y1887I79*
G01X11403*
G03X11470Y1925J79*
G02X11495Y1939I25J15*
X11521Y1925J29*
G03X11588Y1887I67J41*
G01X11903*
G03X11970Y1925J79*
G02X11995Y1939I25J15*
X12021Y1925J29*
G03X12029Y1914I67J41*
G01Y368*
G03X12088Y309I59*
G01X12403*
G03X12457Y345J59*
G02X12485Y364I28J11*
X12513Y343J30*
G03X12588Y289I75J25*
G01X12903*
G03X12978Y343J79*
G02X13006Y364I28J9*
X13033Y345J30*
G03X13088Y309I55J23*
G01X13403*
G03X13462Y368J59*
G01Y1588*
G03X13403Y1647I59*
G01X13088*
G03X13033Y1610J59*
G02X13006Y1592I27J11*
X12978Y1612J29*
G03X12903Y1667I75J24*
G01X12588*
G03X12513Y1612J79*
G02X12485Y1592I28J9*
X12457Y1610J29*
G03X12403Y1647I54J22*
G01X12088*
G03X12029Y1588J59*
G01Y1914*
G03X12088Y1887I59J52*
G01X12403*
G03X12470Y1925J79*
G02X12495Y1939I25J15*
X12521Y1925J29*
G03X12588Y1887I67J41*
G01X12903*
G03X12970Y1925J79*
G02X12995Y1939I25J15*
X13021Y1925J29*
G03X13088Y1887I67J41*
G01X13403*
G03X13482Y1966J79*
G01Y3187*
G03X13403Y3265I79*
G01X13363*
G02X13334Y3295J30*
G01Y5919*
G02X13343Y5940I29*
G01X13536Y6134*
G02X13557Y6142I21J21*
X13564Y6141J29*
G03X13610Y6136I46J192*
X13807Y6333J197*
X13610Y6530I197*
X13413Y6333J197*
X13418Y6287I197*
G02X13419Y6280I28J7*
X13411Y6259I29*
G01X13183Y6031*
G03X13157Y5968I62J63*
G01Y3295*
G02X13127Y3265I30*
G01X13088*
G03X13021Y3227J78*
G02X12995Y3213I26J16*
X12970Y3227J30*
G03X12903Y3265I67J40*
G01X12588*
G03X12521Y3227J78*
G02X12495Y3213I26J16*
X12470Y3227J30*
G03X12403Y3265I67J40*
G01X12088*
G03X12021Y3227J78*
G02X11995Y3213I26J16*
X11970Y3227J30*
G03X11903Y3265I67J40*
G01X11863*
G02X11834Y3295J30*
G01Y7011*
G03X11808Y7073I89*
G01X11474Y7408*
G02X11465Y7428I21J20*
X11466Y7435I30*
G03X11471Y7482I191J47*
X11275Y7678I196*
X11078Y7482J196*
X11275Y7285I197*
X11321Y7290J197*
G02X11328Y7291I7J29*
X11349Y7282J30*
G01X11648Y6983*
G02X11657Y6962I21J21*
G01Y5917*
G02X11627Y5888I30*
X11604Y5900J29*
G03X11447Y5978I157J119*
X11279Y5884J197*
G02X11254Y5869I25J15*
G01X10910*
G03X10887Y5866J88*
G02X10879Y5865I8J29*
G01X10568*
G02X10542Y5881J30*
G03X10396Y5998I204J104*
G02X10373Y6027I7J29*
X10396Y6055I30*
G03X10567Y6277I58J222*
X10396Y6498I229*
G02X10373Y6527I7J29*
X10396Y6555I30*
G03X10567Y6777I58J222*
X10396Y6998I229*
G02X10373Y7027I7J29*
X10396Y7055I30*
G03X10567Y7277I58J222*
X10396Y7498I229*
G02X10373Y7527I7J29*
X10396Y7555I30*
G03X10567Y7777I58J222*
X10396Y7998I229*
G02X10373Y8027I7J29*
X10396Y8055I30*
G03X10567Y8277I58J222*
X10338Y8505I229*
G01X9541*
G03X9313Y8277J228*
G01Y8659*
G03X9323Y8727I219J68*
G01Y9524*
G03X9094Y9753I229*
X8873Y9582J229*
G02X8844Y9560I29J7*
X8816Y9582J29*
G03X8594Y9753I222J58*
X8373Y9582J229*
G02X8344Y9560I29J7*
X8316Y9582J29*
G03X8094Y9753I222J58*
X7873Y9582J229*
G02X7844Y9560I29J7*
X7816Y9582J29*
G01X7815Y9584*
G03X7733Y9706I221J60*
X7731Y9708I139J182*
X7728Y9710I137J184*
X7725Y9712I134J186*
X7714Y9720I131J188*
X7702Y9726I120J196*
X7688Y9733I108J202*
X7677Y9738I94J209*
X7646Y9747I83J214*
X7594Y9753I52J223*
X7373Y9582J229*
G02X7344Y9560I29J7*
X7316Y9582J29*
G03X7199Y9728I222J58*
G02X7183Y9754I14J26*
G01Y9872*
G03X7182Y9885I89*
G02Y9889I29J4*
X7196Y9914I29*
G03X7289Y10081I104J167*
X7258Y10186I197*
G02X7254Y10202I25J16*
X7283Y10232I29*
G01X9385*
Y8627*
G03X9444Y8568I59*
G01X10491*
G03X10550Y8627J59*
G01Y8927*
G03X10491Y8986I59*
G01X9833*
G02X9804Y9015J29*
G01Y9674*
G03X9744Y9733I60*
G01X9444*
G03X9385Y9674J59*
G01Y10232*
X9785*
G02X9806Y10223J30*
G01X10957Y9072*
G03X11020Y9046I63J63*
G01X11487*
G02X11517Y9016J30*
X11514Y9004I30*
G03X11497Y8924I180J80*
X11694Y8727I197*
X11827Y8778J197*
G02X11846Y8786I19J21*
G01X12582*
G03X12679Y8826J138*
G01X12941Y9088*
G03X12982Y9186I97J98*
G01Y9967*
G02X13011Y9996I29*
X13032Y9988J29*
G01X13513Y9507*
G02X13521Y9486I21J21*
G01Y8080*
G02X13507Y8054I29*
G03X13413Y7887I103J167*
X13610Y7690I197*
X13807Y7887J197*
X13713Y8054I197*
G02X13698Y8080I15J26*
G01Y9535*
G03X13672Y9598I88*
G01X13236Y10035*
G02X13227Y10056I21J21*
X13257Y10085I30*
G01X13605*
G03X13665Y10144J59*
G01Y10380*
G03X13605Y10440I60*
G01X13212*
G03X13157Y10403J60*
G02X13130Y10384I27J11*
X13100Y10414J30*
G01Y10625*
G02X13130Y10654I30*
X13152Y10644J29*
G03X13212Y10617I60J51*
G01X13605*
G03X13677Y10662J78*
G02X13704Y10680I27J12*
X13725Y10671J30*
G01X13849Y10547*
G02X13858Y10526I21J21*
G01Y10416*
G03X13884Y10353I88*
G01X13947Y10289*
G02X13956Y10268I20J21*
G01Y9934*
G03X14035Y9855I79*
G01X14350*
G03X14421Y9901J79*
G02X14448Y9918I27J13*
X14475Y9901J30*
G03X14547Y9855I72J33*
G01X14733*
G02X14754Y9846J30*
G01X14837Y9763*
G03X14912Y9725I97J98*
G02X14937Y9698I4J30*
G03X15124Y9518I196J16*
G02X15144Y9509I1J30*
G01X16178Y8475*
G02X16186Y8454I21J21*
G01Y8341*
G02X16178Y8321I29*
G01X15219Y7362*
G02X15198Y7354I21J21*
G01X12235*
G02X12214Y7362J29*
G01X11417Y8159*
G03X11320Y8199I97J98*
G01X11056*
G02X11036Y8207J30*
G03X10903Y8258I133J146*
X10707Y8061J197*
X10903Y7864I196*
X11036Y7916J197*
G02X11056Y7923I20J22*
G01X11251*
G02X11271Y7915J29*
G01X12068Y7118*
G03X12156Y7078I97J98*
G01Y4567*
G03X12432Y4292I276*
X12707Y4567J275*
X12432Y4843I275*
X12156Y4567J276*
G01Y7078*
G03X12165I9J138*
G01X15268*
G03X15365Y7118J138*
G01X16094Y7848*
Y1414*
G03X16173Y1335I79*
G01X16567*
G03X16646Y1414J79*
G02X16675Y1443I29*
G01X16712*
G02X16718J29*
G03X16734Y1441I16J87*
G01X16791*
G02X16820Y1412J29*
G03X16882Y1335I79*
G01Y741*
G03X17078Y544I196*
X17246Y638J197*
G02X17271Y652I25J15*
G01X17318*
X17319*
G03X17323I4J89*
G01X17342*
G02X17371Y623J29*
G01Y544*
G03X17450Y465I79*
G01X17686*
G03X17765Y544J79*
G01Y938*
G03X17686Y1016I79*
G01X17450*
G03X17371Y938J78*
G01Y859*
G02X17342Y829I29*
G01X17329*
X17327*
G03X17323I4J88*
G01X17271*
G02X17246Y844J30*
G03X17078Y938I168J103*
X16882Y741J197*
G01Y1335*
G03X16899Y1333I17J77*
G01X17293*
G03X17372Y1412J79*
G01Y1648*
G03X17293Y1727I79*
G01X16899*
G03X16820Y1648J79*
G02X16791Y1618I29*
G01X16754*
G02X16748Y1619J30*
G03X16732Y1620I16J87*
G01X16675*
G02X16646Y1650J30*
G03X16567Y1729I79*
G01X16173*
G03X16094Y1650J79*
G01Y7848*
X16114Y7867*
Y1965*
G03X16173Y1906I59*
G01X16567*
G03X16626Y1965J59*
G01Y2201*
G03X16567Y2260I59*
G01X16173*
G03X16114Y2201J59*
G01Y7867*
X16331Y8084*
Y5003*
G03X16390Y4944I59*
G01X16626*
G03X16685Y5003J59*
G01Y5397*
G03X16626Y5456I59*
G01X16390*
G03X16331Y5397J59*
G01Y8084*
X16422Y8175*
G03X16462Y8272I98J97*
G01Y8356*
G02X16491Y8386I29*
G01X16496*
Y7402*
G03X16575Y7323I79*
G02X16605Y7294J29*
G01Y7050*
G03X16631Y6987I88*
G01X16714Y6904*
G03X16776Y6878I62J62*
G01X16820*
Y2160*
G03X16899Y2081I79*
G01X17293*
G03X17372Y2160J79*
G01Y2396*
G03X17293Y2475I79*
G01X17263*
G02X17234Y2504J29*
G01Y2839*
G02X17242Y2859I29*
G03X17293Y2991I146J132*
X17096Y3188I197*
X16899Y2991J197*
X16951Y2859I197*
G02X16958Y2839I22J20*
G01Y2504*
G02X16929Y2475I29*
G01X16899*
G03X16820Y2396J79*
G01Y6878*
X16852*
G02X16882Y6848J30*
G03X16961Y6770I79*
G01X17354*
G03X17433Y6848J78*
G01Y7085*
G03X17354Y7163I79*
G01X16961*
G03X16882Y7085J78*
G02X16852Y7055I30*
G01X16825*
G02X16804Y7064J30*
G01X16790Y7078*
G02X16782Y7098I21J20*
G01Y7294*
G02X16811Y7323I29*
G03X16890Y7402J79*
G01Y7796*
G03X16811Y7875I79*
G01X16575*
G03X16496Y7796J79*
G01Y8386*
X17048*
Y7402*
G03X17126Y7323I78*
G01X17362*
G03X17441Y7402J79*
G01Y7446*
G02X17471Y7476I30*
X17492Y7467J30*
G01Y7466*
G03X17555Y7440I63J63*
G01X17569*
G02X17599Y7411J29*
G03X17677Y7332I78*
G01X17756*
G02X17786Y7303J29*
G01Y7292*
G03X17801Y7243I88*
G02X17806Y7226I25J17*
X17803Y7213I30*
G03X17795Y7188I79J40*
G02X17766Y7163I29J5*
G01X17685*
G03X17607Y7085J78*
G01Y6848*
G03X17685Y6770I78*
G01X18079*
G03X18158Y6848J78*
G01Y7027*
G02X18187Y7056I29*
X18201Y7053J29*
G03X18289Y7032I88J176*
X18486Y7229J197*
X18289Y7426I197*
X18194Y7401J197*
G02X18179Y7397I15J26*
X18150Y7427J30*
G01Y7647*
G03X18071Y7726I79*
G01X17677*
G03X17602Y7669J79*
G02X17574Y7648I28J8*
X17553Y7657J29*
G01X17548Y7662*
G03X17485Y7688I63J63*
G01X17471*
G02X17441Y7717J29*
G01Y7796*
G03X17362Y7875I79*
G01X17126*
G03X17048Y7796J79*
G01Y8386*
X17618*
Y7962*
G03X17677Y7903I59*
G01X18071*
G03X18130Y7962J59*
G01Y8198*
G03X18071Y8257I59*
G01X17677*
G03X17618Y8198J59*
G01Y8386*
X18592*
G02X18613Y8377J30*
G01X18843Y8147*
G02X18852Y8126I21J21*
X18843Y8105I30*
G01X18618Y7880*
G03X18578Y7783I98J97*
G01Y6839*
G02X18548Y6809I30*
G01X18538*
G03X18460Y6731J78*
G01Y6534*
G02X18430Y6504I30*
G01X18309*
G03X18301J88*
G02X18299I2J29*
G01X18187*
G02X18158Y6533J29*
G03X18079Y6612I79*
G01X17685*
G03X17607Y6533J79*
G02X17577Y6504I30*
G01X17463*
G02X17433Y6533J29*
G03X17354Y6612I79*
G01X16961*
G03X16882Y6533J79*
G01Y6297*
G03X16961Y6218I79*
G01X17354*
G03X17433Y6297J79*
G02X17463Y6327I30*
G01X17577*
G02X17607Y6297J30*
G03X17685Y6218I78*
G01X18079*
G03X18158Y6297J79*
G02X18187Y6327I29*
G01X18308*
G03X18316J88*
G02X18318I2J29*
G01X18430*
G02X18460Y6298J29*
G01Y6101*
G03X18538Y6022I78*
G01X18548*
G02X18578Y5992J30*
G01Y5774*
G02X18569Y5753I30*
G01X18556Y5740*
G02X18535Y5731I21J20*
G01X17677*
G03X17598Y5652J79*
G01Y5534*
G03X17603Y5505I79*
G02X17605Y5495I27J10*
X17603Y5484I29*
G03X17598Y5455I74J29*
G01Y5371*
G02X17568Y5341I30*
X17550Y5348J30*
G03X17428Y5390I122J155*
X17304Y5346J197*
G02X17285Y5339I19J23*
X17256Y5369J30*
G01Y5397*
G03X17177Y5476I79*
G01X16941*
G03X16862Y5397J79*
G01Y5003*
G03X16941Y4925I79*
G01X17177*
G03X17256Y5003J78*
G01Y5017*
G02X17285Y5047I29*
X17304Y5040J30*
G03X17354Y5011I124J153*
G02X17372Y4983I12J28*
X17363Y4963I30*
G01X17098Y4697*
G03X17074Y4650I63J62*
G02X17044Y4625I30J5*
G01X16964*
G03X16885Y4546J79*
G01Y3759*
G03X16964Y3680I79*
G01X17358*
G03X17436Y3759J79*
G02X17466Y3788I30*
G01X17564*
G02X17594Y3759J29*
G03X17673Y3680I79*
G01X17844*
Y2160*
G03X17872Y2099I79*
G02X17883Y2077I19J22*
X17876Y2058I30*
G03X17864Y2022I47J36*
G01Y1786*
G03X17876Y1749I59*
G02X17883Y1731I23J18*
X17872Y1708I30*
G03X17844Y1648I51J60*
G01Y1412*
G03X17923Y1333I79*
G01X18001*
G02X18031Y1303J30*
G01Y1046*
G02X18001Y1016I30*
G03X17923Y938J78*
G01Y544*
G03X18001Y465I78*
G01X18238*
G03X18316Y544J79*
G01Y938*
G03X18238Y1016I78*
G02X18208Y1046J30*
G01Y1303*
G02X18238Y1333I30*
G01X18317*
G03X18395Y1412J79*
G01Y1648*
G03X18367Y1708I78*
G02X18357Y1731I19J23*
X18363Y1749I29*
G03X18376Y1786I46J37*
G01Y2022*
G03X18363Y2058I59*
G02X18357Y2077I23J19*
X18367Y2099I29*
G03X18387Y2124I50J61*
G02X18413Y2140I26J13*
G01X18533*
G02X18539Y2139J29*
G03X18567Y2137I28J135*
G01X18780*
G02X18800Y2129J30*
G03X18850Y2096I132J145*
G01Y755*
G03X18909Y695I59*
G01X19539*
G03X19598Y755J60*
G01Y1936*
G03X19539Y1995I59*
G01X18909*
G03X18850Y1936J59*
G01Y2096*
G03X18932Y2078I82J178*
X19065Y2129J196*
G02X19085Y2137I20J22*
G01X19450*
G02X19470Y2129J30*
G03X19562Y2093I92J102*
G01X19922*
G02X19952Y2064J29*
G01Y1148*
G03X20031Y1070I79*
G01X20424*
G03X20503Y1148J78*
G01Y3314*
G03X20424Y3392I79*
G01X20031*
G03X19952Y3314J78*
G01Y2398*
G02X19922Y2369I30*
G01X19631*
G02X19612Y2376J29*
G03X19519Y2412I93J102*
G01X19085*
G02X19065Y2420J30*
G03X18932Y2471I133J146*
X18800Y2420J197*
G02X18780Y2412I20J22*
G01X18597*
G02X18591Y2413J30*
G03X18564Y2416I27J135*
G01X18413*
G02X18387Y2432J29*
G03X18317Y2475I70J36*
G01X17923*
G03X17844Y2396J79*
G01Y3680*
X18066*
G03X18145Y3759J79*
G01Y3995*
G03X18066Y4074I79*
G01X17673*
G03X17594Y3995J79*
G02X17564Y3966I30*
G01X17466*
G02X17436Y3995J29*
G03X17358Y4074I78*
G01X16964*
G03X16885Y3995J79*
G01Y4310*
G03X16964Y4231I79*
G01X17358*
G03X17436Y4310J79*
G01Y4546*
G03X17358Y4625I78*
G01X17348*
G02X17318Y4655J30*
X17327Y4675I30*
G01X17548Y4897*
G02X17569Y4905I21J21*
X17598Y4876J29*
Y4873I29*
G03Y4865I79J8*
G01Y4747*
G03X17645Y4674I79*
G02X17663Y4647I11J27*
X17644Y4620I29*
G03X17594Y4546I29J74*
G01Y4310*
G03X17673Y4231I79*
G01X18066*
G03X18145Y4310J79*
G01Y4546*
G03X18139Y4577I79*
G02X18136Y4589I27J12*
X18142Y4606I30*
G03X18158Y4643I72J52*
G02X18187Y4668I29J5*
G01X18464*
G03X18543Y4747J79*
G01Y4865*
G03X18541Y4879I79*
G02Y4884I29J5*
X18570Y4914I29*
G01X18684*
G02X18709Y4900J30*
G03X18877Y4806I168J103*
X19074Y5003J197*
X18877Y5199I197*
X18709Y5105J196*
G02X18684Y5091I25J16*
G01X18570*
G02X18541Y5121J30*
Y5126I29*
G03X18543Y5140I77J14*
G01Y5258*
G03X18537Y5287I79*
G02X18535Y5298I28J11*
X18537Y5309I30*
G03X18543Y5337I73J28*
G01Y5426*
G02X18572Y5455I29*
G01X18604*
G03X18702Y5496J138*
G01X18813Y5607*
G03X18853Y5704I97J97*
G01Y5992*
G02X18883Y6022I30*
G01X18893*
G03X18971Y6101J79*
G01Y6731*
G03X18893Y6809I78*
G01X18883*
G02X18853Y6839J30*
G01Y7713*
G02X18862Y7734I30*
G01X19107Y7979*
G02X19109Y7981I21J21*
G01Y6101*
G03X19168Y6042I59*
G01X19268*
Y3889*
G03X19328Y3830I60*
G01X19564*
G03X19623Y3889J59*
G01Y4282*
G03X19564Y4341I59*
G01X19328*
G03X19268Y4282J59*
G01Y6042*
X19523*
G03X19582Y6101J59*
G01Y6731*
G03X19523Y6790I59*
G01X19168*
G03X19109Y6731J59*
G01Y7981*
G02X19128Y7988I19J23*
G01X20045*
G02X20074Y7958J30*
X20067Y7939I29*
G03X20047Y7887I59J52*
G01Y5800*
G03X20060Y5757I79*
G02X20065Y5741I24J16*
X20036Y5711I29*
G01X19606*
G03X19547Y5652J59*
G01Y5534*
G03Y5524I59*
G02X19548Y5519I29J5*
X19542Y5502I30*
G03X19527Y5455I64J47*
G01Y5337*
G03X19532Y5309I79*
G02X19534Y5298I27J11*
X19532Y5287I29*
G03X19527Y5258I74J29*
G01Y5140*
G03X19532Y5112I79*
G02X19534Y5101I27J11*
X19532Y5090I29*
G03X19527Y5062I74J28*
G01Y4943*
G03X19532Y4915I79*
G02X19534Y4904I27J11*
X19532Y4893I29*
G03X19527Y4865I74J28*
G01Y4747*
G03X19606Y4668I79*
G01X19879*
G02X19908Y4638J30*
G01Y4391*
G02X19879Y4361I29*
G03X19800Y4282J79*
G01Y3889*
G03X19879Y3810I79*
G01X20115*
G03X20194Y3889J79*
G01Y4282*
G03X20115Y4361I79*
G02X20085Y4391J30*
G01Y4634*
G02X20086Y4640I30*
G03X20087Y4643I87J18*
G02X20116Y4668I29J5*
G01X20393*
G03X20472Y4747J79*
G01Y4816*
G02X20501Y4845I29*
X20522Y4837J29*
G01X20530Y4829*
G02X20538Y4808I21J21*
G01Y4641*
G02X20509Y4612I29*
G01X20430*
G03X20351Y4533J79*
G01Y4297*
G03X20371Y4245I79*
G01Y3745*
G03X20430Y3686I59*
G01X20759*
Y1148*
G03X20818Y1089I59*
G01X21212*
G03X21271Y1148J59*
G01Y3314*
G03X21212Y3373I59*
G01X20818*
G03X20759Y3314J59*
G01Y3686*
X20824*
G03X20883Y3745J59*
G01Y3982*
G03X20824Y4041I59*
G01X20430*
G03X20371Y3982J59*
G01Y4245*
G03X20430Y4218I59J52*
G01X20824*
G03X20902Y4297J79*
G02X20932Y4326I30*
G01X21045*
G02X21075Y4297J29*
G03X21094Y4245I78*
G01Y3745*
G03X21153Y3686I59*
G01X21547*
G03X21606Y3745J59*
G01Y3982*
G03X21547Y4041I59*
G01X21153*
G03X21094Y3982J59*
G01Y4245*
G03X21153Y4218I59J52*
G01X21547*
G03X21626Y4297J79*
G01Y4533*
G03X21547Y4612I79*
G01X21153*
G03X21075Y4533J79*
G02X21045Y4503I30*
G01X20932*
G02X20902Y4533J30*
G03X20824Y4612I78*
G01X20745*
G02X20715Y4641J29*
G01Y4857*
G03X20689Y4920I88*
G01X20588Y5021*
G02X20580Y5042I21J21*
X20609Y5071I29*
G01X21491*
G03X21582Y5109J128*
G01X21645Y5172*
Y755*
G03X21704Y695I59*
G01X22334*
G03X22393Y755J60*
G01Y1936*
G03X22334Y1995I59*
G01X21704*
G03X21645Y1936J59*
G01Y5172*
X21988Y5515*
G03X22026Y5606I90J91*
G01Y5692*
G02X22055Y5721I29*
G01X22291*
G03X22370Y5800J79*
G01Y7887*
G03X22291Y7966I79*
G01X21780*
G02X21751Y7995J29*
X21762Y8018I29*
G03X21773Y8028I86J108*
G01X21889Y8144*
G03X21929Y8242I98J98*
G01Y8266*
G02X21959Y8295I30*
G01X22402*
G03X22480Y8374J79*
G01Y8689*
G03X22426Y8764I78*
G02X22405Y8792I9J28*
X22424Y8819I30*
G03X22461Y8874I22J55*
G01Y9189*
G03X22402Y9248I59*
G01X21181*
G03X21154Y9241J59*
G02X21141Y9238I13J27*
X21111Y9268J30*
G01Y9295*
G02X21141Y9324I30*
X21154Y9321J29*
G03X21181Y9315I27J53*
G01X22402*
G03X22461Y9374J59*
G01Y9689*
G03X22424Y9743I59*
G02X22405Y9771I11J28*
X22426Y9799I30*
G03X22480Y9874I24J75*
G01Y10189*
G03X22426Y10264I78*
G02X22405Y10292I9J28*
X22424Y10319I30*
G03X22461Y10374I22J55*
G01Y10689*
G03X22402Y10748I59*
G01X21181*
G03X21150Y10739J59*
G02X21134Y10734I16J25*
X21106Y10754J30*
G03X21085Y10788I83J29*
G01X20957Y10917*
G03X20894Y10943I63J63*
G01X19993*
G02X19972Y10951J29*
G01X19600Y11323*
G03X19537Y11349I63J62*
G01X19431*
G02X19401Y11379J30*
G01Y11458*
G03X19396Y11486I79*
G02X19394Y11497I27J11*
X19396Y11508I29*
G03X19401Y11536I74J28*
G01Y11615*
G03X19396Y11644I79*
G02X19394Y11654I27J10*
X19396Y11665I29*
G03X19401Y11694I74J29*
G01Y11773*
G02X19431Y11802I30*
G01X19450*
G02X19475Y11788J29*
G03X19504Y11751I168J103*
G01X19957Y11299*
G03X20096Y11241I139J139*
G01X21080*
G03X21219Y11299J197*
G01X22006Y12085*
G03X22063Y12224I140J139*
G01Y12625*
G03X21997Y12772I197*
G02X21987Y12794I20J22*
X21997Y12816I30*
G03X22024Y12875I52J59*
G01Y12885*
G02X22029Y12902I29*
G03X22063Y13013I163J111*
G02X22093Y13042I30*
X22122Y13013J29*
G01Y12875*
G03X22181Y12816I59*
G01X22339*
G03X22398Y12875J59*
G01Y13151*
G03X22343Y13210I59*
G02X22315Y13239I2J29*
X22345Y13269I30*
G01X22530*
G02X22559Y13239J30*
G01Y148*
G02X22530Y118I29*
G01X3293*
G02X3263Y148J30*
G01Y3322*
X1273*
G02X1244Y3352J30*
X1253Y3373I29*
G03X1257Y3378I135J144*
G01X1951Y4071*
G02X1972Y4080I21J21*
G01X3639*
Y1627*
G03X3698Y1568I59*
G01X4356*
G02X4385Y1538J30*
G01Y880*
G03X4444Y821I59*
G01X4744*
G03X4804Y880J59*
G01Y1927*
G03X4744Y1986I60*
G01X3698*
G03X3639Y1927J59*
G01Y4080*
X3641*
Y2265*
G03X3850Y2056I209*
G01X4646*
G03X4855Y2265J209*
X4646Y2474I209*
G01X3850*
G03X3641Y2265J209*
G01Y2777*
G03X3850Y2568I209*
G01X4646*
G03X4855Y2777J209*
X4646Y2986I209*
G01X3850*
G03X3641Y2777J209*
G01Y3277*
G03X3850Y3068I209*
G01X4646*
G03X4855Y3277J209*
X4646Y3486I209*
G01X3850*
G03X3641Y3277J209*
G01Y3777*
G03X3850Y3568I209*
G01X4646*
G03X4855Y3777J209*
X4646Y3986I209*
G01X3850*
G03X3641Y3777J209*
G01Y4080*
X3725*
G02X3739Y4076J30*
G03X3850Y4048I111J201*
G01X4646*
G03X4875Y4277J229*
X4646Y4505I229*
G01X3850*
G03X3739Y4477J228*
G02X3725Y4474I14J26*
G01X1878*
G03X1739Y4416J197*
G01X1102Y3779*
G02X1081Y3770I21J21*
X1051Y3800J30*
G01Y3810*
G02X1057Y3827I30*
G03X1071Y3872I65J45*
G01Y4030*
G03X992Y4108I79*
G01X982*
G02X965Y4113J30*
G03X854Y4148I111J162*
X744Y4113J197*
G02X727Y4108I17J25*
G01X717*
G03X638Y4030J78*
G01Y3872*
G03X652Y3827I79*
G02X658Y3810I24J17*
G01Y3783*
G03Y3772I196*
G01Y3770*
Y3616*
G02X655Y3603I30*
G03X636Y3518I178J85*
X655Y3433I197*
G02X658Y3420I27J13*
G01Y3352*
G02X628Y3322I30*
G01X148*
G02X118Y3352J30*
G01Y16230*
X3698Y8627D02*
X4744D01*
Y9674*
X4444*
Y8927*
X3698*
Y8627*
X4744Y880D02*
Y1927D01*
X3698*
Y1627*
X4444*
Y880*
X4744*
X6874Y10438D02*
G03X6862Y10462I29D01*
G02X6853Y10471I53J71*
G01X5931Y11392*
G02X5906Y11440I62J63*
G03X5877Y11465I29J5*
G01X5639*
G02X5560Y11544J79*
G01Y11858*
G02X5573Y11901I79*
G03X5578Y11918I25J17*
X5573Y11934I30*
G02X5560Y11977I66J43*
G01Y12292*
G02X5583Y12346I79*
G03X5591Y12367I22J21*
X5587Y12381I30*
G02X5580Y12410I52J29*
G01Y12725*
G02X5587Y12753I59*
G03X5591Y12767I26J14*
X5583Y12788I30*
G02X5560Y12843I56J55*
G01Y13158*
G02X5573Y13201I79*
G03X5578Y13217I25J16*
X5573Y13233I30*
G02X5561Y13269I66J43*
G03X5531Y13295I30J3*
G01X5517*
G03X5487Y13266J29*
G01Y11392*
G03X5496Y11371I30*
G01X5700Y11167*
G02X5741Y11070I97J97*
G01Y10067*
G03X5748Y10047I29*
G02X5800Y9914I145J133*
X5741Y9774I197*
G03X5732Y9753I21J21*
G01Y9721*
G03X5743Y9699I30*
G02X5816Y9582I149J175*
G03X5844Y9560I28J7*
X5873Y9582J29*
G02X5990Y9728I221J58*
G03X6006Y9754I14J26*
G01Y9763*
G02X6032Y9826I88*
G01X6589Y10383*
G02X6652Y10409I63J63*
G01X6845*
G03X6874Y10438J29*
G01X9444Y9674D02*
Y8627D01*
X10491*
Y8927*
X9744*
Y9674*
X9444*
X10491Y1927D02*
X9444D01*
Y880*
X9744*
Y1627*
X10491*
Y1927*
X15349Y9735D02*
X15862Y10248D01*
G02X15883Y10257I21J21*
G01X16724*
G02X16732Y10256J30*
G03X16767Y10251I35J133*
G01X16958*
G02X16961J29*
G01Y9917*
G03X17020Y9858I59*
G01X17295*
G03X17355Y9917J59*
G01Y10074*
G03X17295Y10133I60*
G01X17020*
G03X16961Y10074J59*
G01Y10251*
G02X16975Y10246I3J29*
G03X17020Y10232I45J65*
G01X17295*
G03X17374Y10311J79*
G01Y10468*
G03X17335Y10536I79*
G02X17320Y10562I14J26*
X17349Y10591I29*
G01X17354*
G03X17383Y10597J79*
G02X17393Y10599I10J28*
X17404Y10597J30*
G03X17433Y10591I29J73*
G01X17511*
G03X17540Y10597J79*
G02X17551Y10599I11J28*
X17562Y10597J30*
G03X17590Y10591I28J73*
G01X17669*
G03X17698Y10597J79*
G02X17708Y10599I10J28*
X17719Y10597J30*
G03X17746Y10591I29J73*
G01Y8905*
G03X17825Y8827I79*
G01X18219*
G03X18298Y8905J78*
G01Y9535*
G03X18219Y9614I79*
G01X18140*
G02X18111Y9643J29*
G01Y9742*
G02X18140Y9771I29*
G01X18141*
G03X18220Y9850J79*
G01Y10244*
G03X18141Y10323I79*
G01X17905*
G03X17826Y10244J79*
G01Y9850*
G03X17904Y9771I79*
G02X17933Y9742J29*
G01Y9643*
G02X17904Y9614I29*
G01X17825*
G03X17746Y9535J79*
G01Y10591*
X17748*
X17826*
G03X17855Y10597J79*
G02X17866Y10599I11J28*
X17876Y10597J30*
G03X17905Y10591I29J73*
G01X17984*
G03X18012Y10597J79*
G02X18023Y10599I11J28*
X18034Y10597J30*
G03X18063Y10591I29J73*
G01X18141*
G03X18170Y10597J79*
G02X18181Y10599I11J28*
X18191Y10597J30*
G03X18220Y10591I29J73*
G01X18299*
G03X18327Y10597J79*
G02X18338Y10599I11J28*
X18349Y10597J30*
G03X18378Y10591I29J73*
G01X18456*
G02X18486Y10562J29*
G01Y10352*
G02X18456Y10323I30*
G03X18377Y10244J79*
G01Y9850*
G03X18456Y9771I79*
G01X18573*
Y8905*
G03X18632Y8846I59*
G01X19026*
G03X19085Y8905J59*
G01Y9535*
G03X19026Y9594I59*
G01X18632*
G03X18573Y9535J59*
G01Y9771*
X18692*
G03X18771Y9850J79*
G01Y10244*
G03X18692Y10323I79*
G02X18663Y10352J29*
G01Y10562*
G02X18692Y10591I29*
G01X18771*
G03X18800Y10597J79*
G02X18811Y10599I11J28*
X18821Y10597J30*
G03X18850Y10591I29J73*
G01X18929*
G03X19007Y10670J79*
G01Y10956*
G02X19037Y10985I30*
G01X19047*
G02X19076Y10956J29*
G01Y10371*
G03X19102Y10308I89*
G01X19208Y10202*
G02X19217Y10181I20J21*
G01Y9073*
G03X19243Y9010I89*
G01X19285Y8969*
G03X19347Y8943I62J62*
G01X19474*
G02X19504Y8913J30*
G01Y8874*
G03X19542Y8807I79*
G02X19556Y8781I16J26*
X19542Y8756I30*
G03X19504Y8689I41J67*
G01Y8374*
G03X19530Y8315I79*
G02X19540Y8293I19J22*
X19511Y8264I29*
G01X19129*
G02X19108Y8272J29*
G01X18759Y8621*
G03X18661Y8661I98J97*
G01X16393*
G02X16373Y8670J30*
G01X15349Y9694*
G02X15340Y9714I21J20*
X15349Y9735I30*
G01X18889Y11103D02*
X17157D01*
Y12717*
X17275Y12836*
X18889*
Y11103*
X19726Y12088D02*
G02X19755Y12117I29D01*
G01X19979*
G02X19995Y12112J29*
G03X20031Y12097I51J73*
G02X20055Y12068I5J29*
G01Y12047*
G03X20134Y11968I79*
G01X20292*
G03X20370Y12047J79*
G01Y12323*
G03X20325Y12394I78*
G02X20308Y12421I12J27*
X20325Y12448I29*
G03X20371Y12519I32J71*
G01Y12795*
G03X20340Y12858I78*
G02X20329Y12881I18J23*
Y12885I29*
G01X20331Y12899*
G02X20360Y12925I29J3*
G01X20467*
G03X20469J79*
G01Y12047*
G03X20528Y11988I59*
G01X20685*
G03X20744Y12047J59*
G01Y12323*
G03X20685Y12382I59*
G01X20528*
G03X20469Y12323J59*
G01Y12925*
X20470*
Y12519*
G03X20529Y12460I59*
G01X20686*
G03X20745Y12519J59*
G01Y12795*
G03X20686Y12854I59*
G01X20529*
G03X20470Y12795J59*
G01Y12925*
G03X20546Y13004I3J79*
G01Y13239*
G02X20575Y13269I29*
G01X20614*
G02X20644Y13239J30*
G01Y13004*
G03X20703Y12945I59*
G01X20861*
G03X20920Y13004J59*
G01Y13239*
G02X20949Y13269I29*
G01X21640*
G02X21669Y13239J30*
G01Y13013*
G03X21704Y12902I197*
G02X21709Y12885I25J17*
G01Y12875*
G03X21735Y12816I79*
G02X21745Y12794I19J22*
X21735Y12772I29*
G03X21669Y12625I131J147*
G01Y12318*
G02X21661Y12297I29*
G01X21007Y11643*
G02X20986Y11635I21J21*
G01X20190*
G02X20169Y11643J29*
G01X19782Y12030*
G03X19741Y12062I139J139*
G02X19726Y12088I14J26*
G37*
G54D10*
G01X0Y0D02*
X22677D01*
Y16378*
X0*
Y0*
G54D11*
X734Y8734D03*
X12432Y4567D03*
G54D12*
X346Y5696D02*
X228D01*
X346Y6857D02*
X228D01*
X746Y4345D02*
X628D01*
X750Y5518D02*
Y5400D01*
Y5873D02*
Y5991D01*
Y6680D02*
Y6562D01*
Y7034D02*
Y7152D01*
X854Y4295D02*
Y4177D01*
Y4394D02*
Y4512D01*
X963Y4345D02*
X1081D01*
X1154Y5696D02*
X1272D01*
X1154Y6857D02*
X1272D01*
X1220Y11622D02*
X1102D01*
X1220Y14516D02*
X1102D01*
X1446Y11297D02*
Y11179D01*
Y11947D02*
Y12065D01*
Y14191D02*
Y14073D01*
Y14841D02*
Y14959D01*
X1672Y11622D02*
X1791D01*
X1672Y14516D02*
X1791D01*
X3698Y1777D02*
X3609D01*
X3698Y8777D02*
X3609D01*
X3850Y2265D02*
X3611D01*
X3850Y2777D02*
X3611D01*
X3850Y3277D02*
X3611D01*
X3850Y3777D02*
X3611D01*
X3850Y4777D02*
X3611D01*
X3850Y5277D02*
X3611D01*
X3850Y5777D02*
X3611D01*
X3850Y6777D02*
X3611D01*
X3850Y7277D02*
X3611D01*
X3850Y7777D02*
X3611D01*
X3850Y8277D02*
X3611D01*
X4248Y2265D02*
Y2503D01*
Y2265D02*
Y2026D01*
Y2777D02*
Y3015D01*
Y2777D02*
Y2538D01*
Y3277D02*
Y3515D01*
Y3277D02*
Y3038D01*
Y3777D02*
Y4015D01*
Y3777D02*
Y3538D01*
Y4777D02*
Y5015D01*
Y4777D02*
Y4538D01*
Y5277D02*
Y5515D01*
Y5277D02*
Y5038D01*
Y5777D02*
Y6015D01*
Y5777D02*
Y5538D01*
Y6777D02*
Y7015D01*
Y6777D02*
Y6538D01*
Y7277D02*
Y7515D01*
Y7277D02*
Y7038D01*
Y7777D02*
Y8015D01*
Y7777D02*
Y7538D01*
Y8277D02*
Y8038D01*
Y8277D02*
Y8515D01*
X4594Y880D02*
Y791D01*
Y9674D02*
Y9762D01*
X4646Y2265D02*
X4885D01*
X4646Y2777D02*
X4885D01*
X4646Y3277D02*
X4885D01*
X4646Y3777D02*
X4885D01*
X4646Y4777D02*
X4885D01*
X4646Y5277D02*
X4885D01*
X4646Y5777D02*
X4885D01*
X4646Y6777D02*
X4885D01*
X4646Y7277D02*
X4885D01*
X4646Y7777D02*
X4885D01*
X4646Y8277D02*
X4885D01*
X4715Y1897D02*
X4807Y1989D01*
X4715Y1897D02*
X4807Y1989D01*
X4715Y8656D02*
X4807Y8564D01*
X4715Y8656D02*
X4807Y8564D01*
X5094Y1029D02*
Y790D01*
Y1427D02*
X4856D01*
X5094D02*
X5333D01*
X5094Y1826D02*
Y2064D01*
Y8727D02*
Y8489D01*
Y9126D02*
X5333D01*
X5094D02*
X4856D01*
X5094Y9524D02*
Y9763D01*
X5148Y515D02*
X5029D01*
X5197Y406D02*
Y288D01*
Y623D02*
Y741D01*
X5246Y515D02*
X5364D01*
X5669Y12439D02*
X5551Y12401D01*
X5669Y12695D02*
X5551Y12733D01*
X5993Y12134D02*
X6210D01*
X6456Y12380*
X7227*
X8828Y10779*
X10318*
X10667Y10429*
X11830*
X5993Y13000D02*
X7727D01*
X8954Y11773*
X9890*
X6094Y9126D02*
Y9763D01*
X6652Y10320*
X9834*
X11020Y9135*
X12233*
X12550Y9452*
X6318Y12695D02*
X6436Y12733D01*
X6508Y15161D02*
X6176D01*
X5993Y14979*
Y14732*
X6781Y11612D02*
Y11494D01*
Y14821D02*
Y14939D01*
X7027Y11937D02*
X7145D01*
X7027Y14496D02*
X7145D01*
X7094Y9126D02*
X7088Y9120D01*
Y9000*
X7094Y9126D02*
Y8982D01*
Y9126D02*
Y9872D01*
X7092Y9875*
Y10081*
X7343Y14056D02*
X7095D01*
X7093Y14053*
X6456*
X6210Y14299*
X5993*
X7624Y13819D02*
X6523D01*
X6476Y13866*
X5993*
X8248Y15146D02*
Y15461D01*
X8377*
X8420Y15442*
X8434Y15427*
X8448Y15399*
Y15370*
X8434Y15341*
X8420Y15322*
X8377Y15308*
X8248*
X8348D02*
X8448Y15146D01*
X8464Y16000D02*
X8436Y16029D01*
X8393Y16048*
X8335*
X8293Y16029*
X8264Y16000*
Y15972*
X8278Y15943*
X8293Y15929*
X8321Y15910*
X8407Y15881*
X8436Y15867*
X8450Y15853*
X8464Y15824*
Y15776*
X8436Y15748*
X8393Y15733*
X8335*
X8293Y15748*
X8264Y15776*
X8541Y15938D02*
X8717D01*
X8596Y15461D02*
X8573Y15442D01*
X8549Y15413*
X8534Y15384*
X8525Y15341*
Y15265*
X8534Y15222*
X8549Y15189*
X8573Y15160*
X8596Y15146*
X8649*
X8673Y15160*
X8701Y15189*
X8711Y15222*
X8725Y15265*
Y15341*
X8711Y15384*
X8701Y15413*
X8673Y15442*
X8649Y15461*
X8596*
X8610Y13144D02*
X8492D01*
X8612Y16043D02*
Y15791D01*
X8641Y15748*
X8693Y15733*
X8741*
X8614Y13695D02*
X8495D01*
X8659Y13036D02*
Y12918D01*
Y13253D02*
Y13371D01*
X8663Y13587D02*
Y13469D01*
Y13803D02*
Y13921D01*
X8708Y13144D02*
X8826D01*
X8712Y13695D02*
X8830D01*
X8817Y15853D02*
X9018D01*
Y15881*
X9004Y15910*
X8984Y15924*
X8951Y15938*
X8899*
X8865Y15924*
X8832Y15896*
X8817Y15853*
Y15819*
X8832Y15776*
X8865Y15748*
X8899Y15733*
X8951*
X8984Y15748*
X9018Y15776*
X9002Y15413D02*
X8973Y15442D01*
X8930Y15461*
X8873*
X8830Y15442*
X8802Y15413*
Y15384*
X8816Y15356*
X8830Y15341*
X8859Y15322*
X8945Y15294*
X8973Y15279*
X8988Y15265*
X9002Y15236*
Y15189*
X8973Y15160*
X8930Y15146*
X8873*
X8830Y15160*
X8802Y15189*
X9078Y15308D02*
X9202D01*
X9101Y515D02*
X9095D01*
X9279Y15461D02*
X9078D01*
Y15146*
X9279*
X9295Y15896D02*
X9261Y15924D01*
X9228Y15938*
X9175*
X9142Y15924*
X9109Y15896*
X9094Y15853*
Y15819*
X9109Y15776*
X9142Y15748*
X9175Y15733*
X9228*
X9261Y15748*
X9295Y15776*
Y15938D02*
Y15733D01*
X9371Y16043D02*
Y15733D01*
X9445Y515D02*
X9327D01*
X9446Y15384D02*
Y15399D01*
X9460Y15427*
X9474Y15442*
X9503Y15461*
X9560*
X9589Y15442*
X9603Y15427*
X9618Y15399*
Y15370*
X9603Y15341*
X9575Y15294*
X9431Y15146*
X9632*
X9447Y15938D02*
X9624D01*
X9474Y1897D02*
X9382Y1989D01*
X9474Y1897D02*
X9382Y1989D01*
X9474Y8656D02*
X9382Y8564D01*
X9474Y8656D02*
X9382Y8564D01*
X9495Y406D02*
Y288D01*
Y623D02*
Y741D01*
X9519Y16043D02*
Y15791D01*
X9548Y15748*
X9600Y15733*
X9648*
X9544Y515D02*
X9662D01*
X9594Y880D02*
Y791D01*
Y9674D02*
Y9762D01*
X9724Y15881D02*
X9777Y15924D01*
X9815Y15938*
X9867*
X9905Y15924*
X9925Y15881*
Y15733*
X9724Y16043D02*
Y15733D01*
X9794Y15456D02*
X9751Y15442D01*
X9723Y15399*
X9708Y15322*
Y15279*
X9723Y15203*
X9751Y15160*
X9794Y15146*
X9823*
X9866Y15160*
X9894Y15203*
X9909Y15279*
Y15322*
X9894Y15399*
X9866Y15442*
X9823Y15456*
X9794*
X9985Y15399D02*
X10004Y15413D01*
X10028Y15456*
Y15146*
X10077Y16048D02*
X10177D01*
X10220Y16029*
X10249Y16000*
X10263Y15972*
X10278Y15929*
Y15853*
X10263Y15810*
X10249Y15776*
X10220Y15748*
X10177Y15733*
X10077*
Y16048*
X10100Y11211D02*
X9890Y11421D01*
Y11773*
X10176Y15456D02*
X10133Y15442D01*
X10119Y15413*
Y15384*
X10133Y15351*
X10162Y15337*
X10219Y15322*
X10262Y15308*
X10290Y15279*
X10305Y15251*
Y15203*
X10290Y15174*
X10276Y15160*
X10233Y15146*
X10176*
X10133Y15160*
X10119Y15174*
X10104Y15203*
Y15251*
X10119Y15279*
X10147Y15308*
X10190Y15322*
X10248Y15337*
X10276Y15351*
X10290Y15384*
Y15413*
X10276Y15442*
X10233Y15456*
X10176*
X10354Y15853D02*
X10378Y15896D01*
X10426Y15924*
X10478Y15938*
X10554*
X10354D02*
Y15733D01*
X10491Y1777D02*
X10580D01*
X10491Y8777D02*
X10580D01*
X10707Y15938D02*
X10674Y15924D01*
X10645Y15896*
X10631Y15853*
Y15819*
X10645Y15776*
X10674Y15748*
X10707Y15733*
X10755*
X10784Y15748*
X10817Y15776*
X10831Y15819*
Y15853*
X10817Y15896*
X10784Y15924*
X10755Y15938*
X10707*
X10813Y4777D02*
X9940D01*
X10908Y15896D02*
X10936Y15924D01*
X10974Y15938*
X11022*
X11056Y15924*
X11094Y15896*
X11108Y15853*
Y15819*
X11094Y15776*
X11056Y15748*
X11022Y15733*
X10974*
X10936Y15748*
X10908Y15776*
Y15938D02*
Y15628D01*
X10972Y11113D02*
X10853D01*
X11060Y10946D02*
Y10828D01*
Y11280D02*
Y11398D01*
X11081Y4277D02*
X9940D01*
X11149Y11113D02*
X11267D01*
X11240Y9341D02*
X10048Y10533D01*
X6915*
X5993Y11455*
Y11701*
X11245Y978D02*
X10441D01*
X11245Y2576D02*
Y3322D01*
X11242Y3325*
Y3532*
X11275Y7482D02*
X11745Y7011D01*
Y2576*
X11432Y5281D02*
X10903D01*
X10899Y5277*
X9940*
X11447Y5781D02*
X10910D01*
X10906Y5777*
X9940*
X11563Y9941D02*
X11445D01*
X11611Y11113D02*
Y11531D01*
X11864Y11784*
X11617Y397D02*
X11525Y305D01*
X11617Y1559D02*
X11525Y1651D01*
X11651Y9774D02*
Y9656D01*
Y10109D02*
Y10227D01*
X11740Y9941D02*
X11858D01*
X11864Y11784D02*
X11865Y11785D01*
X12221*
X11873Y397D02*
X11965Y305D01*
X11873Y1559D02*
X11965Y1651D01*
X12117Y397D02*
X12025Y305D01*
X12117Y1559D02*
X12025Y1651D01*
X12203Y9941D02*
Y9656D01*
X12201Y9654*
Y9444*
X12373Y397D02*
X12465Y305D01*
X12373Y1559D02*
X12465Y1651D01*
X13117Y397D02*
X13025Y305D01*
X13117Y1559D02*
X13025Y1651D01*
X13373Y397D02*
X13465Y305D01*
X13373Y1559D02*
X13465Y1651D01*
X13409Y10174D02*
Y10056D01*
Y10351D02*
Y10469D01*
X13411Y11480D02*
Y11274D01*
X13409Y11271*
Y10814*
X13411Y12031D02*
Y12502D01*
X13384Y12529*
Y12736*
X13576Y10262D02*
X13694D01*
X13610Y6333D02*
X13245Y5968D01*
Y2576*
X13610Y7887D02*
Y9535D01*
X13012Y10134*
Y12655*
X13907Y12724D02*
X14335D01*
X14829Y12230*
Y12024*
X14120Y12028D02*
Y12235D01*
X13935Y12420*
X13793*
X13646Y12566*
X14192Y10130D02*
Y10170D01*
X13946Y10416*
Y10575*
X13707Y10814*
X13409*
X14192Y10760D02*
Y11198D01*
X14120Y11270*
Y11477*
X14704Y10760D02*
Y11146D01*
X14829Y11270*
Y11472*
X14759Y12748D02*
Y12542D01*
X15552Y11748*
Y11558*
X16124Y10986*
X16331*
X14933Y13391D02*
X14815D01*
X14982Y13283D02*
Y13165D01*
Y13500D02*
Y13618D01*
X15031Y13391D02*
X15149D01*
X15133Y12893D02*
X15015D01*
X15241Y12844D02*
Y12726D01*
Y12942D02*
Y13060D01*
X15349Y12893D02*
X15467D01*
X16065Y12707D02*
X15711D01*
X15504Y12499*
X15241*
X16065Y12707D02*
Y12441D01*
X16147Y12358*
X16398*
X16560Y12521*
X16882*
X16065Y13100D02*
X16450D01*
X16533Y13017*
Y12720*
X16575Y12678*
X16882*
X16065Y13100D02*
Y13395D01*
X15584*
X15580Y13391*
X15376*
X16197Y11258D02*
X16481D01*
X16624Y11401*
Y11407*
X16635Y11418*
X16882*
X16203Y2083D02*
X16085D01*
X16227Y11733D02*
X16549D01*
X16882*
X16370Y1994D02*
Y1876D01*
Y2172D02*
Y2290D01*
X16397Y11981D02*
X16526D01*
X16616Y11891*
X16882*
X16419Y5200D02*
X16301D01*
X16508Y5033D02*
Y4915D01*
Y5367D02*
Y5486D01*
X16537Y2083D02*
X16655D01*
X16596Y5200D02*
X16715D01*
X16693Y7599D02*
Y7050D01*
X16776Y6966*
X17158*
X16751Y13094D02*
X16882Y12964D01*
Y12836*
Y11576D02*
X16486D01*
X16397Y11487*
X16953Y13978D02*
X16861Y13886D01*
X16953Y14076D02*
X16861Y14168D01*
X17049Y9996D02*
X16931D01*
X17096Y1530D02*
X16734D01*
X16732Y1532*
X16370*
X17158Y9946D02*
Y9828D01*
Y10045D02*
Y10163D01*
Y10389D02*
Y10581D01*
X17157Y10582*
Y10828*
X17170Y13978D02*
X17183Y13860D01*
X17170Y14076D02*
X17177Y14194D01*
X17244Y7599D02*
X17485D01*
X17555Y7529*
X17874*
X17266Y9996D02*
X17384D01*
X17315Y13111D02*
Y14230D01*
X17208Y14336*
Y14566*
X17152Y14622*
X16946*
X17471Y13979D02*
X17452Y13861D01*
X17471Y14077D02*
X17452Y14195D01*
X17472Y13111D02*
Y13360D01*
X17579Y13467*
Y13634*
X17475Y11415D02*
X17744D01*
X17752Y11424*
X18021*
X17475Y11415D02*
Y11970D01*
X17479Y12521D02*
X17750D01*
X17755Y12517*
X18026*
X17479Y12521D02*
X17964Y12036D01*
Y12028*
X18023Y11969*
X17568Y741D02*
X17323D01*
X17078*
X17579Y13634D02*
X17805D01*
X18057Y13887*
Y14225*
X17630Y13111D02*
Y12672D01*
X17479Y12521*
X17638Y13239D02*
Y13357D01*
X17687Y13979D02*
X17779Y13887D01*
X17687Y14077D02*
X17779Y14170D01*
X17707Y8080D02*
X17589D01*
X17870Y3877D02*
X17161D01*
X17874Y7992D02*
Y7873D01*
Y8169D02*
Y8287D01*
X17882Y6415D02*
X17158D01*
X17882D02*
X18308D01*
X18309Y6416*
X18716*
X17938Y7229D02*
X18289D01*
X17938D02*
X17882Y7173D01*
Y6966*
X17938Y7229D02*
X17874Y7292D01*
Y7529*
X17952Y1815D02*
X17836Y1766D01*
X17952Y1992D02*
X17836Y2042D01*
X18023Y10047D02*
Y9762D01*
X18022Y9761*
Y9220*
X18026Y11969D02*
Y11923D01*
X18021Y11919*
Y11424*
X18026Y11969D02*
X18023D01*
X18026D02*
X18072D01*
X18077Y11975*
X18026D02*
X18077D01*
X18042Y8080D02*
X18160D01*
X18057Y14618D02*
X17769D01*
X17766Y14622*
X17497*
X18070Y4806D02*
Y4658D01*
X17893*
X17870Y4635*
Y4428*
X18070Y5003D02*
X17530D01*
X17514Y4986*
X17512*
X17161Y4635*
Y4428*
X18070Y5003D02*
X18877D01*
X18070Y5396D02*
Y5199D01*
X18120Y1530D02*
Y1323D01*
X18119*
Y741*
X18287Y1815D02*
X18403Y1766D01*
X18287Y1992D02*
X18403Y2042D01*
X18448Y13896D02*
X18330D01*
X18556Y13847D02*
Y13729D01*
Y13945D02*
Y14063D01*
X18568Y12530D02*
X18303D01*
X18290Y12517*
X18026*
X18568Y12530D02*
Y12323D01*
X18577Y12314*
Y11975*
X18574Y10828D02*
Y10582D01*
Y10581*
Y10047*
X18577Y11415D02*
X18303D01*
X18295Y11424*
X18021*
X18577Y11975D02*
X18077D01*
X18662Y9220D02*
X18544D01*
X18665Y13896D02*
X18783D01*
X18829Y8935D02*
Y8817D01*
Y9506D02*
Y9624D01*
X18938Y1345D02*
X18820D01*
X18996Y9220D02*
X19114D01*
X19042Y8143D02*
X19059Y8126D01*
X19111Y13060D02*
X19165Y13007D01*
Y12836*
Y11103D02*
Y10371D01*
X19306Y10230*
Y9073*
X19347Y9031*
X20193*
X19165Y11261D02*
X19537D01*
X19944Y10854*
X20894*
X21023Y10725*
Y8573*
X20981Y8531*
X20193*
X19165Y12048D02*
X18888D01*
X18814Y11975*
X18577*
X19165Y12521D02*
X19536D01*
X19914Y12899*
Y13408*
X19165Y12678D02*
X19464D01*
X19506Y12720*
Y12982*
X19294Y13193*
Y13703*
X19521Y13929*
Y13939*
X19198Y6416D02*
X19080D01*
X19224Y784D02*
Y666D01*
Y1906D02*
Y2024D01*
X19345Y6130D02*
Y6012D01*
Y6701D02*
Y6819D01*
X19357Y4086D02*
X19239D01*
X19413Y14804D02*
X19295D01*
X19446Y3918D02*
Y3800D01*
Y4253D02*
Y4371D01*
X19493Y6416D02*
X19611D01*
X19509Y1345D02*
X19627D01*
X19521Y14411D02*
Y14243D01*
Y13939*
Y14755D02*
Y14637D01*
Y14854D02*
Y14972D01*
X19534Y4086D02*
X19652D01*
X19629Y14804D02*
X19748D01*
X19635Y5593D02*
X19517D01*
X19643Y11891D02*
X19165D01*
X19914Y13408D02*
X20348D01*
X20388Y13368*
Y13142*
X19999Y4806D02*
Y4658D01*
X19997Y4656*
Y4086*
X19999Y5003D02*
X20482D01*
X20627Y4857*
Y4415*
X19999Y5623D02*
Y5741D01*
X20213Y12185D02*
X20046D01*
X20025Y12206*
X19165*
X20214Y12657D02*
X19993D01*
X19699Y12363*
X19165*
X20459Y3864D02*
X20341D01*
X20557Y12185D02*
X20439D01*
X20558Y12657D02*
X20440D01*
X20607Y12076D02*
Y11958D01*
Y12293D02*
Y12411D01*
X20608Y12549D02*
Y12431D01*
Y12765D02*
Y12884D01*
X20627Y3775D02*
Y3657D01*
Y3952D02*
Y4070D01*
X20656Y12185D02*
X20774D01*
X20657Y12657D02*
X20775D01*
X20733Y13142D02*
X20614D01*
X20782Y13034D02*
Y12915D01*
X20794Y3864D02*
X20912D01*
X20831Y13142D02*
X20949D01*
X20848Y2231D02*
X20730D01*
X21015Y1178D02*
Y1060D01*
Y3284D02*
Y3402D01*
X21182Y2231D02*
X21300D01*
X21183Y3864D02*
X21065D01*
X21211Y9159D02*
X21173Y9277D01*
X21211Y9403D02*
X21173Y9286D01*
X21211Y10659D02*
X21168Y10776D01*
X21350Y3775D02*
Y3657D01*
Y3952D02*
Y4070D01*
Y4415D02*
X20627D01*
X21518Y3864D02*
X21636D01*
X21733Y1345D02*
X21615D01*
X21866Y13013D02*
Y12625D01*
X22019Y784D02*
Y666D01*
Y1906D02*
Y2024D01*
X22211Y12959D02*
X22093D01*
X22260Y12905D02*
Y12787D01*
X22304Y1345D02*
X22422D01*
X22309Y13013D02*
X22427D01*
X22372Y8903D02*
X22464Y8811D01*
X22372Y9159D02*
X22464Y9251D01*
X22372Y9403D02*
X22464Y9311D01*
X22372Y9659D02*
X22464Y9751D01*
X22372Y10403D02*
X22464Y10311D01*
X22372Y10659D02*
X22464Y10751D01*
G54D13*
X833Y3518D02*
Y3517D01*
X855*
X852Y2690D02*
Y2523D01*
X853Y2522*
Y1786*
X854Y3951D02*
Y3783D01*
X855*
Y3517*
X854Y4345D02*
Y4673D01*
X855Y3517D02*
X1118D01*
X1878Y4277*
X4248*
X855Y3517D02*
Y3254D01*
X852Y3251*
Y3084*
X4248Y6277D02*
X2624D01*
X2623Y6276*
X1350*
X19643Y11891D02*
X20096Y11438D01*
X21080*
X21866Y12224*
Y12625*
Y13840D02*
Y14168D01*
X21867*
Y14611*
X21866Y13013D02*
Y13278D01*
Y13279*
Y13446*
G54D14*
X5594Y1427D02*
Y790D01*
X5591Y787*
Y515*
X5594Y9108D02*
Y9126D01*
Y9906*
X5603Y9914*
X5993Y13433D02*
X5444D01*
X5349Y13338*
Y11323*
X5603Y11070*
Y9914*
X7611Y13353D02*
X7531Y13433D01*
X5993*
X8265Y13144D02*
X7820D01*
X7611Y13353*
X8269Y13695D02*
X7953D01*
X7611Y13353*
X8674Y516D02*
X5759D01*
X5758Y515*
X5591*
X8674Y516D02*
X8676Y515D01*
X9095*
X9101D02*
Y784D01*
X9094Y790*
Y1427*
X12458Y12294D02*
X10883D01*
X10441Y11852*
Y11773*
X12458Y10612D02*
X12660Y10409D01*
Y10206*
X12844Y10023*
Y9186*
X12582Y8924*
X11694*
X12773Y11785D02*
Y12071D01*
X12695Y12148*
X12604*
X12458Y12294*
X14704Y10130D02*
Y10091D01*
X14934Y9861*
X14987*
X15133Y9714*
X15117*
Y9731*
X15114Y9729*
X15133Y9714D02*
X15813Y10395D01*
X16761*
X16324Y8524D02*
X15133Y9714D01*
X16324Y8524D02*
Y8272D01*
X15268Y7216*
X12165*
X11320Y8061*
X10903*
X16761Y10795D02*
Y10395D01*
X16794Y10828D02*
X16761Y10795D01*
X17062Y13633D02*
X16573D01*
X16464Y13742*
X16462*
X16281Y13923*
X17096Y2278D02*
Y2991D01*
X17158Y10389D02*
X16767D01*
X16761Y10395*
X17422Y5199D02*
X17421Y5200D01*
X17059*
X17422Y5199D02*
X18070D01*
X17428Y5193D02*
X17422Y5199D01*
X18070Y5593D02*
X18604D01*
X18716Y5704*
Y6416*
X18120Y2278D02*
X18564D01*
X18567Y2274*
X18932*
X18556Y13502D02*
X18244D01*
X18217Y13530*
X19042Y8143D02*
X18661Y8524D01*
X16324*
X19042Y8143D02*
X19021Y8121D01*
Y8088*
X18716Y7783*
Y6416*
X20228Y2231D02*
X19562D01*
X19519Y2274*
X18932*
X21791Y8531D02*
Y8242D01*
X21676Y8126*
X19059*
G54D15*
X17062Y13633D02*
Y13466D01*
X17157Y13371*
Y13111*
X18556Y13502D02*
X18945D01*
X19111Y13336*
Y13060*
G54D16*
X19999Y5199D02*
X21491D01*
X21898Y5606*
Y6844*
X19999Y5396D02*
X20695D01*
X20736Y5438*
Y6627*
X20520Y6844*
G54D17*
X262Y15684D03*
X344Y3490D03*
X388Y10953D03*
X427Y5244D03*
X466Y7374D03*
X623Y14075D03*
X760Y5032D03*
X860Y12133D03*
X985Y10908D03*
X1026Y7369D03*
X1143Y12821D03*
X1201Y9590D03*
X1245Y15402D03*
X1286Y4639D03*
X1316Y5308D03*
X1337Y8009D03*
X1592Y3515D03*
X1768Y5960D03*
X1797Y6607D03*
X1945Y7487D03*
X1959Y5302D03*
X1960Y4645D03*
X2001Y9813D03*
X2044Y11794D03*
X2074Y3920D03*
X2086Y3492D03*
X2262Y8332D03*
X2310Y10681D03*
X2356Y5954D03*
X2394Y6631D03*
X2457Y15374D03*
X2500Y12945D03*
X2644Y5305D03*
X2648Y4658D03*
X2842Y3943D03*
X2865Y3486D03*
X2951Y5951D03*
X3005Y6631D03*
X3208Y14105D03*
X3321Y11888D03*
X3453Y1261D03*
X3456Y309D03*
Y793D03*
X3470Y6766D03*
Y8789D03*
X3477Y7281D03*
X3481Y3268D03*
Y8275D03*
X3486Y5763D03*
X3488Y1778D03*
X3490Y3764D03*
Y4778D03*
Y5276D03*
Y7769D03*
X3492Y2272D03*
X3494Y2748D03*
X3610Y10902D03*
X3611Y9733D03*
X3613Y13095D03*
X3910Y15508D03*
X4062Y363D03*
X4092Y9267D03*
X4125Y9704D03*
X4205Y14183D03*
X4422Y11903D03*
X4558Y10694D03*
X4592Y665D03*
X4848Y13100D03*
X5010Y5274D03*
X5021Y4271D03*
X5026Y4769D03*
X5031Y5778D03*
Y6783D03*
X5036Y3273D03*
X5037Y2773D03*
Y7283D03*
X5041Y3777D03*
X5046Y6259D03*
X5063Y2260D03*
Y7769D03*
X5065Y15391D03*
X5076Y8282D03*
X5549Y5006D03*
Y2440D03*
X5603Y9914D03*
X5628Y7189D03*
X5749Y15598D03*
X5812Y5723D03*
X5843Y3670D03*
X6023Y10783D03*
X6340Y8392D03*
X6508Y15161D03*
X6661Y7238D03*
X6815Y4839D03*
X7092Y10081D03*
X7139Y5742D03*
X7172Y2566D03*
X7203Y15651D03*
X7325Y10996D03*
X7343Y14056D03*
X7367Y3692D03*
X7624Y13819D03*
X7809Y7156D03*
X8048Y2723D03*
X8162Y3702D03*
X8243Y4753D03*
X8355Y6007D03*
X8361Y10823D03*
X8385Y11560D03*
X8620Y8126D03*
X8674Y516D03*
X9019Y7311D03*
X9045Y2476D03*
X9047Y4762D03*
X9215Y13274D03*
X10100Y11211D03*
X10300Y502D03*
X10348Y13492D03*
X10441Y978D03*
X10761Y546D03*
X10813Y4777D03*
X10903Y8061D03*
X11081Y4277D03*
X11240Y9341D03*
X11242Y3532D03*
X11275Y7482D03*
X11409Y8475D03*
X11432Y5281D03*
X11447Y5781D03*
X11694Y8924D03*
X11811Y8118D03*
X11830Y10429D03*
X11864Y11784D03*
X12201Y9444D03*
X12458Y12294D03*
Y10612D03*
X12550Y9452D03*
X12614Y3833D03*
Y5217D03*
X13012Y12655D03*
X13384Y12736D03*
X13610Y6333D03*
Y7887D03*
X13646Y12566D03*
X13907Y12724D03*
X14109Y9598D03*
X14405Y15397D03*
X14644Y9611D03*
X14759Y12748D03*
X15133Y9714D03*
X15248Y4218D03*
X15360Y15400D03*
X15460Y5495D03*
X15665Y3042D03*
X15735Y14419D03*
X16037Y6713D03*
X16089Y5194D03*
X16197Y11258D03*
X16227Y11733D03*
X16281Y13923D03*
X16331Y10986D03*
X16397Y11487D03*
Y11981D03*
X16489Y5707D03*
X16668Y15500D03*
X16716Y3238D03*
X16751Y13094D03*
X16761Y10795D03*
X17078Y741D03*
X17096Y2991D03*
X17278Y8158D03*
X17428Y5193D03*
X17475Y11415D03*
Y11970D03*
X17479Y12521D03*
X17559Y9427D03*
X17899Y5967D03*
X17952Y15349D03*
X18021Y11424D03*
X18026Y11975D03*
Y12517D03*
X18217Y13530D03*
X18289Y7229D03*
X18476Y8139D03*
X18568Y12530D03*
X18577Y11415D03*
Y11975D03*
X18583Y1246D03*
X18591Y1923D03*
X18703Y14246D03*
X18877Y5003D03*
X18918Y4086D03*
X18932Y2274D03*
X18964Y15433D03*
X19011Y3210D03*
X19227Y5578D03*
X19275Y4918D03*
X19333Y7031D03*
X19508Y3464D03*
X19549Y11497D03*
X19710Y7451D03*
X19783Y6410D03*
X19825Y612D03*
X19976Y15128D03*
X19983Y14462D03*
X19992Y15680D03*
X20261Y11777D03*
X20266Y11120D03*
X20707Y622D03*
X20740Y11788D03*
X21021Y11123D03*
X21192Y12100D03*
X21390Y13032D03*
X21404Y625D03*
X21470Y12530D03*
X21599Y11351D03*
X21971Y11724D03*
X22154Y4143D03*
X22169Y5091D03*
X22233Y3067D03*
X22268Y12054D03*
X22306Y12507D03*
G54D18*
X19521Y13408D03*
Y13939D03*
X19914Y13408D03*
Y13939D03*
G54D19*
X16065Y12707D03*
Y13100D03*
G54D20*
X9890Y11773D03*
X10441D03*
X11060Y11113D03*
X11611D03*
X11651Y9941D03*
X12203D03*
X12221Y11785D03*
X12773D03*
X16508Y5200D03*
X16693Y7599D03*
X17059Y5200D03*
X17244Y7599D03*
X17568Y741D03*
X18023Y10047D03*
X18119Y741D03*
X18574Y10047D03*
X19446Y4086D03*
X19997D03*
G54D21*
X20228Y2231D03*
X21015D03*
G54D22*
X19224Y1345D03*
X22019D03*
G54D23*
X852Y2690D03*
Y3084D03*
X854Y3951D03*
Y4345D03*
X15241Y12499D03*
Y12893D03*
X17062Y13633D03*
Y14027D03*
X17158Y9996D03*
Y10389D03*
X17579Y13634D03*
Y14028D03*
X18057Y14225D03*
Y14618D03*
X18556Y13502D03*
Y13896D03*
X19521Y14411D03*
Y14804D03*
X21866Y13446D03*
Y13840D03*
G54D24*
X853Y526D03*
Y1786D03*
X21867Y14611D03*
Y15871D03*
G54D25*
X14192Y10130D03*
Y10760D03*
X14704Y10130D03*
Y10760D03*
G54D26*
X20193Y8531D03*
Y9031D03*
Y9531D03*
Y10031D03*
Y10531D03*
X21791Y8531D03*
Y9031D03*
Y9531D03*
Y10031D03*
Y10531D03*
G54D27*
X20520Y6844D03*
X21898D03*
G54D28*
X5993Y11701D03*
Y12134D03*
Y12567D03*
Y13000D03*
Y13433D03*
Y13866D03*
Y14299D03*
Y14732D03*
G54D29*
X1446Y11622D03*
Y14516D03*
G54D30*
X1350Y6276D03*
G54D31*
X13409Y10262D03*
Y10814D03*
X13411Y11480D03*
Y12031D03*
X14120Y11477D03*
Y12028D03*
X14829Y11472D03*
Y12024D03*
X16370Y1532D03*
Y2083D03*
X17158Y6415D03*
Y6966D03*
X17161Y3877D03*
Y4428D03*
X17870Y3877D03*
Y4428D03*
X17874Y7529D03*
Y8080D03*
X17882Y6415D03*
Y6966D03*
X20627Y3864D03*
Y4415D03*
X21350Y3864D03*
Y4415D03*
G54D32*
X4248Y2265D03*
Y2777D03*
Y3277D03*
Y3777D03*
Y4277D03*
Y4777D03*
Y5277D03*
Y5777D03*
Y6277D03*
Y6777D03*
Y7277D03*
Y7777D03*
Y8277D03*
X9940Y2277D03*
Y2777D03*
Y3277D03*
Y3777D03*
Y4277D03*
Y4777D03*
Y5277D03*
Y5777D03*
Y6277D03*
Y6777D03*
Y7277D03*
Y7777D03*
Y8277D03*
G54D33*
X5094Y1427D03*
Y9126D03*
X5594Y1427D03*
Y9126D03*
X6094Y1427D03*
Y9126D03*
X6594Y1427D03*
Y9126D03*
X7094Y1427D03*
Y9126D03*
X7594Y1427D03*
Y9126D03*
X8094Y1427D03*
Y9126D03*
X8594Y1427D03*
Y9126D03*
X9094Y1427D03*
Y9126D03*
G54D34*
X11245Y978D03*
Y2576D03*
X11745Y978D03*
Y2576D03*
X12245Y978D03*
Y2576D03*
X12745Y978D03*
Y2576D03*
X13245Y978D03*
Y2576D03*
G54D35*
X17096Y1530D03*
Y2278D03*
X18120Y1530D03*
Y1904D03*
Y2278D03*
G54D36*
X5197Y515D03*
X5591D03*
X8265Y13144D03*
X8269Y13695D03*
X8659Y13144D03*
X8663Y13695D03*
X9101Y515D03*
X9495D03*
X14982Y13391D03*
X15376D03*
X20213Y12185D03*
X20214Y12657D03*
X20388Y13142D03*
X20607Y12185D03*
X20608Y12657D03*
X20782Y13142D03*
X21866Y13013D03*
X22260D03*
G54D37*
X18070Y4806D03*
Y5003D03*
Y5199D03*
Y5396D03*
Y5593D03*
X19999Y4806D03*
Y5003D03*
Y5199D03*
Y5396D03*
Y5593D03*
G54D38*
X16882Y11103D03*
Y11261D03*
Y11418D03*
Y11576D03*
Y11733D03*
Y11891D03*
Y12048D03*
Y12206D03*
Y12363D03*
Y12521D03*
Y12678D03*
Y12836D03*
X19165Y11103D03*
Y11261D03*
Y11418D03*
Y11576D03*
Y11733D03*
Y11891D03*
Y12048D03*
Y12206D03*
Y12363D03*
Y12521D03*
Y12678D03*
Y12836D03*
G54D39*
X17157Y10828D03*
Y13111D03*
X17315Y10828D03*
Y13111D03*
X17472Y10828D03*
Y13111D03*
X17630Y10828D03*
Y13111D03*
X17787Y10828D03*
Y13111D03*
X17944Y10828D03*
Y13111D03*
X18102Y10828D03*
Y13111D03*
X18259Y10828D03*
Y13111D03*
X18417Y10828D03*
Y13111D03*
X18574Y10828D03*
Y13111D03*
X18732Y10828D03*
Y13111D03*
X18889Y10828D03*
Y13111D03*
G54D40*
X18716Y6416D03*
X19345D03*
G54D70*
X18022Y9220D03*
X18829D03*
G54D71*
X16946Y14622D03*
X17497D03*
G54D72*
X6781Y11937D03*
Y14496D03*
G54D73*
X750Y5696D03*
Y6857D03*
M02*
