*
G04 Job   : H:\ZEROSERO7\PCB\STEALTH_DROP\PCB\PCB.pcb*
G04 User  : DESKTOP-D6MOGOB:alexis*
G04 Layer : SoldermaskTop.gdo*
G04 Date  : Wed Dec 27 12:59:53 2017*
G04 Mentor Graphics Example Gerber Output Definition*
%ICAS*%
%MOIN*%
%FSLAX24Y24*%
%OFA0.0000B0.0000*%
G90*
G74*
%AMVB_RECTANGLE*
21,1,$1,$2,0,0,$3*
%
%ADD10C,0.07874*%
%ADD27O,0.11264X0.03307*%
%ADD28O,0.03307X0.11264*%
%ADD32VB_RECTANGLE,0.01083X0.03445X0.00000*%
%ADD31VB_RECTANGLE,0.01083X0.03445X270.00000*%
%ADD30VB_RECTANGLE,0.01476X0.08169X90.00000*%
%ADD14VB_RECTANGLE,0.02953X0.04528X0.00000*%
%ADD72VB_RECTANGLE,0.02953X0.04528X90.00000*%
%ADD11VB_RECTANGLE,0.03248X0.03051X90.00000*%
%ADD18VB_RECTANGLE,0.03346X0.02165X0.00000*%
%ADD73VB_RECTANGLE,0.03346X0.02165X270.00000*%
%ADD29VB_RECTANGLE,0.03740X0.12795X0.00000*%
%ADD71VB_RECTANGLE,0.03740X0.12795X90.00000*%
%ADD33VB_RECTANGLE,0.04134X0.06890X0.00000*%
%ADD26VB_RECTANGLE,0.04528X0.02953X0.00000*%
%ADD15VB_RECTANGLE,0.04528X0.02953X90.00000*%
%ADD70VB_RECTANGLE,0.04528X0.03740X90.00000*%
%ADD13VB_RECTANGLE,0.04528X0.06890X180.00000*%
%ADD19VB_RECTANGLE,0.04528X0.07677X270.00000*%
%ADD25VB_RECTANGLE,0.04724X0.04528X270.00000*%
%ADD12VB_RECTANGLE,0.05315X0.03150X0.00000*%
%ADD21VB_RECTANGLE,0.07677X0.03740X180.00000*%
%ADD22VB_RECTANGLE,0.07677X0.05709X270.00000*%
%ADD23VB_RECTANGLE,0.07677X0.06102X270.00000*%
%ADD24VB_RECTANGLE,0.09055X0.04528X0.00000*%
%ADD17VB_RECTANGLE,0.12106X0.06594X90.00000*%
%ADD16VB_RECTANGLE,0.21949X0.04626X90.00000*%
%ADD20VB_RECTANGLE,0.22047X0.09055X270.00000*%
G01*
G36*
X3670Y1954D02*
X4772D01*
Y852*
X4417*
Y1599*
X3670*
Y1954*
X4772Y9701D02*
Y8599D01*
X3670*
Y8954*
X4417*
Y9701*
X4772*
X9417Y852D02*
Y1954D01*
X10519*
Y1599*
X9772*
Y852*
X9417*
X10519Y8599D02*
X9417D01*
Y9701*
X9772*
Y8954*
X10519*
Y8599*
X18919Y11074D02*
X17128D01*
Y12753*
X17240Y12865*
X18919*
Y11074*
G37*
G54D10*
X734Y8734D03*
X12432Y4567D03*
G54D11*
X19521Y13408D03*
Y13939D03*
X19914Y13408D03*
Y13939D03*
G54D12*
X16065Y12707D03*
Y13100D03*
G54D13*
X18022Y9220D03*
X18829D03*
G54D14*
X16946Y14622D03*
X17497D03*
G54D15*
X9890Y11773D03*
X10441D03*
X11060Y11113D03*
X11611D03*
X11651Y9941D03*
X12203D03*
X12221Y11785D03*
X12773D03*
X16508Y5200D03*
X16693Y7599D03*
X17059Y5200D03*
X17244Y7599D03*
X17568Y741D03*
X18023Y10047D03*
X18119Y741D03*
X18574Y10047D03*
X19446Y4086D03*
X19997D03*
G54D16*
X20228Y2231D03*
X21015D03*
G54D17*
X19224Y1345D03*
X22019D03*
G54D18*
X852Y2690D03*
Y3084D03*
X854Y3951D03*
Y4345D03*
X15241Y12499D03*
Y12893D03*
X17062Y13633D03*
Y14027D03*
X17158Y9996D03*
Y10389D03*
X17579Y13634D03*
Y14028D03*
X18057Y14225D03*
Y14618D03*
X18556Y13502D03*
Y13896D03*
X19521Y14411D03*
Y14804D03*
X21866Y13446D03*
Y13840D03*
G54D19*
X853Y526D03*
Y1786D03*
X21867Y14611D03*
Y15871D03*
G54D20*
X20520Y6844D03*
X21898D03*
G54D21*
X5993Y11701D03*
Y12134D03*
Y12567D03*
Y13000D03*
Y13433D03*
Y13866D03*
Y14299D03*
Y14732D03*
G54D22*
X1446Y11622D03*
Y14516D03*
G54D23*
X6781Y11937D03*
Y14496D03*
G54D24*
X750Y5696D03*
Y6857D03*
G54D25*
X1350Y6276D03*
G54D26*
X13409Y10262D03*
Y10814D03*
X13411Y11480D03*
Y12031D03*
X14120Y11477D03*
Y12028D03*
X14829Y11472D03*
Y12024D03*
X16370Y1532D03*
Y2083D03*
X17158Y6415D03*
Y6966D03*
X17161Y3877D03*
Y4428D03*
X17870Y3877D03*
Y4428D03*
X17874Y7529D03*
Y8080D03*
X17882Y6415D03*
Y6966D03*
X20627Y3864D03*
Y4415D03*
X21350Y3864D03*
Y4415D03*
G54D27*
X4248Y2265D03*
Y2777D03*
Y3277D03*
Y3777D03*
Y4277D03*
Y4777D03*
Y5277D03*
Y5777D03*
Y6277D03*
Y6777D03*
Y7277D03*
Y7777D03*
Y8277D03*
X9940Y2277D03*
Y2777D03*
Y3277D03*
Y3777D03*
Y4277D03*
Y4777D03*
Y5277D03*
Y5777D03*
Y6277D03*
Y6777D03*
Y7277D03*
Y7777D03*
Y8277D03*
G54D28*
X5094Y1427D03*
Y9126D03*
X5594Y1427D03*
Y9126D03*
X6094Y1427D03*
Y9126D03*
X6594Y1427D03*
Y9126D03*
X7094Y1427D03*
Y9126D03*
X7594Y1427D03*
Y9126D03*
X8094Y1427D03*
Y9126D03*
X8594Y1427D03*
Y9126D03*
X9094Y1427D03*
Y9126D03*
G54D29*
X11245Y978D03*
Y2576D03*
X11745Y978D03*
Y2576D03*
X12245Y978D03*
Y2576D03*
X12745Y978D03*
Y2576D03*
X13245Y978D03*
Y2576D03*
G54D30*
X18070Y4806D03*
Y5003D03*
Y5199D03*
Y5396D03*
Y5593D03*
X19999Y4806D03*
Y5003D03*
Y5199D03*
Y5396D03*
Y5593D03*
G54D31*
X16882Y11103D03*
Y11261D03*
Y11418D03*
Y11576D03*
Y11733D03*
Y11891D03*
Y12048D03*
Y12206D03*
Y12363D03*
Y12521D03*
Y12678D03*
Y12836D03*
X19165Y11103D03*
Y11261D03*
Y11418D03*
Y11576D03*
Y11733D03*
Y11891D03*
Y12048D03*
Y12206D03*
Y12363D03*
Y12521D03*
Y12678D03*
Y12836D03*
G54D32*
X17157Y10828D03*
Y13111D03*
X17315Y10828D03*
Y13111D03*
X17472Y10828D03*
Y13111D03*
X17630Y10828D03*
Y13111D03*
X17787Y10828D03*
Y13111D03*
X17944Y10828D03*
Y13111D03*
X18102Y10828D03*
Y13111D03*
X18259Y10828D03*
Y13111D03*
X18417Y10828D03*
Y13111D03*
X18574Y10828D03*
Y13111D03*
X18732Y10828D03*
Y13111D03*
X18889Y10828D03*
Y13111D03*
G54D33*
X18716Y6416D03*
X19345D03*
G54D70*
X14192Y10130D03*
Y10760D03*
X14704Y10130D03*
Y10760D03*
G54D71*
X20193Y8531D03*
Y9031D03*
Y9531D03*
Y10031D03*
Y10531D03*
X21791Y8531D03*
Y9031D03*
Y9531D03*
Y10031D03*
Y10531D03*
G54D72*
X17096Y1530D03*
Y2278D03*
X18120Y1530D03*
Y1904D03*
Y2278D03*
G54D73*
X5197Y515D03*
X5591D03*
X8265Y13144D03*
X8269Y13695D03*
X8659Y13144D03*
X8663Y13695D03*
X9101Y515D03*
X9495D03*
X14982Y13391D03*
X15376D03*
X20213Y12185D03*
X20214Y12657D03*
X20388Y13142D03*
X20607Y12185D03*
X20608Y12657D03*
X20782Y13142D03*
X21866Y13013D03*
X22260D03*
M02*
