; Version : LOCAL
; Job     : H:\ZEROSERO7\PCB\SPY_TALK\PCB\PCB.pcb
; User    : DESKTOP-D6MOGOB:alexis
; Date    : Wed Dec 27 13:10:08 2017
; Format  : 3.3 / Absolute / MM / Leading
; Contents: Thru / Drill / Plated
M48
METRIC,TZ
FMAT,2
ICI,OFF
T02C0.3000
T01C1.8500
%
M71
G90
G93X0Y0
T02
X34571Y1119
X31301Y1084
X28519
X25423Y1050
X19371Y1397
X16554Y1432
X7650Y911
X4242Y945
X6000Y3000
X12557Y4209
X12875Y3361
X22971
X24000Y3000
X27000
X30000
X33000
Y6000
X30000
X27000
X24000
X21000
X14328Y7241
X8561Y5177
X9000Y9000
X15000
X18000
X18942Y9470
X21000Y9000
X24000
X27000
X30000
X33000
X35034Y8995
X35003Y10572
X34988Y12195
X33987Y11648
X12000Y12000
X7073Y12470
X3000Y12000
Y15000
X6000
X27398Y12875
X29454Y12829
X29686Y14792
X34957Y13957
X35297Y16245
X29717Y16400
X23178Y16338
X22726Y17480
X20218Y16446
X15362Y16468
X9465Y16485
X9015Y15458
X8431Y16995
X8512Y19044
X8570Y17955
X11056Y17997
Y19378
X12448Y17977
Y19378
X13859Y17977
Y19389
X24359Y18939
X24368Y20229
X25708
X25717Y18922
X26981
X26998Y20233
X30172Y19587
X34725Y17953
X35108Y19901
X34447Y22509
X26998Y21523
X25708Y21536
X24368Y21548
X13849Y20800
X12448
X11046Y20780
X9660Y22297
X918Y23414
X1398Y25284
X3175Y25300
X5154Y25315
X7225Y22965
X14073Y24699
X15859Y24698
X16284Y23290
X18000Y24000
X22707Y23218
X26607Y24243
X30000Y24000
X33000
X35038Y26614
X30830Y25501
X30000Y27000
X27000
X14067Y27641
X14029Y26113
X12473Y27173
X12472Y26091
X11727Y27907
X10791Y26092
X7680Y26472
X6146Y26463
X4173Y26438
X2276Y26430
X640Y26421
X11424Y29488
X13004Y29791
X13485Y28805
X25613Y28735
X28013Y28700
X23096Y31500
X14193Y31404
X12992Y32074
X11993Y32049
T01
X31282Y4587
T00
M30
