; Version : LOCAL
; Job     : H:\ZEROSERO7\PCB\STEALTH_DROP\PCB\PCB.pcb
; User    : DESKTOP-D6MOGOB:alexis
; Date    : Wed Dec 27 12:59:28 2017
; Format  : 3.3 / Absolute / MM / Leading
; Contents: Thru / Drill / Plated
M48
METRIC,TZ
FMAT,2
ICI,OFF
T01C0.3000
%
M71
G90
G93X0Y0
T01
X54366Y1587
X52597Y1579
X50355Y1554
X43379Y1882
X27333Y1387
X26521Y2484
X26162Y1274
X22033Y1311
X11664Y1690
X10316Y921
X8778Y785
Y2014
X8770Y3203
X8859Y4517
X47202Y3165
X47220Y4884
X48088Y5777
X43424Y7598
X22973Y6289
X20443Y6915
X18216Y6518
X14094Y6197
X12860Y5740
X12794Y7042
X8875Y6981
X8870Y5771
X872Y8864
X4043Y8928
X5267Y9958
X5298Y8870
X7219Y10016
X7278Y8853
X8842Y8301
X8864Y9561
X12791Y8315
X12805Y9594
X14841Y9321
X18712Y9378
X20731Y9402
X28555Y8970
X32039Y9737
X39788Y7727
X42459Y8225
X48288Y8152
X49549Y8798
X56471Y7790
X56272Y10524
X48958Y12491
X48053Y10379
X38729Y10714
X28146Y10863
X27464Y12133
X22980Y12095
X20936Y12073
X17310Y12291
X12765Y12114
X12754Y10849
X8864Y12135
X6725Y11832
X4978Y11797
X3268Y11783
X1084Y13320
X1931Y12781
X3342Y13483
X4491Y15139
X4976Y13466
X5985Y15123
X6717Y13475
X7495Y15115
X8853Y14638
X8864Y13401
X12725Y13397
X12780Y14677
X14093Y12715
X14761Y14537
X18133Y14584
X29037Y13414
X29074Y14683
X32039Y13251
X39268Y13957
X40867Y13193
X41881Y14496
X44268Y13190
X45462Y15157
X47948Y12706
X48838Y14168
X56308Y12932
X50248Y16282
X40735Y17052
X34569Y16085
X21221Y15257
X12816Y15898
X12780Y17229
X8815Y17185
X7634Y16842
X6080
X4565Y16781
X1183Y18729
X2606Y18717
X4940Y19018
X8831Y18495
X8864Y19732
X12794Y18498
X12860Y19734
X14294Y18261
X16918Y18384
X19835Y18176
X22909Y18569
X28638Y19003
X34569Y20032
X46455Y18361
X49106Y17859
X50063Y18926
X46929Y20673
X43887Y20721
X29999Y20620
X29703Y22667
X28979Y21526
X27695Y20476
X21894Y20640
X16103Y21315
X12893Y21036
X8842Y21020
X8815Y22323
X5745Y21162
X3397Y20344
X3052Y24359
X5083Y24924
X9172Y24723
X10394Y23539
X10478Y24647
X14231Y25182
X28549Y23727
X30989Y23987
X31878Y24008
X35836Y24378
X37196Y24412
X38438Y24675
X44600Y23944
X42573Y27419
X41480Y27906
X31644Y26953
X30049Y26491
X21236Y27489
X18607Y27930
X18013Y25606
X15298Y27390
X11577Y27163
X9170Y27692
X5868Y27130
X2502Y27707
X987Y27822
X5191Y29957
X8435Y30196
X11231Y30235
X21298Y29363
X25654Y28476
X30134Y29931
X41141Y28596
X41217Y29803
X41648Y29176
Y30431
X44386Y28994
Y30404
X45774Y29016
X45785Y30415
X47185Y28994
Y30415
X49653Y29203
X51462Y29913
X51476Y28244
X52679Y29942
X53393Y28252
X54861Y28832
X55807Y29778
X56657Y31767
X56561Y30618
X54533Y31825
X53828Y30734
X47162Y31826
X45785Y31793
X44397Y31804
X37487Y32381
X35324Y32319
X34662Y31919
X33996Y32349
X33049Y32145
X31643Y31227
X6349Y32879
X2903Y32566
X2183Y30819
X9178Y33262
X12313Y33275
X19365Y35100
X23405Y33715
X26285Y34269
X41353Y35364
X42549Y33258
X46270Y34366
X54330Y33100
X50757Y36735
X47506Y36184
X39967Y36623
X18652Y35701
X10681Y36026
X8148Y35827
X1583Y35750
X665Y39837
X3163Y39120
X6240Y39050
X9933Y39391
X12865Y39094
X14601Y39618
X16530Y38510
X18297Y39755
X36589Y39107
X39015Y39117
X42336Y39371
X45599Y38987
X48169Y39200
X50738Y38424
X50780Y39827
T00
M30
