*
G04 Job   : H:\ZEROSERO7\PCB\USB_SNIFFER\PCB\PCB.pcb*
G04 User  : DESKTOP-D6MOGOB:alexis*
G04 Layer : SolderPasteBottom.gdo*
G04 Date  : Wed Dec 27 13:25:23 2017*
G04 Mentor Graphics Example Gerber Output Definition*
%ICAS*%
%MOIN*%
%FSLAX24Y24*%
%OFA0.0000B0.0000*%
G90*
G74*
%AMVB_RECTANGLE*
21,1,$1,$2,0,0,$3*
%
%ADD10VB_RECTANGLE,0.01181X0.06299X180.00000*%
%ADD14VB_RECTANGLE,0.02362X0.03937X90.00000*%
%ADD15VB_RECTANGLE,0.02756X0.01575X0.00000*%
%ADD16VB_RECTANGLE,0.02756X0.01575X90.00000*%
%ADD12VB_RECTANGLE,0.03937X0.02362X0.00000*%
%ADD13VB_RECTANGLE,0.03937X0.02362X270.00000*%
%ADD11VB_RECTANGLE,0.06299X0.01181X180.00000*%
G01*
G54D10*
X3725Y1206D03*
Y5537D03*
X3922Y1206D03*
Y5537D03*
X4119Y1206D03*
Y5537D03*
X4316Y1206D03*
Y5537D03*
X4513Y1206D03*
Y5537D03*
X4709Y1206D03*
Y5537D03*
X4906Y1206D03*
Y5537D03*
X5103Y1206D03*
Y5537D03*
X5300Y1206D03*
Y5537D03*
X5497Y1206D03*
Y5537D03*
X5694Y1206D03*
Y5537D03*
X5890Y1206D03*
Y5537D03*
X6087Y1206D03*
Y5537D03*
X6284Y1206D03*
Y5537D03*
X6481Y1206D03*
Y5537D03*
X6678Y1206D03*
Y5537D03*
G54D11*
X3036Y1895D03*
Y2092D03*
Y2289D03*
Y2486D03*
Y2683D03*
Y2879D03*
Y3076D03*
Y3273D03*
Y3470D03*
Y3667D03*
Y3864D03*
Y4061D03*
Y4257D03*
Y4454D03*
Y4651D03*
Y4848D03*
X7367Y1895D03*
Y2092D03*
Y2289D03*
Y2486D03*
Y2683D03*
Y2879D03*
Y3076D03*
Y3273D03*
Y3470D03*
Y3667D03*
Y3864D03*
Y4061D03*
Y4257D03*
Y4454D03*
Y4651D03*
Y4848D03*
G54D12*
X7700Y6366D03*
Y6918D03*
G54D13*
X1081Y1159D03*
X1632D03*
X6496Y6796D03*
X7047D03*
G54D14*
X8347Y1650D03*
Y2024D03*
Y2398D03*
X9371Y1650D03*
Y2398D03*
G54D15*
X8622Y2874D03*
Y3268D03*
G54D16*
X7686Y5808D03*
X8080D03*
X11612Y5499D03*
X11625Y5023D03*
X12005Y5499D03*
X12019Y5023D03*
M02*
