*
G04 Job   : H:\ZEROSERO7\PCB\STEALTH_DROP\PCB\PCB.pcb*
G04 User  : DESKTOP-D6MOGOB:alexis*
G04 Layer : SolderPasteBottom.gdo*
G04 Date  : Wed Dec 27 12:59:54 2017*
G04 Mentor Graphics Example Gerber Output Definition*
%ICAS*%
%MOIN*%
%FSLAX24Y24*%
%OFA0.0000B0.0000*%
G90*
G74*
%AMVB_RECTANGLE*
21,1,$1,$2,0,0,$3*
%
%ADD18VB_RECTANGLE,0.01181X0.06299X0.00000*%
%ADD12VB_RECTANGLE,0.01772X0.06299X180.00000*%
%ADD16VB_RECTANGLE,0.02756X0.01575X180.00000*%
%ADD11VB_RECTANGLE,0.02756X0.01575X270.00000*%
%ADD10VB_RECTANGLE,0.03543X0.03150X0.00000*%
%ADD15VB_RECTANGLE,0.03543X0.03150X270.00000*%
%ADD17VB_RECTANGLE,0.03937X0.02362X180.00000*%
%ADD70VB_RECTANGLE,0.03937X0.02362X90.00000*%
%ADD71VB_RECTANGLE,0.03937X0.03150X180.00000*%
%ADD13VB_RECTANGLE,0.05906X0.08661X180.00000*%
%ADD19VB_RECTANGLE,0.06299X0.01181X0.00000*%
%ADD14VB_RECTANGLE,0.07480X0.20866X90.00000*%
G01*
G54D10*
X12509Y14142D03*
Y14575D03*
X13060Y14142D03*
Y14575D03*
G54D11*
X5994Y9913D03*
X6388D03*
X10346Y12577D03*
X10739D03*
X16307Y9555D03*
X16701D03*
G54D12*
X13823Y1660D03*
X14079D03*
X14335D03*
X14590D03*
X14846D03*
G54D13*
X13272Y1557D03*
X15398D03*
G54D14*
X13163Y612D03*
X15508D03*
G54D15*
X17614Y3206D03*
X17988Y2419D03*
X18362Y3206D03*
G54D16*
X11697Y13304D03*
Y13698D03*
X12058Y14578D03*
Y14971D03*
X13497Y14165D03*
Y14559D03*
X16304Y12271D03*
Y12664D03*
X16754Y13373D03*
Y13767D03*
G54D17*
X16006Y3883D03*
Y4434D03*
X16768Y3872D03*
Y4423D03*
X16769Y1727D03*
Y2278D03*
X19584Y2264D03*
Y2816D03*
X20702Y2253D03*
Y2804D03*
X21411Y2253D03*
Y2804D03*
G54D18*
X12006Y8930D03*
Y13260D03*
X12203Y8930D03*
Y13260D03*
X12400Y8930D03*
Y13260D03*
X12597Y8930D03*
Y13260D03*
X12794Y8930D03*
Y13260D03*
X12991Y8930D03*
Y13260D03*
X13188Y8930D03*
Y13260D03*
X13384Y8930D03*
Y13260D03*
X13581Y8930D03*
Y13260D03*
X13778Y8930D03*
Y13260D03*
X13975Y8930D03*
Y13260D03*
X14172Y8930D03*
Y13260D03*
X14369Y8930D03*
Y13260D03*
X14566Y8930D03*
Y13260D03*
X14762Y8930D03*
Y13260D03*
X14959Y8930D03*
Y13260D03*
G54D19*
X11317Y9619D03*
Y9815D03*
Y10012D03*
Y10209D03*
Y10406D03*
Y10603D03*
Y10800D03*
Y10996D03*
Y11193D03*
Y11390D03*
Y11587D03*
Y11784D03*
Y11981D03*
Y12178D03*
Y12374D03*
Y12571D03*
X15648Y9619D03*
Y9815D03*
Y10012D03*
Y10209D03*
Y10406D03*
Y10603D03*
Y10800D03*
Y10996D03*
Y11193D03*
Y11390D03*
Y11587D03*
Y11784D03*
Y11981D03*
Y12178D03*
Y12374D03*
Y12571D03*
G54D70*
X4466Y9915D03*
X5017D03*
X14351Y14096D03*
X14902D03*
X16388Y10146D03*
X16939D03*
G54D71*
X17554Y3895D03*
X18380D03*
M02*
